<svg width="208" height="268" viewBox="0 0 208 268" fill="none" xmlns="http://www.w3.org/2000/svg">
<g clip-path="url(#clip0_94_10907)">
<path d="M130.211 209.029C129.084 193.065 110.107 175.787 104.47 170.528C98.8329 165.27 99.2087 158.509 99.2087 158.509L89.4382 154.753L79.6676 158.509C79.6676 158.509 80.0434 165.458 74.4065 170.528C68.7697 175.787 49.6044 193.065 48.6649 209.029C47.5375 224.992 53.7381 238.139 64.8239 243.961C74.0308 248.844 84.9287 249.032 88.3108 248.844C89.0624 248.844 89.814 248.844 90.5655 248.844C93.9477 248.844 104.846 248.844 114.052 243.961C125.138 237.951 131.339 224.805 130.211 209.029Z" fill="#FFD261"/>
<path opacity="0.5" d="M80.0434 158.697C80.0434 158.697 83.9892 158.884 90.0019 158.884C96.0145 158.884 98.6451 158.884 98.6451 158.884C98.6451 158.884 98.6451 160.575 99.0208 161.701C99.3966 162.828 99.3966 163.016 99.3966 163.016C99.3966 163.016 97.5177 166.397 88.8745 168.087C80.2313 169.777 77.0371 167.711 77.0371 167.711C77.0371 167.711 78.9161 165.27 79.4797 162.828C80.2313 160.575 80.0434 158.697 80.0434 158.697Z" fill="#E2A01B"/>
<path opacity="0.5" d="M128.52 223.302C128.52 223.302 124.762 239.078 109.919 244.9C94.8871 250.722 76.6613 248.093 66.8908 243.773C57.1202 239.453 52.6107 231.19 51.1076 225.368C49.6044 219.734 49.4165 214.475 49.4165 214.475C49.4165 214.475 57.6839 236.448 92.2566 235.322C127.017 234.57 128.52 223.302 128.52 223.302Z" fill="#F4B831"/>
<path d="M145.243 95.0302C139.418 89.0203 135.66 88.6447 133.218 75.1227C130.775 61.6006 125.702 40.5662 111.422 28.3588C97.3298 16.1514 68.2061 21.0344 68.2061 21.0344C68.2061 21.0344 39.0823 25.3539 29.3118 41.3175C19.5412 57.281 21.2323 78.8788 23.1112 92.4009C24.9902 106.111 21.6081 107.425 17.8502 114.938C14.0923 122.45 11.086 138.038 32.3181 153.062C53.5503 168.087 90.1898 160.199 90.1898 160.199C90.1898 160.199 127.393 156.443 142.988 135.596C158.772 114.938 151.068 101.04 145.243 95.0302Z" fill="#FFD261"/>
<path opacity="0.5" d="M151.631 110.43C151.631 110.43 151.819 129.211 133.593 143.484C115.368 157.57 85.3044 160.762 70.4606 161.138C55.6169 161.514 35.3242 157.945 24.99 145.738C14.6557 133.53 15.971 123.201 16.9105 120.008C17.85 116.816 19.7289 114.374 19.7289 114.374C19.7289 114.374 15.4073 131.465 40.9611 142.357C66.5148 153.25 111.985 144.987 128.144 136.535C144.116 128.084 151.631 110.43 151.631 110.43Z" fill="#F4B831"/>
<path d="M50.9198 28.9222C50.9198 28.9222 47.3497 26.1051 48.665 20.6587C50.1682 15.2124 54.4898 12.7709 54.4898 12.7709C54.4898 12.7709 53.1745 15.7758 53.5503 17.6538C53.9261 19.5319 54.8656 21.41 54.8656 21.41C54.8656 21.41 55.6171 11.4562 69.7093 4.13176C83.8014 -3.00489 95.8267 1.31466 95.8267 1.31466C95.8267 1.31466 86.4319 1.69028 81.7346 6.19763C77.0372 10.8928 75.7219 18.7807 75.7219 18.7807C75.7219 18.7807 78.1646 13.1465 84.7409 11.644C91.5051 10.1416 98.833 15.0245 98.833 15.0245C98.833 15.0245 94.3236 14.0855 90.002 16.527C85.8683 18.9685 85.1167 23.288 85.1167 23.288C85.1167 23.288 69.8972 33.4296 50.9198 28.9222Z" fill="#FFD261"/>
<path d="M98.8327 15.2123C98.8327 15.2123 93.1958 13.8977 88.3105 16.9026C83.6131 19.7197 85.8679 21.7856 80.9826 24.9783C76.2852 28.171 73.4668 28.7344 73.4668 28.7344C73.4668 28.7344 80.7947 28.171 84.1768 24.9783C87.5589 21.9734 86.2437 18.7807 90.3774 17.0904C94.699 15.2123 98.8327 15.2123 98.8327 15.2123Z" fill="#F4B831"/>
<path d="M95.8267 1.31469C95.8267 1.31469 85.1167 -0.938989 78.5403 7.13669C71.964 15.2124 74.4066 23.4759 74.4066 23.4759C74.4066 23.4759 79.6677 7.70011 85.1167 4.88302C90.5656 2.06592 95.8267 1.31469 95.8267 1.31469Z" fill="#F4B831"/>
<path d="M54.6772 12.7709C54.6772 12.7709 53.5499 15.588 54.3014 18.5929C55.053 21.5978 56.7441 23.288 56.7441 23.288C56.7441 23.288 53.5499 21.5978 53.1741 18.5929C52.6104 15.2124 54.6772 12.7709 54.6772 12.7709Z" fill="#F4B831"/>
<path d="M49.0406 19.9075C49.0406 19.9075 47.9132 24.9782 52.6106 28.171C57.308 31.3637 65.7633 30.4246 65.7633 30.4246C65.7633 30.4246 59.7506 33.6174 52.9864 29.4856C46.2222 25.3539 48.4769 21.2221 49.0406 19.9075Z" fill="#F4B831"/>
<path opacity="0.23" d="M123.823 96.7204C124.199 99.5375 119.877 102.355 114.052 103.294C108.228 104.233 103.154 102.73 102.779 99.9131C102.403 97.096 106.724 94.2789 112.549 93.3399C118.186 92.4009 123.259 93.9033 123.823 96.7204Z" fill="#EA512D"/>
<path opacity="0.23" d="M40.0218 109.867C40.3976 112.684 45.4707 113.999 51.2955 113.247C57.1202 112.308 61.4418 109.303 61.066 106.674C60.6903 103.857 55.6171 102.542 49.7923 103.294C43.9676 104.233 39.646 107.05 40.0218 109.867Z" fill="#EA512D"/>
<path d="M96.5786 109.303C95.0754 105.923 93.948 98.7862 90.378 96.9082C86.808 95.0301 80.7954 96.9082 80.7954 96.9082C80.7954 96.9082 74.4069 96.9082 71.7764 99.9131C69.1459 102.918 70.2732 110.055 70.0853 113.811C69.7095 117.379 62.9453 119.257 62.9453 119.257C62.9453 119.257 68.0185 121.886 68.958 122.45C69.8974 123.201 72.528 126.394 76.2859 130.526C80.0438 134.845 87.1838 134.282 87.1838 134.282C87.1838 134.282 94.1359 132.404 96.3907 127.145C98.6454 121.886 99.9607 117.943 100.524 117.003C101.276 116.064 105.034 111.933 105.034 111.933C105.034 111.933 97.8938 112.496 96.5786 109.303Z" fill="#960F0F"/>
<path d="M90.1898 109.303C86.4319 104.421 77.7887 105.735 75.9097 111.557V111.745C74.4066 116.628 79.6677 120.008 79.6677 120.008L84.1771 117.004L89.2503 118.318C89.2503 118.318 93.1961 113.435 90.1898 109.303Z" fill="#660E0E"/>
<path d="M99.9603 117.003C97.5176 119.445 97.7055 124.14 95.6387 128.46C93.5718 132.591 87.5592 137.474 87.5592 137.474C87.5592 137.474 80.2313 135.033 76.8491 131.652C73.6549 128.272 72.1518 123.765 69.1454 122.262C65.9512 120.76 64.0723 121.323 64.0723 121.323C64.0723 121.323 67.8302 123.201 69.897 125.83C71.776 128.647 73.6549 134.282 75.346 136.911C76.8491 139.728 79.8555 141.418 82.2981 141.982C84.5528 142.545 88.4986 141.982 88.4986 141.982C88.4986 141.982 92.2566 141.231 94.3234 140.104C96.3902 138.977 98.645 136.16 99.2087 133.155C99.7724 129.962 99.7724 124.14 100.712 120.947C101.651 117.755 104.658 114.75 104.658 114.75C104.658 114.75 102.403 114.562 99.9603 117.003Z" fill="#D85412"/>
<path d="M104.47 110.242C102.027 110.618 100.148 111.557 98.6452 109.116C97.1421 106.674 97.7057 98.9741 91.6931 94.2789C85.6805 89.396 79.6678 90.7106 79.6678 90.7106C79.6678 90.7106 73.4673 91.4618 69.5215 98.0351C65.3878 104.608 68.582 111.557 67.8304 114.374C67.0788 117.191 65.1999 116.816 62.5693 117.379C60.1267 117.943 62.0057 119.257 62.1935 119.445C62.5693 119.633 67.2667 120.384 69.8973 117.004C72.7157 113.623 72.152 105.172 73.4673 101.791C74.7825 98.4107 80.6073 97.096 80.6073 97.096C80.6073 97.096 86.432 96.3448 88.8747 99.1619C91.3173 101.979 93.572 110.055 97.33 112.308C101.088 114.562 105.222 112.308 105.409 112.121C105.785 111.745 107.1 109.867 104.47 110.242Z" fill="#FC9651"/>
<path d="M105.409 111.933L103.718 112.684C103.718 112.684 99.021 115.313 97.8936 117.567C96.7662 119.821 95.8267 126.018 93.7599 128.648C91.693 131.277 86.8078 131.84 86.8078 131.84C86.8078 131.84 81.9225 132.967 79.1041 131.089C76.2856 129.587 73.2793 123.952 71.4004 122.262C69.5214 120.572 64.2603 119.445 64.2603 119.445L62.3814 119.257C62.3814 119.257 61.8177 119.257 62.3814 120.009C62.9451 120.948 65.0119 121.511 68.2061 123.013C71.4004 124.516 73.0914 129.587 76.0977 134.094C78.9162 138.601 87.5593 137.287 87.5593 137.287C87.5593 137.287 96.2025 135.596 97.5178 130.526C98.6452 125.267 98.6452 119.821 101.276 117.379C103.906 114.938 105.597 113.623 105.785 112.684C105.973 111.745 105.409 111.933 105.409 111.933Z" fill="#FC9651"/>
<path d="M92.4447 117.004C89.0626 116.064 84.1773 117.004 84.1773 117.004C84.1773 117.004 79.2921 117.755 76.2857 119.633C73.2794 121.511 72.5278 122.826 72.5278 122.826C72.5278 122.826 74.2189 125.079 75.1584 126.394C76.0978 127.896 78.1647 130.713 80.6073 131.465C83.05 132.216 86.62 131.652 86.62 131.652C86.62 131.652 90.3779 131.089 92.2568 129.587C94.3237 128.084 95.2632 124.704 95.639 123.013C96.0147 121.323 96.9542 118.694 96.9542 118.694C96.9542 118.694 95.8268 117.943 92.4447 117.004Z" fill="#E52C2C"/>
<path opacity="0.22" d="M81.3586 118.318C81.3586 118.318 85.3044 117.191 89.2502 117.755C93.196 118.13 93.3839 120.572 93.0082 122.638C92.8203 124.704 90.7534 128.835 88.1229 129.023C85.4923 129.399 88.6866 123.201 86.2439 121.323C83.8013 119.445 77.4128 120.196 81.3586 118.318Z" fill="#FDFDFD"/>
<path d="M75.5342 92.5887C75.5342 92.5887 77.601 91.2741 80.0437 90.8984C82.6742 90.5228 83.6137 91.0862 83.6137 91.2741C83.8016 91.4619 83.8016 91.6497 80.9831 91.6497C78.1647 91.4619 75.5342 92.5887 75.5342 92.5887Z" fill="#FDFDFD"/>
<path d="M84.553 91.0862C84.553 91.0862 85.4925 91.0862 85.8683 91.4618C86.432 91.6496 86.2441 91.8374 85.8683 92.0252C85.6804 92.0252 84.3651 91.6496 84.1772 91.6496C84.1772 91.4618 84.1772 91.0862 84.553 91.0862Z" fill="#FDFDFD"/>
<path d="M91.3175 94.4667C91.3175 94.4667 92.8206 95.4058 94.3238 97.8473C95.827 100.289 96.3906 102.73 96.5785 103.294C96.7664 103.669 96.2027 103.857 95.6391 102.542C95.0754 101.228 94.3238 99.1619 93.3843 97.8473C92.257 96.3448 90.7538 95.0302 90.7538 94.6546C90.5659 93.9033 91.3175 94.4667 91.3175 94.4667Z" fill="#FDFDFD"/>
<path d="M96.7664 104.42C96.7664 104.42 97.33 106.111 97.33 106.486C97.33 106.862 97.1421 106.862 96.7664 106.299C96.5785 105.547 96.2027 104.608 96.3906 104.42C96.3906 104.045 96.7664 104.233 96.7664 104.42Z" fill="#FDFDFD"/>
<path d="M99.5846 110.43C99.5846 110.43 100.336 110.994 101.839 110.806C103.342 110.618 104.094 110.43 104.47 110.43C104.846 110.43 102.967 111.182 101.464 111.182C99.7725 111.182 99.3967 110.994 99.0209 110.618C98.6451 110.243 99.2088 110.055 99.5846 110.43Z" fill="#FDFDFD"/>
<path d="M99.9606 115.877C99.9606 115.877 98.6453 116.816 98.0816 117.943C97.5179 119.069 96.7663 121.511 96.9542 121.699C97.1421 121.887 97.5179 121.511 97.7058 120.572C97.8937 119.445 98.0816 118.694 98.8332 117.755C99.5848 116.816 100.336 116.064 100.524 115.689C100.9 114.938 99.9606 115.877 99.9606 115.877Z" fill="#FDFDFD"/>
<path d="M96.7662 122.45C96.7662 122.45 96.2025 124.516 96.0146 124.891C96.0146 125.267 96.3904 125.455 96.7662 124.704C97.142 123.952 97.3299 122.45 97.3299 122.262C97.3299 122.074 96.9541 121.887 96.7662 122.45Z" fill="#FDFDFD"/>
<path d="M94.1356 129.023C94.1356 129.023 93.384 130.526 91.1293 131.277C89.0624 132.216 87.9351 132.404 86.9956 132.592C86.0561 132.779 86.244 133.718 87.9351 133.343C89.814 132.967 91.5051 132.779 93.0082 131.089C94.5114 129.587 94.5114 128.46 94.5114 128.272C94.5114 128.46 94.1356 129.023 94.1356 129.023Z" fill="#FDFDFD"/>
<path d="M83.2379 132.967C83.2379 132.967 84.5532 132.967 84.929 132.967C85.3048 133.155 85.3048 133.718 84.1774 133.718C83.05 133.718 82.4864 133.718 82.2985 133.343C82.1106 132.967 83.2379 132.967 83.2379 132.967Z" fill="#FDFDFD"/>
<path opacity="0.71" d="M78.3527 119.445C79.2922 118.882 80.9832 117.755 86.9959 117.567C93.0085 117.379 93.948 118.318 94.1359 118.882C94.3238 119.445 93.3843 118.694 88.3111 118.318C83.238 118.13 79.2922 119.633 78.5406 119.633C77.9769 119.821 78.3527 119.445 78.3527 119.445Z" fill="#FDFDFD"/>
<path d="M56.1809 100.101C56.1809 100.101 54.3019 89.9594 45.283 90.7107C36.264 91.6497 39.0824 100.852 39.0824 100.852C39.0824 100.852 38.143 101.791 36.6398 101.416C35.1366 101.04 35.1366 100.101 35.1366 100.101C35.1366 100.101 34.0093 101.603 36.6398 102.167C39.2703 102.73 42.8403 101.791 42.8403 101.791C42.8403 101.791 39.6461 93.7156 45.8467 92.7765C51.8593 92.0253 55.2414 99.9132 55.6172 100.101C55.993 100.289 56.1809 100.101 56.1809 100.101Z" fill="#212121"/>
<path d="M105.973 92.4008C105.973 92.4008 105.034 82.0714 113.865 80.3812C122.696 78.6909 122.696 88.269 122.696 88.269C122.696 88.269 123.823 88.8325 125.326 88.0812C126.642 87.33 126.454 86.391 126.454 86.391C126.454 86.391 127.957 87.5178 125.514 88.8325C123.072 90.1471 119.314 90.1471 119.314 90.1471C119.314 90.1471 120.065 81.508 113.865 82.2592C107.852 83.1983 106.913 91.8374 106.537 92.0252C106.349 92.5886 105.973 92.4008 105.973 92.4008Z" fill="#212121"/>
<path d="M111.986 165.082C111.986 165.082 133.781 168.65 145.055 156.631C156.141 144.799 150.88 130.526 156.892 125.643C162.905 120.76 183.386 110.806 189.398 104.233C195.411 97.6595 198.417 91.4619 203.115 92.7765C207.624 94.0912 210.067 102.73 201.236 114.186C192.405 125.643 187.895 128.835 187.895 128.835C187.895 128.835 197.478 124.891 201.048 122.074C204.618 119.257 209.879 122.45 207.624 129.587C205.557 136.723 190.902 143.297 187.144 144.799C183.386 146.301 182.07 146.677 182.07 146.677C182.07 146.677 186.768 146.677 190.902 145.55C195.035 144.611 198.605 148.931 192.78 156.067C187.144 163.204 175.494 163.58 175.494 163.58C175.494 163.58 184.513 165.645 179.816 173.346C175.306 181.046 163.281 176.538 163.281 176.538C163.281 176.538 164.408 184.238 157.644 187.243C150.88 190.248 144.491 183.487 144.491 183.487C144.491 183.487 142.049 192.126 139.042 191.751C136.036 191.375 133.03 185.929 133.03 185.929C133.03 185.929 128.708 191.375 125.326 189.497C122.132 187.431 121.005 183.299 121.005 183.299C121.005 183.299 121.38 185.177 118.562 184.614C115.931 184.051 114.428 179.731 114.428 179.731C114.428 179.731 107.664 173.721 106.912 169.777C105.785 165.645 110.107 163.767 111.986 165.082Z" fill="#FFB92E"/>
<path d="M200.484 122.826C200.484 122.826 202.739 120.76 205.37 121.886C208 123.013 209.315 129.962 202.739 135.596C196.163 141.231 185.265 145.738 180.192 147.24C175.118 148.743 161.778 149.494 161.778 149.494C161.778 149.494 180.943 146.865 192.405 138.038C203.866 129.211 204.806 123.952 200.484 122.826Z" fill="#EA9F1B"/>
<path d="M152.383 157.57C152.383 157.57 167.039 164.143 175.87 163.204C184.889 162.453 189.586 159.448 193.156 154.94C196.538 150.433 195.223 145.738 192.029 145.926C188.834 146.114 185.64 146.489 185.64 146.489C185.64 146.489 190.15 146.865 187.895 151.56C185.64 156.631 168.354 162.641 152.383 157.57Z" fill="#EA9F1B"/>
<path d="M145.807 164.331C145.807 164.331 156.517 174.097 163.093 176.35C169.669 178.604 175.306 178.604 178.688 174.285C182.07 169.965 179.816 166.584 177.937 165.458C176.058 164.143 174.179 163.955 174.179 163.955C174.179 163.955 176.058 171.655 166.099 172.031C156.141 172.406 145.807 164.331 145.807 164.331Z" fill="#EA9F1B"/>
<path d="M135.473 170.528C135.473 170.528 140.546 181.233 146.371 184.99C152.195 188.746 157.081 188.558 160.087 185.177C163.093 181.609 162.53 176.726 162.53 176.726C162.53 176.726 159.899 185.365 150.88 182.36C141.673 179.543 135.473 170.528 135.473 170.528Z" fill="#EA9F1B"/>
<path d="M129.46 169.214C129.46 169.214 129.46 180.67 133.03 186.116C136.6 191.563 139.043 192.69 140.734 190.436C142.425 188.37 143.928 183.675 143.928 183.675C143.928 183.675 141.109 189.309 136.224 185.929C131.527 182.924 129.46 169.214 129.46 169.214Z" fill="#EA9F1B"/>
<path d="M120.253 171.28C120.253 171.28 119.501 180.67 121.38 184.99C123.259 189.309 126.453 191.187 129.084 189.309C131.715 187.431 132.842 186.304 132.842 186.304L131.527 183.299C131.527 183.299 130.024 187.807 126.266 185.553C122.508 183.299 120.253 171.28 120.253 171.28Z" fill="#EA9F1B"/>
<path d="M197.854 95.2181C197.854 95.2181 201.048 91.6497 204.618 94.279C208.188 96.9083 207.436 104.984 201.424 113.247C195.223 121.511 191.653 125.079 186.016 129.962C180.38 134.657 161.026 141.418 161.026 141.418C161.026 141.418 181.319 130.714 191.09 117.379C200.86 104.045 204.242 98.0352 197.854 95.2181Z" fill="#EA9F1B"/>
<path d="M195.411 97.0961L197.102 95.218L199.357 102.918L198.041 107.05C198.041 107.05 196.914 108.928 195.787 110.618C194.659 112.308 195.411 97.0961 195.411 97.0961Z" fill="#FFB92E"/>
<path d="M64.4482 181.046C64.4482 181.046 59.1871 177.102 55.9929 181.046C52.7987 184.99 46.4102 189.685 39.8339 208.278C33.2576 226.87 27.057 237.2 18.9775 241.144C10.898 245.275 -2.81831 247.153 0.375912 250.722C3.57013 254.29 18.226 251.849 18.226 251.849C18.226 251.849 13.5286 257.858 24.8023 256.919C36.076 255.98 47.7255 243.397 54.1139 225.744C60.5024 208.278 68.2061 185.929 64.4482 181.046Z" fill="#F4B11C"/>
<path d="M64.824 185.553C64.824 185.553 64.4482 192.877 60.6903 204.897C56.9324 216.917 51.1077 231.378 51.1077 231.378C51.1077 231.378 36.0761 252.788 30.6271 255.041C25.1781 257.295 20.4808 257.295 18.6018 255.98C16.7229 254.666 18.7897 251.661 18.7897 251.661C18.7897 251.661 11.086 253.351 5.82494 252.6C0.751767 251.849 0.375977 250.91 0.375977 249.595C0.375977 248.28 4.50967 246.778 4.50967 246.778C4.50967 246.778 0.751768 250.534 8.45547 250.722C16.1592 250.91 26.1176 247.717 26.1176 247.717C26.1176 247.717 19.7292 251.285 22.3597 253.915C24.9902 256.544 32.694 250.158 32.694 250.158C32.694 250.158 52.6108 218.419 57.8719 206.4C62.9451 194.192 64.824 185.553 64.824 185.553Z" fill="#E89E0A"/>
<path d="M161.214 228.561L154.45 227.434L155.577 212.785C155.577 212.785 151.444 213.16 149.941 213.912C148.437 214.475 144.867 216.729 143.176 216.165C141.485 215.602 142.425 206.024 142.425 206.024C142.425 206.024 141.109 206.024 138.291 207.902C135.473 209.968 126.829 224.241 122.132 234.946C117.435 245.651 114.804 257.295 118.562 262.741C122.32 268.188 130.775 267.812 130.775 267.812L161.214 228.561Z" fill="#CE3517"/>
<path d="M136.976 213.724C136.976 213.724 119.125 253.727 124.011 263.868C127.769 271.756 137.915 268.188 147.873 256.168C157.644 244.149 162.529 233.819 162.717 231.753C163.469 225.18 155.577 232.129 155.013 229.5C154.45 226.87 159.147 215.414 156.141 213.16C154.826 212.221 146.37 219.358 144.303 218.043C142.237 216.917 146.37 205.648 142.424 206.212C139.982 206.399 136.976 213.724 136.976 213.724Z" fill="#F46D22"/>
<path d="M154.638 213.16C154.638 213.16 145.055 218.607 144.304 217.48C143.364 216.353 144.116 211.846 144.116 211.846C144.116 211.846 142.613 216.541 144.304 218.419C145.807 220.297 154.638 213.16 154.638 213.16Z" fill="#FFEECC"/>
<path d="M160.65 228.561C160.65 228.561 155.953 229.875 155.389 229.312C155.013 228.748 155.577 224.804 155.577 224.804C155.577 224.804 154.074 228.936 155.013 230.251C156.141 231.753 160.65 228.561 160.65 228.561Z" fill="#FFEECC"/>
<path d="M140.921 206.963C140.921 206.963 136.412 213.16 130.963 229.124C125.514 245.088 123.635 253.914 123.635 253.914C123.635 253.914 124.011 245.463 130.775 227.997C137.351 210.343 139.23 209.216 140.921 206.963Z" fill="#FFEECC"/>
<path d="M161.778 229.5C161.778 229.5 162.717 230.814 160.462 235.697C158.208 240.58 149.752 252.788 145.994 256.544C142.236 260.3 134.345 268.188 128.708 265.934C123.071 263.68 124.762 252.788 124.762 252.788C124.762 252.788 128.332 259.736 135.66 256.544C142.988 253.351 154.825 231.378 154.825 231.378C154.825 231.378 155.953 232.504 157.832 231.378C159.711 230.251 161.026 228.748 161.778 229.5Z" fill="#EA512D"/>
<path d="M117.998 262.178C117.811 261.615 108.228 243.961 108.228 243.961C108.228 243.961 106.725 241.519 109.355 238.514C111.986 235.51 115.18 237.575 115.932 238.514C116.871 239.453 120.817 246.966 120.817 246.966L117.998 262.178Z" fill="#CE3517"/>
<path d="M14.8438 228.561L21.608 227.434L20.4806 212.785C20.4806 212.785 24.6143 213.16 26.1175 213.912C27.6206 214.475 31.1906 216.729 32.8817 216.165C34.5727 215.602 33.6333 206.024 33.6333 206.024C33.6333 206.024 34.9485 206.024 37.767 207.902C40.5854 209.968 49.2286 224.241 53.926 234.946C58.6233 245.651 61.2539 257.295 57.496 262.741C53.7381 268.188 45.2828 267.812 45.2828 267.812L14.8438 228.561Z" fill="#CE3517"/>
<path d="M39.2701 213.724C39.2701 213.724 57.1201 253.727 52.2349 263.868C48.477 271.756 38.3306 268.188 28.3722 256.168C18.6016 244.149 13.7163 233.819 13.5284 231.753C12.7769 225.18 20.6685 232.129 21.2321 229.5C21.7958 226.87 17.0985 215.414 20.1048 213.161C21.42 212.221 29.8753 219.358 31.9422 218.043C34.009 216.729 29.8753 205.648 33.8211 206.212C36.0759 206.399 39.2701 213.724 39.2701 213.724Z" fill="#F46D22"/>
<path d="M21.4199 213.161C21.4199 213.161 31.0026 218.607 31.7542 217.48C32.6936 216.353 31.9421 211.846 31.9421 211.846C31.9421 211.846 33.4452 216.541 31.7542 218.419C30.251 220.297 21.4199 213.161 21.4199 213.161Z" fill="#FFEECC"/>
<path d="M15.4072 228.561C15.4072 228.561 20.1046 229.875 20.6683 229.312C21.0441 228.749 20.4804 224.805 20.4804 224.805C20.4804 224.805 21.9836 228.936 21.0441 230.251C19.9167 231.753 15.4072 228.561 15.4072 228.561Z" fill="#FFEECC"/>
<path d="M35.3242 206.963C35.3242 206.963 39.8337 213.161 45.2827 229.124C50.7316 245.088 52.6106 253.915 52.6106 253.915C52.6106 253.915 52.2348 245.463 45.4706 227.997C38.7063 210.343 37.0153 209.217 35.3242 206.963Z" fill="#FFEECC"/>
<path d="M14.28 229.5C14.28 229.5 13.3406 230.814 15.5953 235.697C17.8501 240.58 26.3053 252.788 30.0632 256.544C33.8211 260.3 41.7127 268.188 47.3496 265.934C52.9865 263.681 51.2954 252.788 51.2954 252.788C51.2954 252.788 47.7254 259.737 40.3975 256.544C33.0696 253.351 21.2322 231.378 21.2322 231.378C21.2322 231.378 20.1048 232.505 18.2258 231.378C16.5348 230.063 15.0316 228.749 14.28 229.5Z" fill="#EA512D"/>
<path d="M58.2476 262.178C58.4355 261.615 68.0182 243.961 68.0182 243.961C68.0182 243.961 69.5213 241.519 66.8908 238.514C64.2603 235.51 61.0661 237.575 60.3145 238.514C59.375 239.453 55.4292 246.966 55.4292 246.966L58.2476 262.178Z" fill="#CE3517"/>
<path d="M82.674 167.336L80.4193 182.548C80.4193 182.548 76.2856 181.421 74.0309 177.665C71.7761 173.909 78.3525 164.894 78.3525 164.894C78.3525 164.894 77.9767 166.209 82.674 167.336Z" fill="#F5EFF3"/>
<path d="M95.6392 167.336L97.8939 182.548C97.8939 182.548 102.028 181.421 104.282 177.665C106.537 173.909 99.9607 164.894 99.9607 164.894C99.9607 164.894 100.337 166.209 95.6392 167.336Z" fill="#F5EFF3"/>
<path d="M97.1423 164.706C97.1423 164.706 107.852 156.255 117.435 155.316C119.126 155.128 120.441 156.443 120.441 158.133V183.675C120.441 185.177 118.938 186.304 117.435 185.741C111.422 183.675 100.524 178.98 95.6392 175.975L97.1423 164.706Z" fill="#35ACE1"/>
<path d="M82.4864 164.706C82.4864 164.706 82.2985 158.697 64.0726 155.504C62.9453 155.316 62.0058 156.067 62.0058 157.194L60.8784 183.111C60.8784 184.989 62.5695 186.304 64.2605 185.741C68.5821 184.238 75.7221 181.609 80.4195 178.98C81.9227 178.041 82.8622 176.35 82.8622 174.472L82.4864 164.706Z" fill="#35ACE1"/>
<path d="M67.8306 163.579C67.8306 163.579 80.4195 166.96 80.4195 167.899C80.4195 168.838 71.0248 165.645 67.8306 163.579Z" fill="#169DCE"/>
<path d="M80.4195 171.092C80.4195 171.092 72.9037 170.716 67.8305 176.35C62.7573 181.985 68.3942 176.914 69.3337 175.975C70.2732 175.036 73.2795 172.782 76.4737 172.594C79.48 172.406 83.05 172.219 80.4195 171.092Z" fill="#169DCE"/>
<path d="M108.604 163.392C108.604 163.392 96.0146 166.772 96.0146 167.711C96.0146 168.65 105.409 165.458 108.604 163.392Z" fill="#169DCE"/>
<path d="M96.015 170.904C96.015 170.904 103.531 170.528 108.604 176.163C113.677 181.797 108.04 176.726 107.101 175.787C106.161 174.848 103.155 172.594 99.9608 172.406C96.9545 172.219 93.3845 172.031 96.015 170.904Z" fill="#169DCE"/>
<path d="M64.8244 172.406C65.7583 172.406 66.5154 171.65 66.5154 170.716C66.5154 169.783 65.7583 169.026 64.8244 169.026C63.8904 169.026 63.1333 169.783 63.1333 170.716C63.1333 171.65 63.8904 172.406 64.8244 172.406Z" fill="#7ACFE8"/>
<path d="M116.683 172.782C117.617 172.782 118.374 172.025 118.374 171.092C118.374 170.158 117.617 169.401 116.683 169.401C115.749 169.401 114.992 170.158 114.992 171.092C114.992 172.025 115.749 172.782 116.683 172.782Z" fill="#7ACFE8"/>
<path d="M113.301 182.548C114.235 182.548 114.992 181.791 114.992 180.858C114.992 179.924 114.235 179.167 113.301 179.167C112.367 179.167 111.61 179.924 111.61 180.858C111.61 181.791 112.367 182.548 113.301 182.548Z" fill="#7ACFE8"/>
<path d="M69.1456 181.421C70.0796 181.421 70.8367 180.664 70.8367 179.731C70.8367 178.797 70.0796 178.041 69.1456 178.041C68.2117 178.041 67.4546 178.797 67.4546 179.731C67.4546 180.664 68.2117 181.421 69.1456 181.421Z" fill="#7ACFE8"/>
<path d="M70.8368 164.143C71.5632 164.143 72.152 163.554 72.152 162.828C72.152 162.102 71.5632 161.514 70.8368 161.514C70.1104 161.514 69.5215 162.102 69.5215 162.828C69.5215 163.554 70.1104 164.143 70.8368 164.143Z" fill="#7ACFE8"/>
<path d="M108.604 163.767C109.33 163.767 109.919 163.179 109.919 162.453C109.919 161.727 109.33 161.138 108.604 161.138C107.877 161.138 107.289 161.727 107.289 162.453C107.289 163.179 107.877 163.767 108.604 163.767Z" fill="#7ACFE8"/>
<path d="M102.967 164.894C103.694 164.894 104.282 164.306 104.282 163.58C104.282 162.853 103.694 162.265 102.967 162.265C102.241 162.265 101.652 162.853 101.652 163.58C101.652 164.306 102.241 164.894 102.967 164.894Z" fill="#7ACFE8"/>
<path d="M102.967 176.163C103.694 176.163 104.282 175.574 104.282 174.848C104.282 174.122 103.694 173.533 102.967 173.533C102.241 173.533 101.652 174.122 101.652 174.848C101.652 175.574 102.241 176.163 102.967 176.163Z" fill="#7ACFE8"/>
<path d="M76.286 177.102C77.0124 177.102 77.6012 176.513 77.6012 175.787C77.6012 175.061 77.0124 174.472 76.286 174.472C75.5596 174.472 74.9707 175.061 74.9707 175.787C74.9707 176.513 75.5596 177.102 76.286 177.102Z" fill="#7ACFE8"/>
<path d="M82.1105 162.828C82.1105 162.828 80.4194 163.767 80.4194 169.026C80.4194 174.284 81.3589 176.35 82.6742 176.35C83.9894 176.35 93.0084 176.726 96.9542 176.35C96.9542 176.35 96.9542 166.772 97.1421 164.706C97.33 162.64 96.2026 162.828 95.639 162.64C95.0753 162.64 83.6137 162.077 82.1105 162.828Z" fill="#7ACFE8"/>
</g>
<defs>
<clipPath id="clip0_94_10907">
<rect width="208" height="268" fill="white"/>
</clipPath>
</defs>
</svg>
