<svg width="41" height="181" viewBox="0 0 41 181" fill="none" xmlns="http://www.w3.org/2000/svg">
<g clip-path="url(#clip0_94_10632)">
<path d="M33.9262 204.348C30.8945 181.723 28.4402 158.953 27.0688 136.184C25.3364 106.52 26.2026 76.9987 22.449 47.4059C21.0054 35.9854 20.067 21.3327 13.2096 11.4924C12.1269 9.984 9.96137 11.8515 11.0441 13.3599C17.2519 22.2664 18.0459 36.0572 19.4174 46.4721C21.5107 62.3459 22.6656 78.4352 23.2431 94.4526C23.7483 107.31 23.3874 120.239 24.0371 133.096C24.8311 148.107 26.2026 163.047 27.8628 177.916C28.8733 186.894 29.8839 195.872 31.111 204.851C31.3276 206.718 34.1427 206.144 33.9262 204.348Z" fill="#68BB45"/>
<path d="M30.3892 187.325C30.3892 187.325 31.4719 181.148 33.3487 178.634C35.2254 176.12 39.1233 175.258 40.7113 177.269C42.2994 179.28 36.9578 185.529 30.3892 187.325Z" fill="#68BB45"/>
<path d="M26.5635 166.208C26.5635 166.208 28.729 160.318 30.9666 158.163C33.2765 156.008 37.2466 155.793 38.4015 158.091C39.6286 160.318 33.3487 165.561 26.5635 166.208Z" fill="#68BB45"/>
<path d="M26.7798 147.461C26.7798 147.461 28.5122 142.577 30.3889 140.853C32.2657 139.129 35.5861 138.914 36.5245 140.781C37.5351 142.649 32.4101 146.886 26.7798 147.461Z" fill="#68BB45"/>
<path d="M25.0474 125.841C25.0474 125.841 26.7798 120.957 28.6565 119.233C30.5333 117.509 33.8537 117.294 34.7921 119.161C35.8026 121.029 30.6055 125.338 25.0474 125.841Z" fill="#68BB45"/>
<path d="M24.8311 104.077C24.8311 104.077 26.8522 98.4749 29.0177 96.5356C31.1832 94.5244 34.9367 94.3089 36.0194 96.4637C37.1022 98.5467 31.2553 103.431 24.8311 104.077Z" fill="#68BB45"/>
<path d="M24.0371 82.7448C24.0371 82.7448 26.0582 77.1422 28.2237 75.2029C30.3892 73.1918 34.1427 72.9763 35.2255 75.1311C36.3082 77.2859 30.4614 82.1701 24.0371 82.7448Z" fill="#68BB45"/>
<path d="M23.0264 67.5892C23.0264 67.5892 25.0475 61.9867 27.213 60.0474C29.3785 58.0362 33.132 57.8208 34.2147 59.9756C35.2975 62.0586 29.3785 66.9428 23.0264 67.5892Z" fill="#68BB45"/>
<path d="M21.9434 51.7873C21.9434 51.7873 23.387 47.8368 24.9029 46.4003C26.4187 44.9637 29.0895 44.8201 29.8835 46.3284C30.6053 47.9086 26.4187 51.3563 21.9434 51.7873Z" fill="#68BB45"/>
<path d="M20.3555 35.4107C20.3555 35.4107 21.7991 31.4602 23.315 30.0237C24.8308 28.5871 27.5016 28.4435 28.2956 29.9519C29.0896 31.4602 24.8308 34.9798 20.3555 35.4107Z" fill="#68BB45"/>
<path d="M17.396 23.3438C17.396 23.3438 17.5404 19.1778 18.5509 17.3103C19.5615 15.5146 22.0157 14.5091 23.2428 15.7301C24.4699 16.9512 21.5826 21.4763 17.396 23.3438Z" fill="#68BB45"/>
<path d="M12.632 13.288C12.632 13.288 9.31158 8.47563 8.95066 5.60254C8.58975 2.72946 10.6109 -0.359102 12.9207 3.32948e-05C15.2306 0.359169 15.8081 7.90101 12.632 13.288Z" fill="#68BB45"/>
<path d="M27.5017 165.992C27.5017 165.992 21.8714 161.683 18.551 161.036C15.2305 160.39 11.6936 162.473 12.1989 165.274C12.632 168.075 21.3661 169.296 27.5017 165.992Z" fill="#68BB45"/>
<path d="M26.7077 146.743C26.7077 146.743 21.0774 142.433 17.757 141.787C14.4366 141.14 10.8996 143.223 11.4049 146.024C11.838 148.898 20.5 150.047 26.7077 146.743Z" fill="#68BB45"/>
<path d="M24.8309 124.835C24.8309 124.835 19.345 119.161 15.8802 117.94C12.4155 116.719 8.08447 118.371 8.15665 121.531C8.22884 124.62 17.5405 127.421 24.8309 124.835Z" fill="#68BB45"/>
<path d="M24.831 104.077C24.831 104.077 18.1901 99.8396 14.4366 99.4805C10.7553 99.0495 7.00174 101.779 7.79575 104.796C8.66195 107.884 18.3345 108.387 24.831 104.077Z" fill="#68BB45"/>
<path d="M22.0155 66.6556C22.0155 66.6556 16.674 63.2797 13.7145 62.9206C10.755 62.5614 7.72328 64.7162 8.37293 67.1584C9.02258 69.6723 16.8184 70.1033 22.0155 66.6556Z" fill="#68BB45"/>
<path d="M21.9435 51.2846C21.9435 51.2846 17.1072 48.196 14.4364 47.9087C11.7657 47.6214 9.02271 49.5607 9.60018 51.7874C10.1776 54.014 17.2516 54.3732 21.9435 51.2846Z" fill="#68BB45"/>
<path d="M18.3345 36.2008C18.3345 36.2008 14.2201 33.6151 11.9102 33.3278C9.60037 33.0405 7.29051 34.7643 7.79579 36.6318C8.30107 38.4993 14.2923 38.8584 18.3345 36.2008Z" fill="#68BB45"/>
<path d="M16.097 23.3439C16.097 23.3439 11.4051 21.9792 9.09524 22.3383C6.78538 22.6974 5.05299 24.9959 6.06355 26.6479C7.07411 28.2999 12.9931 27.007 16.097 23.3439Z" fill="#68BB45"/>
<path d="M13.3538 12.7853C13.3538 12.7853 8.51754 8.97843 5.63021 8.33198C2.74289 7.68554 -0.360985 9.48122 -6.90892e-05 11.9952C0.360846 14.5091 7.94007 15.5865 13.3538 12.7853Z" fill="#68BB45"/>
<path d="M23.9646 82.1701C23.9646 82.1701 18.3343 77.7887 15.0139 77.0704C11.6935 76.3522 8.08432 78.4351 8.5896 81.3082C9.0227 84.1095 17.6847 85.4742 23.9646 82.1701Z" fill="#68BB45"/>
</g>
<defs>
<clipPath id="clip0_94_10632">
<rect width="41" height="206" fill="white"/>
</clipPath>
</defs>
</svg>
