<svg width="57" height="281" viewBox="0 0 57 281" fill="none" xmlns="http://www.w3.org/2000/svg">
<g clip-path="url(#clip0_94_10606)">
<path d="M46.9999 284.5C42.7999 253 39.3999 221.3 37.4999 189.6C35.0999 148.3 36.2999 107.2 31.0999 66C29.0999 50.1 27.7999 29.7 18.2999 16C16.7999 13.9 13.7999 16.5 15.2999 18.6C23.8999 31 24.9999 50.2 26.8999 64.7C29.7999 86.8 31.3999 109.2 32.1999 131.5C32.8999 149.4 32.3999 167.4 33.2999 185.3C34.3999 206.2 36.2999 227 38.5999 247.7C39.9999 260.2 41.3999 272.7 43.0999 285.2C43.3999 287.8 47.2999 287 46.9999 284.5Z" fill="#68BB45"/>
<path d="M42.0996 260.8C42.0996 260.8 43.5996 252.2 46.1996 248.7C48.7996 245.2 54.1996 244 56.3996 246.8C58.5996 249.6 51.1996 258.3 42.0996 260.8Z" fill="#68BB45"/>
<path d="M41.9997 260.4C41.9997 260.4 35.4997 254.5 31.3997 253.3C27.2997 252.1 22.1997 254.4 22.1997 258C22.1997 261.5 33.1997 263.9 41.9997 260.4Z" fill="#68BB45"/>
<path d="M36.7998 231.4C36.7998 231.4 39.7998 223.2 42.8998 220.2C46.0998 217.2 51.5998 216.9 53.1998 220.1C54.8998 223.2 46.1998 230.5 36.7998 231.4Z" fill="#68BB45"/>
<path d="M37.0996 205.3C37.0996 205.3 39.4996 198.5 42.0996 196.1C44.6996 193.7 49.2996 193.4 50.5996 196C51.9996 198.6 44.8996 204.5 37.0996 205.3Z" fill="#68BB45"/>
<path d="M34.6997 175.2C34.6997 175.2 37.0997 168.4 39.6997 166C42.2997 163.6 46.8997 163.3 48.1997 165.9C49.5997 168.5 42.3997 174.5 34.6997 175.2Z" fill="#68BB45"/>
<path d="M34.3999 144.9C34.3999 144.9 37.1999 137.1 40.1999 134.4C43.1999 131.6 48.3999 131.3 49.8999 134.3C51.3999 137.2 43.2999 144 34.3999 144.9Z" fill="#68BB45"/>
<path d="M33.2998 115.2C33.2998 115.2 36.0998 107.4 39.0998 104.7C42.0998 101.9 47.2998 101.6 48.7998 104.6C50.2998 107.6 42.1998 114.4 33.2998 115.2Z" fill="#68BB45"/>
<path d="M31.8999 94.1C31.8999 94.1 34.6999 86.3 37.6999 83.6C40.6999 80.8 45.8999 80.5 47.3999 83.5C48.8999 86.4 40.6999 93.2 31.8999 94.1Z" fill="#68BB45"/>
<path d="M30.3999 72.1001C30.3999 72.1001 32.3999 66.6001 34.4999 64.6001C36.5999 62.6001 40.2999 62.4001 41.3999 64.5001C42.3999 66.7001 36.5999 71.5001 30.3999 72.1001Z" fill="#68BB45"/>
<path d="M28.1997 49.3C28.1997 49.3 30.1997 43.8 32.2997 41.8C34.3997 39.8 38.0997 39.6 39.1997 41.7C40.2997 43.8 34.3997 48.7 28.1997 49.3Z" fill="#68BB45"/>
<path d="M24.0996 32.5001C24.0996 32.5001 24.2996 26.7001 25.6996 24.1001C27.0996 21.6001 30.4996 20.2001 32.1996 21.9001C33.8996 23.6001 29.8996 29.9001 24.0996 32.5001Z" fill="#68BB45"/>
<path d="M17.4999 18.5C17.4999 18.5 12.8999 11.8 12.3999 7.80002C11.8999 3.80002 14.6999 -0.49998 17.8999 1.98074e-05C21.0999 0.50002 21.8999 11 17.4999 18.5Z" fill="#68BB45"/>
<path d="M38.0997 231.1C38.0997 231.1 30.2997 225.1 25.6997 224.2C21.0997 223.3 16.1997 226.2 16.8997 230.1C17.4997 234 29.5997 235.7 38.0997 231.1Z" fill="#68BB45"/>
<path d="M36.9996 204.3C36.9996 204.3 29.1996 198.3 24.5996 197.4C19.9996 196.5 15.0996 199.4 15.7996 203.3C16.3996 207.3 28.3996 208.9 36.9996 204.3Z" fill="#68BB45"/>
<path d="M34.3996 173.8C34.3996 173.8 26.7996 165.9 21.9996 164.2C17.1996 162.5 11.1996 164.8 11.2996 169.2C11.3996 173.5 24.2996 177.4 34.3996 173.8Z" fill="#68BB45"/>
<path d="M34.4 144.9C34.4 144.9 25.2 139 20 138.5C14.9 137.9 9.69998 141.7 10.8 145.9C12 150.2 25.4 150.9 34.4 144.9Z" fill="#68BB45"/>
<path d="M30.5 92.8001C30.5 92.8001 23.1 88.1 19 87.6C14.9 87.1 10.7 90.1 11.6 93.5C12.5 97 23.3 97.6001 30.5 92.8001Z" fill="#68BB45"/>
<path d="M30.3996 71.4C30.3996 71.4 23.6996 67.1 19.9996 66.7C16.2996 66.3 12.4996 69 13.2996 72.1C14.0996 75.2 23.8996 75.7 30.3996 71.4Z" fill="#68BB45"/>
<path d="M25.3999 50.4001C25.3999 50.4001 19.6999 46.8001 16.4999 46.4001C13.2999 46.0001 10.0999 48.4001 10.7999 51.0001C11.4999 53.6001 19.7999 54.1001 25.3999 50.4001Z" fill="#68BB45"/>
<path d="M22.2997 32.5001C22.2997 32.5001 15.7997 30.6001 12.5997 31.1001C9.3997 31.6001 6.9997 34.8001 8.3997 37.1001C9.7997 39.4001 17.9997 37.6001 22.2997 32.5001Z" fill="#68BB45"/>
<path d="M18.4998 17.8001C18.4998 17.8001 11.7998 12.5001 7.79978 11.6001C3.79978 10.7001 -0.500224 13.2001 -0.000224333 16.7001C0.499776 20.2001 10.9998 21.7001 18.4998 17.8001Z" fill="#68BB45"/>
<path d="M33.1999 114.4C33.1999 114.4 25.3999 108.3 20.7999 107.3C16.1999 106.3 11.1999 109.2 11.8999 113.2C12.4999 117.1 24.4999 119 33.1999 114.4Z" fill="#68BB45"/>
</g>
<defs>
<clipPath id="clip0_94_10606">
<rect width="56.8" height="286.8" fill="white"/>
</clipPath>
</defs>
</svg>
