<svg width="45" height="167" viewBox="0 0 45 167" fill="none" xmlns="http://www.w3.org/2000/svg">
<g clip-path="url(#clip0_94_10131)">
<path d="M7.76432 165.661C11.0918 147.319 13.7854 128.86 15.2907 110.402C17.1921 86.3532 16.2414 62.4212 20.3611 38.431C21.9457 29.1726 22.9756 17.294 30.502 9.31662C31.6904 8.09382 34.0671 9.60777 32.8788 10.8306C26.0654 18.0509 25.1939 29.2309 23.6886 37.674C21.3911 50.5426 20.1235 63.5858 19.4897 76.5708C18.9351 86.9938 19.3312 97.4749 18.6182 107.898C17.7467 120.068 16.2414 132.179 14.4192 144.233C13.3101 151.511 12.2009 158.79 10.8541 166.068C10.6164 167.582 7.52664 167.116 7.76432 165.661Z" fill="#68BB45"/>
<path d="M11.6465 151.86C11.6465 151.86 10.4581 146.853 8.39824 144.815C6.33839 142.777 2.06022 142.078 0.317261 143.708C-1.4257 145.339 4.43698 150.405 11.6465 151.86Z" fill="#68BB45"/>
<path d="M11.7255 151.628C11.7255 151.628 16.8751 148.192 20.1234 147.493C23.3716 146.795 27.4121 148.134 27.4121 150.23C27.4121 152.268 18.6973 153.666 11.7255 151.628Z" fill="#68BB45"/>
<path d="M15.8452 134.741C15.8452 134.741 13.4685 129.967 11.0125 128.22C8.47725 126.473 4.11986 126.298 2.85226 128.161C1.50542 129.967 8.39803 134.217 15.8452 134.741Z" fill="#68BB45"/>
<path d="M15.6074 119.544C15.6074 119.544 13.706 115.584 11.6462 114.186C9.5863 112.789 5.94193 112.614 4.912 114.128C3.80285 115.642 9.42784 119.078 15.6074 119.544Z" fill="#68BB45"/>
<path d="M17.5088 102.017C17.5088 102.017 15.6074 98.0572 13.5475 96.6598C11.4877 95.2623 7.84329 95.0876 6.81337 96.6015C5.70421 98.1155 11.4084 101.609 17.5088 102.017Z" fill="#68BB45"/>
<path d="M17.7466 84.3734C17.7466 84.3734 15.5283 79.8315 13.1515 78.2594C10.7748 76.629 6.65503 76.4543 5.46665 78.2011C4.27827 79.8898 10.6955 83.8493 17.7466 84.3734Z" fill="#68BB45"/>
<path d="M18.6182 67.0794C18.6182 67.0794 16.3999 62.5376 14.0231 60.9654C11.6463 59.335 7.52662 59.1603 6.33824 60.9072C5.14986 62.6541 11.5671 66.6136 18.6182 67.0794Z" fill="#68BB45"/>
<path d="M19.7275 54.7932C19.7275 54.7932 17.5092 50.2514 15.1325 48.6792C12.7557 47.0488 8.63599 46.8741 7.44761 48.6209C6.25923 50.3096 12.7557 54.2691 19.7275 54.7932Z" fill="#68BB45"/>
<path d="M20.9155 41.9829C20.9155 41.9829 19.331 38.7803 17.6673 37.6158C16.0036 36.4512 13.0722 36.3347 12.2007 37.5575C11.4085 38.8386 16.0036 41.6335 20.9155 41.9829Z" fill="#68BB45"/>
<path d="M22.6587 28.7068C22.6587 28.7068 21.0742 25.5042 19.4105 24.3396C17.7467 23.1751 14.8154 23.0586 13.9439 24.2814C13.0724 25.5042 17.7467 28.3574 22.6587 28.7068Z" fill="#68BB45"/>
<path d="M25.9067 18.9243C25.9067 18.9243 25.7483 15.547 24.6391 14.0331C23.53 12.5774 20.8363 11.7622 19.4895 12.7521C18.1427 13.7419 21.3117 17.4104 25.9067 18.9243Z" fill="#68BB45"/>
<path d="M31.1356 10.7723C31.1356 10.7723 34.78 6.87098 35.1761 4.54183C35.5722 2.21268 33.3539 -0.291153 30.8187 -9.74535e-06C28.2835 0.291134 27.6497 6.40515 31.1356 10.7723Z" fill="#68BB45"/>
<path d="M14.8151 134.567C14.8151 134.567 20.9947 131.073 24.639 130.549C28.2834 130.025 32.1654 131.713 31.6109 133.984C31.1355 136.255 21.5492 137.245 14.8151 134.567Z" fill="#68BB45"/>
<path d="M15.6867 118.961C15.6867 118.961 21.8663 115.468 25.5106 114.944C29.155 114.419 33.037 116.108 32.4825 118.379C32.0071 120.708 22.5001 121.64 15.6867 118.961Z" fill="#68BB45"/>
<path d="M17.7468 101.202C17.7468 101.202 23.7679 96.6015 27.5707 95.6116C31.3736 94.6217 36.1271 95.961 36.0479 98.523C35.9686 101.027 25.7486 103.298 17.7468 101.202Z" fill="#68BB45"/>
<path d="M17.7466 84.3734C17.7466 84.3734 25.0353 80.9379 29.155 80.6467C33.1955 80.2974 37.3153 82.5101 36.4438 84.9557C35.4931 87.4595 24.8769 87.8671 17.7466 84.3734Z" fill="#68BB45"/>
<path d="M20.8362 54.0362C20.8362 54.0362 26.6989 51.2995 29.9471 51.0083C33.1954 50.7172 36.5228 52.464 35.8098 54.4438C35.0968 56.4818 26.5404 56.8312 20.8362 54.0362Z" fill="#68BB45"/>
<path d="M20.9155 41.5753C20.9155 41.5753 26.2236 39.0714 29.1549 38.8385C32.0863 38.6056 35.0968 40.1778 34.463 41.9829C33.8292 43.788 26.0652 44.0791 20.9155 41.5753Z" fill="#68BB45"/>
<path d="M24.877 29.3472C24.877 29.3472 29.3929 27.251 31.9281 27.0181C34.4633 26.7852 36.9985 28.1827 36.4439 29.6966C35.8894 31.2106 29.3137 31.5017 24.877 29.3472Z" fill="#68BB45"/>
<path d="M27.3329 18.9243C27.3329 18.9243 32.4825 17.818 35.0178 18.1091C37.553 18.4003 39.4544 20.2636 38.3452 21.6028C37.2361 22.9421 30.7396 21.894 27.3329 18.9243Z" fill="#68BB45"/>
<path d="M30.3435 10.3647C30.3435 10.3647 35.6516 7.27856 38.8206 6.7545C41.9896 6.23045 45.3963 7.68616 45.0002 9.72417C44.6041 11.7622 36.2854 12.6356 30.3435 10.3647Z" fill="#68BB45"/>
<path d="M18.6973 66.6137C18.6973 66.6137 24.8768 63.0617 28.5212 62.4794C32.1656 61.8972 36.1268 63.5858 35.5723 65.9149C35.0969 68.1859 25.5899 69.2922 18.6973 66.6137Z" fill="#68BB45"/>
</g>
<defs>
<clipPath id="clip0_94_10131">
<rect width="45" height="167" fill="white" transform="matrix(-1 0 0 1 45 0)"/>
</clipPath>
</defs>
</svg>
