<svg width="873" height="249" viewBox="0 0 873 249" fill="none" xmlns="http://www.w3.org/2000/svg">
<g clip-path="url(#clip0_94_9742)">
<path d="M856.855 336.26C850.4 416.182 40.8905 324.047 -245.411 300.527C-531.712 277.007 -873.244 268.336 -866.789 188.414C-860.335 108.492 -504.994 32.5674 -218.447 54.2766C789.424 130.612 863.309 256.337 856.855 336.26Z" fill="url(#paint0_linear_94_9742)"/>
<mask id="mask0_94_9742" style="mask-type:alpha" maskUnits="userSpaceOnUse" x="-867" y="50" width="1725" height="319">
<path d="M856.775 336.151C850.288 416.222 40.8371 324.259 -245.447 300.817C-531.731 277.375 -873.25 268.832 -866.763 188.761C-860.276 108.69 -504.912 32.4771 -218.381 54.1054C789.432 130.156 863.262 256.08 856.775 336.151Z" fill="url(#paint1_linear_94_9742)"/>
</mask>
<g mask="url(#mask0_94_9742)">
<path d="M118.913 220.486C120.575 213.485 111.563 209.709 109.901 216.71C107.946 224.877 107.301 232.935 107.942 241.209C108.469 248.392 117.962 246.15 117.435 238.968C116.93 232.761 117.429 226.528 118.913 220.486Z" fill="#CFDE64"/>
<path d="M138.165 238.925C137.069 233.86 137.157 229 138.555 224.033C140.604 217.174 131.6 213.398 129.55 220.258C127.509 227.01 127.133 234.225 128.679 241.166C130.226 248.108 139.703 245.975 138.165 238.925Z" fill="#CFDE64"/>
<path d="M161.918 233.506C161.839 231.985 161.86 230.473 161.773 229.059C161.716 228.514 161.751 228.084 161.776 227.762C164.594 225.075 164.141 218.224 159.393 217.506C155.243 216.837 152.495 221.151 152.143 225.556C151.705 231.036 152.434 236.937 152.493 242.458C152.551 245.491 154.036 248.21 156.82 248.441C159.207 248.639 162.197 246.291 162.04 243.25C162.099 240.01 162.058 236.762 161.918 233.506Z" fill="#CFDE64"/>
<path d="M6.40902 227.761C5.42093 222.596 5.42691 217.514 6.34471 212.291C6.88337 209.308 4.4055 206.506 2.01976 206.308C-0.763617 206.077 -2.75901 208.507 -3.19826 211.499C-4.19335 217.689 -4.09501 223.97 -2.9768 230.01C-1.83647 237.027 7.64875 234.786 6.40902 227.761Z" fill="#CFDE64"/>
<path d="M194.065 245.318C192.6 238.599 192.528 231.996 193.683 225.062C194.855 217.913 185.21 217.112 184.038 224.261C182.814 232.055 182.991 239.856 184.578 247.559C186.025 254.493 195.603 252.367 194.065 245.318Z" fill="#CFDE64"/>
<path d="M33.9426 234.98C33.0297 226.36 33.1117 217.821 34.0069 209.134C34.7818 201.951 25.2299 201.159 24.3555 208.334C23.2834 217.98 23.3144 227.609 24.349 237.213C25.2742 244.429 34.7684 242.188 33.9426 234.98Z" fill="#CFDE64"/>
<path d="M215.803 245.141C214.94 239.662 215.071 234.265 215.915 228.712C216.988 221.555 207.344 220.754 206.272 227.911C205.35 234.432 205.332 240.919 206.317 247.382C207.358 254.39 216.835 252.257 215.803 245.141Z" fill="#CFDE64"/>
<path d="M51.0261 213.86L49.3757 234.491C48.7998 241.691 58.4517 242.491 59.0276 235.292L60.6779 214.661C61.2538 207.461 51.602 206.661 51.0261 213.86Z" fill="#CFDE64"/>
<path d="M244.31 248.869C243.144 242.175 242.971 235.564 243.819 228.712C244.793 221.547 235.148 220.746 234.175 227.912C233.15 235.722 233.327 243.524 234.723 251.102C236.062 258.135 245.641 256.01 244.31 248.869Z" fill="#CFDE64"/>
<path d="M85.9939 238.355C84.9301 230.371 84.9606 222.477 85.9121 214.336C86.7863 207.162 77.1369 206.361 76.2627 213.535C75.1429 222.528 75.3164 231.628 76.5018 240.596C77.4355 247.704 86.9275 245.463 85.9939 238.355Z" fill="#CFDE64"/>
<path d="M504.526 251.353C506.187 244.351 497.177 240.576 495.515 247.577C493.56 255.744 492.915 263.803 493.554 272.076C494.081 279.259 503.573 277.017 503.046 269.835C502.533 263.735 503.131 257.511 504.526 251.353Z" fill="#CFDE64"/>
<path d="M333.225 233.059L331.047 260.247C330.471 267.448 340.128 268.247 340.705 261.047L342.883 233.858C343.459 226.658 333.802 225.858 333.225 233.059Z" fill="#CFDE64"/>
<path d="M523.867 269.908C522.771 264.842 522.86 259.983 524.258 255.015C526.307 248.155 517.304 244.38 515.254 251.24C513.213 257.993 512.836 265.208 514.382 272.149C515.937 278.984 525.413 276.85 523.867 269.908Z" fill="#CFDE64"/>
<path d="M277.679 229.834C275.724 238.001 274.979 246.052 275.511 254.425C275.938 261.599 285.43 259.357 285.003 252.183C284.598 245.984 285.205 239.652 286.689 233.61C288.451 226.617 279.441 222.841 277.679 229.834Z" fill="#CFDE64"/>
<path d="M364.219 257.337C363.547 251.982 363.67 246.692 364.886 241.493C366.547 234.493 357.541 230.717 355.88 237.718C354.202 244.934 353.725 252.141 354.732 259.579C355.664 266.687 365.152 264.445 364.219 257.337Z" fill="#CFDE64"/>
<path d="M547.62 264.488C547.542 262.967 547.563 261.455 547.475 260.042C547.419 259.496 547.453 259.066 547.479 258.744C550.296 256.057 549.844 249.206 545.097 248.488C540.947 247.819 538.2 252.134 537.847 256.539C537.409 262.019 538.138 267.92 538.196 273.441C538.254 276.474 539.738 279.193 542.522 279.424C544.908 279.622 547.898 277.274 547.741 274.232C547.8 270.993 547.66 267.736 547.62 264.488Z" fill="#CFDE64"/>
<path d="M303.803 229.691C301.471 238.8 300.234 248 300.281 257.415C300.311 264.557 309.953 265.464 309.933 258.215C309.907 249.775 310.76 241.625 312.915 233.475C314.676 226.482 305.664 222.706 303.803 229.691Z" fill="#CFDE64"/>
<path d="M392.012 258.736C391.024 253.571 391.03 248.488 391.948 243.265C392.487 240.282 390.01 237.481 387.624 237.283C384.841 237.052 382.846 239.482 382.407 242.474C381.412 248.664 381.509 254.945 382.627 260.986C383.775 267.894 393.35 265.768 392.012 258.736Z" fill="#CFDE64"/>
<path d="M579.775 276.193C578.311 269.474 578.239 262.87 579.394 255.936C580.567 248.787 570.923 247.987 569.751 255.136C568.527 262.93 568.703 270.732 570.289 278.434C571.736 285.368 581.214 283.234 579.775 276.193Z" fill="#CFDE64"/>
<path d="M419.644 265.963C418.731 257.342 418.814 248.804 419.709 240.116C420.485 232.933 410.934 232.142 410.06 239.317C408.987 248.963 409.018 258.592 410.051 268.197C410.876 275.404 420.469 273.17 419.644 265.963Z" fill="#CFDE64"/>
<path d="M436.731 244.843L435.079 265.475C434.503 272.674 444.153 273.474 444.729 266.274L446.381 245.643C446.957 238.443 437.315 237.536 436.731 244.843Z" fill="#CFDE64"/>
<path d="M471.605 269.221C470.542 261.237 470.573 253.344 471.525 245.202C472.399 238.028 462.751 237.228 461.877 244.403C460.756 253.395 460.929 262.496 462.114 271.463C463.038 278.679 472.629 276.445 471.605 269.221Z" fill="#CFDE64"/>
<path d="M97.0832 170.33C98.7449 163.329 89.7328 159.553 88.0711 166.554C86.116 174.72 85.4714 182.779 86.1116 191.053C86.6388 198.235 96.1321 195.994 95.605 188.811C95.0913 182.712 95.5898 176.479 97.0832 170.33Z" fill="#CFDE64"/>
<path d="M116.426 188.885C115.33 183.819 115.418 178.96 116.816 173.993C118.865 167.133 109.86 163.358 107.811 170.217C105.77 176.969 105.393 184.184 106.94 191.126C108.396 197.952 117.973 195.826 116.426 188.885Z" fill="#CFDE64"/>
<path d="M140.079 183.457C140 181.936 140.021 180.424 139.934 179.011C139.878 178.465 139.912 178.035 139.938 177.713C142.755 175.027 142.302 168.175 137.554 167.457C133.404 166.788 130.656 171.103 130.304 175.508C129.866 180.987 130.595 186.888 130.655 192.409C130.712 195.442 132.197 198.161 134.981 198.392C137.368 198.59 140.358 196.242 140.201 193.201C140.26 189.961 140.219 186.713 140.079 183.457Z" fill="#CFDE64"/>
<path d="M172.334 195.17C170.87 188.451 170.797 181.847 171.952 174.913C173.124 167.764 163.479 166.964 162.307 174.113C161.083 181.907 161.26 189.708 162.847 197.411C164.286 204.452 173.773 202.211 172.334 195.17Z" fill="#CFDE64"/>
<path d="M12.2029 184.94C11.2899 176.319 11.3719 167.781 12.2672 159.093C13.042 151.911 3.49011 151.118 2.61573 158.293C1.54366 167.939 1.57467 177.568 2.60928 187.173C3.43499 194.38 12.9291 192.139 12.2029 184.94Z" fill="#CFDE64"/>
<path d="M193.973 194.985C193.11 189.506 193.241 184.109 194.086 178.555C195.158 171.398 185.515 170.598 184.442 177.755C183.521 184.276 183.502 190.763 184.487 197.226C185.519 204.341 195.097 202.216 193.973 194.985Z" fill="#CFDE64"/>
<path d="M29.1879 163.811L27.5375 184.443C26.9616 191.642 36.6135 192.442 37.1894 185.243L38.8398 164.612C39.4157 157.413 29.7724 156.505 29.1879 163.811Z" fill="#CFDE64"/>
<path d="M222.57 198.829C221.404 192.134 221.232 185.523 222.08 178.671C223.053 171.506 213.408 170.706 212.435 177.871C211.41 185.681 211.587 193.483 212.983 201.061C214.323 208.094 223.81 205.853 222.57 198.829Z" fill="#CFDE64"/>
<path d="M64.1639 188.198C63.1001 180.214 63.1305 172.321 64.0821 164.18C64.9563 157.005 55.3068 156.205 54.4326 163.379C53.3128 172.372 53.4863 181.472 54.6718 190.439C55.5968 197.655 65.0889 195.414 64.1639 188.198Z" fill="#CFDE64"/>
<path d="M482.687 201.304C484.349 194.303 475.339 190.527 473.677 197.529C471.721 205.695 471.076 213.754 471.716 222.028C472.242 229.211 481.734 226.969 481.208 219.786C480.794 213.695 481.302 207.355 482.687 201.304Z" fill="#CFDE64"/>
<path d="M311.387 183.01L309.209 210.199C308.632 217.399 318.29 218.199 318.866 210.999L321.044 183.81C321.621 176.61 311.964 175.81 311.387 183.01Z" fill="#CFDE64"/>
<path d="M502.037 219.752C500.942 214.686 501.03 209.827 502.428 204.859C504.478 198 495.474 194.225 493.425 201.084C491.384 207.837 491.007 215.052 492.553 221.994C494.099 228.935 503.575 226.801 502.037 219.752Z" fill="#CFDE64"/>
<path d="M255.941 179.794C253.985 187.961 253.241 196.011 253.772 204.384C254.199 211.559 263.691 209.317 263.264 202.142C262.859 195.943 263.466 189.612 264.951 183.569C266.613 176.568 257.602 172.793 255.941 179.794Z" fill="#CFDE64"/>
<path d="M342.381 207.289C341.708 201.933 341.831 196.644 343.048 191.445C344.709 184.444 335.703 180.669 334.042 187.67C332.364 194.885 331.887 202.092 332.893 209.531C333.826 216.638 343.413 214.405 342.381 207.289Z" fill="#CFDE64"/>
<path d="M525.782 214.44C525.703 212.919 525.724 211.406 525.637 209.993C525.581 209.448 525.615 209.018 525.641 208.696C528.458 206.009 528.005 199.157 523.259 198.439C519.108 197.771 516.361 202.086 516.009 206.491C515.57 211.97 516.299 217.871 516.358 223.392C516.416 226.426 517.9 229.144 520.683 229.375C523.07 229.573 526.06 227.225 525.903 224.184C525.97 220.837 525.822 217.688 525.782 214.44Z" fill="#CFDE64"/>
<path d="M282.064 179.65C279.732 188.76 278.495 197.96 278.542 207.375C278.571 214.516 288.214 215.424 288.193 208.174C288.168 199.735 289.021 191.585 291.175 183.434C292.838 176.433 283.825 172.657 282.064 179.65Z" fill="#CFDE64"/>
<path d="M370.182 208.58C369.194 203.415 369.201 198.332 370.119 193.109C370.658 190.125 368.18 187.324 365.795 187.127C363.012 186.896 361.017 189.326 360.577 192.318C359.582 198.508 359.68 204.789 360.797 210.829C362.037 217.854 371.512 215.72 370.182 208.58Z" fill="#CFDE64"/>
<path d="M557.937 226.144C556.473 219.425 556.401 212.822 557.556 205.888C558.728 198.738 549.085 197.939 547.913 205.088C546.689 212.882 546.865 220.684 548.451 228.386C549.897 235.32 559.475 233.194 557.937 226.144Z" fill="#CFDE64"/>
<path d="M397.806 215.914C396.893 207.294 396.976 198.755 397.872 190.068C398.647 182.885 389.097 182.093 388.222 189.268C387.149 198.914 387.18 208.544 388.213 218.148C389.147 225.256 398.631 223.122 397.806 215.914Z" fill="#CFDE64"/>
<path d="M579.675 225.968C578.813 220.488 578.944 215.092 579.789 209.538C580.861 202.38 571.219 201.581 570.146 208.738C569.225 215.259 569.206 221.746 570.19 228.209C571.222 235.325 580.707 233.083 579.675 225.968Z" fill="#CFDE64"/>
<path d="M631.575 222.515C631.496 220.995 631.517 219.482 631.43 218.069C631.374 217.523 631.408 217.094 631.434 216.771C634.251 214.085 633.798 207.233 629.052 206.515C624.902 205.846 622.154 210.161 621.802 214.566C621.363 220.046 622.092 225.947 622.151 231.468C622.209 234.501 623.692 237.22 626.476 237.451C628.863 237.649 631.853 235.301 631.696 232.26C631.655 229.011 631.615 225.763 631.575 222.515Z" fill="#CFDE64"/>
<path d="M663.721 234.327C662.257 227.609 662.185 221.005 663.34 214.071C664.513 206.922 654.869 206.122 653.697 213.271C652.473 221.065 652.649 228.867 654.235 236.569C655.682 243.503 665.16 241.369 663.721 234.327Z" fill="#CFDE64"/>
<path d="M685.459 234.151C684.597 228.672 684.728 223.275 685.573 217.721C686.646 210.564 677.003 209.764 675.931 216.921C675.009 223.442 674.99 229.93 675.974 236.392C677.006 243.508 686.491 241.266 685.459 234.151Z" fill="#CFDE64"/>
<path d="M414.892 194.794L413.24 215.426C412.664 222.625 422.314 223.425 422.891 216.226L424.542 195.594C425.127 188.287 415.477 187.487 414.892 194.794Z" fill="#CFDE64"/>
<path d="M608.173 229.803C607.007 223.109 606.836 216.497 607.684 209.646C608.657 202.48 599.014 201.68 598.041 208.846C597.015 216.656 597.192 224.458 598.587 232.037C599.926 239.07 609.512 236.836 608.173 229.803Z" fill="#CFDE64"/>
<path d="M449.865 219.181C448.802 211.197 448.833 203.303 449.785 195.162C450.66 187.987 441.012 187.188 440.137 194.362C439.017 203.355 439.19 212.455 440.375 221.423C441.308 228.531 450.79 226.396 449.865 219.181Z" fill="#CFDE64"/>
<path d="M89.0369 78.2213C90.6985 71.2203 81.6864 67.4442 80.0248 74.4452C78.0696 82.6117 77.425 90.6706 78.0652 98.9442C78.5924 106.127 88.0858 103.886 87.5586 96.703C87.045 90.6032 87.6515 84.2718 89.0369 78.2213Z" fill="#CFDE64"/>
<path d="M108.379 96.7761C107.283 91.7103 107.371 86.851 108.769 81.884C110.818 75.0244 101.813 71.2489 99.7639 78.1085C97.7231 84.8606 97.3466 92.0753 98.8932 99.017C100.349 105.843 109.926 103.718 108.379 96.7761Z" fill="#CFDE64"/>
<path d="M132.132 91.3565C132.053 89.8358 132.074 88.3234 131.987 86.9101C131.93 86.3647 131.965 85.9349 131.99 85.6126C134.808 82.9262 134.355 76.0748 129.607 75.3564C125.456 74.6875 122.709 79.0021 122.357 83.4072C121.919 88.8867 122.648 94.7876 122.707 100.308C122.765 103.342 124.249 106.06 127.034 106.291C129.42 106.489 132.411 104.142 132.254 101.101C132.213 97.8525 132.172 94.6045 132.132 91.3565Z" fill="#CFDE64"/>
<path d="M164.288 103.061C162.823 96.3421 162.751 89.7388 163.905 82.8047C165.078 75.6558 155.433 74.8554 154.261 82.0044C153.037 89.798 153.214 97.5996 154.8 105.302C156.248 112.236 165.727 110.102 164.288 103.061Z" fill="#CFDE64"/>
<path d="M4.1565 92.8312C3.24354 84.2104 3.32556 75.6721 4.22077 66.9849C4.99565 59.8021 -4.55628 59.0099 -5.43066 66.1845C-6.50272 75.8305 -6.47171 85.4598 -5.43711 95.0641C-4.6114 102.272 4.98221 100.039 4.1565 92.8312Z" fill="#CFDE64"/>
<path d="M186.026 102.884C185.163 97.4052 185.294 92.0086 186.138 86.4549C187.21 79.2978 177.567 78.4975 176.494 85.6545C175.573 92.1752 175.555 98.6627 176.539 105.125C177.572 112.241 187.05 110.107 186.026 102.884Z" fill="#CFDE64"/>
<path d="M21.2401 71.711L19.5898 92.3421C19.0139 99.5414 28.6658 100.342 29.2417 93.1425L30.892 72.5115C31.4679 65.3121 21.8246 64.4042 21.2401 71.711Z" fill="#CFDE64"/>
<path d="M214.524 106.72C213.357 100.026 213.185 93.4142 214.033 86.5628C215.007 79.3973 205.362 78.597 204.389 85.7625C203.364 93.5726 203.541 101.374 204.937 108.953C206.276 115.986 215.764 113.745 214.524 106.72Z" fill="#CFDE64"/>
<path d="M56.1174 96.0896C55.0536 88.1055 55.0841 80.2122 56.0356 72.0709C56.9098 64.8965 47.2604 64.0961 46.3862 71.2704C45.2665 80.2631 45.4399 89.3631 46.6253 98.3307C47.5589 105.439 57.1419 103.313 56.1174 96.0896Z" fill="#CFDE64"/>
<path d="M474.739 109.204C476.401 102.202 467.391 98.4268 465.729 105.428C463.774 113.595 463.129 121.654 463.768 129.927C464.295 137.11 473.787 134.868 473.26 127.686C472.747 121.586 473.254 115.246 474.739 109.204Z" fill="#CFDE64"/>
<path d="M303.439 90.9094L301.261 118.098C300.685 125.298 310.342 126.098 310.919 118.898L313.097 91.7093C313.574 84.5009 304.016 83.7092 303.439 90.9094Z" fill="#CFDE64"/>
<path d="M494.09 127.651C492.994 122.586 493.082 117.726 494.48 112.759C496.53 105.899 487.527 102.124 485.477 108.984C483.436 115.736 483.059 122.951 484.605 129.893C486.051 136.826 495.627 134.701 494.09 127.651Z" fill="#CFDE64"/>
<path d="M247.893 87.6853C245.938 95.852 245.193 103.903 245.725 112.276C246.152 119.45 255.644 117.208 255.217 110.034C254.812 103.835 255.418 97.5032 256.903 91.4608C258.665 84.4678 249.555 80.684 247.893 87.6853Z" fill="#CFDE64"/>
<path d="M334.334 115.18C333.662 109.825 333.784 104.535 335.001 99.3361C336.662 92.3354 327.656 88.5602 325.995 95.5609C324.317 102.776 323.84 109.984 324.846 117.422C325.879 124.538 335.366 122.296 334.334 115.18Z" fill="#CFDE64"/>
<path d="M517.735 122.331C517.656 120.81 517.677 119.298 517.59 117.884C517.534 117.339 517.568 116.909 517.594 116.587C520.411 113.9 519.958 107.049 515.212 106.331C511.062 105.662 508.314 109.977 507.962 114.382C507.523 119.862 508.252 125.763 508.311 131.284C508.369 134.317 509.853 137.036 512.637 137.267C515.023 137.464 518.013 135.117 517.856 132.075C517.924 128.728 517.883 125.48 517.735 122.331Z" fill="#CFDE64"/>
<path d="M274.017 87.5418C271.685 96.6512 270.448 105.851 270.495 115.266C270.524 122.408 280.167 123.315 280.146 116.066C280.121 107.626 280.974 99.4762 283.129 91.3257C284.791 84.3242 275.778 80.5486 274.017 87.5418Z" fill="#CFDE64"/>
<path d="M362.234 116.479C361.247 111.314 361.253 106.232 362.171 101.008C362.71 98.0249 360.233 95.2238 357.847 95.0259C355.064 94.7951 353.069 97.2252 352.63 100.217C351.634 106.407 351.732 112.688 352.85 118.729C353.989 125.745 363.465 123.611 362.234 116.479Z" fill="#CFDE64"/>
<path d="M549.989 134.044C548.525 127.325 548.453 120.721 549.608 113.787C550.781 106.638 541.137 105.838 539.965 112.987C538.741 120.781 538.917 128.583 540.503 136.285C541.95 143.219 551.427 141.085 549.989 134.044Z" fill="#CFDE64"/>
<path d="M389.858 123.814C388.946 115.193 389.028 106.655 389.924 97.9672C390.699 90.7842 381.149 89.9926 380.274 97.1674C379.202 106.814 379.232 116.443 380.266 126.047C381.099 133.147 390.583 131.013 389.858 123.814Z" fill="#CFDE64"/>
<path d="M571.628 133.859C570.766 128.38 570.897 122.983 571.742 117.429C572.814 110.272 563.172 109.472 562.1 116.629C561.178 123.15 561.159 129.638 562.143 136.101C563.175 143.216 572.759 140.983 571.628 133.859Z" fill="#CFDE64"/>
<path d="M623.528 130.407C623.449 128.886 623.47 127.374 623.383 125.96C623.327 125.415 623.361 124.985 623.387 124.663C626.204 121.976 625.751 115.125 621.005 114.407C616.855 113.738 614.107 118.053 613.755 122.458C613.316 127.938 614.045 133.839 614.104 139.359C614.162 142.393 615.646 145.112 618.43 145.342C620.816 145.54 623.806 143.192 623.649 140.151C623.708 136.911 623.568 133.655 623.528 130.407Z" fill="#CFDE64"/>
<path d="M655.674 142.219C654.21 135.5 654.138 128.896 655.293 121.962C656.466 114.813 646.822 114.013 645.65 121.162C644.426 128.956 644.602 136.758 646.188 144.46C647.635 151.394 657.212 149.268 655.674 142.219Z" fill="#CFDE64"/>
<path d="M677.412 142.042C676.55 136.563 676.681 131.166 677.526 125.612C678.599 118.455 668.957 117.655 667.884 124.813C666.962 131.333 666.943 137.821 667.927 144.284C668.959 151.399 678.444 149.158 677.412 142.042Z" fill="#CFDE64"/>
<path d="M406.846 102.686L405.194 123.317C404.618 130.517 414.268 131.317 414.844 124.117L416.496 103.486C417.081 96.1786 407.43 95.3788 406.846 102.686Z" fill="#CFDE64"/>
<path d="M600.234 137.595C599.068 130.901 598.897 124.289 599.745 117.438C600.719 110.272 591.075 109.472 590.102 116.638C589.076 124.448 589.253 132.25 590.648 139.829C591.978 146.969 601.465 144.727 600.234 137.595Z" fill="#CFDE64"/>
<path d="M441.819 127.072C440.755 119.088 440.786 111.195 441.738 103.053C442.613 95.8786 432.965 95.0788 432.091 102.253C430.97 111.246 431.143 120.346 432.328 129.314C433.261 136.422 442.743 134.288 441.819 127.072Z" fill="#CFDE64"/>
<path d="M106.56 126.187C108.221 119.186 99.2094 115.41 97.5477 122.411C95.5925 130.577 94.9479 138.636 95.5881 146.91C96.1153 154.092 105.609 151.851 105.082 144.668C104.667 138.577 105.174 132.237 106.56 126.187Z" fill="#CFDE64"/>
<path d="M125.902 144.742C124.806 139.676 124.894 134.816 126.292 129.849C128.341 122.99 119.336 119.214 117.287 126.074C115.246 132.826 114.87 140.041 116.416 146.982C117.971 153.817 127.449 151.683 125.902 144.742Z" fill="#CFDE64"/>
<path d="M149.655 139.322C149.576 137.801 149.597 136.289 149.51 134.876C149.453 134.33 149.487 133.9 149.513 133.578C152.331 130.892 151.877 124.04 147.13 123.322C142.979 122.653 140.232 126.968 139.88 131.373C139.442 136.852 140.171 142.753 140.23 148.274C140.288 151.307 141.772 154.026 144.557 154.257C146.943 154.455 149.934 152.107 149.776 149.066C149.835 145.826 149.695 142.57 149.655 139.322Z" fill="#CFDE64"/>
<path d="M181.81 151.026C180.346 144.308 180.273 137.704 181.428 130.77C182.6 123.621 172.955 122.821 171.783 129.97C170.56 137.763 170.736 145.565 172.323 153.267C173.77 160.201 183.349 158.076 181.81 151.026Z" fill="#CFDE64"/>
<path d="M21.6791 140.797C20.7662 132.176 20.8482 123.638 21.7434 114.95C22.5183 107.768 12.9664 106.975 12.092 114.15C11.02 123.796 11.051 133.425 12.0856 143.03C12.9199 150.129 22.5048 148.004 21.6791 140.797Z" fill="#CFDE64"/>
<path d="M203.549 150.85C202.686 145.371 202.817 139.974 203.661 134.42C204.733 127.263 195.09 126.463 194.017 133.62C193.096 140.141 193.078 146.628 194.062 153.091C195.095 160.206 204.572 158.073 203.549 150.85Z" fill="#CFDE64"/>
<path d="M38.7628 119.676L37.1124 140.308C36.5365 147.507 46.1884 148.307 46.7644 141.108L48.4147 120.477C48.9992 113.17 39.3473 112.37 38.7628 119.676Z" fill="#CFDE64"/>
<path d="M232.047 154.685C230.88 147.991 230.708 141.38 231.556 134.528C232.529 127.363 222.885 126.562 221.911 133.728C220.887 141.538 221.064 149.34 222.46 156.918C223.799 163.951 233.386 161.718 232.047 154.685Z" fill="#CFDE64"/>
<path d="M73.739 144.063C72.6752 136.079 72.7057 128.186 73.6572 120.044C74.5314 112.87 64.882 112.07 64.0078 119.244C62.888 128.237 63.0615 137.337 64.2469 146.304C65.0811 153.404 74.664 151.279 73.739 144.063Z" fill="#CFDE64"/>
<path d="M492.262 157.169C493.924 150.168 484.914 146.392 483.252 153.393C481.297 161.56 480.651 169.619 481.291 177.893C481.818 185.076 491.31 182.834 490.783 175.651C490.27 169.551 490.777 163.211 492.262 157.169Z" fill="#CFDE64"/>
<path d="M320.962 138.875L318.785 166.064C318.208 173.264 327.865 174.064 328.442 166.864L330.62 139.675C331.097 132.466 321.539 131.675 320.962 138.875Z" fill="#CFDE64"/>
<path d="M511.613 175.617C510.517 170.551 510.605 165.692 512.003 160.724C514.053 153.864 505.05 150.089 503 156.949C500.959 163.702 500.582 170.917 502.128 177.858C503.574 184.792 513.15 182.666 511.613 175.617Z" fill="#CFDE64"/>
<path d="M265.416 135.651C263.461 143.818 262.716 151.868 263.248 160.241C263.675 167.416 273.167 165.174 272.74 157.999C272.335 151.8 272.941 145.469 274.426 139.426C276.188 132.433 267.078 128.65 265.416 135.651Z" fill="#CFDE64"/>
<path d="M351.866 163.038C351.193 157.683 351.316 152.393 352.533 147.194C354.194 140.193 345.188 136.418 343.527 143.419C341.848 150.635 341.372 157.842 342.378 165.28C343.41 172.396 352.889 170.261 351.866 163.038Z" fill="#CFDE64"/>
<path d="M535.258 170.296C535.179 168.776 535.2 167.263 535.113 165.85C535.057 165.305 535.091 164.875 535.117 164.552C537.934 161.866 537.481 155.014 532.735 154.296C528.584 153.628 525.837 157.942 525.485 162.348C525.046 167.827 525.775 173.728 525.834 179.249C525.892 182.282 527.376 185.001 530.159 185.232C532.546 185.43 535.536 183.082 535.379 180.041C535.446 176.693 535.406 173.445 535.258 170.296Z" fill="#CFDE64"/>
<path d="M291.54 135.507C289.208 144.617 287.971 153.817 288.018 163.232C288.047 170.373 297.69 171.281 297.669 164.031C297.644 155.592 298.497 147.442 300.652 139.291C302.314 132.29 293.301 128.514 291.54 135.507Z" fill="#CFDE64"/>
<path d="M379.757 164.445C378.77 159.28 378.776 154.197 379.694 148.974C380.233 145.99 377.755 143.189 375.37 142.991C372.587 142.761 370.592 145.191 370.152 148.182C369.157 154.373 369.255 160.653 370.373 166.694C371.512 173.71 381.087 171.585 379.757 164.445Z" fill="#CFDE64"/>
<path d="M567.512 182.009C566.048 175.29 565.976 168.687 567.131 161.752C568.304 154.603 558.66 153.804 557.488 160.953C556.264 168.747 556.44 176.548 558.026 184.251C559.473 191.185 568.95 189.05 567.512 182.009Z" fill="#CFDE64"/>
<path d="M407.381 171.779C406.469 163.158 406.551 154.62 407.447 145.933C408.222 138.75 398.672 137.958 397.797 145.133C396.725 154.779 396.755 164.408 397.789 174.013C398.622 181.113 408.115 178.871 407.381 171.779Z" fill="#CFDE64"/>
<path d="M589.151 181.824C588.288 176.345 588.42 170.948 589.265 165.395C590.337 158.237 580.695 157.438 579.622 164.595C578.701 171.116 578.682 177.603 579.666 184.066C580.698 191.181 590.282 188.948 589.151 181.824Z" fill="#CFDE64"/>
<path d="M641.051 178.372C640.972 176.851 640.993 175.339 640.906 173.926C640.85 173.38 640.884 172.95 640.91 172.628C643.727 169.941 643.274 163.09 638.528 162.372C634.377 161.703 631.63 166.018 631.278 170.423C630.839 175.903 631.568 181.804 631.627 187.325C631.685 190.358 633.169 193.077 635.952 193.308C638.339 193.506 641.329 191.158 641.172 188.116C641.231 184.877 641.091 181.62 641.051 178.372Z" fill="#CFDE64"/>
<path d="M673.197 190.184C671.733 183.465 671.661 176.862 672.816 169.928C673.989 162.778 664.345 161.979 663.173 169.128C661.949 176.922 662.125 184.724 663.711 192.426C665.158 199.36 674.735 197.234 673.197 190.184Z" fill="#CFDE64"/>
<path d="M694.935 190.008C694.073 184.528 694.204 179.132 695.049 173.578C696.122 166.421 686.479 165.621 685.407 172.778C684.485 179.299 684.466 185.787 685.45 192.249C686.482 199.365 695.967 197.123 694.935 190.008Z" fill="#CFDE64"/>
<path d="M424.368 150.651L422.717 171.283C422.141 178.482 431.791 179.282 432.367 172.083L434.019 151.451C434.604 144.144 424.953 143.344 424.368 150.651Z" fill="#CFDE64"/>
<path d="M617.757 185.561C616.591 178.866 616.42 172.255 617.268 165.403C618.242 158.237 608.598 157.438 607.625 164.603C606.599 172.414 606.776 180.216 608.171 187.794C609.51 194.827 618.988 192.693 617.757 185.561Z" fill="#CFDE64"/>
<path d="M459.342 175.038C458.278 167.054 458.309 159.16 459.261 151.019C460.136 143.844 450.488 143.044 449.613 150.219C448.493 159.212 448.666 168.312 449.851 177.28C450.784 184.388 460.266 182.253 459.342 175.038Z" fill="#CFDE64"/>
<path d="M4.38301 280.951C3.47004 272.33 3.55206 263.792 4.44727 255.105C5.22214 247.922 -4.32972 247.13 -5.20409 254.304C-6.27615 263.95 -6.24514 273.579 -5.21053 283.184C-4.37623 290.284 5.11781 288.043 4.38301 280.951Z" fill="#CFDE64"/>
</g>
</g>
<defs>
<linearGradient id="paint0_linear_94_9742" x1="-26.8365" y1="365.007" x2="252.658" y2="115.714" gradientUnits="userSpaceOnUse">
<stop stop-color="white"/>
<stop offset="1" stop-color="#E6ECAA"/>
</linearGradient>
<linearGradient id="paint1_linear_94_9742" x1="-26.9051" y1="365.323" x2="57.2117" y2="7.8254" gradientUnits="userSpaceOnUse">
<stop stop-color="white"/>
<stop offset="1" stop-color="#E6ECAA"/>
</linearGradient>
<clipPath id="clip0_94_9742">
<rect width="1730.06" height="253.423" fill="white" transform="matrix(0.996607 0.0823016 -0.0800769 0.996789 -851.744 0.789551)"/>
</clipPath>
</defs>
</svg>
