<svg width="1307" height="187" viewBox="0 0 1307 187" fill="none" xmlns="http://www.w3.org/2000/svg">
<g clip-path="url(#clip0_94_10157)">
<path d="M1729.58 178.852C1729.58 253.062 915.455 229.418 628.252 229.418C341.048 229.418 0 247.3 0 173.09C0 98.8803 348.002 1.92054 635.305 0.231691C1645.83 -5.72895 1729.58 104.642 1729.58 178.852Z" fill="url(#paint0_linear_94_10157)"/>
<mask id="mask0_94_10157" style="mask-type:alpha" maskUnits="userSpaceOnUse" x="0" y="0" width="1730" height="233">
<path d="M1729.58 178.852C1729.58 253.062 915.455 229.418 628.252 229.418C341.048 229.418 0 247.3 0 173.09C0 98.8803 348.002 1.92054 635.305 0.231691C1645.83 -5.72895 1729.58 104.642 1729.58 178.852Z" fill="url(#paint1_linear_94_10157)"/>
</mask>
<g mask="url(#mask0_94_10157)">
<path d="M246.075 128.783C247.168 122.226 237.929 119.445 236.836 126.001C235.544 133.651 235.544 141.102 236.836 148.652C237.929 155.208 247.168 152.427 246.075 145.87C245.081 140.307 245.081 134.446 246.075 128.783Z" fill="#CFDE64"/>
<path d="M73.8125 124.809V149.943C73.8125 156.599 83.4489 156.599 83.4489 149.943V124.809C83.4489 118.153 73.8125 118.153 73.8125 124.809Z" fill="#CFDE64"/>
<path d="M266.739 144.281C265.249 139.711 264.951 135.24 265.944 130.571C267.434 124.114 258.195 121.332 256.705 127.79C255.215 134.148 255.414 140.804 257.5 147.062C259.586 153.321 268.825 150.639 266.739 144.281Z" fill="#CFDE64"/>
<path d="M18.2792 126.001C16.9877 133.651 16.8883 141.102 18.0805 148.751C19.0739 155.308 28.3129 152.526 27.3195 145.969C26.4254 140.307 26.5247 134.446 27.5182 128.783C28.6109 122.226 19.3719 119.445 18.2792 126.001Z" fill="#CFDE64"/>
<path d="M106.596 144.777C105.503 139.909 105.205 135.042 106 130.174C107.093 123.617 97.8537 120.835 96.7609 127.392C95.6682 134.148 95.7675 140.804 97.357 147.559C98.8472 154.016 108.186 151.235 106.596 144.777Z" fill="#CFDE64"/>
<path d="M289.985 137.625C289.786 136.234 289.687 134.843 289.488 133.551C289.389 133.055 289.389 132.657 289.389 132.359C291.972 129.677 290.979 123.418 286.21 123.12C282.038 122.822 279.653 126.995 279.653 131.068C279.653 136.134 280.845 141.499 281.342 146.565C281.64 149.347 283.329 151.731 286.111 151.731C288.495 151.731 291.277 149.347 290.879 146.565C290.68 143.486 290.382 140.505 289.985 137.625Z" fill="#CFDE64"/>
<path d="M44.3074 123.915C42.7178 132.459 42.2211 141.002 43.0159 149.645C43.6119 156.202 53.2483 156.301 52.6522 149.645C51.9568 141.896 52.1555 134.346 53.6457 126.697C54.7385 120.14 45.4995 117.358 44.3074 123.915Z" fill="#CFDE64"/>
<path d="M134.512 143.883C133.121 139.214 132.724 134.545 133.22 129.677C133.518 126.895 130.836 124.511 128.452 124.511C125.67 124.511 123.882 126.895 123.683 129.677C123.186 135.439 123.783 141.201 125.372 146.665C127.061 153.023 136.3 150.341 134.512 143.883Z" fill="#CFDE64"/>
<path d="M323.067 145.97C321.08 139.91 320.484 133.85 321.08 127.392C321.676 120.736 312.04 120.736 311.444 127.392C310.847 134.644 311.642 141.797 313.828 148.751C315.715 155.01 325.054 152.328 323.067 145.97Z" fill="#CFDE64"/>
<path d="M162.626 148.552C161.036 140.704 160.44 132.856 160.639 124.809C160.838 118.153 151.301 118.153 151.003 124.809C150.705 133.75 151.499 142.592 153.288 151.334C154.678 157.791 163.917 155.109 162.626 148.552Z" fill="#CFDE64"/>
<path d="M344.624 144.181C343.333 139.214 343.035 134.247 343.432 129.081C343.929 122.425 334.293 122.425 333.796 129.081C333.399 135.141 333.895 141.102 335.385 146.963C336.975 153.42 346.313 150.639 344.624 144.181Z" fill="#CFDE64"/>
<path d="M177.925 127.889V146.963C177.925 153.619 187.561 153.619 187.561 146.963V127.889C187.561 121.133 177.925 121.133 177.925 127.889Z" fill="#CFDE64"/>
<path d="M373.434 145.473C371.745 139.413 371.05 133.353 371.348 126.995C371.745 120.339 362.109 120.339 361.712 126.995C361.314 134.247 362.109 141.4 364.096 148.254C365.983 154.712 375.222 151.93 373.434 145.473Z" fill="#CFDE64"/>
<path d="M214.682 147.658C212.994 140.406 212.397 133.154 212.695 125.604C212.994 118.948 203.357 118.948 203.059 125.604C202.662 133.949 203.556 142.294 205.443 150.44C206.934 156.897 216.173 154.215 214.682 147.658Z" fill="#CFDE64"/>
<path d="M617.522 128.385C618.615 121.829 609.376 119.047 608.283 125.604C606.992 133.253 606.992 140.704 608.283 148.254C609.376 154.811 618.615 152.029 617.522 145.473C616.529 139.909 616.529 134.048 617.522 128.385Z" fill="#CFDE64"/>
<path d="M445.26 124.412V149.546C445.26 156.202 454.896 156.202 454.896 149.546V124.412C454.896 117.656 445.26 117.656 445.26 124.412Z" fill="#CFDE64"/>
<path d="M638.186 143.883C636.696 139.313 636.398 134.843 637.391 130.174C638.881 123.716 629.642 120.935 628.152 127.392C626.662 133.75 626.861 140.406 628.947 146.665C631.033 152.923 640.372 150.241 638.186 143.883Z" fill="#CFDE64"/>
<path d="M389.726 125.604C388.435 133.253 388.336 140.704 389.528 148.354C390.521 154.91 399.76 152.129 398.767 145.572C397.873 139.909 397.972 134.048 398.965 128.385C400.058 121.829 390.819 119.047 389.726 125.604Z" fill="#CFDE64"/>
<path d="M478.043 144.281C476.95 139.413 476.652 134.545 477.447 129.677C478.54 123.12 469.301 120.339 468.208 126.895C467.115 133.651 467.215 140.307 468.804 147.062C470.394 153.52 479.633 150.837 478.043 144.281Z" fill="#CFDE64"/>
<path d="M661.432 137.128C661.234 135.737 661.134 134.346 660.936 133.055C660.836 132.558 660.836 132.161 660.836 131.862C663.419 129.18 662.426 122.922 657.657 122.623C653.485 122.325 651.101 126.498 651.101 130.571C651.101 135.638 652.293 141.002 652.789 146.069C653.087 148.85 654.776 151.235 657.558 151.235C659.942 151.235 662.724 148.85 662.327 146.069C662.128 143.088 661.83 140.108 661.432 137.128Z" fill="#CFDE64"/>
<path d="M415.755 123.518C414.165 132.061 413.668 140.605 414.463 149.248C415.059 155.804 424.696 155.904 424.1 149.248C423.404 141.499 423.603 133.949 425.093 126.299C426.186 119.743 416.947 116.961 415.755 123.518Z" fill="#CFDE64"/>
<path d="M505.959 143.486C504.568 138.817 504.171 134.148 504.668 129.28C504.966 126.498 502.283 124.114 499.899 124.114C497.117 124.114 495.329 126.498 495.13 129.28C494.634 135.042 495.23 140.804 496.819 146.267C498.508 152.626 507.747 149.943 505.959 143.486Z" fill="#CFDE64"/>
<path d="M694.514 145.572C692.527 139.512 691.931 133.452 692.527 126.995C693.123 120.339 683.487 120.339 682.891 126.995C682.295 134.247 683.09 141.4 685.275 148.354C687.262 154.612 696.501 151.93 694.514 145.572Z" fill="#CFDE64"/>
<path d="M534.073 148.155C532.484 140.307 531.888 132.459 532.086 124.412C532.285 117.756 522.748 117.756 522.45 124.412C522.152 133.353 522.947 142.194 524.735 150.937C526.126 157.394 535.365 154.612 534.073 148.155Z" fill="#CFDE64"/>
<path d="M716.072 143.784C714.78 138.817 714.482 133.849 714.88 128.683C715.376 122.027 705.74 122.027 705.243 128.683C704.846 134.743 705.343 140.704 706.833 146.565C708.422 153.023 717.761 150.241 716.072 143.784Z" fill="#CFDE64"/>
<path d="M549.372 127.392V146.466C549.372 153.122 559.008 153.122 559.008 146.466V127.392C559.008 120.736 549.372 120.736 549.372 127.392Z" fill="#CFDE64"/>
<path d="M744.881 145.075C743.193 139.015 742.497 132.955 742.795 126.597C743.193 119.941 733.556 119.941 733.159 126.597C732.762 133.849 733.556 141.002 735.543 147.857C737.431 154.215 746.67 151.533 744.881 145.075Z" fill="#CFDE64"/>
<path d="M586.13 147.261C584.441 140.009 583.845 132.757 584.143 125.206C584.441 118.55 574.804 118.55 574.506 125.206C574.109 133.551 575.003 141.896 576.891 150.042C578.381 156.5 587.62 153.718 586.13 147.261Z" fill="#CFDE64"/>
<path d="M984.897 127.988C985.989 121.432 976.75 118.65 975.658 125.207C974.366 132.856 974.366 140.307 975.658 147.857C976.75 154.414 985.989 151.632 984.897 145.075C983.903 139.413 983.903 133.651 984.897 127.988Z" fill="#CFDE64"/>
<path d="M812.634 124.015V149.149C812.634 155.805 822.27 155.805 822.27 149.149V124.015C822.27 117.259 812.634 117.259 812.634 124.015Z" fill="#CFDE64"/>
<path d="M1005.56 143.486C1004.07 138.916 1003.77 134.446 1004.77 129.776C1006.26 123.319 997.017 120.537 995.526 126.995C994.036 133.353 994.235 140.009 996.321 146.268C998.407 152.526 1007.65 149.844 1005.56 143.486Z" fill="#CFDE64"/>
<path d="M757.1 125.207C755.809 132.856 755.71 140.307 756.902 147.956C757.895 154.513 767.134 151.731 766.141 145.175C765.247 139.512 765.346 133.651 766.339 127.988C767.432 121.432 758.193 118.551 757.1 125.207Z" fill="#CFDE64"/>
<path d="M845.417 143.883C844.325 139.015 844.026 134.148 844.821 129.28C845.914 122.723 836.675 119.941 835.582 126.498C834.489 133.253 834.589 139.91 836.178 146.665C837.668 153.122 847.007 150.341 845.417 143.883Z" fill="#CFDE64"/>
<path d="M1028.81 136.73C1028.61 135.34 1028.51 133.949 1028.31 132.657C1028.21 132.161 1028.21 131.763 1028.21 131.465C1030.79 128.783 1029.8 122.524 1025.03 122.226C1020.86 121.928 1018.47 126.101 1018.47 130.174C1018.47 135.24 1019.67 140.605 1020.16 145.671C1020.46 148.453 1022.15 150.837 1024.93 150.837C1027.32 150.837 1030.1 148.453 1029.7 145.671C1029.5 142.691 1029.2 139.711 1028.81 136.73Z" fill="#CFDE64"/>
<path d="M783.129 123.021C781.539 131.565 781.042 140.108 781.837 148.751C782.433 155.308 792.07 155.407 791.474 148.751C790.778 141.002 790.977 133.452 792.467 125.803C793.56 119.345 784.321 116.464 783.129 123.021Z" fill="#CFDE64"/>
<path d="M873.333 143.089C871.942 138.419 871.545 133.75 872.042 128.882C872.34 126.101 869.657 123.716 867.273 123.716C864.491 123.716 862.703 126.101 862.505 128.882C862.008 134.644 862.604 140.406 864.193 145.87C865.882 152.228 875.121 149.447 873.333 143.089Z" fill="#CFDE64"/>
<path d="M1061.79 145.175C1059.8 139.115 1059.21 133.055 1059.8 126.598C1060.4 119.941 1050.76 119.941 1050.17 126.598C1049.57 133.85 1050.36 141.002 1052.55 147.956C1054.54 154.215 1063.87 151.533 1061.79 145.175Z" fill="#CFDE64"/>
<path d="M901.348 147.658C899.759 139.81 899.162 131.962 899.361 123.915C899.56 117.259 890.023 117.259 889.725 123.915C889.427 132.856 890.221 141.698 892.01 150.44C893.5 156.997 902.739 154.215 901.348 147.658Z" fill="#CFDE64"/>
<path d="M1083.45 143.387C1082.15 138.419 1081.86 133.452 1082.25 128.286C1082.75 121.63 1073.11 121.63 1072.62 128.286C1072.22 134.346 1072.72 140.307 1074.21 146.168C1075.8 152.526 1085.04 149.844 1083.45 143.387Z" fill="#CFDE64"/>
<path d="M916.746 126.995V146.069C916.746 152.725 926.382 152.725 926.382 146.069V126.995C926.382 120.339 916.746 120.339 916.746 126.995Z" fill="#CFDE64"/>
<path d="M1112.16 144.678C1110.47 138.618 1109.77 132.558 1110.07 126.2C1110.47 119.544 1100.83 119.544 1100.43 126.2C1100.04 133.452 1100.83 140.605 1102.82 147.46C1104.71 153.818 1114.04 151.135 1112.16 144.678Z" fill="#CFDE64"/>
<path d="M953.504 146.864C951.815 139.611 951.219 132.359 951.517 124.809C951.815 118.153 942.178 118.153 941.88 124.809C941.483 133.154 942.377 141.499 944.265 149.645C945.755 156.103 954.994 153.321 953.504 146.864Z" fill="#CFDE64"/>
<path d="M1199.58 123.518V148.652C1199.58 155.308 1209.22 155.308 1209.22 148.652V123.518C1209.22 116.862 1199.58 116.862 1199.58 123.518Z" fill="#CFDE64"/>
<path d="M1143.95 124.71C1142.65 132.359 1142.56 139.81 1143.75 147.46C1144.74 154.016 1153.98 151.235 1152.99 144.678C1152.09 139.015 1152.19 133.154 1153.19 127.491C1154.38 120.935 1145.14 118.153 1143.95 124.71Z" fill="#CFDE64"/>
<path d="M1232.36 143.486C1231.27 138.618 1230.97 133.75 1231.77 128.882C1232.86 122.326 1223.62 119.544 1222.53 126.101C1221.43 132.856 1221.53 139.512 1223.12 146.267C1224.61 152.725 1233.85 149.943 1232.36 143.486Z" fill="#CFDE64"/>
<path d="M1169.97 122.624C1168.38 131.167 1167.89 139.711 1168.68 148.354C1169.28 154.91 1178.92 155.01 1178.32 148.354C1177.62 140.605 1177.82 133.055 1179.31 125.405C1180.5 118.849 1171.27 116.067 1169.97 122.624Z" fill="#CFDE64"/>
<path d="M1260.18 142.691C1258.79 138.022 1258.39 133.353 1258.89 128.485C1259.19 125.703 1256.5 123.319 1254.12 123.319C1251.34 123.319 1249.55 125.703 1249.35 128.485C1248.85 134.247 1249.45 140.009 1251.04 145.473C1252.73 151.731 1262.07 149.049 1260.18 142.691Z" fill="#CFDE64"/>
<path d="M1288.29 147.261C1286.7 139.413 1286.11 131.565 1286.31 123.518C1286.5 116.862 1276.97 116.862 1276.67 123.518C1276.37 132.459 1277.17 141.3 1278.95 150.043C1280.35 156.599 1289.68 153.818 1288.29 147.261Z" fill="#CFDE64"/>
<path d="M1303.69 126.597V145.671C1303.69 152.327 1313.33 152.327 1313.33 145.671V126.597C1313.33 119.941 1303.69 119.842 1303.69 126.597Z" fill="#CFDE64"/>
<path d="M220.245 84.4754C221.338 77.9187 212.099 75.1371 211.006 81.6938C209.715 89.3433 209.715 96.7941 211.006 104.344C212.099 110.901 221.338 108.119 220.245 101.563C219.252 95.9993 219.252 90.138 220.245 84.4754Z" fill="#CFDE64"/>
<path d="M48.082 80.5017V105.636C48.082 112.292 57.7184 112.292 57.7184 105.636V80.5017C57.6191 73.8456 48.082 73.7463 48.082 80.5017Z" fill="#CFDE64"/>
<path d="M241.008 99.973C239.518 95.4032 239.22 90.9327 240.214 86.2635C241.704 79.8062 232.465 77.0245 230.975 83.4819C229.484 89.8399 229.683 96.496 231.769 102.755C233.756 109.013 243.095 106.331 241.008 99.973Z" fill="#CFDE64"/>
<path d="M-7.55043 81.6938C-8.8419 89.3433 -8.94125 96.7941 -7.74912 104.444C-6.75568 111 2.48332 108.219 1.48988 101.662C0.595783 95.9993 0.695126 90.138 1.68857 84.4754C2.88069 77.9187 -6.45764 75.1371 -7.55043 81.6938Z" fill="#CFDE64"/>
<path d="M80.8655 100.37C79.7727 95.5025 79.4747 90.6346 80.2695 85.7668C81.3623 79.2101 72.1233 76.4285 71.0305 82.9852C69.9377 89.7406 70.037 96.3966 71.6265 103.152C73.1167 109.609 82.3557 106.927 80.8655 100.37Z" fill="#CFDE64"/>
<path d="M264.156 93.2177C263.957 91.8269 263.857 90.436 263.659 89.1446C263.559 88.6478 263.559 88.2505 263.559 87.9524C266.142 85.2701 265.149 79.0115 260.38 78.7134C256.208 78.4154 253.824 82.5879 253.824 86.661C253.824 91.7275 255.016 97.0921 255.513 102.159C255.811 104.94 257.499 107.325 260.281 107.325C262.665 107.325 265.447 104.94 265.05 102.159C264.851 99.1783 264.553 96.198 264.156 93.2177Z" fill="#CFDE64"/>
<path d="M18.4778 79.6075C16.8883 88.1511 16.3915 96.6947 17.1863 105.338C17.7824 111.894 27.4187 111.994 26.8227 105.338C26.1273 97.5887 26.3259 90.0386 27.8161 82.3891C28.9089 75.8324 19.6699 73.0508 18.4778 79.6075Z" fill="#CFDE64"/>
<path d="M108.682 99.5757C107.291 94.9065 106.894 90.2374 107.391 85.3695C107.689 82.5879 105.006 80.2036 102.622 80.2036C99.8405 80.2036 98.0523 82.5879 97.8536 85.3695C97.3569 91.1315 97.953 96.8934 99.5425 102.357C101.231 108.715 110.57 106.033 108.682 99.5757Z" fill="#CFDE64"/>
<path d="M297.237 101.662C295.25 95.6019 294.654 89.5419 295.25 83.0846C295.846 76.4285 286.21 76.4285 285.614 83.0846C285.018 90.3367 285.813 97.4895 287.998 104.444C289.985 110.702 299.224 108.02 297.237 101.662Z" fill="#CFDE64"/>
<path d="M136.796 104.245C135.207 96.3967 134.611 88.5485 134.809 80.5017C135.008 73.8456 125.471 73.8456 125.173 80.5017C124.875 89.4426 125.67 98.2843 127.458 107.027C128.849 113.484 138.088 110.702 136.796 104.245Z" fill="#CFDE64"/>
<path d="M318.795 99.8738C317.503 94.9066 317.205 89.9394 317.603 84.7735C318.099 78.1175 308.463 78.1175 307.966 84.7735C307.569 90.8335 308.066 96.7942 309.556 102.655C311.145 109.113 320.484 106.331 318.795 99.8738Z" fill="#CFDE64"/>
<path d="M152.195 83.482V102.556C152.195 109.212 161.831 109.212 161.831 102.556V83.482C161.732 76.826 152.195 76.826 152.195 83.482Z" fill="#CFDE64"/>
<path d="M347.605 101.165C345.916 95.1052 345.22 89.0452 345.518 82.6872C345.916 76.0312 336.279 76.0312 335.882 82.6872C335.485 89.9393 336.279 97.0921 338.266 103.947C340.154 110.305 349.393 107.623 347.605 101.165Z" fill="#CFDE64"/>
<path d="M188.853 103.351C187.164 96.0987 186.568 88.8466 186.866 81.2965C187.164 74.6404 177.528 74.6404 177.23 81.2965C176.832 89.6414 177.726 97.9863 179.614 106.132C181.104 112.59 190.343 109.808 188.853 103.351Z" fill="#CFDE64"/>
<path d="M591.693 84.0781C592.786 77.5214 583.547 74.7397 582.454 81.2964C581.162 88.9459 581.162 96.3967 582.454 103.947C583.547 110.504 592.786 107.722 591.693 101.165C590.699 95.5026 590.699 89.7407 591.693 84.0781Z" fill="#CFDE64"/>
<path d="M419.529 80.1044V105.238C419.529 111.894 429.166 111.894 429.166 105.238V80.1044C429.066 73.349 419.529 73.349 419.529 80.1044Z" fill="#CFDE64"/>
<path d="M612.456 99.5758C610.965 95.006 610.667 90.5355 611.661 85.8663C613.151 79.4089 603.912 76.6273 602.422 83.0847C600.932 89.4427 601.13 96.0987 603.217 102.357C605.204 108.616 614.542 105.934 612.456 99.5758Z" fill="#CFDE64"/>
<path d="M363.897 81.2965C362.605 88.946 362.506 96.3968 363.698 104.046C364.692 110.603 373.931 107.821 372.937 101.265C372.043 95.602 372.142 89.7407 373.136 84.0781C374.328 77.5214 365.089 74.6404 363.897 81.2965Z" fill="#CFDE64"/>
<path d="M452.313 99.9731C451.22 95.1053 450.922 90.2374 451.717 85.3696C452.81 78.8129 443.571 76.0312 442.478 82.5879C441.385 89.3433 441.485 95.9994 443.074 102.755C444.564 109.212 453.803 106.431 452.313 99.9731Z" fill="#CFDE64"/>
<path d="M635.603 92.8203C635.404 91.4295 635.305 90.0387 635.106 88.7472C635.007 88.2505 635.007 87.8531 635.007 87.5551C637.59 84.8728 636.596 78.6141 631.828 78.3161C627.655 78.0181 625.271 82.1905 625.271 86.2636C625.271 91.3302 626.463 96.6948 626.96 101.761C627.258 104.543 628.947 106.927 631.728 106.927C634.113 106.927 636.894 104.543 636.497 101.761C636.298 98.781 636 95.8007 635.603 92.8203Z" fill="#CFDE64"/>
<path d="M389.925 79.2103C388.336 87.7539 387.839 96.2975 388.634 104.94C389.23 111.497 398.866 111.596 398.27 104.94C397.575 97.1915 397.773 89.6414 399.263 81.9919C400.456 75.4352 391.117 72.5542 389.925 79.2103Z" fill="#CFDE64"/>
<path d="M480.129 99.1784C478.739 94.5092 478.341 89.84 478.838 84.9722C479.136 82.1905 476.454 79.8063 474.069 79.8063C471.288 79.8063 469.5 82.1905 469.301 84.9722C468.804 90.7341 469.4 96.4961 470.99 101.96C472.679 108.318 482.017 105.536 480.129 99.1784Z" fill="#CFDE64"/>
<path d="M668.684 101.265C666.698 95.2046 666.102 89.1446 666.698 82.6872C667.294 76.0312 657.657 76.0312 657.061 82.6872C656.465 89.9393 657.26 97.0921 659.445 104.046C661.432 110.305 670.671 107.623 668.684 101.265Z" fill="#CFDE64"/>
<path d="M508.244 103.748C506.654 95.9 506.058 88.0518 506.257 80.005C506.455 73.3489 496.918 73.3489 496.62 80.005C496.322 88.9459 497.117 97.7876 498.905 106.53C500.296 113.087 509.535 110.305 508.244 103.748Z" fill="#CFDE64"/>
<path d="M690.341 99.4764C689.05 94.5092 688.752 89.542 689.149 84.3761C689.646 77.72 680.009 77.72 679.513 84.3761C679.115 90.4361 679.612 96.3967 681.102 102.258C682.592 108.616 691.931 105.934 690.341 99.4764Z" fill="#CFDE64"/>
<path d="M523.642 83.0846V102.159C523.642 108.815 533.278 108.815 533.278 102.159V83.0846C533.179 76.4285 523.642 76.4285 523.642 83.0846Z" fill="#CFDE64"/>
<path d="M719.052 100.768C717.363 94.7079 716.668 88.6479 716.966 82.2899C717.363 75.6338 707.727 75.6338 707.329 82.2899C706.932 89.542 707.727 96.6948 709.714 103.55C711.601 109.908 720.84 107.225 719.052 100.768Z" fill="#CFDE64"/>
<path d="M560.3 102.953C558.611 95.7013 558.015 88.4492 558.313 80.899C558.611 74.243 548.975 74.243 548.677 80.899C548.279 89.2439 549.174 97.5888 551.061 105.735C552.551 112.192 561.79 109.411 560.3 102.953Z" fill="#CFDE64"/>
<path d="M959.067 83.5812C960.16 77.0245 950.921 74.2429 949.828 80.7996C948.537 88.4491 948.537 95.8999 949.828 103.45C950.921 110.007 960.16 107.225 959.067 100.668C958.074 95.1052 958.074 89.3432 959.067 83.5812Z" fill="#CFDE64"/>
<path d="M786.904 79.6075V104.742C786.904 111.398 796.541 111.398 796.541 104.742V79.6075C796.441 72.9515 786.904 72.9515 786.904 79.6075Z" fill="#CFDE64"/>
<path d="M979.83 99.1783C978.34 94.6085 978.042 90.138 979.035 85.4689C980.526 79.0115 971.287 76.2299 969.796 82.6872C968.306 89.0452 968.505 95.7013 970.591 101.96C972.578 108.119 981.916 105.437 979.83 99.1783Z" fill="#CFDE64"/>
<path d="M731.271 80.7996C729.98 88.4491 729.881 95.8999 731.073 103.549C732.066 110.106 741.305 107.324 740.312 100.768C739.418 95.1052 739.517 89.2439 740.51 83.5812C741.702 77.0245 732.364 74.2429 731.271 80.7996Z" fill="#CFDE64"/>
<path d="M819.588 99.5757C818.495 94.7078 818.197 89.84 818.992 84.9721C820.085 78.4154 810.846 75.6338 809.753 82.1905C808.66 88.9459 808.76 95.6019 810.349 102.357C811.939 108.815 821.178 106.033 819.588 99.5757Z" fill="#CFDE64"/>
<path d="M1002.98 92.4229C1002.78 91.0321 1002.68 89.6412 1002.48 88.3498C1002.38 87.853 1002.38 87.4557 1002.38 87.1576C1004.96 84.4753 1003.97 78.2167 999.202 77.9186C995.03 77.6206 992.646 81.7931 992.646 85.8662C992.646 90.9327 993.838 96.2973 994.334 101.364C994.632 104.145 996.321 106.53 999.103 106.53C1001.49 106.53 1004.27 104.145 1003.87 101.364C1003.67 98.3835 1003.37 95.4032 1002.98 92.4229Z" fill="#CFDE64"/>
<path d="M757.3 78.7134C755.71 87.257 755.213 95.8006 756.008 104.444C756.604 111 766.241 111.1 765.644 104.444C764.949 96.6947 765.148 89.1446 766.638 81.4951C767.731 74.9384 758.492 72.1567 757.3 78.7134Z" fill="#CFDE64"/>
<path d="M847.504 98.7809C846.113 94.1117 845.716 89.4426 846.212 84.5747C846.51 81.7931 843.828 79.4088 841.444 79.4088C838.662 79.4088 836.874 81.7931 836.675 84.5747C836.179 90.3367 836.775 96.0986 838.364 101.563C840.053 107.821 849.292 105.139 847.504 98.7809Z" fill="#CFDE64"/>
<path d="M1036.06 100.768C1034.07 94.7079 1033.48 88.6479 1034.07 82.1905C1034.67 75.5345 1025.03 75.5345 1024.44 82.1905C1023.84 89.4426 1024.63 96.5954 1026.82 103.549C1028.81 109.908 1038.05 107.126 1036.06 100.768Z" fill="#CFDE64"/>
<path d="M875.618 103.351C874.029 95.5026 873.432 87.6544 873.631 79.6075C873.83 72.9515 864.293 72.9515 863.995 79.6075C863.697 88.5485 864.492 97.3901 866.28 106.132C867.671 112.689 876.909 109.907 875.618 103.351Z" fill="#CFDE64"/>
<path d="M1057.62 98.9795C1056.33 94.0123 1056.03 89.0451 1056.42 83.8792C1056.92 77.2232 1047.28 77.2232 1046.79 83.8792C1046.39 89.9392 1046.89 95.8999 1048.38 101.761C1049.97 108.219 1059.31 105.536 1057.62 98.9795Z" fill="#CFDE64"/>
<path d="M890.917 82.6872V101.761C890.917 108.417 900.553 108.417 900.553 101.761V82.6872C900.553 76.0311 890.917 75.9318 890.917 82.6872Z" fill="#CFDE64"/>
<path d="M1086.43 100.37C1084.74 94.3104 1084.04 88.2504 1084.34 81.8924C1084.74 75.2364 1075.1 75.2364 1074.7 81.8924C1074.31 89.1445 1075.1 96.2973 1077.09 103.152C1078.98 109.51 1088.21 106.728 1086.43 100.37Z" fill="#CFDE64"/>
<path d="M927.675 102.457C925.986 95.2045 925.39 87.9523 925.688 80.4022C925.986 73.7461 916.349 73.7461 916.051 80.4022C915.654 88.7471 916.548 97.092 918.436 105.238C919.926 111.795 929.165 109.013 927.675 102.457Z" fill="#CFDE64"/>
<path d="M1173.75 79.2102V104.344C1173.75 111 1183.39 111 1183.39 104.344V79.2102C1183.39 72.5541 1173.75 72.5541 1173.75 79.2102Z" fill="#CFDE64"/>
<path d="M1118.22 80.4024C1116.92 88.0519 1116.83 95.5027 1118.02 103.152C1119.01 109.709 1128.25 106.927 1127.26 100.371C1126.36 94.7079 1126.46 88.8466 1127.46 83.184C1128.55 76.6273 1119.31 73.8457 1118.22 80.4024Z" fill="#CFDE64"/>
<path d="M1206.53 99.1783C1205.44 94.3105 1205.14 89.4426 1205.94 84.5748C1207.03 78.0181 1197.79 75.2364 1196.7 81.7931C1195.61 88.5485 1195.7 95.2046 1197.29 101.96C1198.78 108.417 1208.12 105.636 1206.53 99.1783Z" fill="#CFDE64"/>
<path d="M1144.24 78.3161C1142.65 86.8597 1142.16 95.4033 1142.95 104.046C1143.55 110.603 1153.19 110.702 1152.59 104.046C1151.89 96.2974 1152.09 88.7472 1153.58 81.0977C1154.68 74.541 1145.44 71.7594 1144.24 78.3161Z" fill="#CFDE64"/>
<path d="M1234.35 98.2842C1232.96 93.615 1232.56 88.9459 1233.06 84.078C1233.36 81.2964 1230.67 78.9121 1228.29 78.9121C1225.51 78.9121 1223.72 81.2964 1223.52 84.078C1223.02 89.84 1223.62 95.6019 1225.21 101.066C1227 107.424 1236.24 104.742 1234.35 98.2842Z" fill="#CFDE64"/>
<path d="M1262.46 102.953C1260.87 95.1052 1260.28 87.257 1260.48 79.2102C1260.68 72.5541 1251.14 72.5541 1250.84 79.2102C1250.54 88.1511 1251.34 96.9928 1253.13 105.735C1254.62 112.192 1263.85 109.51 1262.46 102.953Z" fill="#CFDE64"/>
<path d="M1277.86 82.2899V101.364C1277.86 108.02 1287.5 108.02 1287.5 101.364V82.2899C1287.5 75.5345 1277.86 75.5345 1277.86 82.2899Z" fill="#CFDE64"/>
<path d="M1314.62 102.059C1312.93 94.8072 1312.33 87.5551 1312.63 80.005C1312.93 73.3489 1303.29 73.3489 1303 80.005C1302.6 88.3499 1303.49 96.6948 1305.38 104.841C1306.87 111.298 1316.11 108.616 1314.62 102.059Z" fill="#CFDE64"/>
<path d="M204.748 0.529734C205.84 -6.02697 196.601 -8.8086 195.509 -2.2519C194.217 5.39759 194.217 12.8484 195.509 20.3985C196.601 26.9552 205.84 24.1736 204.748 17.6169C203.754 12.0536 203.854 6.19234 204.748 0.529734Z" fill="#CFDE64"/>
<path d="M32.5845 -3.44395V21.6901C32.5845 28.3461 42.2208 28.3461 42.2208 21.6901V-3.44395C42.2208 -10.1993 32.5845 -10.1993 32.5845 -3.44395Z" fill="#CFDE64"/>
<path d="M225.511 16.0274C224.021 11.4576 223.723 6.98714 224.716 2.31797C226.206 -4.13939 216.967 -6.92103 215.477 -0.463663C213.987 5.89435 214.186 12.5504 216.272 18.8091C218.358 25.0678 227.597 22.3855 225.511 16.0274Z" fill="#CFDE64"/>
<path d="M65.368 16.4248C64.2752 11.557 63.9772 6.6891 64.7719 1.82124C65.8647 -4.73547 56.6257 -7.5171 55.5329 -0.960395C54.4401 5.795 54.5395 12.4511 56.129 19.2064C57.6191 25.6638 66.8581 22.9815 65.368 16.4248Z" fill="#CFDE64"/>
<path d="M248.757 9.27199C248.558 7.88117 248.459 6.49036 248.26 5.19889C248.161 4.70217 248.161 4.30479 248.161 4.00676C250.744 1.32447 249.75 -4.93421 244.982 -5.23224C240.81 -5.53027 238.425 -1.35782 238.425 2.71528C238.425 7.78183 239.617 13.1464 240.114 18.213C240.412 20.9946 242.101 23.3788 244.883 23.3788C247.267 23.3788 250.049 20.9946 249.651 18.213C249.452 15.2326 249.055 12.2523 248.757 9.27199Z" fill="#CFDE64"/>
<path d="M2.9802 -4.33808C1.3907 4.20551 0.893978 12.7491 1.68873 21.392C2.28479 27.9487 11.9212 28.0481 11.3251 21.392C10.6297 13.6432 10.8284 6.09304 12.3185 -1.55645C13.5107 -8.11315 4.27168 -10.8948 2.9802 -4.33808Z" fill="#CFDE64"/>
<path d="M93.1846 15.63C91.7938 10.9609 91.3964 6.29168 91.8931 1.42382C92.1911 -1.35781 89.5088 -3.74207 87.1246 -3.74207C84.343 -3.74207 82.5548 -1.35781 82.3561 1.42382C81.8593 7.18578 82.4554 12.9477 84.0449 18.4117C85.7338 24.7697 95.0721 21.988 93.1846 15.63Z" fill="#CFDE64"/>
<path d="M281.74 17.7162C279.753 11.6562 279.157 5.59625 279.753 -0.861112C280.349 -7.51716 270.712 -7.51716 270.116 -0.861112C269.52 6.391 270.315 13.5438 272.501 20.4979C274.488 26.7565 283.826 24.0742 281.74 17.7162Z" fill="#CFDE64"/>
<path d="M121.299 20.1999C119.709 12.3517 119.113 4.5035 119.312 -3.54336C119.511 -10.1994 109.974 -10.1994 109.675 -3.54336C109.377 5.3976 110.172 14.2392 111.96 22.9815C113.351 29.5382 122.69 26.7566 121.299 20.1999Z" fill="#CFDE64"/>
<path d="M303.396 15.928C302.105 10.9608 301.807 5.99362 302.204 0.827731C302.701 -5.82832 293.065 -5.82832 292.568 0.827731C292.171 6.88772 292.667 12.8484 294.157 18.7097C295.747 25.167 304.986 22.3854 303.396 15.928Z" fill="#CFDE64"/>
<path d="M136.697 -0.463774V18.6103C136.697 25.2663 146.334 25.2663 146.334 18.6103V-0.463774C146.334 -7.11982 136.697 -7.11982 136.697 -0.463774Z" fill="#CFDE64"/>
<path d="M332.107 17.2195C330.418 11.1596 329.723 5.09957 330.021 -1.25845C330.418 -7.9145 320.782 -7.9145 320.385 -1.25845C319.987 5.99366 320.782 13.1464 322.769 20.0012C324.656 26.3592 333.895 23.6769 332.107 17.2195Z" fill="#CFDE64"/>
<path d="M173.355 19.4051C171.666 12.1529 171.07 4.90083 171.368 -2.64932C171.666 -9.30537 162.03 -9.30537 161.732 -2.64932C161.335 5.69558 162.229 14.0405 164.116 22.1867C165.606 28.644 174.945 25.8624 173.355 19.4051Z" fill="#CFDE64"/>
<path d="M576.195 0.132273C577.288 -6.42443 568.049 -9.20607 566.956 -2.64936C565.664 5.00013 565.664 12.4509 566.956 20.0011C568.049 26.5578 577.288 23.7762 576.195 17.2194C575.301 11.5568 575.301 5.79488 576.195 0.132273Z" fill="#CFDE64"/>
<path d="M404.032 -3.84141V21.2926C404.032 27.9487 413.668 27.9487 413.668 21.2926V-3.84141C413.668 -10.5968 404.032 -10.5968 404.032 -3.84141Z" fill="#CFDE64"/>
<path d="M596.958 15.63C595.468 11.0602 595.17 6.58968 596.163 1.92051C597.653 -4.53685 588.414 -7.31849 586.924 -0.861124C585.434 5.49689 585.633 12.1529 587.719 18.4116C589.805 24.6703 599.044 21.988 596.958 15.63Z" fill="#CFDE64"/>
<path d="M348.399 -2.64934C347.108 5.00015 347.008 12.451 348.201 20.1004C349.194 26.6571 358.433 23.8755 357.44 17.3188C356.545 11.6562 356.645 5.7949 357.638 0.132294C358.83 -6.42441 349.591 -9.30539 348.399 -2.64934Z" fill="#CFDE64"/>
<path d="M436.815 16.0274C435.722 11.1595 435.424 6.29163 436.219 1.42378C437.312 -5.13293 428.073 -7.91456 426.98 -1.35786C425.887 5.39754 425.987 12.0536 427.576 18.809C429.066 25.2663 438.305 22.4847 436.815 16.0274Z" fill="#CFDE64"/>
<path d="M620.204 8.87453C620.006 7.48371 619.906 6.0929 619.708 4.80142C619.608 4.3047 619.608 3.90733 619.608 3.6093C622.191 0.927006 621.198 -5.33167 616.429 -5.6297C612.257 -5.92773 609.873 -1.75528 609.873 2.31782C609.873 7.38437 611.065 12.7489 611.561 17.8155C611.859 20.5971 613.548 22.9814 616.33 22.9814C618.714 22.9814 621.496 20.5971 621.098 17.8155C620.9 14.8352 620.502 11.8548 620.204 8.87453Z" fill="#CFDE64"/>
<path d="M374.527 -4.83491C372.937 3.70868 372.44 12.2523 373.235 20.8952C373.831 27.4519 383.468 27.5512 382.871 20.8952C382.176 13.1464 382.375 5.59622 383.865 -2.05327C384.958 -8.60998 375.719 -11.3916 374.527 -4.83491Z" fill="#CFDE64"/>
<path d="M464.632 15.2326C463.241 10.5634 462.844 5.89422 463.34 1.02636C463.638 -1.75527 460.956 -4.13953 458.572 -4.13953C455.79 -4.13953 454.002 -1.75527 453.803 1.02636C453.307 6.78832 453.903 12.5503 455.492 18.0142C457.28 24.3722 466.519 21.5906 464.632 15.2326Z" fill="#CFDE64"/>
<path d="M653.187 17.3189C651.2 11.2589 650.604 5.19891 651.2 -1.25845C651.796 -7.9145 642.16 -7.9145 641.564 -1.25845C640.968 5.99366 641.762 13.1464 643.948 20.1005C645.935 26.3592 655.273 23.5776 653.187 17.3189Z" fill="#CFDE64"/>
<path d="M492.746 19.8024C491.156 11.9542 490.56 4.10604 490.759 -3.94082C490.958 -10.5969 481.421 -10.5969 481.123 -3.94082C480.825 5.00014 481.619 13.8418 483.408 22.584C484.798 29.1407 494.137 26.3591 492.746 19.8024Z" fill="#CFDE64"/>
<path d="M674.844 15.5306C673.552 10.5634 673.254 5.59616 673.652 0.43027C674.148 -6.22578 664.512 -6.22578 664.015 0.43027C663.618 6.49026 664.115 12.4509 665.605 18.3122C667.194 24.6702 676.433 21.9879 674.844 15.5306Z" fill="#CFDE64"/>
<path d="M508.145 -0.861235V18.2128C508.145 24.8689 517.781 24.8689 517.781 18.2128V-0.861235C517.781 -7.51728 508.145 -7.51728 508.145 -0.861235Z" fill="#CFDE64"/>
<path d="M703.554 16.8221C701.866 10.7621 701.17 4.70211 701.468 -1.65591C701.866 -8.31196 692.229 -8.31196 691.832 -1.65591C691.434 5.5962 692.229 12.749 694.216 19.6037C696.104 25.9617 705.442 23.2794 703.554 16.8221Z" fill="#CFDE64"/>
<path d="M544.902 19.0076C543.213 11.7555 542.617 4.50336 542.915 -3.04678C543.213 -9.70283 533.576 -9.70283 533.278 -3.04678C532.881 5.29812 533.775 13.643 535.663 21.7892C537.053 28.2466 546.392 25.465 544.902 19.0076Z" fill="#CFDE64"/>
<path d="M943.569 -0.364309C944.662 -6.92102 935.423 -9.70265 934.33 -3.14594C933.038 4.50355 933.038 11.9544 934.33 19.5045C935.423 26.0612 944.662 23.2796 943.569 16.7229C942.575 11.1596 942.675 5.2983 943.569 -0.364309Z" fill="#CFDE64"/>
<path d="M771.406 -4.33816V20.7959C771.406 27.4519 781.043 27.4519 781.043 20.7959V-4.33816C781.043 -10.9942 771.406 -10.9942 771.406 -4.33816Z" fill="#CFDE64"/>
<path d="M964.332 15.2326C962.842 10.6628 962.544 6.19234 963.537 1.52317C965.027 -4.93419 955.788 -7.71582 954.298 -1.25846C952.808 5.09956 953.007 11.7556 955.093 18.0143C957.08 24.1736 966.418 21.4913 964.332 15.2326Z" fill="#CFDE64"/>
<path d="M715.773 -3.14594C714.482 4.50355 714.382 11.9544 715.575 19.6038C716.568 26.1605 725.807 23.3789 724.814 16.8222C723.919 11.1596 724.019 5.2983 725.012 -0.364309C726.204 -6.92102 716.965 -9.70265 715.773 -3.14594Z" fill="#CFDE64"/>
<path d="M804.19 15.63C803.097 10.7622 802.799 5.8943 803.594 1.02644C804.686 -5.53027 795.447 -8.3119 794.355 -1.75519C793.262 5.0002 793.361 11.6562 794.951 18.4116C796.441 24.869 805.68 22.0874 804.19 15.63Z" fill="#CFDE64"/>
<path d="M987.579 8.47731C987.38 7.08649 987.281 5.69568 987.082 4.40421C986.983 3.90749 986.983 3.51011 986.983 3.21208C989.566 0.529789 988.572 -5.72888 983.804 -6.02692C979.631 -6.32495 977.247 -2.1525 977.247 1.92061C977.247 6.98715 978.439 12.3517 978.936 17.4183C979.234 20.1999 980.923 22.5842 983.704 22.5842C986.089 22.5842 988.87 20.1999 988.473 17.4183C988.175 14.438 987.877 11.4576 987.579 8.47731Z" fill="#CFDE64"/>
<path d="M741.802 -5.23225C740.212 3.31134 739.715 11.8549 740.51 20.4979C741.106 27.0546 750.742 27.1539 750.146 20.4979C749.451 12.749 749.65 5.19888 751.14 -2.45061C752.332 -9.00732 743.093 -11.789 741.802 -5.23225Z" fill="#CFDE64"/>
<path d="M832.006 14.7359C830.615 10.0667 830.218 5.39752 830.714 0.529659C831.012 -2.25197 828.33 -4.63623 825.946 -4.63623C823.164 -4.63623 821.376 -2.25197 821.177 0.529659C820.681 6.29161 821.277 12.0536 822.866 17.5175C824.555 23.8755 833.893 21.1932 832.006 14.7359Z" fill="#CFDE64"/>
<path d="M1020.56 16.8221C1018.57 10.7621 1017.98 4.70208 1018.57 -1.75528C1019.17 -8.41133 1009.53 -8.41133 1008.94 -1.75528C1008.34 5.49684 1009.14 12.6496 1011.32 19.6037C1013.31 25.8624 1022.55 23.1801 1020.56 16.8221Z" fill="#CFDE64"/>
<path d="M860.12 19.4051C858.531 11.5569 857.934 3.7087 858.133 -4.33816C858.332 -10.9942 848.795 -10.9942 848.497 -4.33816C848.199 4.6028 848.993 13.4444 850.782 22.1867C852.172 28.7434 861.511 25.9618 860.12 19.4051Z" fill="#CFDE64"/>
<path d="M1042.22 15.034C1040.93 10.0668 1040.63 5.09958 1041.03 -0.0663123C1041.52 -6.72236 1031.89 -6.72236 1031.39 -0.0663123C1030.99 5.99367 1031.49 11.9543 1032.98 17.8156C1034.57 24.273 1043.81 21.5907 1042.22 15.034Z" fill="#CFDE64"/>
<path d="M875.519 -1.25848V17.8156C875.519 24.4716 885.155 24.4716 885.155 17.8156V-1.25848C885.155 -7.91453 875.519 -8.01388 875.519 -1.25848Z" fill="#CFDE64"/>
<path d="M1070.93 16.4249C1069.24 10.3649 1068.54 4.30489 1068.84 -2.05313C1069.24 -8.70918 1059.6 -8.70918 1059.21 -2.05313C1058.81 5.19899 1059.6 12.3518 1061.59 19.2065C1063.48 25.5645 1072.72 22.7829 1070.93 16.4249Z" fill="#CFDE64"/>
<path d="M912.177 18.511C910.488 11.2589 909.892 4.00678 910.19 -3.54336C910.488 -10.1994 900.851 -10.1994 900.553 -3.54336C900.156 4.80153 901.05 13.1464 902.937 21.2926C904.428 27.75 913.766 25.0677 912.177 18.511Z" fill="#CFDE64"/>
<path d="M1158.35 -4.7355V20.3985C1158.35 27.0546 1167.99 27.0546 1167.99 20.3985V-4.7355C1167.89 -11.3916 1158.35 -11.3916 1158.35 -4.7355Z" fill="#CFDE64"/>
<path d="M1102.72 -3.5434C1101.43 4.10609 1101.33 11.5569 1102.52 19.2064C1103.51 25.7631 1112.75 22.9815 1111.76 16.4247C1110.86 10.7621 1110.96 4.90084 1111.96 -0.76177C1113.15 -7.31848 1103.81 -10.1001 1102.72 -3.5434Z" fill="#CFDE64"/>
<path d="M1191.04 15.2327C1189.94 10.3648 1189.64 5.49696 1190.44 0.629099C1191.53 -5.92761 1182.29 -8.70924 1181.2 -2.15253C1180.11 4.60286 1180.21 11.2589 1181.8 18.0143C1183.39 24.4717 1192.62 21.69 1191.04 15.2327Z" fill="#CFDE64"/>
<path d="M1128.75 -5.62958C1127.16 2.914 1126.66 11.4576 1127.46 20.1005C1128.05 26.6572 1137.69 26.7566 1137.09 20.1005C1136.4 12.3517 1136.6 4.80154 1138.09 -2.84795C1139.18 -9.40466 1129.94 -12.1863 1128.75 -5.62958Z" fill="#CFDE64"/>
<path d="M1218.95 14.3385C1217.56 9.66935 1217.16 5.00018 1217.66 0.13232C1217.96 -2.64931 1215.28 -5.03357 1212.89 -5.03357C1210.11 -5.03357 1208.32 -2.64931 1208.12 0.13232C1207.63 5.89427 1208.22 11.6562 1209.81 17.1201C1211.5 23.4782 1220.74 20.7959 1218.95 14.3385Z" fill="#CFDE64"/>
<path d="M1247.07 19.0077C1245.48 11.1595 1244.88 3.31137 1245.08 -4.7355C1245.28 -11.3916 1235.74 -11.3916 1235.44 -4.7355C1235.14 4.20546 1235.94 13.0471 1237.73 21.7894C1239.12 28.2467 1248.36 25.5644 1247.07 19.0077Z" fill="#CFDE64"/>
<path d="M1262.36 -1.65587V17.4182C1262.36 24.0742 1272 24.0742 1272 17.4182V-1.65587C1272 -8.41126 1262.36 -8.41126 1262.36 -1.65587Z" fill="#CFDE64"/>
<path d="M1299.12 18.1136C1297.43 10.8614 1296.84 3.60932 1297.14 -3.94082C1297.43 -10.5969 1287.8 -10.5969 1287.5 -3.94082C1287.1 4.40407 1288 12.749 1289.88 20.8952C1291.37 27.3525 1300.61 24.6703 1299.12 18.1136Z" fill="#CFDE64"/>
<path d="M226.107 43.2478C227.199 36.691 217.96 33.9094 216.868 40.4661C215.576 48.1156 215.576 55.5664 216.868 63.1166C217.96 69.6733 227.199 66.8916 226.107 60.3349C225.212 54.6723 225.212 48.9104 226.107 43.2478Z" fill="#CFDE64"/>
<path d="M53.9434 39.2738V64.4079C53.9434 71.0639 63.5797 71.0639 63.5797 64.4079V39.2738C63.5797 32.5184 53.9434 32.5184 53.9434 39.2738Z" fill="#CFDE64"/>
<path d="M246.87 58.7453C245.38 54.1755 245.081 49.705 246.075 45.0359C247.565 38.5785 238.326 35.7969 236.836 42.2542C235.346 48.6123 235.544 55.2683 237.631 61.527C239.717 67.7856 248.956 65.1034 246.87 58.7453Z" fill="#CFDE64"/>
<path d="M-1.6891 40.4661C-2.98057 48.1156 -3.07992 55.5664 -1.88779 63.2159C-0.894348 69.7726 8.34465 66.991 7.35121 60.4343C6.45711 54.7717 6.55645 48.9104 7.54989 43.2478C8.74202 36.691 -0.496971 33.9094 -1.6891 40.4661Z" fill="#CFDE64"/>
<path d="M86.7269 59.1427C85.6341 54.2748 85.336 49.407 86.1308 44.5391C87.2236 37.9824 77.9846 35.2008 76.8918 41.7575C75.799 48.5129 75.8984 55.1689 77.4879 61.9243C78.978 68.3817 88.217 65.6994 86.7269 59.1427Z" fill="#CFDE64"/>
<path d="M270.116 51.99C269.917 50.5992 269.818 49.2084 269.619 47.9169C269.52 47.4202 269.52 47.0228 269.52 46.7248C272.103 44.0425 271.109 37.7838 266.341 37.4858C262.168 37.1877 259.784 41.3602 259.784 45.4333C259.784 50.4998 260.976 55.8644 261.473 60.931C261.771 63.7126 263.46 66.0969 266.242 66.0969C268.626 66.0969 271.407 63.7126 271.01 60.931C270.811 57.9506 270.414 54.9703 270.116 51.99Z" fill="#CFDE64"/>
<path d="M24.4382 38.3798C22.8487 46.9234 22.352 55.467 23.1467 64.1099C23.7428 70.6666 33.3792 70.766 32.7831 64.1099C32.0877 56.3611 32.2864 48.8109 33.7766 41.1614C34.8693 34.6047 25.6303 31.8231 24.4382 38.3798Z" fill="#CFDE64"/>
<path d="M114.543 58.3479C113.153 53.6787 112.755 49.0096 113.252 44.1417C113.55 41.3601 110.868 38.9758 108.483 38.9758C105.702 38.9758 103.914 41.3601 103.715 44.1417C103.218 49.9037 103.814 55.6656 105.404 61.1296C107.192 67.4876 116.431 64.7059 114.543 58.3479Z" fill="#CFDE64"/>
<path d="M303.099 60.4341C301.112 54.3741 300.516 48.3141 301.112 41.8568C301.708 35.2007 292.071 35.2007 291.475 41.8568C290.879 49.1089 291.674 56.2617 293.86 63.2158C295.846 69.4744 305.185 66.7921 303.099 60.4341Z" fill="#CFDE64"/>
<path d="M142.658 62.9178C141.068 55.0696 140.472 47.2214 140.671 39.1745C140.869 32.5185 131.332 32.5185 131.034 39.1745C130.736 48.1155 131.531 56.9571 133.319 65.6994C134.71 72.2561 144.048 69.4745 142.658 62.9178Z" fill="#CFDE64"/>
<path d="M324.755 58.646C323.464 53.6788 323.166 48.7116 323.563 43.5457C324.06 36.8897 314.424 36.8897 313.927 43.5457C313.529 49.6057 314.026 55.5664 315.516 61.4277C317.106 67.885 326.345 65.1034 324.755 58.646Z" fill="#CFDE64"/>
<path d="M158.056 42.2542V61.3283C158.056 67.9843 167.693 67.9843 167.693 61.3283V42.2542C167.693 35.5982 158.056 35.5982 158.056 42.2542Z" fill="#CFDE64"/>
<path d="M353.466 59.9374C351.777 53.8774 351.082 47.8175 351.38 41.4594C351.777 34.8034 342.141 34.8034 341.743 41.4594C341.346 48.7116 342.141 55.8643 344.128 62.7191C346.015 69.0771 355.354 66.3948 353.466 59.9374Z" fill="#CFDE64"/>
<path d="M194.813 62.1231C193.124 54.871 192.528 47.6188 192.826 40.0687C193.124 33.4126 183.488 33.4126 183.19 40.0687C182.793 48.4136 183.687 56.7585 185.574 64.9047C187.064 71.3621 196.303 68.5804 194.813 62.1231Z" fill="#CFDE64"/>
<path d="M597.554 42.8503C598.647 36.2936 589.408 33.512 588.315 40.0687C587.024 47.7181 587.024 55.169 588.315 62.7191C589.408 69.2758 598.647 66.4942 597.554 59.9375C596.66 54.2749 596.66 48.5129 597.554 42.8503Z" fill="#CFDE64"/>
<path d="M425.391 38.7772V63.9112C425.391 70.5673 435.027 70.5673 435.027 63.9112V38.7772C435.027 32.1211 425.391 32.1211 425.391 38.7772Z" fill="#CFDE64"/>
<path d="M618.317 58.348C616.827 53.7782 616.529 49.3077 617.522 44.6385C619.012 38.1812 609.773 35.3995 608.283 41.8569C606.793 48.2149 606.992 54.871 609.078 61.1296C611.164 67.3883 620.403 64.6067 618.317 58.348Z" fill="#CFDE64"/>
<path d="M369.858 40.0687C368.566 47.7182 368.467 55.169 369.659 62.8185C370.653 69.3752 379.892 66.5935 378.898 60.0368C378.004 54.3742 378.103 48.5129 379.097 42.8503C380.19 36.2936 370.951 33.4126 369.858 40.0687Z" fill="#CFDE64"/>
<path d="M458.175 58.7454C457.082 53.8775 456.784 49.0097 457.579 44.1418C458.671 37.5851 449.432 34.8035 448.34 41.3602C447.247 48.1156 447.346 54.7716 448.936 61.527C450.426 67.9844 459.764 65.2027 458.175 58.7454Z" fill="#CFDE64"/>
<path d="M641.564 51.5925C641.365 50.2017 641.266 48.8109 641.067 47.5194C640.968 47.0227 640.968 46.6253 640.968 46.3273C643.551 43.645 642.557 37.3863 637.789 37.0883C633.616 36.7903 631.232 40.9627 631.232 45.0358C631.232 50.1024 632.424 55.467 632.921 60.5335C633.219 63.3151 634.908 65.6994 637.689 65.6994C640.074 65.6994 642.855 63.3151 642.458 60.5335C642.259 57.5532 641.862 54.5729 641.564 51.5925Z" fill="#CFDE64"/>
<path d="M395.886 37.8831C394.296 46.4267 393.8 54.9703 394.594 63.6132C395.191 70.1699 404.827 70.2693 404.231 63.6132C403.535 55.8644 403.734 48.3142 405.224 40.6647C406.317 34.108 397.078 31.3264 395.886 37.8831Z" fill="#CFDE64"/>
<path d="M485.991 57.9506C484.6 53.2814 484.203 48.6122 484.7 43.7444C484.998 40.9627 482.315 38.5785 479.931 38.5785C477.15 38.5785 475.361 40.9627 475.163 43.7444C474.666 49.5063 475.262 55.2683 476.852 60.7322C478.64 67.0902 487.879 64.3086 485.991 57.9506Z" fill="#CFDE64"/>
<path d="M674.546 59.9375C672.559 53.8775 671.963 47.8176 672.559 41.3602C673.155 34.7042 663.519 34.7042 662.923 41.3602C662.326 48.6123 663.121 55.7651 665.307 62.7192C667.294 69.0772 676.632 66.2956 674.546 59.9375Z" fill="#CFDE64"/>
<path d="M514.105 62.5204C512.516 54.6722 511.92 46.8241 512.118 38.7772C512.317 32.1211 502.78 32.1211 502.482 38.7772C502.184 47.7182 502.979 56.5598 504.767 65.302C506.257 71.8588 515.496 69.0771 514.105 62.5204Z" fill="#CFDE64"/>
<path d="M696.203 58.2486C694.912 53.2814 694.614 48.3142 695.011 43.1483C695.508 36.4922 685.871 36.4922 685.375 43.1483C684.977 49.2083 685.474 55.1689 686.964 61.0302C688.554 67.3882 697.793 64.7059 696.203 58.2486Z" fill="#CFDE64"/>
<path d="M529.504 41.8568V60.9308C529.504 67.5869 539.14 67.5869 539.14 60.9308V41.8568C539.14 35.2007 529.504 35.2007 529.504 41.8568Z" fill="#CFDE64"/>
<path d="M724.913 59.5401C723.224 53.4801 722.529 47.4201 722.827 41.0621C723.224 34.4061 713.588 34.4061 713.191 41.0621C712.793 48.3142 713.588 55.467 715.575 62.3217C717.462 68.6797 726.801 65.9975 724.913 59.5401Z" fill="#CFDE64"/>
<path d="M566.261 61.7256C564.572 54.4735 563.976 47.2214 564.274 39.6712C564.572 33.0152 554.936 33.0152 554.638 39.6712C554.24 48.0161 555.134 56.361 557.022 64.5072C558.512 70.9646 567.751 68.183 566.261 61.7256Z" fill="#CFDE64"/>
<path d="M964.929 42.3535C966.022 35.7968 956.783 33.0151 955.69 39.5718C954.398 47.2213 954.398 54.6721 955.69 62.2223C956.783 68.779 966.022 65.9973 964.929 59.4406C964.035 53.8774 964.035 48.0161 964.929 42.3535Z" fill="#CFDE64"/>
<path d="M792.766 38.3797V63.5138C792.766 70.1698 802.402 70.1698 802.402 63.5138V38.3797C802.402 31.7237 792.766 31.7237 792.766 38.3797Z" fill="#CFDE64"/>
<path d="M985.691 57.9505C984.201 53.3807 983.903 48.9102 984.897 44.2411C986.387 37.7837 977.148 35.0021 975.658 41.4594C974.168 47.8174 974.366 54.4735 976.452 60.7322C978.539 66.8915 987.778 64.2092 985.691 57.9505Z" fill="#CFDE64"/>
<path d="M737.133 39.5718C735.841 47.2213 735.742 54.6721 736.934 62.3216C737.927 68.8783 747.166 66.0967 746.173 59.54C745.279 53.8774 745.378 48.0161 746.372 42.3535C747.564 35.7968 738.325 33.0151 737.133 39.5718Z" fill="#CFDE64"/>
<path d="M825.549 58.3479C824.456 53.48 824.158 48.6122 824.953 43.7443C826.046 37.1876 816.807 34.406 815.714 40.9627C814.621 47.7181 814.721 54.3741 816.31 61.1295C817.8 67.5869 827.039 64.8053 825.549 58.3479Z" fill="#CFDE64"/>
<path d="M1008.94 51.1951C1008.74 49.8043 1008.64 48.4135 1008.44 47.122C1008.34 46.6253 1008.34 46.2279 1008.34 45.9299C1010.93 43.2476 1009.93 36.9889 1005.16 36.6909C1000.99 36.3928 998.606 40.5653 998.606 44.6384C998.606 49.7049 999.799 55.0695 1000.3 60.1361C1000.59 62.9177 1002.28 65.3019 1005.06 65.3019C1007.45 65.3019 1010.23 62.9177 1009.83 60.1361C1009.63 57.1557 1009.24 54.1754 1008.94 51.1951Z" fill="#CFDE64"/>
<path d="M763.161 37.4856C761.571 46.0292 761.075 54.5728 761.869 63.2158C762.465 69.7725 772.102 69.8718 771.506 63.2158C770.81 55.4669 771.009 47.9168 772.499 40.2673C773.691 33.7106 764.452 30.9289 763.161 37.4856Z" fill="#CFDE64"/>
<path d="M853.365 57.4539C851.974 52.7847 851.577 48.1155 852.074 43.2477C852.372 40.466 849.689 38.0818 847.305 38.0818C844.524 38.0818 842.735 40.466 842.537 43.2477C842.04 49.0096 842.636 54.7716 844.226 60.2355C846.014 66.5935 855.253 63.9112 853.365 57.4539Z" fill="#CFDE64"/>
<path d="M1041.92 59.5401C1039.93 53.4801 1039.34 47.4201 1039.93 40.9627C1040.53 34.3067 1030.89 34.3067 1030.3 40.9627C1029.7 48.2149 1030.5 55.3676 1032.68 62.3217C1034.67 68.5804 1044.01 65.8981 1041.92 59.5401Z" fill="#CFDE64"/>
<path d="M881.479 62.123C879.89 54.2748 879.294 46.4266 879.493 38.3797C879.691 31.7237 870.154 31.7237 869.856 38.3797C869.558 47.3207 870.353 56.1623 872.141 64.9046C873.532 71.3619 882.87 68.6797 881.479 62.123Z" fill="#CFDE64"/>
<path d="M1063.58 57.7518C1062.29 52.7846 1061.99 47.8174 1062.38 42.6515C1062.88 35.9954 1053.25 35.9954 1052.75 42.6515C1052.35 48.7114 1052.85 54.6721 1054.34 60.5334C1055.93 66.9908 1065.17 64.3085 1063.58 57.7518Z" fill="#CFDE64"/>
<path d="M896.878 41.4594V60.5334C896.878 67.1895 906.514 67.1895 906.514 60.5334V41.4594C906.514 34.704 896.878 34.704 896.878 41.4594Z" fill="#CFDE64"/>
<path d="M1092.29 59.1426C1090.6 53.0827 1089.9 47.0227 1090.2 40.6646C1090.6 34.0086 1080.96 34.0086 1080.57 40.6646C1080.17 47.9168 1080.96 55.0695 1082.95 61.9243C1084.84 68.2823 1094.18 65.5007 1092.29 59.1426Z" fill="#CFDE64"/>
<path d="M933.635 61.2288C931.946 53.9767 931.35 46.7246 931.648 39.1744C931.946 32.5184 922.31 32.5184 922.012 39.1744C921.614 47.5193 922.509 55.8642 924.396 64.0104C925.787 70.4678 935.125 67.7855 933.635 61.2288Z" fill="#CFDE64"/>
<path d="M1179.71 37.9824V63.1164C1179.71 69.7725 1189.35 69.7725 1189.35 63.1164V37.9824C1189.25 31.3263 1179.71 31.3263 1179.71 37.9824Z" fill="#CFDE64"/>
<path d="M1124.08 39.1746C1122.79 46.8241 1122.69 54.2749 1123.88 61.9244C1124.87 68.4811 1134.11 65.6995 1133.12 59.1428C1132.22 53.4802 1132.32 47.6189 1133.32 41.9562C1134.51 35.3995 1125.17 32.6179 1124.08 39.1746Z" fill="#CFDE64"/>
<path d="M1212.39 57.8513C1211.3 52.9835 1211 48.1156 1211.8 43.2478C1212.89 36.691 1203.65 33.9094 1202.56 40.4661C1201.47 47.2215 1201.57 53.8776 1203.16 60.633C1204.74 67.0903 1213.98 64.408 1212.39 57.8513Z" fill="#CFDE64"/>
<path d="M1150.11 37.0883C1148.52 45.6319 1148.02 54.1755 1148.81 62.8184C1149.41 69.3751 1159.05 69.4745 1158.45 62.8184C1157.76 55.0696 1157.95 47.5194 1159.44 39.8699C1160.54 33.3132 1151.3 30.5316 1150.11 37.0883Z" fill="#CFDE64"/>
<path d="M1240.31 57.0564C1238.92 52.3872 1238.52 47.7181 1239.02 42.8502C1239.32 40.0686 1236.63 37.6843 1234.25 37.6843C1231.47 37.6843 1229.68 40.0686 1229.48 42.8502C1228.98 48.6122 1229.58 54.3741 1231.17 59.838C1232.86 66.1961 1242.2 63.5138 1240.31 57.0564Z" fill="#CFDE64"/>
<path d="M1268.42 61.7256C1266.84 53.8774 1266.24 46.0293 1266.44 37.9824C1266.64 31.3263 1257.1 31.3263 1256.8 37.9824C1256.5 46.9234 1257.3 55.765 1259.09 64.5073C1260.48 70.9646 1269.72 68.183 1268.42 61.7256Z" fill="#CFDE64"/>
<path d="M1283.72 41.0622V60.1362C1283.72 66.7923 1293.36 66.7923 1293.36 60.1362V41.0622C1293.36 34.3068 1283.72 34.3068 1283.72 41.0622Z" fill="#CFDE64"/>
<path d="M220.245 173.09C221.338 166.534 212.099 163.752 211.006 170.309C209.715 177.958 209.715 185.409 211.006 192.959C212.099 199.516 221.338 196.734 220.245 190.177C219.252 184.614 219.252 178.753 220.245 173.09Z" fill="#CFDE64"/>
<path d="M48.082 169.117V194.251C48.082 200.907 57.7184 200.907 57.7184 194.251V169.117C57.6191 162.46 48.082 162.46 48.082 169.117Z" fill="#CFDE64"/>
<path d="M241.008 188.687C239.518 184.118 239.22 179.647 240.214 174.978C241.704 168.521 232.465 165.739 230.975 172.196C229.484 178.554 229.683 185.21 231.769 191.469C233.756 197.628 243.095 194.946 241.008 188.687Z" fill="#CFDE64"/>
<path d="M-7.55043 170.309C-8.8419 177.958 -8.94125 185.409 -7.74912 193.058C-6.75568 199.615 2.48332 196.833 1.48988 190.277C0.595783 184.614 0.695126 178.753 1.68857 173.09C2.88069 166.534 -6.45764 163.752 -7.55043 170.309Z" fill="#CFDE64"/>
<path d="M80.8655 189.085C79.7727 184.217 79.4747 179.349 80.2695 174.481C81.3623 167.924 72.1233 165.143 71.0305 171.7C69.9377 178.455 70.037 185.111 71.6265 191.866C73.1167 198.324 82.3557 195.542 80.8655 189.085Z" fill="#CFDE64"/>
<path d="M264.156 181.932C263.957 180.541 263.857 179.15 263.659 177.859C263.559 177.362 263.559 176.965 263.559 176.667C266.142 173.984 265.149 167.726 260.38 167.428C256.208 167.13 253.824 171.302 253.824 175.375C253.824 180.442 255.016 185.806 255.513 190.873C255.811 193.655 257.499 196.039 260.281 196.039C262.665 196.039 265.447 193.655 265.05 190.873C264.851 187.893 264.553 184.912 264.156 181.932Z" fill="#CFDE64"/>
<path d="M18.4778 168.222C16.8883 176.766 16.3915 185.31 17.1863 193.953C17.7824 200.509 27.4187 200.609 26.8227 193.953C26.1273 186.204 26.3259 178.654 27.8161 171.004C28.9089 164.447 19.6699 161.666 18.4778 168.222Z" fill="#CFDE64"/>
<path d="M108.682 188.191C107.291 183.522 106.894 178.852 107.391 173.984C107.689 171.203 105.006 168.819 102.622 168.819C99.8405 168.819 98.0523 171.203 97.8536 173.984C97.3569 179.746 97.953 185.508 99.5425 190.972C101.231 197.33 110.57 194.648 108.682 188.191Z" fill="#CFDE64"/>
<path d="M297.237 190.277C295.25 184.217 294.654 178.157 295.25 171.7C295.846 165.044 286.21 165.044 285.614 171.7C285.018 178.952 285.813 186.104 287.998 193.059C289.985 199.317 299.224 196.635 297.237 190.277Z" fill="#CFDE64"/>
<path d="M136.796 192.86C135.207 185.012 134.611 177.163 134.809 169.117C135.008 162.46 125.471 162.46 125.173 169.117C124.875 178.058 125.67 186.899 127.458 195.641C128.849 202.198 138.088 199.416 136.796 192.86Z" fill="#CFDE64"/>
<path d="M318.795 188.489C317.503 183.521 317.205 178.554 317.603 173.388C318.099 166.732 308.463 166.732 307.966 173.388C307.569 179.448 308.066 185.409 309.556 191.27C311.145 197.728 320.484 195.045 318.795 188.489Z" fill="#CFDE64"/>
<path d="M152.195 172.196V191.27C152.195 197.926 161.831 197.926 161.831 191.27V172.196C161.732 165.441 152.195 165.441 152.195 172.196Z" fill="#CFDE64"/>
<path d="M347.605 189.879C345.916 183.819 345.22 177.759 345.518 171.401C345.916 164.745 336.279 164.745 335.882 171.401C335.485 178.654 336.279 185.806 338.266 192.661C340.154 199.019 349.393 196.237 347.605 189.879Z" fill="#CFDE64"/>
<path d="M188.853 191.966C187.164 184.714 186.568 177.462 186.866 169.911C187.164 163.255 177.528 163.255 177.23 169.911C176.832 178.256 177.726 186.601 179.614 194.747C181.104 201.205 190.343 198.523 188.853 191.966Z" fill="#CFDE64"/>
<path d="M591.693 172.693C592.786 166.136 583.547 163.354 582.454 169.911C581.162 177.561 581.162 185.011 582.454 192.562C583.547 199.118 592.786 196.337 591.693 189.78C590.699 184.217 590.699 178.355 591.693 172.693Z" fill="#CFDE64"/>
<path d="M419.529 168.719V193.853C419.529 200.509 429.166 200.509 429.166 193.853V168.719C429.066 162.063 419.529 162.063 419.529 168.719Z" fill="#CFDE64"/>
<path d="M612.456 188.191C610.965 183.621 610.667 179.15 611.661 174.481C613.151 168.024 603.912 165.242 602.422 171.699C600.932 178.057 601.13 184.713 603.217 190.972C605.204 197.231 614.542 194.549 612.456 188.191Z" fill="#CFDE64"/>
<path d="M363.897 169.911C362.605 177.561 362.506 185.011 363.698 192.661C364.692 199.218 373.931 196.436 372.937 189.879C372.043 184.217 372.142 178.355 373.136 172.693C374.328 166.136 365.089 163.354 363.897 169.911Z" fill="#CFDE64"/>
<path d="M452.313 188.588C451.22 183.72 450.922 178.852 451.717 173.984C452.81 167.428 443.571 164.646 442.478 171.203C441.385 177.958 441.485 184.614 443.074 191.37C444.564 197.926 453.803 195.145 452.313 188.588Z" fill="#CFDE64"/>
<path d="M635.603 181.534C635.404 180.144 635.305 178.753 635.106 177.461C635.007 176.965 635.007 176.567 635.007 176.269C637.59 173.587 636.596 167.328 631.828 167.03C627.655 166.732 625.271 170.905 625.271 174.978C625.271 180.044 626.463 185.409 626.96 190.475C627.258 193.257 628.947 195.641 631.728 195.641C634.113 195.641 636.894 193.257 636.497 190.475C636.298 187.396 636 184.415 635.603 181.534Z" fill="#CFDE64"/>
<path d="M389.925 167.825C388.336 176.369 387.839 184.912 388.634 193.555C389.23 200.112 398.866 200.211 398.27 193.555C397.575 185.806 397.773 178.256 399.263 170.607C400.456 164.05 391.117 161.268 389.925 167.825Z" fill="#CFDE64"/>
<path d="M480.129 187.793C478.739 183.124 478.341 178.455 478.838 173.587C479.136 170.805 476.454 168.421 474.069 168.421C471.288 168.421 469.5 170.805 469.301 173.587C468.804 179.349 469.4 185.111 470.99 190.575C472.679 196.933 482.017 194.251 480.129 187.793Z" fill="#CFDE64"/>
<path d="M668.684 189.879C666.698 183.819 666.102 177.759 666.698 171.302C667.294 164.646 657.657 164.646 657.061 171.302C656.465 178.554 657.26 185.707 659.445 192.661C661.432 198.92 670.671 196.237 668.684 189.879Z" fill="#CFDE64"/>
<path d="M508.244 192.462C506.654 184.614 506.058 176.766 506.257 168.719C506.455 162.063 496.918 162.063 496.62 168.719C496.322 177.66 497.117 186.502 498.905 195.244C500.296 201.701 509.535 198.92 508.244 192.462Z" fill="#CFDE64"/>
<path d="M690.341 188.091C689.05 183.124 688.752 178.157 689.149 172.991C689.646 166.335 680.009 166.335 679.513 172.991C679.115 179.051 679.612 185.011 681.102 190.873C682.592 197.33 691.931 194.548 690.341 188.091Z" fill="#CFDE64"/>
<path d="M523.642 171.799V190.873C523.642 197.529 533.278 197.529 533.278 190.873V171.799C533.179 165.043 523.642 165.043 523.642 171.799Z" fill="#CFDE64"/>
<path d="M719.052 189.383C717.363 183.323 716.668 177.263 716.966 170.905C717.363 164.249 707.727 164.249 707.329 170.905C706.932 178.157 707.727 185.31 709.714 192.164C711.601 198.522 720.84 195.84 719.052 189.383Z" fill="#CFDE64"/>
<path d="M560.3 191.568C558.611 184.316 558.015 177.064 558.313 169.514C558.611 162.858 548.975 162.858 548.677 169.514C548.279 177.859 549.174 186.204 551.061 194.35C552.551 200.807 561.79 198.125 560.3 191.568Z" fill="#CFDE64"/>
<path d="M959.067 172.295C960.16 165.739 950.921 162.957 949.828 169.514C948.537 177.163 948.537 184.614 949.828 192.164C950.921 198.721 960.16 195.939 959.067 189.383C958.074 183.819 958.074 177.958 959.067 172.295Z" fill="#CFDE64"/>
<path d="M786.904 168.322V193.456C786.904 200.112 796.541 200.112 796.541 193.456V168.322C796.441 161.566 786.904 161.566 786.904 168.322Z" fill="#CFDE64"/>
<path d="M979.83 187.793C978.34 183.223 978.042 178.753 979.035 174.084C980.526 167.626 971.287 164.845 969.796 171.302C968.306 177.66 968.505 184.316 970.591 190.575C972.578 196.833 981.916 194.151 979.83 187.793Z" fill="#CFDE64"/>
<path d="M731.271 169.514C729.98 177.163 729.881 184.614 731.073 192.264C732.066 198.82 741.305 196.039 740.312 189.482C739.418 183.819 739.517 177.958 740.51 172.295C741.702 165.739 732.364 162.957 731.271 169.514Z" fill="#CFDE64"/>
<path d="M819.588 188.19C818.495 183.323 818.197 178.455 818.992 173.587C820.085 167.03 810.846 164.249 809.753 170.805C808.66 177.561 808.76 184.217 810.349 190.972C811.939 197.429 821.178 194.747 819.588 188.19Z" fill="#CFDE64"/>
<path d="M1002.98 181.038C1002.78 179.647 1002.68 178.256 1002.48 176.965C1002.38 176.468 1002.38 176.071 1002.38 175.773C1004.96 173.09 1003.97 166.832 999.202 166.534C995.03 166.236 992.646 170.408 992.646 174.481C992.646 179.548 993.838 184.912 994.334 189.979C994.632 192.76 996.321 195.145 999.103 195.145C1001.49 195.145 1004.27 192.76 1003.87 189.979C1003.67 186.999 1003.37 184.018 1002.98 181.038Z" fill="#CFDE64"/>
<path d="M757.3 167.428C755.71 175.971 755.213 184.515 756.008 193.158C756.604 199.714 766.241 199.814 765.644 193.158C764.949 185.409 765.148 177.859 766.638 170.209C767.731 163.652 758.492 160.871 757.3 167.428Z" fill="#CFDE64"/>
<path d="M847.504 187.396C846.113 182.727 845.716 178.057 846.212 173.19C846.51 170.408 843.828 168.024 841.444 168.024C838.662 168.024 836.874 170.408 836.675 173.19C836.179 178.952 836.775 184.713 838.364 190.177C840.053 196.535 849.292 193.853 847.504 187.396Z" fill="#CFDE64"/>
<path d="M1036.06 189.482C1034.07 183.422 1033.48 177.362 1034.07 170.905C1034.67 164.249 1025.03 164.249 1024.44 170.905C1023.84 178.157 1024.63 185.31 1026.82 192.264C1028.81 198.522 1038.05 195.84 1036.06 189.482Z" fill="#CFDE64"/>
<path d="M875.618 192.065C874.029 184.217 873.432 176.368 873.631 168.322C873.83 161.666 864.293 161.666 863.995 168.322C863.697 177.263 864.492 186.104 866.28 194.846C867.671 201.304 876.909 198.522 875.618 192.065Z" fill="#CFDE64"/>
<path d="M1057.62 187.694C1056.33 182.727 1056.03 177.759 1056.42 172.594C1056.92 165.938 1047.28 165.938 1046.79 172.594C1046.39 178.654 1046.89 184.614 1048.38 190.476C1049.97 196.933 1059.31 194.151 1057.62 187.694Z" fill="#CFDE64"/>
<path d="M890.917 171.302V190.376C890.917 197.032 900.553 197.032 900.553 190.376V171.302C900.553 164.646 890.917 164.646 890.917 171.302Z" fill="#CFDE64"/>
<path d="M1086.43 188.985C1084.74 182.925 1084.04 176.865 1084.34 170.507C1084.74 163.851 1075.1 163.851 1074.7 170.507C1074.31 177.759 1075.1 184.912 1077.09 191.767C1078.98 198.125 1088.21 195.443 1086.43 188.985Z" fill="#CFDE64"/>
<path d="M927.675 191.171C925.986 183.919 925.39 176.667 925.688 169.117C925.986 162.46 916.349 162.46 916.051 169.117C915.654 177.461 916.548 185.806 918.436 193.953C919.926 200.41 929.165 197.628 927.675 191.171Z" fill="#CFDE64"/>
<path d="M1173.75 167.924V193.058C1173.75 199.715 1183.39 199.715 1183.39 193.058V167.924C1183.39 161.169 1173.75 161.169 1173.75 167.924Z" fill="#CFDE64"/>
<path d="M1118.22 169.117C1116.92 176.766 1116.83 184.217 1118.02 191.866C1119.01 198.423 1128.25 195.641 1127.26 189.085C1126.36 183.422 1126.46 177.561 1127.46 171.898C1128.55 165.341 1119.31 162.46 1118.22 169.117Z" fill="#CFDE64"/>
<path d="M1206.53 187.793C1205.44 182.925 1205.14 178.058 1205.94 173.19C1207.03 166.633 1197.79 163.851 1196.7 170.408C1195.61 177.163 1195.7 183.819 1197.29 190.575C1198.78 197.032 1208.12 194.251 1206.53 187.793Z" fill="#CFDE64"/>
<path d="M1144.24 166.931C1142.65 175.475 1142.16 184.018 1142.95 192.661C1143.55 199.218 1153.19 199.317 1152.59 192.661C1151.89 184.912 1152.09 177.362 1153.58 169.713C1154.68 163.255 1145.44 160.374 1144.24 166.931Z" fill="#CFDE64"/>
<path d="M1234.35 186.999C1232.96 182.329 1232.56 177.66 1233.06 172.792C1233.36 170.011 1230.67 167.626 1228.29 167.626C1225.51 167.626 1223.72 170.011 1223.52 172.792C1223.02 178.554 1223.62 184.316 1225.21 189.78C1227 196.138 1236.24 193.357 1234.35 186.999Z" fill="#CFDE64"/>
<path d="M1262.46 191.568C1260.87 183.72 1260.28 175.872 1260.48 167.825C1260.68 161.169 1251.14 161.169 1250.84 167.825C1250.54 176.766 1251.34 185.608 1253.13 194.35C1254.62 200.907 1263.85 198.125 1262.46 191.568Z" fill="#CFDE64"/>
<path d="M1277.86 170.905V189.979C1277.86 196.635 1287.5 196.635 1287.5 189.979V170.905C1287.5 164.249 1277.86 164.249 1277.86 170.905Z" fill="#CFDE64"/>
<path d="M1314.62 190.773C1312.93 183.521 1312.33 176.269 1312.63 168.719C1312.93 162.063 1303.29 162.063 1303 168.719C1302.6 177.064 1303.49 185.409 1305.38 193.555C1306.87 200.012 1316.11 197.231 1314.62 190.773Z" fill="#CFDE64"/>
</g>
</g>
<defs>
<linearGradient id="paint0_linear_94_10157" x1="851.259" y1="272.332" x2="898.074" y2="-64.2888" gradientUnits="userSpaceOnUse">
<stop stop-color="white"/>
<stop offset="1" stop-color="#E6ECAA"/>
</linearGradient>
<linearGradient id="paint1_linear_94_10157" x1="851.259" y1="272.332" x2="898.074" y2="-64.2888" gradientUnits="userSpaceOnUse">
<stop stop-color="white"/>
<stop offset="1" stop-color="#E6ECAA"/>
</linearGradient>
<clipPath id="clip0_94_10157">
<rect width="1729.58" height="233" fill="white"/>
</clipPath>
</defs>
</svg>
