<svg width="1512" height="174" viewBox="0 0 1512 174" fill="none" xmlns="http://www.w3.org/2000/svg">
<path d="M1373 49.6935C1392.2 48.5803 1473.67 98.7049 1512 123.906V174H0V75.2041C10.6666 80.9247 38.5 94.1284 64.5 101.179C97 109.991 170 56.1871 225.5 11.1955C281 -33.796 347 68.7105 378 108.6C409 148.489 514.5 75.2041 598 108.6C681.5 141.996 723.5 82.6254 769.5 56.1871C815.5 29.7487 849 68.7105 865.5 75.2041C882 81.6978 970.5 11.1955 997.5 11.1955C1024.5 11.1955 1188 123.906 1222 123.906C1256 123.906 1349 51.0849 1373 49.6935Z" fill="#9FD7F7"/>
</svg>
