<svg width="1512" height="174" viewBox="0 0 1512 174" fill="none" xmlns="http://www.w3.org/2000/svg">
<path d="M139 49.6935C119.8 48.5803 38.3333 98.7049 0 123.906V174H1512V75.2041C1501.33 80.9247 1473.5 94.1284 1447.5 101.179C1415 109.991 1342 56.1871 1286.5 11.1955C1231 -33.796 1165 68.7105 1134 108.6C1103 148.489 997.5 75.2041 914 108.6C830.5 141.996 788.5 82.6254 742.5 56.1871C696.5 29.7487 663 68.7105 646.5 75.2041C630 81.6978 541.5 11.1955 514.5 11.1955C487.5 11.1955 324 123.906 290 123.906C256 123.906 163 51.0849 139 49.6935Z" fill="#A9DCFA"/>
</svg>
