<svg width="148" height="237" viewBox="0 0 148 237" fill="none" xmlns="http://www.w3.org/2000/svg">
<g clip-path="url(#clip0_151_4400)">
<path d="M21.2189 223.489C21.2189 223.489 45.099 250.902 115.214 227.638C115.214 227.638 60.0374 131.462 19.3738 223.028L21.2189 223.489Z" fill="#2989C9"/>
<path d="M21.2189 223.489C21.2189 223.489 45.099 250.902 115.214 227.638C115.214 227.638 60.0374 131.462 19.3738 223.028L21.2189 223.489Z" fill="#FDD8CC"/>
<path d="M85.266 3.83008C85.266 3.83008 85.4789 4.00739 85.9047 4.39749C88.9562 7.16361 105.243 16.2422 105.243 46.4567C105.243 66.1033 124.723 58.9043 142.642 78.5509C151.123 87.8422 157.9 149.867 94.9529 129.795C67.9147 120.539 41.0185 23.4412 85.266 3.83008Z" fill="#603813"/>
<path d="M93.9592 101.105C93.9592 101.105 71.392 117.56 61.0664 104.226C50.7408 90.8566 17.5287 188.026 42.5797 197.352C53.544 201.431 85.9046 218.843 99.2817 193.912C112.694 168.982 105.243 110.007 93.9592 101.105Z" fill="#2989C9"/>
<path d="M59.7181 8.29855C59.7181 8.29855 89.3109 2.69538 93.9947 26.6684C98.6785 50.6415 88.7077 67.4865 92.4335 78.3737C96.1592 89.2608 105.207 98.9423 109.891 104.545C114.575 110.149 95.2366 145.044 66.2469 139.122C37.2573 133.2 60.6406 123.554 63.7631 105.467C66.8856 87.4168 58.1568 76.8133 58.1568 76.8133L59.7181 8.29855Z" fill="#F5BA9C"/>
<path d="M99.9204 91.1404C99.9204 91.1404 85.2659 112.631 65.3244 107.95C45.3829 103.269 40.3797 171.181 71.25 179.585C102.085 187.99 99.9204 91.1404 99.9204 91.1404Z" fill="#2989C9"/>
<path d="M84.0948 66.5288C78.2401 73.3023 67.95 82.4872 61.8469 83.5866C63.4082 87.523 64.7565 93.1261 64.3662 100.112C83.74 96.2469 88.3173 78.9054 84.0948 66.5288Z" fill="#F2AE8F"/>
<path d="M36.6541 27.5904C36.6541 27.5904 39.7766 86.7783 67.8082 86.7783C95.8399 86.7783 83.0659 20.1431 72.492 12.3412C61.918 4.53935 38.5347 7.97927 36.6541 27.5904Z" fill="#F5BA9C"/>
<path d="M104.285 96.4242C104.285 96.4242 123.907 101.105 131.394 132.242C138.881 163.379 137.568 218.843 123.588 227.248C108.011 236.574 87.2885 232.071 66.105 210.58C44.9216 189.089 48.1861 154.974 48.1861 154.974L55.9924 152.491C55.9924 152.491 74.6919 196.111 89.0271 187.671C103.362 179.266 86.224 142.207 86.224 142.207C86.224 142.207 77.4951 94.8638 104.285 96.4242Z" fill="#2989C9"/>
<path d="M56.9504 62.2378C56.9504 62.2378 60.7825 73.9052 59.3987 78.1607C58.0149 82.4163 55.4246 66.848 56.9504 62.2378Z" fill="#ECB49F"/>
<path d="M41.0185 95.5023C41.0185 95.5023 21.6802 102.985 7.66435 137.562C-1.06449 159.123 -8.37401 221.645 21.5382 226.007C51.4505 230.369 54.1117 179.585 41.3378 179.905C28.5639 180.224 48.8247 154.052 54.1117 145.009C59.3987 135.966 72.8113 90.502 41.0185 95.5023Z" fill="#2989C9"/>
<path d="M71.3919 110.432C71.3919 110.432 79.9788 103.269 79.482 91.7431C79.1627 83.6575 75.1176 82.5582 67.6307 80.0757C60.1437 77.5933 55.6374 68.5502 43.1828 74.3307C29.5218 80.6431 25.2284 104.581 43.9634 112.028C58.476 117.773 65.1823 116.532 71.3919 110.432Z" fill="#FBD9C3"/>
<path d="M73.2725 107.311C73.2725 107.311 72.6339 111.425 77.1757 111.354C86.0465 111.212 92.6108 97.9492 92.6108 97.9492L93.2495 95.6086C93.2495 95.6086 94.1721 89.3671 95.5914 89.5444C97.0107 89.6863 95.4495 91.424 96.514 91.424C97.543 91.424 98.9623 88.1968 100.027 89.2253C100.311 89.509 100.169 90.1828 100.169 90.5374C100.665 90.6083 101.304 90.5374 101.765 90.7147C101.943 91.2112 101.73 91.7077 101.801 92.2396C102.936 92.5233 102.972 92.8425 103.043 93.9418C103.788 94.5802 104.569 94.6156 103.859 95.7505C103.398 96.4952 102.653 96.9917 102.049 97.5946C101.411 98.2329 100.843 98.8712 100.275 99.545C99.4236 100.503 98.7139 100.573 98.3946 101.886C98.2172 102.701 97.7914 103.34 97.3656 104.049C96.372 105.609 95.2721 107.134 94.1011 108.588C91.5109 111.886 88.6012 115.184 85.1239 117.596C84.911 117.738 82.0369 119.369 82.0014 119.263C82.0014 119.263 91.3689 162.563 79.9789 168.627C68.5888 174.691 40.6991 190.437 40.6991 190.437L48.7892 136.391C48.7892 136.391 39.5991 134.831 36.1572 131.107C32.7154 127.384 29.5219 119.83 27.3574 118.553C25.193 117.312 23.6317 115.432 21.2898 115.291C18.9479 115.149 18.735 113.198 20.2608 112.879C21.8221 112.56 19.7286 111.106 21.4318 110.787C23.1349 110.468 21.7511 109.546 22.6027 109.156C23.2414 108.907 23.7736 109.085 24.093 108.836C24.4123 108.588 24.1639 107.666 24.8736 107.914C26.2929 108.375 27.7477 110.397 27.7477 110.397C27.7477 110.397 26.8252 106.46 28.4574 107.453C29.238 107.914 29.4864 109.794 30.409 111.815C30.409 111.815 30.7283 114.298 31.367 115.22C32.8573 117.312 36.1218 118.979 41.6216 120.078C49.5698 121.639 50.6698 121.639 56.4181 117.418C62.2018 113.234 70.15 103.73 73.2725 107.311Z" fill="#FBD9C3"/>
<path d="M42.4024 148.165C42.7572 143.768 43.325 130.965 40.8057 129.582C38.2864 128.199 41.9766 138.058 38.8896 138.129C35.838 138.235 34.4542 119.334 32.751 119.085C31.0478 118.837 32.2897 130.93 32.4316 134.866C31.1188 129.476 29.2027 119.156 27.7124 119.014C26.2576 118.873 29.8059 133.909 29.2382 134.441C28.7059 134.973 24.0931 121.036 22.4254 121.568C20.7577 122.1 26.2931 135.008 26.0802 135.505C25.8673 136.001 20.1545 125.965 19.09 126.781C18.0255 127.596 24.1641 138.838 27.2866 145.612C30.4091 152.421 34.9509 154.974 35.7316 159.549C36.5122 164.159 40.2734 164.159 42.154 158.485C43.8927 156.002 42.0476 152.563 42.4024 148.165Z" fill="#F5BA9C"/>
<path d="M35.696 161.57L44.9217 151.889L47.5119 161.464L40.4508 170.223L35.696 161.57Z" fill="#AADFF2"/>
<path d="M57.6954 117.773C57.6954 117.773 68.4468 124.795 76.8563 111.39C76.8563 111.39 85.727 109.829 91.5108 98.623L98.6784 102.985C98.6784 102.985 89.9495 122.915 83.7045 126.958C82.1432 133.483 81.8239 164.017 81.8239 164.017C81.8239 164.017 58.7599 187.387 44.7441 187.99C30.7282 188.628 49.6052 140.54 46.2344 138.093C42.8635 135.647 39.4571 136.285 35.0927 130.965C30.7282 125.681 27.2864 119.44 27.2864 119.44L33.2121 115.716C33.2121 115.716 38.3571 119.936 44.6021 120.22C50.8472 120.575 53.189 116.035 57.6954 117.773Z" fill="#68BA45"/>
<path d="M32.751 119.085C31.793 118.943 31.7575 122.773 31.9704 126.852C32.9284 128.199 33.9929 129.653 35.0929 131.001C35.4122 131.391 35.6961 131.71 36.0154 132.029C34.7381 126.532 33.8155 119.262 32.751 119.085Z" fill="#F5BA9C"/>
<path d="M27.322 119.475C27.3575 119.511 28.2801 121.213 29.7704 123.554C29.1317 121.213 28.493 119.475 27.9252 119.085L27.322 119.475Z" fill="#F5BA9C"/>
<path d="M40.8057 129.582C39.209 128.696 40.1315 132.384 40.2025 135.221C41.0186 135.646 41.8347 135.966 42.6153 136.285C42.4024 132.987 41.9057 130.185 40.8057 129.582Z" fill="#F5BA9C"/>
<path d="M80.6886 132.029C79.6951 128.235 77.1758 118.482 78.737 118.057C80.2983 117.596 81.0789 124.405 82.8885 124.44C84.6627 124.476 82.2853 105.503 83.8466 105.503C85.4433 105.467 84.5917 118.802 86.4014 118.837C88.211 118.872 85.7272 103.836 87.4304 104.191C89.169 104.545 88.7787 117.525 89.4174 117.95C90.0916 118.411 90.6238 103.872 91.5109 104.191C92.398 104.51 91.298 117.206 92.398 117.56C93.498 117.915 94.0657 107.418 95.0947 107.666C96.1237 107.95 95.1657 121 93.498 127.419C91.8303 133.873 91.6883 137.349 88.2465 140.86C87.0046 146.037 85.5498 144.122 81.1853 139.654C79.3047 137.774 81.6821 135.824 80.6886 132.029Z" fill="#F5BA9C"/>
<path d="M48.7183 171.216C50.1376 182.742 55.1407 201.076 67.7727 212.034C72.8468 206.324 88.1045 172.103 87.8561 147.562C79.7305 143.768 64.7211 170.046 60.0019 160.896C58.9019 161.996 57.7664 163.13 56.6665 164.265C53.8988 167.138 51.2021 169.585 48.7183 171.216Z" fill="#FDD8CC"/>
<path d="M24.8027 226.609C45.17 227.709 65.2534 205.686 76.0758 187.671C81.2918 178.947 83.3498 171.11 84.2014 167.457C87.6078 153.449 89.311 140.363 89.311 140.363L79.1983 137.42C79.1983 137.42 69.1211 148.342 56.773 161.18C51.8408 166.287 39.6346 172.457 37.5056 169.372C27.8897 157.137 -5.35794 224.978 24.8027 226.609Z" fill="#2989C9"/>
<path d="M73.1306 32.8744C73.1306 32.8744 53.8633 52.06 37.9314 50.7478C19.5156 49.2229 17.3157 13.3697 38.7475 11.9157C52.9052 10.9582 66.7436 -9.18484 87.4657 5.1068C102.298 15.3556 103.682 41.9175 98.3591 49.8967C93.0721 57.8759 85.9045 50.7124 85.9045 50.7124C85.9045 50.7124 89.9496 40.2862 85.5851 40.8182C81.2207 41.3501 80.2982 44.3999 80.2982 44.3999C80.2982 44.3999 71.25 41.9175 73.1306 32.8744Z" fill="#603813"/>
<path d="M79.1982 137.384L90.8722 140.576L88.069 148.52L73.1306 143.626L79.1982 137.384Z" fill="#AADFF2"/>
<path d="M79.6596 187.281C79.6596 187.281 106.769 198.735 103.043 147.81C103.043 147.81 121.281 212.743 78.7371 186.571L79.6596 187.281Z" fill="#FDD8CC"/>
<path d="M64.189 80.1468C64.189 80.1468 66.1051 78.6929 65.7858 75.1111C65.7858 75.1111 67.0986 80.3951 65.3954 81.1753C63.6922 81.8845 64.189 80.1468 64.189 80.1468Z" fill="#603813"/>
<path d="M62.0953 92.0623C62.3437 91.9559 58.476 92.346 57.9793 91.3885C57.5535 90.5728 57.2341 89.5089 57.6599 88.6578C57.9438 88.0904 59.4696 86.8492 60.1792 87.3102C59.2567 86.7073 58.9373 85.5725 58.1212 83.0901C57.3051 80.6077 58.6889 77.3451 59.0083 77.0259C59.4696 75.6074 61.6695 70.9972 56.1342 69.2949C51.8052 68.0183 49.7827 70.0042 49.7827 70.0042C49.7827 70.0042 47.0505 62.8052 36.0862 74.1179C33.8863 75.7138 31.6508 77.3805 29.8412 79.3665C25.1219 84.5441 22.4607 92.9488 25.3703 99.7932C27.9606 105.893 33.7443 111.177 39.741 114.51C42.757 116.213 46.9086 116.709 50.3149 116.425C51.9826 116.284 50.8827 116.461 51.8762 115.113C53.1181 113.482 53.6149 111.744 55.5309 110.255C64.4372 102.772 61.8469 92.1686 62.0953 92.0623Z" fill="#603813"/>
<path d="M53.8279 117.809C53.8279 117.809 63.4083 124.688 70.292 121.071C77.1758 117.454 79.5177 111.035 79.5177 111.035C79.5177 111.035 76.608 111.035 76.2532 111.142C75.8984 111.248 74.0178 118.624 65.7502 118.979C57.4472 119.334 56.8794 117.099 56.8794 117.099C56.8794 117.099 54.9988 116.993 53.8279 117.809Z" fill="#AADFF2"/>
<path d="M63.4792 61.3514C63.4792 61.3514 67.3469 61.6351 72.7403 58.5498C72.7403 58.5498 68.8372 67.5929 63.4792 61.3514Z" fill="#603813"/>
<path d="M43.1121 65.3587C43.1121 65.3587 46.7668 66.068 52.1957 63.8693C52.1957 63.8338 49.8893 70.2527 43.1121 65.3587Z" fill="#603813"/>
<path d="M60.4988 54.968C60.4988 54.968 64.2245 45.6412 74.9759 51.7054C74.9759 51.7054 75.3307 53.1239 73.3437 52.4147C71.3566 51.7054 68.447 51.138 66.2116 52.06C64.0116 52.9821 61.3149 55.5354 60.4988 54.968Z" fill="#603813"/>
<path d="M51.273 57.5214C51.273 57.5214 48.115 55.4291 45.2054 55.8901C42.2958 56.3511 40.9829 59.6137 40.9829 59.6137C40.9829 59.6137 40.9829 60.6776 42.1539 59.8619C43.3248 59.0463 44.7086 57.0604 47.0505 57.415C49.3924 57.7696 51.0246 58.2306 51.273 57.5214Z" fill="#603813"/>
</g>
<defs>
<clipPath id="clip0_151_4400">
<rect width="148" height="237" fill="white"/>
</clipPath>
</defs>
</svg>
