<svg width="260" height="261" viewBox="0 0 260 261" fill="none" xmlns="http://www.w3.org/2000/svg">
<g clip-path="url(#clip0_142_1175)">
<path d="M46.9402 164.688L46.9447 164.698C55.3056 183.787 72.0661 197.969 90.0154 206.158L90.025 206.162C118.92 219.223 152.323 218.593 178.504 204.122C204.552 189.724 224.774 161.549 222.427 129.06C220.698 104.199 206.356 79.6151 185.476 65.8198C165.481 52.5728 142.662 50.1374 121.227 47.8497C119.551 47.6708 117.883 47.4928 116.225 47.3105C104.808 46.0554 94.0092 48.0107 84.3599 52.7565C66.1113 61.5015 52.288 79.1552 45.2542 99.6267C38.2114 120.125 37.8635 143.755 46.9402 164.688Z" fill="#00A7E0" stroke="white" stroke-width="6"/>
<g opacity="0.48">
<g opacity="0.48">
<path opacity="0.48" d="M189.667 120.791C184.264 137.133 177.328 156.693 160.546 163.116C151.856 166.421 156.21 181.796 164.9 178.49C187.453 169.825 196.741 147.974 204.228 125.451C207.248 116.241 192.687 111.581 189.667 120.791Z" fill="white"/>
</g>
</g>
<g opacity="0.48">
<g opacity="0.48">
<path opacity="0.48" d="M146.191 168.603C145.247 168.681 144.342 168.582 143.398 168.66C142.387 168.622 141.443 168.7 140.595 169.19C139.612 169.446 138.832 170.052 138.118 170.775C137.405 171.498 136.971 172.215 136.74 173.282C136.373 174.116 136.141 175.183 136.295 176.183C136.496 178.245 137.217 180.473 138.758 181.917C140.23 183.245 142.195 184.444 144.044 184.465C144.988 184.387 145.893 184.486 146.837 184.408C147.849 184.446 148.793 184.368 149.64 183.878C150.623 183.622 151.404 183.016 152.117 182.293C152.83 181.57 153.264 180.853 153.495 179.786C153.862 178.952 154.094 177.885 153.94 176.885C153.739 174.823 153.018 172.595 151.478 171.151C150.043 169.646 148.146 168.563 146.191 168.603Z" fill="white"/>
</g>
</g>
</g>
<path d="M117.44 102.864C117.44 101.776 116.544 100.912 115.488 100.912C114.4 100.912 113.536 101.776 113.536 102.864V110.64C113.536 113.264 111.968 114.8 109.728 114.8C107.424 114.8 106.112 113.328 106.112 110.704V102.864C106.112 101.776 105.248 100.912 104.16 100.912C103.104 100.912 102.24 101.776 102.24 102.864V111.856C102.24 115.792 104.448 118.352 108.256 118.352C110.88 118.352 112.448 116.976 113.536 115.376V116.24C113.536 117.328 114.432 118.16 115.488 118.16C116.576 118.16 117.44 117.296 117.44 116.24V102.864ZM126.788 118.32C130.308 118.32 133.06 116.56 133.06 113.008V112.944C133.06 109.904 130.276 108.784 127.812 108.016C125.828 107.376 124.004 106.864 124.004 105.616V105.552C124.004 104.592 124.868 103.888 126.372 103.888C127.556 103.888 128.964 104.336 130.34 105.04C130.596 105.168 130.788 105.232 131.108 105.232C132.004 105.232 132.708 104.56 132.708 103.664C132.708 102.992 132.324 102.48 131.78 102.192C130.148 101.328 128.26 100.816 126.468 100.816C123.108 100.816 120.452 102.768 120.452 105.968V106.032C120.452 109.264 123.236 110.288 125.732 110.992C127.716 111.6 129.508 112.048 129.508 113.36V113.424C129.508 114.544 128.548 115.248 126.884 115.248C125.348 115.248 123.652 114.704 122.02 113.616C121.796 113.488 121.508 113.392 121.188 113.392C120.292 113.392 119.62 114.096 119.62 114.96C119.62 115.6 119.94 116.08 120.356 116.304C122.308 117.648 124.644 118.32 126.788 118.32ZM135.683 96.7519C135.683 97.9039 136.643 98.6719 137.891 98.6719C139.139 98.6719 140.099 97.9039 140.099 96.7519V96.5599C140.099 95.4079 139.139 94.6719 137.891 94.6719C136.643 94.6719 135.683 95.4079 135.683 96.5599V96.7519ZM135.971 116.24C135.971 117.328 136.835 118.16 137.891 118.16C138.979 118.16 139.843 117.328 139.843 116.24V102.864C139.843 101.776 138.979 100.912 137.891 100.912C136.803 100.912 135.971 101.776 135.971 102.864V116.24ZM148.487 118.352C151.079 118.352 152.839 117.264 153.991 115.888V116.528C153.991 117.392 154.759 118.16 155.879 118.16C156.935 118.16 157.767 117.36 157.767 116.304V107.984C157.767 105.776 157.191 103.984 155.943 102.768C154.759 101.552 152.871 100.88 150.343 100.88C148.135 100.88 146.503 101.264 144.903 101.872C144.327 102.096 143.847 102.704 143.847 103.408C143.847 104.304 144.583 105.008 145.479 105.008C145.671 105.008 145.863 104.976 146.087 104.912C147.143 104.496 148.359 104.24 149.831 104.24C152.551 104.24 154.023 105.52 154.023 107.92V108.336C152.711 107.92 151.367 107.632 149.479 107.632C145.351 107.632 142.503 109.424 142.503 113.072V113.136C142.503 116.528 145.319 118.352 148.487 118.352ZM149.575 115.536C147.719 115.536 146.279 114.608 146.279 112.976V112.912C146.279 111.152 147.751 110.096 150.247 110.096C151.783 110.096 153.095 110.384 154.087 110.768V111.92C154.087 114.064 152.135 115.536 149.575 115.536Z" fill="white"/>
<path d="M70.708 151.336C74.796 151.336 77.568 148.732 77.568 145.12V145.064C77.568 141.452 74.768 139.94 71.8 139.576L76.42 134.788C77.008 134.2 77.4 133.724 77.4 132.912C77.4 131.988 76.672 131.4 75.692 131.4H65.668C64.828 131.4 64.156 132.072 64.156 132.912C64.156 133.724 64.828 134.396 65.668 134.396H72.78L68.188 139.296C67.656 139.828 67.46 140.248 67.46 140.696C67.46 141.508 68.132 142.18 68.944 142.18H69.644C72.388 142.18 74.152 143.272 74.152 145.204V145.26C74.152 147.052 72.696 148.228 70.764 148.228C68.944 148.228 67.544 147.584 66.312 146.352C66.032 146.1 65.668 145.904 65.164 145.904C64.268 145.904 63.512 146.66 63.512 147.556C63.512 148.06 63.764 148.536 64.072 148.788C65.668 150.328 67.824 151.336 70.708 151.336ZM81.2686 144.084H86.5326C87.4286 144.084 88.1846 143.328 88.1846 142.432C88.1846 141.508 87.4286 140.752 86.5326 140.752H81.2686C80.3726 140.752 79.6166 141.508 79.6166 142.432C79.6166 143.328 80.3726 144.084 81.2686 144.084ZM96.9328 151.336C101.021 151.336 103.793 148.732 103.793 145.12V145.064C103.793 141.452 100.993 139.94 98.0248 139.576L102.645 134.788C103.233 134.2 103.625 133.724 103.625 132.912C103.625 131.988 102.897 131.4 101.917 131.4H91.8928C91.0528 131.4 90.3808 132.072 90.3808 132.912C90.3808 133.724 91.0528 134.396 91.8928 134.396H99.0048L94.4128 139.296C93.8808 139.828 93.6848 140.248 93.6848 140.696C93.6848 141.508 94.3568 142.18 95.1688 142.18H95.8688C98.6128 142.18 100.377 143.272 100.377 145.204V145.26C100.377 147.052 98.9208 148.228 96.9888 148.228C95.1688 148.228 93.7688 147.584 92.5368 146.352C92.2568 146.1 91.8928 145.904 91.3888 145.904C90.4928 145.904 89.7368 146.66 89.7368 147.556C89.7368 148.06 89.9888 148.536 90.2968 148.788C91.8928 150.328 94.0488 151.336 96.9328 151.336ZM113.849 151.336C117.965 151.336 121.129 148.564 121.129 144.672V144.616C121.129 140.696 118.077 138.456 114.297 138.456C111.973 138.456 110.629 139.408 109.593 140.416C109.761 136.832 111.385 134.2 114.297 134.2C115.613 134.2 116.593 134.592 117.657 135.292C117.909 135.432 118.217 135.544 118.525 135.544C119.421 135.544 120.177 134.844 120.177 133.948C120.177 133.248 119.841 132.8 119.309 132.464C118.021 131.596 116.425 131.064 114.409 131.064C108.865 131.064 106.009 135.74 106.009 141.732V141.788C106.009 145.736 106.905 147.78 108.389 149.264C109.705 150.58 111.441 151.336 113.849 151.336ZM113.765 148.34C111.329 148.34 109.705 146.828 109.705 144.84V144.784C109.705 142.908 111.245 141.34 113.681 141.34C116.117 141.34 117.685 142.796 117.685 144.756V144.812C117.685 146.828 116.201 148.34 113.765 148.34ZM131.071 149.46C131.071 150.384 131.827 151.14 132.751 151.14C133.703 151.14 134.459 150.384 134.459 149.46V148.704C135.495 150.076 137.035 151.308 139.499 151.308C142.999 151.308 146.359 148.536 146.359 143.636V143.58C146.359 138.652 142.971 135.908 139.499 135.908C137.091 135.908 135.551 137.14 134.459 138.68V132.1C134.459 131.148 133.703 130.42 132.751 130.42C131.799 130.42 131.071 131.148 131.071 132.1V149.46ZM138.687 148.368C136.391 148.368 134.375 146.464 134.375 143.636V143.58C134.375 140.752 136.391 138.848 138.687 138.848C140.983 138.848 142.915 140.724 142.915 143.58V143.636C142.915 146.548 141.011 148.368 138.687 148.368ZM161.868 137.756C161.868 136.804 161.084 136.048 160.16 136.048C159.208 136.048 158.452 136.804 158.452 137.756V144.56C158.452 146.856 157.08 148.2 155.12 148.2C153.104 148.2 151.956 146.912 151.956 144.616V137.756C151.956 136.804 151.2 136.048 150.248 136.048C149.324 136.048 148.568 136.804 148.568 137.756V145.624C148.568 149.068 150.5 151.308 153.832 151.308C156.128 151.308 157.5 150.104 158.452 148.704V149.46C158.452 150.412 159.236 151.14 160.16 151.14C161.112 151.14 161.868 150.384 161.868 149.46V137.756ZM165.175 149.46C165.175 150.412 165.931 151.14 166.855 151.14C167.807 151.14 168.563 150.412 168.563 149.46V132.1C168.563 131.176 167.807 130.42 166.855 130.42C165.903 130.42 165.175 131.176 165.175 132.1V149.46ZM176.127 151.308C178.395 151.308 179.935 150.356 180.943 149.152V149.712C180.943 150.468 181.615 151.14 182.595 151.14C183.519 151.14 184.247 150.44 184.247 149.516V142.236C184.247 140.304 183.743 138.736 182.651 137.672C181.615 136.608 179.963 136.02 177.751 136.02C175.819 136.02 174.391 136.356 172.991 136.888C172.487 137.084 172.067 137.616 172.067 138.232C172.067 139.016 172.711 139.632 173.495 139.632C173.663 139.632 173.831 139.604 174.027 139.548C174.951 139.184 176.015 138.96 177.303 138.96C179.683 138.96 180.971 140.08 180.971 142.18V142.544C179.823 142.18 178.647 141.928 176.995 141.928C173.383 141.928 170.891 143.496 170.891 146.688V146.744C170.891 149.712 173.355 151.308 176.127 151.308ZM177.079 148.844C175.455 148.844 174.195 148.032 174.195 146.604V146.548C174.195 145.008 175.483 144.084 177.667 144.084C179.011 144.084 180.159 144.336 181.027 144.672V145.68C181.027 147.556 179.319 148.844 177.079 148.844ZM187.185 149.46C187.185 150.412 187.941 151.14 188.865 151.14C189.817 151.14 190.573 150.412 190.573 149.46V142.656C190.573 140.36 191.945 138.988 193.905 138.988C195.921 138.988 197.069 140.304 197.069 142.6V149.46C197.069 150.412 197.825 151.14 198.777 151.14C199.729 151.14 200.457 150.412 200.457 149.46V141.564C200.457 138.148 198.525 135.908 195.193 135.908C192.897 135.908 191.525 137.112 190.573 138.484V137.756C190.573 136.804 189.817 136.048 188.865 136.048C187.913 136.048 187.185 136.804 187.185 137.756V149.46Z" fill="white"/>
<defs>
<clipPath id="clip0_142_1175">
<rect width="188.465" height="191.296" fill="white" transform="translate(259.686 166.25) rotate(150)"/>
</clipPath>
</defs>
</svg>
