<svg width="517" height="183" viewBox="0 0 517 183" fill="none" xmlns="http://www.w3.org/2000/svg">
<path d="M0.0640006 64.28C0.0640006 68.312 3.328 71.576 7.36 71.576C11.392 71.576 14.656 68.312 14.656 64.28V28.28L44.224 67.064C46.24 69.656 48.352 71.384 51.904 71.384H52.384C56.512 71.384 59.776 68.12 59.776 63.992V10.52C59.776 6.488 56.512 3.224 52.48 3.224C48.448 3.224 45.184 6.488 45.184 10.52V45.176L16.672 7.736C14.656 5.144 12.544 3.41599 8.992 3.41599H7.456C3.328 3.41599 0.0640006 6.68 0.0640006 10.808V64.28ZM70.3398 7.44799C70.3398 11.672 73.8918 14.36 78.4998 14.36C83.1078 14.36 86.6598 11.672 86.6598 7.44799V7.256C86.6598 3.032 83.1078 0.439999 78.4998 0.439999C73.8918 0.439999 70.3398 3.032 70.3398 7.256V7.44799ZM71.2038 64.28C71.2038 68.312 74.4678 71.576 78.4998 71.576C82.5318 71.576 85.7958 68.312 85.7958 64.28V26.264C85.7958 22.232 82.5318 18.968 78.4998 18.968C74.4678 18.968 71.2038 22.232 71.2038 26.264V64.28ZM95.6605 79.64C95.6605 83.672 98.9245 86.936 102.957 86.936C106.989 86.936 110.253 83.672 110.253 79.64V64.28C113.709 68.408 118.509 71.96 126.285 71.96C138.476 71.96 149.709 62.552 149.709 45.368V45.176C149.709 27.992 138.285 18.584 126.285 18.584C118.701 18.584 113.804 22.136 110.253 26.936V26.264C110.253 22.232 106.989 18.968 102.957 18.968C98.9245 18.968 95.6605 22.232 95.6605 26.264V79.64ZM122.541 59.576C115.725 59.576 110.061 53.912 110.061 45.368V45.176C110.061 36.632 115.725 30.968 122.541 30.968C129.357 30.968 135.117 36.632 135.117 45.176V45.368C135.117 54.008 129.357 59.576 122.541 59.576ZM168.41 41.24C169.562 34.616 173.498 30.296 179.546 30.296C185.69 30.296 189.53 34.712 190.394 41.24H168.41ZM198.842 65.912C199.898 64.952 200.762 63.512 200.762 61.592C200.762 58.328 198.362 55.832 195.098 55.832C193.562 55.832 192.602 56.216 191.546 56.984C188.57 59.192 185.21 60.44 181.178 60.44C174.65 60.44 170.042 56.984 168.602 50.36H197.498C201.338 50.36 204.314 47.576 204.314 43.352C204.314 32.696 196.73 18.584 179.546 18.584C164.57 18.584 154.106 30.68 154.106 45.368V45.56C154.106 61.304 165.53 72.152 180.986 72.152C188.474 72.152 194.33 69.752 198.842 65.912ZM222.773 36.44C232.085 36.44 239.477 28.76 239.477 19.64V19.544C239.477 10.424 232.181 2.84 222.773 2.84C213.461 2.84 206.069 10.52 206.069 19.64V19.736C206.069 28.856 213.365 36.44 222.773 36.44ZM222.773 34.616C214.325 34.616 207.989 27.896 207.989 19.736V19.64C207.989 11.48 214.421 4.664 222.773 4.664C231.221 4.664 237.557 11.384 237.557 19.544V19.64C237.557 27.8 231.125 34.616 222.773 34.616ZM215.477 26.072C215.477 27.416 216.629 28.568 217.973 28.568C219.317 28.568 220.469 27.416 220.469 26.072V22.904H222.773L226.517 27.608C226.997 28.184 227.573 28.568 228.437 28.568C229.781 28.568 230.933 27.512 230.933 26.168C230.933 25.496 230.741 25.016 230.261 24.44L228.053 21.848C230.069 20.888 231.317 19.064 231.317 16.568C231.317 12.44 228.341 10.52 223.925 10.52H217.973C216.629 10.52 215.477 11.672 215.477 13.016V26.072ZM220.469 18.968V14.744H223.637C225.365 14.744 226.325 15.512 226.325 16.856C226.325 18.104 225.365 18.968 223.637 18.968H220.469ZM269.618 64.184C269.618 68.312 272.882 71.576 277.01 71.576C281.138 71.576 284.402 68.312 284.402 64.184V44.984H310.322C314.066 44.984 317.042 42.008 317.042 38.264C317.042 34.52 314.066 31.544 310.322 31.544H284.402V17.24H314.642C318.386 17.24 321.362 14.264 321.362 10.52C321.362 6.776 318.386 3.8 314.642 3.8H277.01C272.882 3.8 269.618 7.064 269.618 11.192V64.184ZM337.643 41.24C338.795 34.616 342.731 30.296 348.779 30.296C354.923 30.296 358.763 34.712 359.627 41.24H337.643ZM368.075 65.912C369.132 64.952 369.995 63.512 369.995 61.592C369.995 58.328 367.595 55.832 364.331 55.832C362.795 55.832 361.835 56.216 360.779 56.984C357.803 59.192 354.443 60.44 350.411 60.44C343.883 60.44 339.275 56.984 337.835 50.36H366.731C370.571 50.36 373.547 47.576 373.547 43.352C373.547 32.696 365.963 18.584 348.779 18.584C333.803 18.584 323.339 30.68 323.339 45.368V45.56C323.339 61.304 334.763 72.152 350.219 72.152C357.707 72.152 363.563 69.752 368.075 65.912ZM409.331 65.72L425.076 29.336C425.363 28.664 425.844 27.128 425.844 25.88C425.844 21.944 422.675 18.968 418.835 18.968C414.996 18.968 412.98 21.464 412.02 23.96L400.788 54.008L389.747 24.152C388.692 21.176 386.579 18.968 382.643 18.968C378.707 18.968 375.539 22.328 375.539 25.784C375.539 27.128 375.923 28.376 376.307 29.336L392.051 65.72C393.684 69.56 396.372 72.056 400.308 72.056H401.075C405.012 72.056 407.7 69.464 409.331 65.72ZM441.714 41.24C442.866 34.616 446.802 30.296 452.85 30.296C458.994 30.296 462.834 34.712 463.698 41.24H441.714ZM472.146 65.912C473.202 64.952 474.066 63.512 474.066 61.592C474.066 58.328 471.666 55.832 468.402 55.832C466.866 55.832 465.906 56.216 464.85 56.984C461.874 59.192 458.514 60.44 454.482 60.44C447.954 60.44 443.346 56.984 441.906 50.36H470.802C474.642 50.36 477.618 47.576 477.618 43.352C477.618 32.696 470.034 18.584 452.85 18.584C437.874 18.584 427.41 30.68 427.41 45.368V45.56C427.41 61.304 438.834 72.152 454.29 72.152C461.778 72.152 467.634 69.752 472.146 65.912ZM484.941 64.28C484.941 68.312 488.205 71.576 492.237 71.576C496.269 71.576 499.533 68.312 499.533 64.28V50.648C499.533 40.28 503.661 34.616 511.053 32.888C514.029 32.216 516.525 29.912 516.525 26.072C516.525 21.944 513.933 18.968 509.421 18.968C505.101 18.968 501.645 23.576 499.533 28.568V26.264C499.533 22.232 496.269 18.968 492.237 18.968C488.205 18.968 484.941 22.232 484.941 26.264V64.28ZM0.0640006 159.608C0.0640006 163.736 3.328 167 7.456 167H26.272C47.392 167 61.984 152.312 61.984 133.4V133.208C61.984 114.296 47.392 99.8 26.272 99.8H7.456C3.328 99.8 0.0640006 103.064 0.0640006 107.192V159.608ZM14.848 153.656V113.144H26.272C38.368 113.144 46.528 121.496 46.528 133.4V133.592C46.528 145.496 38.368 153.656 26.272 153.656H14.848ZM69.7818 160.28C69.7818 164.312 73.0458 167.576 77.0778 167.576C81.1098 167.576 84.3738 164.312 84.3738 160.28V146.648C84.3738 136.28 88.5018 130.616 95.8938 128.888C98.8698 128.216 101.366 125.912 101.366 122.072C101.366 117.944 98.7738 114.968 94.2618 114.968C89.9418 114.968 86.4858 119.576 84.3738 124.568V122.264C84.3738 118.232 81.1098 114.968 77.0778 114.968C73.0458 114.968 69.7818 118.232 69.7818 122.264V160.28ZM129.909 168.152C145.941 168.152 157.845 156.152 157.845 141.368V141.176C157.845 126.392 146.037 114.584 130.101 114.584C114.069 114.584 102.164 126.584 102.164 141.368V141.56C102.164 156.344 113.973 168.152 129.909 168.152ZM130.101 155.576C122.037 155.576 116.564 148.952 116.564 141.368V141.176C116.564 133.592 121.557 127.16 129.909 127.16C137.973 127.16 143.445 133.784 143.445 141.368V141.56C143.445 149.144 138.453 155.576 130.101 155.576ZM164.57 175.64C164.57 179.672 167.834 182.936 171.866 182.936C175.898 182.936 179.162 179.672 179.162 175.64V160.28C182.618 164.408 187.418 167.96 195.194 167.96C207.386 167.96 218.618 158.552 218.618 141.368V141.176C218.618 123.992 207.194 114.584 195.194 114.584C187.61 114.584 182.714 118.136 179.162 122.936V122.264C179.162 118.232 175.898 114.968 171.866 114.968C167.834 114.968 164.57 118.232 164.57 122.264V175.64ZM191.45 155.576C184.634 155.576 178.97 149.912 178.97 141.368V141.176C178.97 132.632 184.634 126.968 191.45 126.968C198.266 126.968 204.026 132.632 204.026 141.176V141.368C204.026 150.008 198.266 155.576 191.45 155.576Z" fill="url(#paint0_linear_142_1179)"/>
<defs>
<linearGradient id="paint0_linear_142_1179" x1="255.5" y1="-6" x2="255.5" y2="186" gradientUnits="userSpaceOnUse">
<stop stop-color="#1494D2"/>
<stop offset="1" stop-color="#3382A8"/>
</linearGradient>
</defs>
</svg>
