<svg width="199" height="272" viewBox="0 0 199 272" fill="none" xmlns="http://www.w3.org/2000/svg">
<g clip-path="url(#clip0_51_4181)">
<path d="M106.688 179.512C107.445 175.934 111.606 175.934 112.741 177.629C112.741 177.629 129.388 188.177 142.818 182.338C156.249 176.499 156.817 163.125 163.437 161.241C169.68 159.357 187.839 158.604 196.163 155.778C196.919 156.532 197.865 157.474 198.622 158.227C198.811 158.604 198.811 158.981 199 159.357C199.189 161.806 199.189 164.255 199 166.704C199 167.834 199 168.964 198.811 170.094C190.866 174.05 187.461 174.803 187.461 174.803C187.461 174.803 194.082 174.803 198.433 174.238C198.054 175.934 197.676 177.629 197.108 179.324C195.973 181.584 194.46 183.845 193.514 186.105C193.514 186.294 193.325 186.482 193.325 186.482C188.407 187.424 183.299 187.424 181.219 187.424C177.625 187.235 176.49 187.235 176.49 187.235C176.49 187.235 180.273 188.742 184.056 189.496C187.839 190.249 189.164 194.958 181.975 198.726C174.787 202.493 165.14 198.726 165.14 198.726C165.14 198.726 171.76 203.623 165.329 208.332C158.897 213.042 150.574 204.942 150.574 204.942C150.574 204.942 148.872 211.535 142.251 211.723C135.63 211.911 132.793 204 132.793 204C132.793 204 127.685 210.216 125.415 208.898C123.145 207.579 122.578 202.116 122.578 202.116C122.578 202.116 117.092 205.13 115.011 202.305C113.12 199.479 113.687 195.712 113.687 195.712C113.687 195.712 113.309 197.407 111.228 195.9C109.337 194.393 109.526 190.438 109.526 190.438C109.526 190.438 105.932 183.091 106.688 179.512Z" fill="#FFB92E"/>
<path d="M194.271 166.515C195.973 165.573 197.487 164.632 198.811 163.69C198.811 164.632 198.811 165.762 198.811 166.704C198.811 167.645 198.811 168.587 198.811 169.717C193.893 172.166 190.298 173.485 185.759 174.992C179.516 176.875 161.356 175.557 161.356 175.557C161.356 175.557 181.597 174.05 194.271 166.515Z" fill="#EA9F1B"/>
<path d="M188.218 183.845C191.623 183.091 194.271 182.15 196.352 181.208C195.406 182.903 194.46 184.598 193.514 186.294V186.482C186.704 187.801 178.76 187.612 174.976 187.047C170.247 186.482 159.087 182.338 159.087 182.338C159.087 182.338 175.544 186.859 188.218 183.845Z" fill="#EA9F1B"/>
<path d="M148.493 185.729C148.493 185.729 158.141 196.089 165.707 198.726C173.274 201.175 178.381 200.609 182.732 198.161C187.083 195.712 187.65 191.38 185.002 190.438C182.354 189.496 179.516 188.742 179.516 188.742C179.516 188.742 183.11 190.626 179.516 193.64C176.111 196.654 159.843 195.524 148.493 185.729Z" fill="#EA9F1B"/>
<path d="M140.927 188.931C140.927 188.931 146.223 200.609 150.952 204.942C155.492 209.086 160.221 211.158 164.383 208.709C168.545 206.26 167.977 202.87 166.842 201.175C165.707 199.479 164.194 198.537 164.194 198.537C164.194 198.537 162.87 205.507 154.547 202.305C146.413 199.103 140.927 188.931 140.927 188.931Z" fill="#EA9F1B"/>
<path d="M129.955 190.249C129.955 190.249 130.334 200.798 133.739 206.072C137.144 211.346 141.305 212.853 144.899 210.97C148.683 209.274 149.817 204.942 149.817 204.942C149.817 204.942 144.71 211.158 138.279 205.507C132.036 199.856 129.955 190.249 129.955 190.249Z" fill="#EA9F1B"/>
<path d="M125.605 187.235C125.605 187.235 121.443 196.654 122.578 202.305C123.524 207.956 125.226 209.839 127.307 208.521C129.388 207.391 132.225 204.188 132.225 204.188C132.225 204.188 127.875 207.767 125.037 203.435C122.389 198.914 125.605 187.235 125.605 187.235Z" fill="#EA9F1B"/>
<path d="M117.281 185.54C117.281 185.54 113.309 192.886 113.309 197.03C113.309 201.175 115.39 203.812 118.038 203.247C120.875 202.681 122.2 202.116 122.2 202.116V199.291C122.2 199.291 119.362 202.305 117.092 199.102C115.011 196.089 117.281 185.54 117.281 185.54Z" fill="#EA9F1B"/>
<path d="M107.256 183.657L109.526 190.061C109.526 190.061 109.337 193.263 110.282 194.958C111.228 196.465 112.552 196.465 112.931 196.089C113.309 195.712 113.498 195.335 113.498 195.335C113.498 195.335 111.796 195.9 111.228 192.51C110.661 189.119 112.174 184.975 112.174 184.975C112.174 184.975 110.093 188.742 109.147 187.612C108.202 186.294 107.256 183.657 107.256 183.657Z" fill="#EA9F1B"/>
<path d="M73.5846 227.357C73.5846 227.357 76.2329 236.964 74.1521 245.629C72.2605 254.105 66.0181 266.537 65.8289 267.668C65.6397 268.986 65.4506 272 72.8279 272C80.2053 272 114.822 272 114.822 272C114.822 272 118.606 269.928 114.822 268.233C111.039 266.726 95.3384 268.421 87.0152 264.277C78.692 260.133 77.557 257.496 77.557 257.496C77.557 257.496 80.5837 250.15 81.3403 241.861C82.097 233.573 80.3945 226.792 80.3945 226.792C80.3945 226.792 79.2595 224.344 75.8546 224.72C72.4496 225.097 73.5846 227.357 73.5846 227.357Z" fill="#CE4205"/>
<path d="M98.7433 24.4875C98.7433 24.4875 127.307 15.2576 146.98 30.3269C166.653 45.3961 162.681 72.7091 164.951 76.2881C167.221 79.867 185.948 90.6039 180.273 112.266C174.598 133.928 153.979 142.97 122.2 148.432C97.7975 152.576 71.693 147.49 55.2357 104.543C40.8593 66.6814 64.5048 33.7175 98.7433 24.4875Z" fill="#FFD261"/>
<path opacity="0.23" d="M92.8793 113.584C94.0143 116.222 99.3108 116.222 104.797 113.961C110.282 111.512 113.687 107.557 112.552 105.108C111.417 102.471 106.121 102.471 100.635 104.731C95.3384 106.992 91.7443 110.947 92.8793 113.584Z" fill="#EA512D"/>
<path opacity="0.23" d="M144.521 90.9806C145.278 93.6177 150.574 94.5596 156.249 92.8643C161.924 91.169 165.896 87.7784 165.14 85.1413C164.383 82.5042 159.087 81.5623 153.412 83.2576C147.737 84.7645 143.764 88.3435 144.521 90.9806Z" fill="#EA512D"/>
<path d="M90.9876 85.3296C90.9876 85.3296 84.9344 87.2133 88.9068 95.1247C92.8793 103.036 95.1492 104.355 99.5 102.094C101.959 100.776 102.148 97.5734 98.7433 91.3573C95.1492 84.9529 93.2576 84.3878 90.9876 85.3296Z" fill="#352114"/>
<path d="M91.366 89.6621C90.9876 88.5319 89.8527 88.1551 88.7177 88.5319C87.5827 88.9086 87.2044 90.0388 87.5827 91.169C87.961 92.2992 89.096 92.6759 90.231 92.2992C91.1768 91.9224 91.7443 90.7922 91.366 89.6621Z" fill="#FDFDFD"/>
<path d="M149.061 62.1607C149.061 62.1607 142.629 62.349 144.521 71.0139C146.413 79.6787 148.115 81.5623 152.844 80.4321C155.492 79.867 156.438 76.6648 154.925 69.6953C153.222 62.9141 151.52 61.7839 149.061 62.1607Z" fill="#352114"/>
<path d="M148.304 66.4931C148.304 65.3629 147.169 64.6094 146.223 64.6094C145.088 64.6094 144.332 65.7396 144.332 66.6814C144.332 67.8116 145.467 68.5651 146.413 68.5651C147.548 68.5651 148.304 67.6233 148.304 66.4931Z" fill="#FDFDFD"/>
<path d="M122.01 145.23C122.01 145.23 115.768 161.429 115.957 169.341C116.146 177.252 126.172 231.313 72.6388 232.255C18.9164 233.008 16.2681 183.468 15.7006 175.368C15.1331 167.269 20.0513 160.488 22.6996 164.82C25.3479 169.152 32.347 173.108 39.1568 169.341C45.9667 165.385 52.2091 161.241 68.6664 161.241C85.3127 161.053 90.0418 166.139 99.6892 156.532C109.337 146.925 109.904 144.1 109.904 144.1L122.01 145.23Z" fill="#FFD261"/>
<path opacity="0.5" d="M116.714 182.526C116.714 182.526 116.714 206.072 105.932 217.939C95.1492 229.806 80.962 232.632 63.7481 231.125C46.5342 229.618 35.3736 220.576 29.8878 213.983C24.4021 207.202 20.6188 198.726 18.3489 189.119C16.0789 179.136 16.6464 175.18 16.6464 175.18C16.6464 175.18 17.7814 207.956 50.3175 215.867C82.8536 223.778 115.011 209.086 116.714 182.526Z" fill="#F4B831"/>
<path opacity="0.5" d="M55.6141 103.036C55.6141 103.036 68.6664 143.158 99.8783 147.302C131.09 151.446 168.923 137.884 176.679 119.047C184.434 100.211 175.922 88.7202 175.922 88.7202C175.922 88.7202 178.57 95.1247 173.463 107.368C168.356 119.612 156.817 115.28 156.817 115.28L122.389 116.41C122.389 116.41 130.334 123.756 135.252 127.335C140.548 131.102 133.928 141.274 99.8783 136.753C69.6122 132.986 55.6141 103.036 55.6141 103.036Z" fill="#F4B831"/>
<path d="M155.303 102.283C155.303 102.283 156.249 111.701 159.843 114.526C163.437 117.352 171.571 123.003 171.382 124.698C171.193 126.393 167.977 127.524 166.275 127.524C164.761 127.524 162.491 126.77 162.491 126.77L147.169 107.745L155.303 102.283Z" fill="#960F0F"/>
<path d="M149.061 109.252C149.061 109.252 153.79 112.078 157.006 116.598C160.221 121.119 165.14 123.003 166.464 123.945C167.788 124.886 166.464 127.524 164.761 127.147C163.059 126.77 151.52 120.177 145.845 118.482C140.17 116.787 137.522 115.845 137.522 115.845L149.061 109.252Z" fill="#D62929"/>
<path d="M172.328 126.582C172.328 126.582 171.004 129.972 163.059 130.161C154.925 130.349 147.358 123.756 143.386 122.814C139.414 122.061 135.441 123.38 128.442 120.366C121.632 117.163 118.227 112.643 118.227 112.643C118.227 112.643 126.74 116.787 136.198 117.54C145.467 118.294 152.087 121.307 154.925 123.003C157.762 124.886 161.735 127.524 166.086 127.712C170.436 127.712 172.328 126.582 172.328 126.582Z" fill="#D85412"/>
<path d="M171.193 88.1551C171.193 88.1551 164.194 90.6039 154.925 90.2272C145.656 89.8504 140.738 85.518 136.576 86.0831C132.604 86.4598 125.983 91.5457 125.983 94.1828C125.983 96.8199 126.74 102.848 123.145 106.238C119.551 109.629 117.281 107.557 117.281 110.382C117.281 113.019 127.307 116.598 134.684 115.845C141.873 115.28 152.655 103.224 158.33 99.0803C163.626 94.9363 171.193 88.1551 171.193 88.1551Z" fill="#F46D22"/>
<path d="M118.606 110.382C118.606 110.382 124.659 117.352 134.684 114.715C144.71 111.889 158.141 96.0665 164.572 91.5457C171.004 87.0249 175.165 87.2133 174.787 90.4155C174.409 93.6177 171.95 94.7479 166.275 97.1967C160.6 99.6454 149.25 108.875 145.845 112.078C142.44 115.091 136.198 119.989 127.875 117.163C119.362 114.526 117.849 112.454 117.281 110.947C116.714 109.44 118.606 110.382 118.606 110.382Z" fill="#FC9651"/>
<path d="M156.627 102.283C156.627 102.283 156.249 108.122 159.654 112.266C163.059 116.598 171.76 122.061 173.085 124.321C174.409 126.582 168.545 131.103 160.978 127.9C153.601 124.51 149.817 120.742 144.143 119.612C138.468 118.482 131.279 118.294 131.279 118.294L138.657 115.845C138.657 115.845 145.088 116.598 150.007 119.424C154.925 122.438 162.681 126.77 166.275 126.958C169.869 127.147 172.139 125.263 169.68 123.38C167.221 121.684 160.411 116.975 157.006 112.643C153.601 108.31 154.925 103.224 154.925 103.224L156.627 102.283Z" fill="#FC9651"/>
<path d="M156.627 103.413L154.925 104.731C154.925 104.731 154.736 106.803 155.303 108.499C155.871 110.194 156.438 111.324 156.438 111.324C156.438 111.324 157.195 110.947 157.762 110.947C158.519 111.136 159.276 111.512 159.276 111.512C159.276 111.512 157.762 108.875 157.384 106.803C156.817 104.731 156.627 103.413 156.627 103.413Z" fill="#ED7D32"/>
<path d="M140.738 115.845C140.738 115.845 138.846 116.975 136.765 117.352C134.874 117.729 132.036 117.917 132.036 117.917C132.036 117.917 138.279 118.294 139.413 118.482C140.738 118.67 143.008 119.047 143.008 119.047C143.008 119.047 142.629 118.859 142.44 117.917C142.251 116.975 144.143 116.598 144.143 116.598C144.143 116.598 142.062 116.033 140.738 115.845Z" fill="#ED7D32"/>
<path opacity="0.53" d="M155.303 97.1967C155.303 97.1967 148.683 103.413 146.413 105.485C144.143 107.368 142.629 108.122 142.251 108.122C141.873 108.122 141.116 105.673 137.9 102.659C134.684 99.6454 126.74 92.8643 126.74 92.8643C126.74 92.8643 129.199 89.662 130.334 89.662C131.469 89.662 136.576 93.241 145.278 94.5596C153.979 96.0665 157.006 95.5014 155.303 97.1967Z" fill="#FF8548"/>
<path d="M130.523 91.169C130.523 91.169 129.577 92.4875 128.82 94.9363C128.253 97.3851 128.82 97.9501 129.955 98.1385C130.901 98.3269 131.658 97.0083 131.279 95.313C130.901 93.6177 130.523 91.169 130.523 91.169Z" fill="#6D3B18"/>
<path opacity="0.25" d="M150.196 114.15C150.196 114.15 148.872 116.033 150.007 117.352C151.142 118.482 156.817 122.626 158.519 123.38C160.221 124.133 160.978 123.945 160.978 123.756C160.978 123.568 156.06 120.931 153.601 118.859C151.142 116.787 152.087 115.845 151.52 114.903C150.763 114.15 150.385 113.773 150.196 114.15Z" fill="#FDFDFD"/>
<path d="M126.74 99.2687C126.74 99.2687 126.55 103.601 124.659 105.673C122.767 107.745 121.821 107.934 122.01 108.31C122.2 108.687 123.713 108.31 125.415 105.861C127.118 103.413 127.307 98.3269 126.74 99.2687Z" fill="#FDFDFD"/>
<path d="M167.599 90.2272C167.599 90.2272 164.194 92.1108 160.978 94.7479C157.762 97.385 156.249 99.2687 156.438 99.4571C156.627 99.8338 159.843 96.2548 162.113 94.5596C164.383 92.8643 167.41 90.7922 167.977 90.2272C168.734 89.6621 167.599 90.2272 167.599 90.2272Z" fill="#FDFDFD"/>
<path d="M155.682 100.022C155.682 100.022 153.979 101.341 153.79 101.717C153.412 102.094 154.168 102.094 154.925 101.341C155.682 100.587 156.06 100.211 156.249 100.022C156.249 99.8338 156.06 99.6454 155.682 100.022Z" fill="#FDFDFD"/>
<path d="M141.305 111.701C141.305 111.701 138.657 113.584 136.954 114.15C135.252 114.715 133.549 115.091 133.171 115.091C132.793 115.091 132.793 115.657 133.928 115.468C135.063 115.28 136.387 115.091 138.468 114.15C140.548 113.208 141.873 111.889 142.062 111.701C142.251 111.512 141.683 111.324 141.305 111.701Z" fill="#FDFDFD"/>
<path d="M143.575 110.194C143.575 110.194 142.44 110.947 142.44 111.136C142.44 111.324 142.44 111.512 143.008 111.136C143.575 110.759 143.953 110.571 143.953 110.382C143.953 110.006 143.764 110.006 143.575 110.194Z" fill="#FDFDFD"/>
<path d="M126.361 115.091C126.361 115.091 123.902 114.338 122.578 113.584C121.254 112.831 120.875 112.643 120.686 112.643C120.497 112.643 120.308 112.643 121.065 113.208C121.821 113.773 125.037 115.091 125.794 115.28C126.55 115.468 127.307 115.28 126.361 115.091Z" fill="#FDFDFD"/>
<path d="M120.119 112.078C120.119 112.078 119.362 111.512 118.984 111.136C118.606 110.759 118.606 110.571 118.416 110.571C118.227 110.571 118.038 110.571 118.416 111.136C118.795 111.701 119.551 112.266 119.93 112.454C120.308 112.454 120.497 112.454 120.119 112.078Z" fill="#FDFDFD"/>
<path d="M150.574 119.801C150.574 119.801 154.168 121.684 155.492 122.626C157.006 123.379 157.384 123.756 157.195 123.945C157.195 124.133 156.627 124.133 155.871 123.756C155.114 123.191 150.385 120.554 150.007 120.177C149.818 119.612 150.196 119.424 150.574 119.801Z" fill="#FDFDFD"/>
<path d="M158.708 124.133C158.708 124.133 160.221 124.698 160.411 124.886C160.789 125.075 160.6 125.263 159.843 125.075C159.087 124.886 158.141 124.321 157.952 124.133C157.762 123.945 158.33 124.133 158.708 124.133Z" fill="#FDFDFD"/>
<path opacity="0.5" d="M120.686 148.621C120.686 148.621 118.416 148.997 112.931 149.186C107.445 149.374 106.31 149.374 106.31 149.374L102.148 154.083C102.148 154.083 103.094 159.546 107.256 163.501C111.606 167.457 115.957 164.255 115.957 164.255L120.686 148.621Z" fill="#E2A01B"/>
<path d="M81.7186 33.9058C81.7186 33.9058 77.7462 31.6454 78.5029 25.9945C79.2595 20.3435 83.2319 17.518 83.2319 17.518C83.2319 17.518 82.2861 20.5319 83.0428 22.4155C83.6103 24.2992 84.9344 25.9945 84.9344 25.9945C84.9344 25.9945 84.3669 16.0111 97.4192 6.78116C110.471 -2.26039 122.956 0.376731 122.956 0.376731C122.956 0.376731 113.687 2.07202 109.526 7.15789C105.364 12.4321 105.364 20.5319 105.364 20.5319C105.364 20.5319 107.067 14.5042 113.498 12.2438C119.93 9.98338 128.064 13.7507 128.064 13.7507C128.064 13.7507 123.335 13.5623 119.551 16.3878C115.579 19.4017 115.579 23.9224 115.579 23.9224C115.579 23.9224 101.202 35.9778 81.7186 33.9058Z" fill="#FFD261"/>
<path d="M127.496 13.7507C127.496 13.7507 121.632 13.374 117.281 16.7645C112.931 20.3435 115.39 22.0388 111.228 25.8061C106.877 29.5734 104.229 30.5152 104.229 30.5152C104.229 30.5152 111.606 28.8199 114.444 25.4294C117.281 22.0388 115.768 19.0249 119.551 16.5762C123.335 14.1274 127.496 13.7507 127.496 13.7507Z" fill="#F4B831"/>
<path d="M122.578 0.376727C122.578 0.376727 111.417 -0.376735 106.121 8.47645C100.635 17.3296 104.229 25.241 104.229 25.241C104.229 25.241 107.256 8.85318 112.363 5.4626C117.471 1.88365 122.578 0.376727 122.578 0.376727Z" fill="#F4B831"/>
<path d="M83.0428 17.3296C83.0428 17.3296 82.2861 20.3435 83.4211 23.169C84.5561 25.9945 86.4477 27.5014 86.4477 27.5014C86.4477 27.5014 83.0428 26.1828 82.2861 23.169C81.3403 20.1551 83.0428 17.3296 83.0428 17.3296Z" fill="#F4B831"/>
<path d="M78.5029 25.241C78.5029 25.241 77.9354 30.5152 83.2319 33.1524C88.3394 35.6011 96.6625 33.7175 96.6625 33.7175C96.6625 33.7175 91.1768 37.6731 83.7994 34.6593C76.2329 31.4571 78.1245 26.5596 78.5029 25.241Z" fill="#F4B831"/>
<path d="M56.1816 224.532C56.1816 224.532 48.4259 246.194 40.1027 243.18C31.7795 240.166 29.3203 225.474 26.2937 227.546C23.2671 229.618 17.9705 258.626 14.1873 260.321C10.404 262.017 0 258.249 0 254.67C0 246.006 23.2671 219.634 26.4829 217.939C29.8878 216.244 37.6435 230.936 40.8593 233.008C44.2643 235.08 48.8042 222.46 48.8042 222.46C48.8042 222.46 50.5067 220.576 56.1816 224.532Z" fill="#F46D22"/>
<path d="M76.0437 160.299C76.0437 160.299 56.5599 157.85 49.9392 144.853C43.3184 131.856 51.4525 121.119 47.6692 115.468C43.8859 109.817 28.7529 96.0665 25.3479 89.097C21.943 81.9391 20.808 75.9114 16.6464 75.9114C12.4848 75.9114 8.13403 82.6925 12.8631 94.7479C17.5922 106.803 20.6188 110.571 20.6188 110.571C20.6188 110.571 13.2414 104.543 10.7823 101.341C8.3232 97.9501 3.21578 99.4571 3.21578 106.05C3.21578 112.643 13.9981 122.061 16.8356 124.133C19.673 126.393 20.808 126.958 20.808 126.958C20.808 126.958 16.8356 125.64 13.4306 123.756C10.0257 121.873 6.05323 124.698 9.07985 132.233C12.1065 139.767 22.1321 142.97 22.1321 142.97C22.1321 142.97 13.9981 142.593 15.8897 150.316C17.7814 158.039 29.3203 157.097 29.3203 157.097C29.3203 157.097 26.4829 163.313 31.4011 167.645C36.3194 171.978 43.6968 167.834 43.6968 167.834C43.6968 167.834 43.6968 175.934 46.3451 176.31C48.9933 176.687 52.9658 172.92 52.9658 172.92C52.9658 172.92 55.2357 178.759 58.6407 177.817C61.8565 176.875 63.9373 173.485 63.9373 173.485C63.9373 173.485 63.1806 174.992 65.6397 175.18C68.0989 175.368 70.558 171.978 70.558 171.978C70.558 171.978 77.9354 168.587 79.6378 165.385C81.1511 162.371 77.9354 159.546 76.0437 160.299Z" fill="#FFB92E"/>
<path d="M20.2405 79.1136C20.2405 79.1136 18.538 75.1579 14.7548 76.6648C10.9715 78.1718 9.64734 85.1413 12.674 93.8061C15.8897 102.471 17.9705 106.427 21.5646 111.889C25.1588 117.352 39.9135 127.9 39.9135 127.9C39.9135 127.9 25.3479 113.584 20.2405 99.8338C15.5114 85.8947 14.1873 79.867 20.2405 79.1136Z" fill="#EA9F1B"/>
<path d="M10.9715 101.906C10.9715 101.906 9.64734 99.6454 6.99906 99.8338C4.35077 100.022 1.51331 105.673 5.86407 112.078C10.2148 118.482 18.1597 125.075 22.3213 127.712C26.2937 130.349 37.4544 134.305 37.4544 134.305C37.4544 134.305 21.7538 127.147 13.9981 116.787C6.43156 106.615 6.99906 101.717 10.9715 101.906Z" fill="#EA9F1B"/>
<path d="M43.3185 143.535C43.3185 143.535 29.1312 145.418 21.7538 142.404C14.3764 139.579 10.9715 135.812 9.07985 131.102C7.18822 126.393 9.64734 122.814 12.2956 123.756C14.9439 124.698 17.5922 125.828 17.5922 125.828C17.5922 125.828 13.6198 124.886 14.3764 129.596C15.1331 134.493 28.3745 143.911 43.3185 143.535Z" fill="#EA9F1B"/>
<path d="M47.2909 151.069C47.2909 151.069 35.5627 156.72 29.3203 156.909C23.078 157.285 18.3489 155.778 16.6464 151.258C14.9439 146.737 17.5922 144.476 19.4838 143.911C21.3755 143.346 23.078 143.535 23.078 143.535C23.078 143.535 19.673 149.562 27.9962 152.576C36.3194 155.402 47.2909 151.069 47.2909 151.069Z" fill="#EA9F1B"/>
<path d="M54.6683 158.981C54.6683 158.981 47.48 166.892 41.616 168.587C35.7519 170.471 31.5903 168.964 29.8878 165.197C28.1854 161.429 30.077 157.474 30.077 157.474C30.077 157.474 30.077 165.573 38.5894 165.197C47.1017 164.82 54.6683 158.981 54.6683 158.981Z" fill="#EA9F1B"/>
<path d="M59.9648 159.357C59.9648 159.357 57.1274 169.152 52.5875 172.92C48.0475 176.687 45.7776 176.875 44.8318 174.615C43.8859 172.355 43.8859 168.022 43.8859 168.022C43.8859 168.022 45.0209 173.485 49.9392 171.978C54.8574 170.471 59.9648 159.357 59.9648 159.357Z" fill="#EA9F1B"/>
<path d="M67.5314 163.501C67.5314 163.501 65.8289 171.601 63.1806 174.803C60.5323 178.006 57.3165 178.759 55.4249 176.499C53.7224 174.238 52.9658 172.92 52.9658 172.92L54.6683 170.848C54.6683 170.848 54.8574 174.992 58.6407 174.05C62.424 173.108 67.5314 163.501 67.5314 163.501Z" fill="#EA9F1B"/>
<path d="M76.2329 168.399L70.3688 171.789C70.3688 171.789 68.4772 174.427 66.5856 174.992C64.8831 175.557 63.9373 174.615 63.9373 174.238C63.9373 173.673 64.1264 173.296 64.1264 173.296C64.1264 173.296 65.0722 174.803 67.7205 172.543C70.3688 170.283 71.8821 166.139 71.8821 166.139C71.8821 166.139 71.1255 170.283 72.6388 170.094C73.9629 169.717 76.2329 168.399 76.2329 168.399Z" fill="#EA9F1B"/>
<path d="M107.823 163.125C107.823 163.125 103.283 159.169 100.446 154.083C100.446 154.083 93.8251 154.083 90.6093 156.155C87.3935 158.227 85.3127 160.676 85.3127 160.676C85.3127 160.676 85.6911 173.485 92.3118 177.817L107.823 163.125Z" fill="#F5EFF3"/>
<path d="M114.444 162.936L112.741 182.715C112.741 182.715 116.146 181.773 118.795 177.252C121.443 172.731 118.416 160.299 118.416 160.299C118.416 160.299 118.227 162.183 114.444 162.936Z" fill="#F5EFF3"/>
<path d="M103.094 163.69C103.094 163.69 96.0951 155.778 88.9068 153.706C87.5827 153.33 86.4477 154.271 86.2586 155.402L82.8536 174.615C82.6645 175.745 83.6103 176.875 84.9344 176.687C89.8527 175.934 98.5542 173.861 102.905 172.166L103.094 163.69Z" fill="#35ACE1"/>
<path d="M114.255 165.762C114.255 165.762 115.201 161.241 129.577 161.241C130.334 161.241 131.09 161.994 130.901 162.748L128.253 182.526C128.064 183.845 126.55 184.598 125.415 184.033C122.389 182.338 117.281 179.324 114.066 176.687C112.931 175.745 112.552 174.427 112.741 172.92L114.255 165.762Z" fill="#35ACE1"/>
<path d="M125.415 166.892C125.415 166.892 115.39 167.834 115.201 168.587C115.201 169.152 122.767 168.022 125.415 166.892Z" fill="#169DCE"/>
<path d="M114.822 170.848C114.822 170.848 120.497 171.601 123.524 176.499C126.55 181.396 123.145 176.875 122.578 175.934C122.01 175.18 120.119 172.92 117.66 172.355C115.39 171.978 112.741 171.224 114.822 170.848Z" fill="#169DCE"/>
<path d="M94.5817 161.053C94.5817 161.053 103.662 165.385 103.472 166.139C103.283 166.892 96.6625 163.125 94.5817 161.053Z" fill="#169DCE"/>
<path d="M103.094 168.587C103.094 168.587 97.4192 167.269 92.8793 170.848C88.3393 174.427 93.2576 171.413 94.0143 170.659C94.7709 170.094 97.4192 168.776 99.8783 168.964C102.337 169.152 104.986 169.717 103.094 168.587Z" fill="#169DCE"/>
<path d="M126.74 173.862C127.471 173.862 128.064 173.271 128.064 172.543C128.064 171.815 127.471 171.224 126.74 171.224C126.008 171.224 125.415 171.815 125.415 172.543C125.415 173.271 126.008 173.862 126.74 173.862Z" fill="#7ACFE8"/>
<path d="M87.3935 167.269C88.1248 167.269 88.7177 166.678 88.7177 165.95C88.7177 165.222 88.1248 164.632 87.3935 164.632C86.6622 164.632 86.0694 165.222 86.0694 165.95C86.0694 166.678 86.6622 167.269 87.3935 167.269Z" fill="#7ACFE8"/>
<path d="M88.5285 174.992C89.2598 174.992 89.8527 174.401 89.8527 173.673C89.8527 172.945 89.2598 172.355 88.5285 172.355C87.7972 172.355 87.2044 172.945 87.2044 173.673C87.2044 174.401 87.7972 174.992 88.5285 174.992Z" fill="#7ACFE8"/>
<path d="M122.389 180.266C123.12 180.266 123.713 179.676 123.713 178.947C123.713 178.219 123.12 177.629 122.389 177.629C121.657 177.629 121.065 178.219 121.065 178.947C121.065 179.676 121.657 180.266 122.389 180.266Z" fill="#7ACFE8"/>
<path d="M123.335 166.892C123.857 166.892 124.28 166.47 124.28 165.95C124.28 165.43 123.857 165.008 123.335 165.008C122.812 165.008 122.389 165.43 122.389 165.95C122.389 166.47 122.812 166.892 123.335 166.892Z" fill="#7ACFE8"/>
<path d="M94.5818 161.429C95.1041 161.429 95.5276 161.008 95.5276 160.488C95.5276 159.967 95.1041 159.546 94.5818 159.546C94.0594 159.546 93.6359 159.967 93.6359 160.488C93.6359 161.008 94.0594 161.429 94.5818 161.429Z" fill="#7ACFE8"/>
<path d="M98.7433 162.936C99.2657 162.936 99.6892 162.515 99.6892 161.994C99.6892 161.474 99.2657 161.053 98.7433 161.053C98.221 161.053 97.7975 161.474 97.7975 161.994C97.7975 162.515 98.221 162.936 98.7433 162.936Z" fill="#7ACFE8"/>
<path d="M97.23 171.601C97.7524 171.601 98.1759 171.179 98.1759 170.659C98.1759 170.139 97.7524 169.717 97.23 169.717C96.7077 169.717 96.2842 170.139 96.2842 170.659C96.2842 171.179 96.7077 171.601 97.23 171.601Z" fill="#7ACFE8"/>
<path d="M117.281 175.745C117.804 175.745 118.227 175.323 118.227 174.803C118.227 174.283 117.804 173.862 117.281 173.862C116.759 173.862 116.336 174.283 116.336 174.803C116.336 175.323 116.759 175.745 117.281 175.745Z" fill="#7ACFE8"/>
<path d="M114.822 164.255C114.822 164.255 115.957 165.197 115.201 169.152C114.444 173.108 113.498 174.427 112.363 174.427C111.417 174.238 104.418 173.296 101.581 172.543C101.581 172.543 102.905 165.385 103.094 163.69C103.283 161.994 104.04 162.371 104.418 162.371C104.797 162.371 113.687 163.501 114.822 164.255Z" fill="#7ACFE8"/>
</g>
<defs>
<clipPath id="clip0_51_4181">
<rect width="199" height="272" fill="white"/>
</clipPath>
</defs>
</svg>
