<svg width="432" height="163" viewBox="0 0 432 163" fill="none" xmlns="http://www.w3.org/2000/svg">
<g filter="url(#filter0_d_118_1122)">
<path d="M430.623 154.636C430.623 154.636 438.685 128.961 416.466 112.816C398.179 99.5895 377.926 113.205 370.847 123.709C370.258 124.681 368.684 124.098 368.684 123.125C369.471 99.395 366.522 19.8401 294.358 2.33416C218.458 -15.9499 205.48 75.0812 204.104 100.951C204.104 102.313 202.137 102.702 201.547 101.535C196.828 92.0036 185.227 73.9141 163.991 72.7471C135.086 71.191 120.339 89.6695 115.816 127.016C115.816 127.016 112.08 131.489 106.181 121.958C100.282 112.427 70.0008 92.5872 40.3094 99.9786C10.618 107.37 3.34265 117.485 0.983073 129.35C-1.37651 141.215 -8.65189 165.14 76.4897 163C161.828 160.666 429.05 164.167 430.623 154.636Z" fill="#F8FCFF"/>
<path d="M316.774 65.3556C316.38 57.9642 311.858 51.9344 306.155 47.4606C300.846 43.3759 290.032 37.1516 283.15 37.5406C286.296 35.79 289.638 33.8449 292.785 32.0943C292.588 32.2888 292.391 32.6778 292.391 32.8723C285.509 45.321 266.436 34.2339 273.121 21.7852C280.987 7.58593 306.745 21.2017 316.38 27.6205C329.555 36.3735 338.206 49.6002 339.19 65.3556C339.78 79.5549 317.56 79.3604 316.774 65.3556Z" fill="#EAF7FF"/>
<path d="M404.078 142.965C404.668 146.856 403.881 142.771 403.881 142.771C403.685 142.965 405.061 144.716 404.078 143.16C403.685 142.771 402.898 140.631 404.078 142.965C403.685 142.382 403.095 141.798 402.702 141.409C402.505 141.215 402.308 141.02 402.112 140.826C401.522 140.242 401.719 140.437 402.702 141.409C402.505 141.02 401.325 140.631 400.932 140.437C399.949 139.853 402.898 140.826 400.932 140.437C400.145 140.242 397.786 140.048 400.735 140.242C395.033 139.659 389.331 135.574 389.724 129.35C389.921 123.903 394.64 117.874 400.735 118.457C407.421 119.041 413.32 121.375 418.039 126.043C422.955 130.711 425.118 136.547 426.101 143.16C426.887 148.801 420.399 154.442 415.089 154.052C408.601 153.663 404.865 149.19 404.078 142.965Z" fill="#EAF7FF"/>
<path d="M162.024 100.951C161.828 100.757 161.631 100.562 161.238 100.173C162.811 101.146 164.581 102.118 166.154 103.091C167.333 103.48 169.693 102.313 168.513 103.285C167.923 103.869 166.744 104.063 165.957 104.452C164.384 105.23 162.614 106.203 161.238 107.37C160.845 107.759 159.861 108.731 159.861 108.731C160.255 108.148 158.878 110.482 159.468 109.51C159.272 109.704 159.075 111.455 159.272 110.288C159.075 109.704 159.075 109.704 159.272 110.482C159.468 111.066 159.665 111.649 159.861 112.233C162.024 117.679 157.502 124.292 152.193 125.654C145.901 127.405 140.788 123.514 138.625 118.068C134.693 108.342 139.608 96.8663 147.277 90.4475C155.339 83.8341 168.71 76.6372 177.755 85.3902C187.98 95.3103 172.249 110.871 162.024 100.951Z" fill="#EAF7FF"/>
<path d="M44.242 130.322C43.6522 130.517 42.8656 130.517 42.2757 130.711C42.0791 130.711 40.3094 131.295 41.6858 130.906C43.2589 130.322 41.2926 131.1 40.8993 131.295C40.7027 131.489 38.7364 132.656 40.1128 131.684C41.2926 130.906 39.9162 131.878 39.7195 132.073C39.5229 132.267 38.3431 133.045 38.3431 133.434C38.3431 133.045 39.5229 131.684 38.7364 133.045C38.3431 133.823 37.9498 134.407 37.5566 135.185C35.0004 140.242 27.1351 142.187 22.416 139.075C17.1069 135.769 15.7305 129.544 18.4833 124.098C22.416 116.512 30.0846 110.677 38.5397 108.926C44.242 107.759 50.7309 110.482 52.1073 116.512C53.0905 122.153 50.3376 129.155 44.242 130.322Z" fill="#EAF7FF"/>
</g>
<defs>
<filter id="filter0_d_118_1122" x="-6.2533" y="-0.0733643" width="454.302" height="187.208" filterUnits="userSpaceOnUse" color-interpolation-filters="sRGB">
<feFlood flood-opacity="0" result="BackgroundImageFix"/>
<feColorMatrix in="SourceAlpha" type="matrix" values="0 0 0 0 0 0 0 0 0 0 0 0 0 0 0 0 0 0 127 0" result="hardAlpha"/>
<feMorphology radius="6" operator="erode" in="SourceAlpha" result="effect1_dropShadow_118_1122"/>
<feOffset dx="5" dy="13"/>
<feGaussianBlur stdDeviation="8.5"/>
<feComposite in2="hardAlpha" operator="out"/>
<feColorMatrix type="matrix" values="0 0 0 0 0.138542 0 0 0 0 0.40303 0 0 0 0 0.554167 0 0 0 0.2 0"/>
<feBlend mode="normal" in2="BackgroundImageFix" result="effect1_dropShadow_118_1122"/>
<feBlend mode="normal" in="SourceGraphic" in2="effect1_dropShadow_118_1122" result="shape"/>
</filter>
</defs>
</svg>
