<svg width="522" height="183" viewBox="0 0 522 183" fill="none" xmlns="http://www.w3.org/2000/svg">
<path d="M5.064 64.28C5.064 68.312 8.328 71.576 12.36 71.576C16.392 71.576 19.656 68.312 19.656 64.28V28.28L49.224 67.064C51.24 69.656 53.352 71.384 56.904 71.384H57.384C61.512 71.384 64.776 68.12 64.776 63.992V10.52C64.776 6.488 61.512 3.224 57.48 3.224C53.448 3.224 50.184 6.488 50.184 10.52V45.176L21.672 7.736C19.656 5.144 17.544 3.41599 13.992 3.41599H12.456C8.328 3.41599 5.064 6.68 5.064 10.808V64.28ZM75.3398 7.44799C75.3398 11.672 78.8918 14.36 83.4998 14.36C88.1078 14.36 91.6598 11.672 91.6598 7.44799V7.256C91.6598 3.032 88.1078 0.439999 83.4998 0.439999C78.8918 0.439999 75.3398 3.032 75.3398 7.256V7.44799ZM76.2038 64.28C76.2038 68.312 79.4678 71.576 83.4998 71.576C87.5318 71.576 90.7958 68.312 90.7958 64.28V26.264C90.7958 22.232 87.5318 18.968 83.4998 18.968C79.4678 18.968 76.2038 22.232 76.2038 26.264V64.28ZM100.661 79.64C100.661 83.672 103.925 86.936 107.957 86.936C111.989 86.936 115.253 83.672 115.253 79.64V64.28C118.709 68.408 123.509 71.96 131.285 71.96C143.476 71.96 154.709 62.552 154.709 45.368V45.176C154.709 27.992 143.285 18.584 131.285 18.584C123.701 18.584 118.804 22.136 115.253 26.936V26.264C115.253 22.232 111.989 18.968 107.957 18.968C103.925 18.968 100.661 22.232 100.661 26.264V79.64ZM127.541 59.576C120.725 59.576 115.061 53.912 115.061 45.368V45.176C115.061 36.632 120.725 30.968 127.541 30.968C134.357 30.968 140.117 36.632 140.117 45.176V45.368C140.117 54.008 134.357 59.576 127.541 59.576ZM173.41 41.24C174.562 34.616 178.498 30.296 184.546 30.296C190.69 30.296 194.53 34.712 195.394 41.24H173.41ZM203.842 65.912C204.898 64.952 205.762 63.512 205.762 61.592C205.762 58.328 203.362 55.832 200.098 55.832C198.562 55.832 197.602 56.216 196.546 56.984C193.57 59.192 190.21 60.44 186.178 60.44C179.65 60.44 175.042 56.984 173.602 50.36H202.498C206.338 50.36 209.314 47.576 209.314 43.352C209.314 32.696 201.73 18.584 184.546 18.584C169.57 18.584 159.106 30.68 159.106 45.368V45.56C159.106 61.304 170.53 72.152 185.986 72.152C193.474 72.152 199.33 69.752 203.842 65.912ZM227.773 36.44C237.085 36.44 244.477 28.76 244.477 19.64V19.544C244.477 10.424 237.181 2.84 227.773 2.84C218.461 2.84 211.069 10.52 211.069 19.64V19.736C211.069 28.856 218.365 36.44 227.773 36.44ZM227.773 34.616C219.325 34.616 212.989 27.896 212.989 19.736V19.64C212.989 11.48 219.421 4.664 227.773 4.664C236.221 4.664 242.557 11.384 242.557 19.544V19.64C242.557 27.8 236.125 34.616 227.773 34.616ZM220.477 26.072C220.477 27.416 221.629 28.568 222.973 28.568C224.317 28.568 225.469 27.416 225.469 26.072V22.904H227.773L231.517 27.608C231.997 28.184 232.573 28.568 233.437 28.568C234.781 28.568 235.933 27.512 235.933 26.168C235.933 25.496 235.741 25.016 235.261 24.44L233.053 21.848C235.069 20.888 236.317 19.064 236.317 16.568C236.317 12.44 233.341 10.52 228.925 10.52H222.973C221.629 10.52 220.477 11.672 220.477 13.016V26.072ZM225.469 18.968V14.744H228.637C230.365 14.744 231.325 15.512 231.325 16.856C231.325 18.104 230.365 18.968 228.637 18.968H225.469ZM274.618 64.184C274.618 68.312 277.882 71.576 282.01 71.576C286.138 71.576 289.402 68.312 289.402 64.184V44.984H315.322C319.066 44.984 322.042 42.008 322.042 38.264C322.042 34.52 319.066 31.544 315.322 31.544H289.402V17.24H319.642C323.386 17.24 326.362 14.264 326.362 10.52C326.362 6.776 323.386 3.8 319.642 3.8H282.01C277.882 3.8 274.618 7.064 274.618 11.192V64.184ZM342.643 41.24C343.795 34.616 347.731 30.296 353.779 30.296C359.923 30.296 363.763 34.712 364.627 41.24H342.643ZM373.075 65.912C374.132 64.952 374.995 63.512 374.995 61.592C374.995 58.328 372.595 55.832 369.331 55.832C367.795 55.832 366.835 56.216 365.779 56.984C362.803 59.192 359.443 60.44 355.411 60.44C348.883 60.44 344.275 56.984 342.835 50.36H371.731C375.571 50.36 378.547 47.576 378.547 43.352C378.547 32.696 370.963 18.584 353.779 18.584C338.803 18.584 328.339 30.68 328.339 45.368V45.56C328.339 61.304 339.763 72.152 355.219 72.152C362.707 72.152 368.563 69.752 373.075 65.912ZM414.331 65.72L430.076 29.336C430.363 28.664 430.844 27.128 430.844 25.88C430.844 21.944 427.675 18.968 423.835 18.968C419.996 18.968 417.98 21.464 417.02 23.96L405.788 54.008L394.747 24.152C393.692 21.176 391.579 18.968 387.643 18.968C383.707 18.968 380.539 22.328 380.539 25.784C380.539 27.128 380.923 28.376 381.307 29.336L397.051 65.72C398.684 69.56 401.372 72.056 405.308 72.056H406.075C410.012 72.056 412.7 69.464 414.331 65.72ZM446.714 41.24C447.866 34.616 451.802 30.296 457.85 30.296C463.994 30.296 467.834 34.712 468.698 41.24H446.714ZM477.146 65.912C478.202 64.952 479.066 63.512 479.066 61.592C479.066 58.328 476.666 55.832 473.402 55.832C471.866 55.832 470.906 56.216 469.85 56.984C466.874 59.192 463.514 60.44 459.482 60.44C452.954 60.44 448.346 56.984 446.906 50.36H475.802C479.642 50.36 482.618 47.576 482.618 43.352C482.618 32.696 475.034 18.584 457.85 18.584C442.874 18.584 432.41 30.68 432.41 45.368V45.56C432.41 61.304 443.834 72.152 459.29 72.152C466.778 72.152 472.634 69.752 477.146 65.912ZM489.941 64.28C489.941 68.312 493.205 71.576 497.237 71.576C501.269 71.576 504.533 68.312 504.533 64.28V50.648C504.533 40.28 508.661 34.616 516.053 32.888C519.029 32.216 521.525 29.912 521.525 26.072C521.525 21.944 518.933 18.968 514.421 18.968C510.101 18.968 506.645 23.576 504.533 28.568V26.264C504.533 22.232 501.269 18.968 497.237 18.968C493.205 18.968 489.941 22.232 489.941 26.264V64.28ZM28.968 167.96C43.464 167.96 53.64 160.472 53.64 147.128V146.936C53.64 135.224 45.96 130.328 32.328 126.776C20.712 123.8 17.832 122.36 17.832 117.944V117.752C17.832 114.488 20.808 111.896 26.472 111.896C31.08 111.896 35.688 113.528 40.584 116.408C41.736 117.08 42.888 117.464 44.328 117.464C48.168 117.464 51.24 114.488 51.24 110.648C51.24 107.768 49.608 105.752 47.976 104.792C41.928 100.952 34.824 98.84 26.664 98.84C12.936 98.84 3.144 106.904 3.144 119.096V119.288C3.144 132.632 11.88 136.376 25.416 139.832C36.648 142.712 38.952 144.632 38.952 148.376V148.568C38.952 152.504 35.304 154.904 29.256 154.904C22.728 154.904 17.16 152.6 12.072 148.856C11.112 148.184 9.768 147.512 7.848 147.512C4.008 147.512 0.936 150.488 0.936 154.328C0.936 156.632 2.088 158.744 3.72 159.896C11.208 165.272 20.136 167.96 28.968 167.96ZM60.9022 103.448C60.9022 107.672 64.4543 110.36 69.0623 110.36C73.6703 110.36 77.2223 107.672 77.2223 103.448V103.256C77.2223 99.032 73.6703 96.44 69.0623 96.44C64.4543 96.44 60.9022 99.032 60.9022 103.256V103.448ZM61.7663 160.28C61.7663 164.312 65.0303 167.576 69.0623 167.576C73.0943 167.576 76.3583 164.312 76.3583 160.28V122.264C76.3583 118.232 73.0943 114.968 69.0623 114.968C65.0303 114.968 61.7663 118.232 61.7663 122.264V160.28ZM86.223 160.28C86.223 164.312 89.487 167.576 93.519 167.576C97.551 167.576 100.815 164.312 100.815 160.28V146.648C100.815 136.28 104.943 130.616 112.335 128.888C115.311 128.216 117.807 125.912 117.807 122.072C117.807 117.944 115.215 114.968 110.703 114.968C106.383 114.968 102.927 119.576 100.815 124.568V122.264C100.815 118.232 97.551 114.968 93.519 114.968C89.487 114.968 86.223 118.232 86.223 122.264V160.28ZM169.26 122.264C169.26 118.232 165.996 114.968 161.964 114.968C157.932 114.968 154.668 118.232 154.668 122.264V144.248C154.668 151.16 151.116 154.712 145.548 154.712C139.98 154.712 136.716 151.16 136.716 144.248V122.264C136.716 118.232 133.452 114.968 129.42 114.968C125.388 114.968 122.124 118.232 122.124 122.264V148.856C122.124 160.664 128.556 167.96 139.596 167.96C146.988 167.96 151.308 164.024 154.668 159.704V160.28C154.668 164.312 157.932 167.576 161.964 167.576C165.996 167.576 169.26 164.312 169.26 160.28V122.264ZM178.48 175.64C178.48 179.672 181.744 182.936 185.777 182.936C189.808 182.936 193.073 179.672 193.073 175.64V160.28C196.529 164.408 201.329 167.96 209.105 167.96C221.296 167.96 232.529 158.552 232.529 141.368V141.176C232.529 123.992 221.105 114.584 209.105 114.584C201.521 114.584 196.624 118.136 193.073 122.936V122.264C193.073 118.232 189.808 114.968 185.777 114.968C181.744 114.968 178.48 118.232 178.48 122.264V175.64ZM205.361 155.576C198.545 155.576 192.881 149.912 192.881 141.368V141.176C192.881 132.632 198.545 126.968 205.361 126.968C212.177 126.968 217.937 132.632 217.937 141.176V141.368C217.937 150.008 212.177 155.576 205.361 155.576Z" fill="url(#paint0_linear_118_1120)"/>
<defs>
<linearGradient id="paint0_linear_118_1120" x1="260.5" y1="-6" x2="260.5" y2="186" gradientUnits="userSpaceOnUse">
<stop stop-color="#1494D2"/>
<stop offset="1" stop-color="#3382A8"/>
</linearGradient>
</defs>
</svg>
