<svg width="218" height="209" viewBox="0 0 218 209" fill="none" xmlns="http://www.w3.org/2000/svg">
<g clip-path="url(#clip0_118_1119)">
<path d="M41.0158 64.9882C60.1265 40.6834 89.922 22.9613 121.264 24.3804C134.645 24.9713 150.24 30.0777 163.195 38.5545C176.129 47.0186 186.844 59.1279 189.709 73.9579C191.992 85.6899 193.703 101.005 192.988 115.903C192.277 130.71 189.152 145.575 181.348 155.986C170.594 170.372 152.451 177.403 134.989 178.199C117.581 179.106 100.593 174.551 84.4906 169.275C72.1809 165.301 59.0803 159.934 48.1807 152.323C37.2644 144.7 28.3698 134.689 24.8743 121.409L41.0158 64.9882ZM41.0158 64.9882C41.0162 64.9877 41.0166 64.9872 41.017 64.9867L43.3701 66.8476L41.0117 64.9934C41.0131 64.9917 41.0144 64.99 41.0158 64.9882Z" fill="#FBEB96" stroke="white" stroke-width="6"/>
<g opacity="0.48">
<path opacity="0.48" d="M169.263 109.47C174.074 97.169 171.278 82.6713 163.586 72.0268C155.313 60.5699 143.431 53.71 130.64 48.4248C122.332 44.9638 118.817 58.4903 126.982 61.8687C144.142 69.0083 164.031 84.9763 155.819 105.812C152.584 114.06 166.027 117.718 169.263 109.47Z" fill="white"/>
</g>
<g opacity="0.48">
<path opacity="0.48" d="M109.517 45.0093C105.918 45.1266 102.289 45.1309 98.8036 45.2179C95.2048 45.3351 91.6547 48.3435 91.8324 52.1681C91.9799 55.8798 94.8149 59.2343 98.7826 59.1392C102.381 59.022 106.01 59.0177 109.496 58.9307C113.095 58.8134 116.645 55.8051 116.467 51.9805C116.207 48.2991 113.372 44.9445 109.517 45.0093Z" fill="white"/>
</g>
</g>
<path d="M99.44 76.864C99.44 75.776 98.544 74.912 97.488 74.912C96.4 74.912 95.536 75.776 95.536 76.864V84.64C95.536 87.264 93.968 88.8 91.728 88.8C89.424 88.8 88.112 87.328 88.112 84.704V76.864C88.112 75.776 87.248 74.912 86.16 74.912C85.104 74.912 84.24 75.776 84.24 76.864V85.856C84.24 89.792 86.448 92.352 90.256 92.352C92.88 92.352 94.448 90.976 95.536 89.376V90.24C95.536 91.328 96.432 92.16 97.488 92.16C98.576 92.16 99.44 91.296 99.44 90.24V76.864ZM108.788 92.32C112.308 92.32 115.06 90.56 115.06 87.008V86.944C115.06 83.904 112.276 82.784 109.812 82.016C107.828 81.376 106.004 80.864 106.004 79.616V79.552C106.004 78.592 106.868 77.888 108.372 77.888C109.556 77.888 110.964 78.336 112.34 79.04C112.596 79.168 112.788 79.232 113.108 79.232C114.004 79.232 114.708 78.56 114.708 77.664C114.708 76.992 114.324 76.48 113.78 76.192C112.148 75.328 110.26 74.816 108.468 74.816C105.108 74.816 102.452 76.768 102.452 79.968V80.032C102.452 83.264 105.236 84.288 107.732 84.992C109.716 85.6 111.508 86.048 111.508 87.36V87.424C111.508 88.544 110.548 89.248 108.884 89.248C107.348 89.248 105.652 88.704 104.02 87.616C103.796 87.488 103.508 87.392 103.188 87.392C102.292 87.392 101.62 88.096 101.62 88.96C101.62 89.6 101.94 90.08 102.356 90.304C104.308 91.648 106.644 92.32 108.788 92.32ZM117.683 70.752C117.683 71.904 118.643 72.672 119.891 72.672C121.139 72.672 122.099 71.904 122.099 70.752V70.56C122.099 69.408 121.139 68.672 119.891 68.672C118.643 68.672 117.683 69.408 117.683 70.56V70.752ZM117.971 90.24C117.971 91.328 118.835 92.16 119.891 92.16C120.979 92.16 121.843 91.328 121.843 90.24V76.864C121.843 75.776 120.979 74.912 119.891 74.912C118.803 74.912 117.971 75.776 117.971 76.864V90.24ZM130.487 92.352C133.079 92.352 134.839 91.264 135.991 89.888V90.528C135.991 91.392 136.759 92.16 137.879 92.16C138.935 92.16 139.767 91.36 139.767 90.304V81.984C139.767 79.776 139.191 77.984 137.943 76.768C136.759 75.552 134.871 74.88 132.343 74.88C130.135 74.88 128.503 75.264 126.903 75.872C126.327 76.096 125.847 76.704 125.847 77.408C125.847 78.304 126.583 79.008 127.479 79.008C127.671 79.008 127.863 78.976 128.087 78.912C129.143 78.496 130.359 78.24 131.831 78.24C134.551 78.24 136.023 79.52 136.023 81.92V82.336C134.711 81.92 133.367 81.632 131.479 81.632C127.351 81.632 124.503 83.424 124.503 87.072V87.136C124.503 90.528 127.319 92.352 130.487 92.352ZM131.575 89.536C129.719 89.536 128.279 88.608 128.279 86.976V86.912C128.279 85.152 129.751 84.096 132.247 84.096C133.783 84.096 135.095 84.384 136.087 84.768V85.92C136.087 88.064 134.135 89.536 131.575 89.536Z" fill="#169DCE"/>
<path d="M55.984 123.432C55.984 124.384 56.768 125.14 57.692 125.14C58.644 125.14 59.4 124.384 59.4 123.432V106.856C59.4 105.904 58.672 105.148 57.692 105.148H57.636C57.132 105.148 56.628 105.26 55.956 105.456L52.988 106.408C52.288 106.604 51.84 107.164 51.84 107.892C51.84 108.676 52.54 109.348 53.352 109.348C53.52 109.348 53.772 109.32 53.968 109.264L55.984 108.648V123.432ZM64.0616 118.084H69.3256C70.2216 118.084 70.9776 117.328 70.9776 116.432C70.9776 115.508 70.2216 114.752 69.3256 114.752H64.0616C63.1656 114.752 62.4096 115.508 62.4096 116.432C62.4096 117.328 63.1656 118.084 64.0616 118.084ZM80.7273 125.336C84.8433 125.336 88.0073 122.564 88.0073 118.672V118.616C88.0073 114.696 84.9553 112.456 81.1753 112.456C78.8513 112.456 77.5073 113.408 76.4713 114.416C76.6393 110.832 78.2633 108.2 81.1753 108.2C82.4913 108.2 83.4713 108.592 84.5353 109.292C84.7873 109.432 85.0953 109.544 85.4033 109.544C86.2993 109.544 87.0553 108.844 87.0553 107.948C87.0553 107.248 86.7193 106.8 86.1873 106.464C84.8993 105.596 83.3033 105.064 81.2873 105.064C75.7433 105.064 72.8873 109.74 72.8873 115.732V115.788C72.8873 119.736 73.7833 121.78 75.2673 123.264C76.5833 124.58 78.3193 125.336 80.7273 125.336ZM80.6433 122.34C78.2073 122.34 76.5833 120.828 76.5833 118.84V118.784C76.5833 116.908 78.1233 115.34 80.5593 115.34C82.9953 115.34 84.5633 116.796 84.5633 118.756V118.812C84.5633 120.828 83.0793 122.34 80.6433 122.34ZM102.905 125.252C103.801 125.252 104.501 125.112 105.229 124.86C105.705 124.664 106.125 124.16 106.125 123.544C106.125 122.76 105.453 122.144 104.697 122.144C104.585 122.144 104.249 122.228 103.857 122.228C102.709 122.228 102.037 121.696 102.037 120.38V113.128H104.697C105.509 113.128 106.181 112.484 106.181 111.672C106.181 110.86 105.509 110.216 104.697 110.216H102.037V107.696C102.037 106.772 101.281 106.016 100.357 106.016C99.4048 106.016 98.6488 106.772 98.6488 107.696V110.216H98.0888C97.2768 110.216 96.6328 110.86 96.6328 111.672C96.6328 112.484 97.2768 113.128 98.0888 113.128H98.6488V120.912C98.6488 124.16 100.413 125.252 102.905 125.252ZM112.597 125.308C114.865 125.308 116.405 124.356 117.413 123.152V123.712C117.413 124.468 118.085 125.14 119.065 125.14C119.989 125.14 120.717 124.44 120.717 123.516V116.236C120.717 114.304 120.213 112.736 119.121 111.672C118.085 110.608 116.433 110.02 114.221 110.02C112.289 110.02 110.861 110.356 109.461 110.888C108.957 111.084 108.537 111.616 108.537 112.232C108.537 113.016 109.181 113.632 109.965 113.632C110.133 113.632 110.301 113.604 110.497 113.548C111.421 113.184 112.485 112.96 113.773 112.96C116.153 112.96 117.441 114.08 117.441 116.18V116.544C116.293 116.18 115.117 115.928 113.465 115.928C109.853 115.928 107.361 117.496 107.361 120.688V120.744C107.361 123.712 109.825 125.308 112.597 125.308ZM113.549 122.844C111.925 122.844 110.665 122.032 110.665 120.604V120.548C110.665 119.008 111.953 118.084 114.137 118.084C115.481 118.084 116.629 118.336 117.497 118.672V119.68C117.497 121.556 115.789 122.844 113.549 122.844ZM123.654 123.46C123.654 124.412 124.41 125.14 125.334 125.14C126.286 125.14 127.042 124.412 127.042 123.46V116.656C127.042 114.36 128.414 112.988 130.374 112.988C132.39 112.988 133.538 114.304 133.538 116.6V123.46C133.538 124.412 134.294 125.14 135.246 125.14C136.198 125.14 136.926 124.412 136.926 123.46V115.564C136.926 112.148 134.994 109.908 131.662 109.908C129.366 109.908 127.994 111.112 127.042 112.484V106.1C127.042 105.176 126.286 104.42 125.334 104.42C124.382 104.42 123.654 105.176 123.654 106.1V123.46ZM153.029 111.756C153.029 110.804 152.245 110.048 151.321 110.048C150.369 110.048 149.613 110.804 149.613 111.756V118.56C149.613 120.856 148.241 122.2 146.281 122.2C144.265 122.2 143.117 120.912 143.117 118.616V111.756C143.117 110.804 142.361 110.048 141.409 110.048C140.485 110.048 139.729 110.804 139.729 111.756V119.624C139.729 123.068 141.661 125.308 144.993 125.308C147.289 125.308 148.661 124.104 149.613 122.704V123.46C149.613 124.412 150.397 125.14 151.321 125.14C152.273 125.14 153.029 124.384 153.029 123.46V111.756ZM156.141 123.46C156.141 124.412 156.897 125.14 157.821 125.14C158.773 125.14 159.529 124.412 159.529 123.46V116.656C159.529 114.36 160.901 112.988 162.861 112.988C164.877 112.988 166.025 114.304 166.025 116.6V123.46C166.025 124.412 166.781 125.14 167.733 125.14C168.685 125.14 169.413 124.412 169.413 123.46V115.564C169.413 112.148 167.481 109.908 164.149 109.908C161.853 109.908 160.481 111.112 159.529 112.484V111.756C159.529 110.804 158.773 110.048 157.821 110.048C156.869 110.048 156.141 110.804 156.141 111.756V123.46Z" fill="#169DCE"/>
<defs>
<clipPath id="clip0_118_1119">
<rect width="180" height="167.143" fill="white" transform="translate(217.563 162.002) rotate(165)"/>
</clipPath>
</defs>
</svg>
