<svg width="20" height="20" viewBox="0 0 20 20" fill="none" xmlns="http://www.w3.org/2000/svg">
<path d="M7.91907 3.54768L6.9906 3.91907V3.91907L7.91907 3.54768ZM8.79763 5.74407L9.7261 5.37268L9.7261 5.37268L8.79763 5.74407ZM8.53053 7.43003L9.29876 8.07021H9.29876L8.53053 7.43003ZM8.05771 7.99742L8.82593 8.6376H8.82593L8.05771 7.99742ZM8.15957 10.2429L7.45246 10.95L8.15957 10.2429ZM9.7571 11.8404L10.4642 11.1333V11.1333L9.7571 11.8404ZM12.0026 11.9423L11.3624 11.1741H11.3624L12.0026 11.9423ZM12.57 11.4695L13.2102 12.2377L13.2102 12.2377L12.57 11.4695ZM14.2559 11.2024L13.8845 12.1308L14.2559 11.2024ZM16.4523 12.0809L16.8237 11.1524L16.4523 12.0809ZM4.07895 3.5H6.37161V1.5H4.07895V3.5ZM6.9906 3.91907L7.86915 6.11546L9.7261 5.37268L8.84755 3.17629L6.9906 3.91907ZM7.76231 6.78984L7.28949 7.35723L8.82593 8.6376L9.29876 8.07021L7.76231 6.78984ZM7.45246 10.95L9.04999 12.5475L10.4642 11.1333L8.86667 9.53579L7.45246 10.95ZM12.6428 12.7105L13.2102 12.2377L11.9298 10.7012L11.3624 11.1741L12.6428 12.7105ZM13.8845 12.1308L16.0809 13.0094L16.8237 11.1524L14.6273 10.2739L13.8845 12.1308ZM16.5 13.6284V15.9211H18.5V13.6284H16.5ZM15.9211 16.5C9.06109 16.5 3.5 10.9389 3.5 4.07895H1.5C1.5 12.0435 7.95653 18.5 15.9211 18.5V16.5ZM16.5 15.9211C16.5 16.2408 16.2408 16.5 15.9211 16.5V18.5C17.3454 18.5 18.5 17.3454 18.5 15.9211H16.5ZM16.0809 13.0094C16.334 13.1106 16.5 13.3558 16.5 13.6284H18.5C18.5 12.538 17.8361 11.5574 16.8237 11.1524L16.0809 13.0094ZM13.2102 12.2377C13.3983 12.0809 13.6572 12.0399 13.8845 12.1308L14.6273 10.2739C13.7179 9.91013 12.6822 10.0742 11.9298 10.7012L13.2102 12.2377ZM9.04999 12.5475C10.0252 13.5228 11.5832 13.5935 12.6428 12.7105L11.3624 11.1741C11.0975 11.3948 10.708 11.3771 10.4642 11.1333L9.04999 12.5475ZM7.28949 7.35723C6.40654 8.41677 6.47721 9.97476 7.45246 10.95L8.86667 9.53579C8.62286 9.29198 8.60519 8.90248 8.82593 8.6376L7.28949 7.35723ZM7.86915 6.11546C7.96009 6.34281 7.91907 6.60173 7.76231 6.78984L9.29876 8.07021C9.9258 7.31775 10.0899 6.2821 9.7261 5.37268L7.86915 6.11546ZM6.37161 3.5C6.64421 3.5 6.88935 3.66597 6.9906 3.91907L8.84755 3.17629C8.44258 2.16387 7.46202 1.5 6.37161 1.5V3.5ZM4.07895 1.5C2.65463 1.5 1.5 2.65463 1.5 4.07895H3.5C3.5 3.7592 3.7592 3.5 4.07895 3.5V1.5Z" fill="#169DCE"/>
</svg>
