<svg width="20" height="20" viewBox="0 0 20 20" fill="none" xmlns="http://www.w3.org/2000/svg">
<path d="M1.6665 16.6667H18.3332" stroke="#169DCE" stroke-width="2" stroke-linecap="round" stroke-linejoin="round"/>
<path d="M16.3822 8.08434L10.5489 2.98017C10.2347 2.70526 9.7656 2.70526 9.45141 2.98017L3.61808 8.08434C3.43723 8.24258 3.3335 8.47119 3.3335 8.71149V15.8333C3.3335 16.2936 3.70659 16.6667 4.16683 16.6667H7.50016C7.9604 16.6667 8.3335 16.2936 8.3335 15.8333V12.5C8.3335 12.0398 8.70659 11.6667 9.16683 11.6667H10.8335C11.2937 11.6667 11.6668 12.0398 11.6668 12.5V15.8333C11.6668 16.2936 12.0399 16.6667 12.5002 16.6667H15.8335C16.2937 16.6667 16.6668 16.2936 16.6668 15.8333V8.71149C16.6668 8.47119 16.5631 8.24258 16.3822 8.08434Z" stroke="#169DCE" stroke-width="2" stroke-linecap="round" stroke-linejoin="round"/>
</svg>
