<svg width="64" height="64" viewBox="0 0 64 64" fill="none" xmlns="http://www.w3.org/2000/svg">
<path d="M50.6668 33C51.2191 33 51.6668 32.5523 51.6668 32C51.6668 31.4477 51.2191 31 50.6668 31V33ZM13.3335 31C12.7812 31 12.3335 31.4477 12.3335 32C12.3335 32.5523 12.7812 33 13.3335 33L13.3335 31ZM50.6668 31L13.3335 31L13.3335 33L50.6668 33V31Z" fill="white"/>
<path d="M28.6264 48.7071C29.0169 49.0976 29.6501 49.0976 30.0406 48.7071C30.4311 48.3166 30.4311 47.6834 30.0406 47.2929L28.6264 48.7071ZM13.3335 32L12.6264 31.2929C12.4389 31.4804 12.3335 31.7348 12.3335 32C12.3335 32.2652 12.4389 32.5196 12.6264 32.7071L13.3335 32ZM30.0406 16.7071C30.4311 16.3166 30.4311 15.6834 30.0406 15.2929C29.6501 14.9024 29.0169 14.9024 28.6264 15.2929L30.0406 16.7071ZM30.0406 47.2929L14.0406 31.2929L12.6264 32.7071L28.6264 48.7071L30.0406 47.2929ZM14.0406 32.7071L30.0406 16.7071L28.6264 15.2929L12.6264 31.2929L14.0406 32.7071Z" fill="white"/>
</svg>
