<svg width="48" height="48" viewBox="0 0 48 48" fill="none" xmlns="http://www.w3.org/2000/svg">
<g clip-path="url(#clip0_117_835)">
<path d="M47.9999 22.4819C48.1499 14.4307 44.2874 5.97015 36.4874 2.18337C30.4874 -0.750528 22.8374 -0.716413 16.8374 2.28572C10.6124 5.3902 6.86245 10.951 3.03745 16.1706C1.23745 18.6269 0.262448 21.3561 0.0749476 24.1876C-0.750052 34.8998 8.96245 46.5331 21.1124 47.9318C26.6249 48.5458 32.1749 46.5672 36.5249 43.4627C43.4999 38.4478 47.8499 30.5331 47.9999 22.4819Z" fill="#00A7E0"/>
<g opacity="0.38">
<g opacity="0.48">
<g opacity="0.48">
<path opacity="0.48" d="M30.2999 8.18764C33.4874 11.7697 37.2374 16.1706 36.4499 21.1173C36.0374 23.6759 40.3499 24.7676 40.7624 22.209C41.8124 15.5565 37.8374 10.2687 33.4499 5.32196C31.6499 3.30917 28.4999 6.17484 30.2999 8.18764Z" fill="white"/>
</g>
</g>
<g opacity="0.48">
<g opacity="0.48">
<path opacity="0.48" d="M35.7749 25.3475C35.6624 25.5864 35.5124 25.791 35.3999 26.0298C35.2499 26.2687 35.1374 26.5075 35.1374 26.7804C35.0624 27.0533 35.0999 27.3262 35.1749 27.5991C35.2499 27.8721 35.3624 28.0768 35.5874 28.2814C35.7374 28.4861 35.9624 28.6908 36.2249 28.7932C36.7499 29.032 37.3874 29.1684 37.9499 28.9979C38.4749 28.8273 39.0374 28.5203 39.2999 28.0768C39.4124 27.838 39.5624 27.6333 39.6749 27.3945C39.8249 27.1556 39.9374 26.9168 39.9374 26.6439C40.0124 26.371 39.9749 26.0981 39.8999 25.8252C39.8249 25.5522 39.7124 25.3475 39.4874 25.1429C39.3374 24.9382 39.1124 24.7335 38.8499 24.6311C38.3249 24.3923 37.6874 24.2559 37.1249 24.4264C36.5624 24.5629 36.0374 24.8699 35.7749 25.3475Z" fill="white"/>
</g>
</g>
</g>
<path d="M31.7071 21.7071C32.0976 21.3166 32.0976 20.6834 31.7071 20.2929C31.3166 19.9024 30.6834 19.9024 30.2929 20.2929L31.7071 21.7071ZM24 28L23.2929 28.7071C23.6834 29.0976 24.3166 29.0976 24.7071 28.7071L24 28ZM17.7071 20.2929C17.3166 19.9024 16.6834 19.9024 16.2929 20.2929C15.9024 20.6834 15.9024 21.3166 16.2929 21.7071L17.7071 20.2929ZM30.2929 20.2929L23.2929 27.2929L24.7071 28.7071L31.7071 21.7071L30.2929 20.2929ZM24.7071 27.2929L17.7071 20.2929L16.2929 21.7071L23.2929 28.7071L24.7071 27.2929Z" fill="white"/>
</g>
<defs>
<clipPath id="clip0_117_835">
<rect width="48" height="48" fill="white" transform="translate(48) rotate(90)"/>
</clipPath>
</defs>
</svg>
