<svg width="48" height="48" viewBox="0 0 48 48" fill="none" xmlns="http://www.w3.org/2000/svg">
<path d="M16.875 20.625C19.5757 20.625 22.1058 19.5876 24.0001 17.7712C25.8947 19.5877 28.4246 20.625 31.125 20.625C36.8113 20.625 41.4375 15.9988 41.4375 10.3125C41.4375 4.62619 36.8113 0 31.125 0C28.4245 0 25.8946 1.03734 24 2.85384C22.1054 1.03734 19.5755 0 16.875 0C11.1887 0 6.5625 4.62619 6.5625 10.3125C6.5625 15.9988 11.1887 20.625 16.875 20.625ZM31.125 3.75C34.7436 3.75 37.6875 6.69394 37.6875 10.3125C37.6875 13.9311 34.7436 16.875 31.125 16.875C29.2246 16.875 27.4563 16.0684 26.221 14.6753C26.8294 13.3742 27.1387 11.9937 27.1816 10.6458C27.2344 8.99588 26.8913 7.38319 26.221 5.94966C27.4563 4.55662 29.2246 3.75 31.125 3.75ZM16.875 3.75C20.6205 3.75 23.5636 6.85453 23.4334 10.5466C23.3103 14.0393 20.4523 16.875 16.875 16.875C13.2564 16.875 10.3125 13.9311 10.3125 10.3125C10.3125 6.69394 13.2564 3.75 16.875 3.75ZM43.6434 27.6826C40.4476 24.1507 35.8848 22.125 31.125 22.125C28.6618 22.125 26.2188 22.6677 24 23.7004C21.7812 22.6677 19.3382 22.125 16.875 22.125C12.1152 22.125 7.55241 24.1507 4.35609 27.6832C1.54697 30.7899 0 34.809 0 39V46.125C0 47.1606 0.839438 48 1.875 48C2.60897 48 45.4839 48 46.125 48C47.1606 48 48 47.1606 48 46.125V39C48 34.809 46.453 30.7899 43.6434 27.6826ZM3.75 39C3.75 35.7401 4.95309 32.6142 7.13719 30.1987C9.62344 27.4509 13.1728 25.875 16.875 25.875C24.1247 25.875 30 31.7507 30 39V44.25H3.75V39ZM44.25 44.25H33.75V39C33.75 34.1075 31.6407 29.4777 27.9479 26.2643C28.9831 26.0071 30.0514 25.875 31.125 25.875C34.8272 25.875 38.3766 27.4509 40.8623 30.1982C43.0469 32.6142 44.25 35.7401 44.25 39V44.25Z" fill="url(#paint0_linear_378_4669)"/>
<defs>
<linearGradient id="paint0_linear_378_4669" x1="0" y1="24" x2="48" y2="24" gradientUnits="userSpaceOnUse">
<stop stop-color="#730000"/>
<stop offset="1" stop-color="#DE4339"/>
</linearGradient>
</defs>
</svg>
