<svg width="48" height="26" viewBox="0 0 48 26" fill="none" xmlns="http://www.w3.org/2000/svg">
<path d="M47.7166 12.009C44.4664 6.78723 35.8414 0.0625 24 0.0625C12.2567 0.0625 3.54602 6.76709 0.283447 12.009C-0.0944824 12.6158 -0.0944824 13.3845 0.283447 13.991C3.53357 19.2128 12.1586 25.9375 24 25.9375C35.7433 25.9375 44.4536 19.2329 47.7166 13.991C48.0945 13.3845 48.0945 12.6158 47.7166 12.009ZM13.0389 19.8646C9.50757 18.2332 6.38892 15.748 4.19604 13C6.38416 10.2582 9.49951 7.77087 13.0389 6.13538C11.7876 8.1261 11.0625 10.4797 11.0625 13C11.0625 15.5203 11.7876 17.8739 13.0389 19.8646ZM24 22.1875C18.9338 22.1875 14.8125 18.0658 14.8125 13C14.8125 7.9342 18.9338 3.8125 24 3.8125C29.0658 3.8125 33.1875 7.9342 33.1875 13C33.1875 18.0658 29.0658 22.1875 24 22.1875ZM34.9611 19.8646C36.2124 17.8739 36.9375 15.5203 36.9375 13C36.9375 10.4797 36.2124 8.1261 34.9611 6.13538C38.4924 7.76685 41.6111 10.252 43.8036 13C41.6158 15.7418 38.5005 18.2295 34.9611 19.8646ZM27.1586 11.1686C28.804 12.814 26.7056 15.0248 24.6599 16.7397C24.2871 17.0525 23.7437 17.058 23.3698 16.7463C21.2014 14.9402 19.2034 12.8308 20.8656 11.1686C22.4095 9.62427 24.0121 11.3418 24.0121 11.3418C24.0121 11.3418 25.615 9.62537 27.1586 11.1686Z" fill="url(#paint0_linear_1271_4666)"/>
<defs>
<linearGradient id="paint0_linear_1271_4666" x1="0" y1="13" x2="48" y2="13" gradientUnits="userSpaceOnUse">
<stop stop-color="#730000"/>
<stop offset="1" stop-color="#DE4339"/>
</linearGradient>
</defs>
</svg>
