<svg width="48" height="48" viewBox="0 0 48 48" fill="none" xmlns="http://www.w3.org/2000/svg">
<path d="M16.875 22.125H28.125C29.1606 22.125 30 21.2856 30 20.25V9C30 7.96444 29.1606 7.125 28.125 7.125H16.875C15.8394 7.125 15 7.96444 15 9V20.25C15 21.2856 15.8394 22.125 16.875 22.125ZM18.75 10.875H26.25V18.375H18.75V10.875ZM16.875 40.875H28.125C29.1606 40.875 30 40.0356 30 39C30 37.9644 29.1606 37.125 28.125 37.125H16.875C15.8394 37.125 15 37.9644 15 39C15 40.0356 15.8394 40.875 16.875 40.875ZM16.875 33.375H28.125C29.1606 33.375 30 32.5356 30 31.5C30 30.4644 29.1606 29.625 28.125 29.625H16.875C15.8394 29.625 15 30.4644 15 31.5C15 32.5356 15.8394 33.375 16.875 33.375ZM44.6285 10.875L47.6851 6.29006C48.0686 5.71472 48.1044 4.97494 47.7781 4.36528C47.4518 3.75563 46.8165 3.375 46.125 3.375H37.5V1.875C37.5 0.839438 36.6606 0 35.625 0H5.625C4.58944 0 3.75 0.839438 3.75 1.875V7.5H1.875C0.839438 7.5 0 8.33944 0 9.375C0 10.4106 0.839438 11.25 1.875 11.25H3.75V22.125H1.875C0.839438 22.125 0 22.9644 0 24C0 25.0356 0.839438 25.875 1.875 25.875H3.75V36.75H1.875C0.839438 36.75 0 37.5894 0 38.625C0 39.6606 0.839438 40.5 1.875 40.5H3.75V46.125C3.75 47.1606 4.58944 48 5.625 48H35.625C36.6606 48 37.5 47.1606 37.5 46.125V18.375H46.125C46.8165 18.375 47.4518 17.9944 47.7781 17.3847C48.1043 16.7751 48.0686 16.0353 47.6851 15.4599L44.6285 10.875ZM33.75 44.25H7.5V40.5H9.375C10.4106 40.5 11.25 39.6606 11.25 38.625C11.25 37.5894 10.4106 36.75 9.375 36.75H7.5V25.875H9.375C10.4106 25.875 11.25 25.0356 11.25 24C11.25 22.9644 10.4106 22.125 9.375 22.125H7.5V11.25H9.375C10.4106 11.25 11.25 10.4106 11.25 9.375C11.25 8.33944 10.4106 7.5 9.375 7.5H7.5V3.75H33.75V44.25ZM40.8149 11.9151L42.6216 14.625H37.5V7.125H42.6216L40.8149 9.83494C40.395 10.4648 40.395 11.2852 40.8149 11.9151Z" fill="url(#paint0_linear_378_4665)"/>
<defs>
<linearGradient id="paint0_linear_378_4665" x1="0" y1="24" x2="48" y2="24" gradientUnits="userSpaceOnUse">
<stop stop-color="#730000"/>
<stop offset="1" stop-color="#DE4339"/>
</linearGradient>
</defs>
</svg>
