<svg width="48" height="40" viewBox="0 0 48 40" fill="none" xmlns="http://www.w3.org/2000/svg">
<path d="M46.125 0.6875C43.7728 0.6875 3.28052 0.6875 1.875 0.6875C0.839355 0.6875 0 1.52686 0 2.5625V37.4375C0 38.4731 0.839355 39.3125 1.875 39.3125H46.125C47.1606 39.3125 48 38.4731 48 37.4375C48 36.8007 48 3.71826 48 2.5625C48 1.52686 47.1606 0.6875 46.125 0.6875ZM18.4999 4.4375H29.4998V13.7198H18.4999V4.4375ZM3.75 4.4375H14.7499V13.7198H3.75V4.4375ZM44.25 35.5625H3.75V17.4698H44.25V35.5625ZM44.25 13.7198H33.2501V4.4375H44.25V13.7198ZM25.9662 26.9496L32.9333 19.9824C33.6654 19.2504 34.8527 19.2504 35.5851 19.9824C36.3171 20.7148 36.3171 21.9017 35.5851 22.6342L27.2919 30.927C26.5598 31.6591 25.3722 31.6587 24.6401 30.927L20.9169 27.2037L15.0667 33.054C14.3342 33.786 13.1473 33.786 12.4149 33.054C11.6829 32.3215 11.6829 31.1343 12.4149 30.4022L19.5912 23.226C20.3232 22.4939 21.5112 22.4943 22.2429 23.226L25.9662 26.9496Z" fill="url(#paint0_linear)"/>
<defs>
<linearGradient id="paint0_linear" x1="0" y1="20" x2="48" y2="20" gradientUnits="userSpaceOnUse">
<stop stop-color="#730000"/>
<stop offset="1" stop-color="#DE4339"/>
</linearGradient>
</defs>
</svg>
