<svg width="48" height="48" viewBox="0 0 48 48" fill="none" xmlns="http://www.w3.org/2000/svg">
<path d="M46.125 4.6875H1.875C0.839355 4.6875 0 5.52686 0 6.5625V41.4375C0 42.4731 0.839355 43.3125 1.875 43.3125H46.125C47.1606 43.3125 48 42.4731 48 41.4375C48 40.441 48 7.46594 48 6.5625C48 5.52686 47.1606 4.6875 46.125 4.6875ZM44.25 39.5625H3.75V15.891H44.25V39.5625ZM44.25 12.141H3.75V8.4375H44.25V12.141ZM8.90625 37.693H39.0938C40.1294 37.693 40.9688 36.8536 40.9688 35.818C40.9688 34.7823 40.1294 33.943 39.0938 33.943H18.1205L26.4122 25.6512C27.1447 24.9188 27.1447 23.7316 26.4122 22.9995L21.7247 18.312C20.993 17.5803 19.8054 17.58 19.0734 18.312L7.58057 29.8044C7.22864 30.1564 7.03125 30.6332 7.03125 31.1305V35.818C7.03125 36.8536 7.87061 37.693 8.90625 37.693ZM10.7812 31.9072L20.399 22.2894L22.4348 24.3252L12.817 33.943H10.7812V31.9072Z" fill="url(#paint0_linear_378_4663)"/>
<defs>
<linearGradient id="paint0_linear_378_4663" x1="0" y1="24" x2="48" y2="24" gradientUnits="userSpaceOnUse">
<stop stop-color="#730000"/>
<stop offset="1" stop-color="#DE4339"/>
</linearGradient>
</defs>
</svg>
