<svg width="365" height="394" viewBox="0 0 365 394" fill="none" xmlns="http://www.w3.org/2000/svg">
<g clip-path="url(#clip0_205_2873)">
<path d="M242.127 279.611L238.451 238.359L227.151 111.435L224.984 87.1782L222.43 58.402C222.121 55.5437 221.269 53.1103 220.108 51.1404C215.581 43.5311 205.984 41.5999 199.057 42.411L195.149 42.8745L160.36 47.0847L118.8 52.106L117.368 52.2992L89.9704 55.621L82.1923 56.548C81.7667 56.5866 81.3797 56.6639 80.9927 56.7411C72.8277 58.3634 67.1779 66.243 68.1453 74.8952L69.1515 86.0194L69.6932 92.0064L69.8867 94.0149L70.1963 97.3367L71.0863 107.495V107.534L73.9886 139.593L74.9173 149.945V149.984L75.6139 157.825L76.0395 162.576V163.039L77.0456 173.854L78.8257 193.669L79.7544 203.712V203.75L79.8705 204.948V205.218L81.4958 223.218V223.256L81.5345 223.527L81.5732 223.759L81.6506 224.647L82.3471 232.179L83.1211 241.063L83.2372 242.26V242.299L88.6547 302.787C89.6996 311.825 98.2903 317.117 107.075 316.035L166.32 307.151H166.358L169.299 306.688L190.931 303.443L214.42 299.928L222.972 298.654L228.157 297.881C229.009 297.765 229.821 297.611 230.595 297.379C235.781 295.911 239.767 291.856 241.431 286.796C242.127 284.633 242.437 282.161 242.127 279.611Z" fill="#366F90"/>
<path d="M199.561 46.5826L82.5795 60.7582C76.0397 61.5693 71.3573 67.5177 72.0926 74.0841L93.376 291.701C94.9625 306.572 102.625 305.066 109.164 304.293L226.687 286.641C233.227 285.83 237.793 277.448 237.058 270.882L217.671 57.8613C216.936 51.2949 206.1 45.8101 199.561 46.5826Z" fill="#E2F7FF"/>
<path d="M305.319 86.5215H165.933C160.36 86.5215 155.872 82.041 155.872 76.4789V10.0427C155.872 4.48058 160.36 0 165.933 0H305.319C310.892 0 315.381 4.48058 315.381 10.0427V76.4789C315.381 82.041 310.892 86.5215 305.319 86.5215Z" fill="#23678D"/>
<path d="M187.487 118.117L194.801 78.0625L225.41 79.9165L187.487 118.117Z" fill="#23678D"/>
<path d="M253.233 35.4198H189.035C188.183 35.4198 187.487 34.7245 187.487 33.8747V33.7588C187.487 32.9091 188.183 32.2138 189.035 32.2138H253.233C254.084 32.2138 254.781 32.9091 254.781 33.7588V33.8747C254.781 34.7245 254.084 35.4198 253.233 35.4198Z" fill="#DAEBE8"/>
<path d="M253.233 50.7928H189.035C188.183 50.7928 187.487 50.0975 187.487 49.2477V49.1319C187.487 48.2821 188.183 47.5868 189.035 47.5868H253.233C254.084 47.5868 254.781 48.2821 254.781 49.1319V49.2477C254.781 50.0975 254.084 50.7928 253.233 50.7928Z" fill="#DAEBE8"/>
<path d="M233.111 66.1658H188.145C187.448 66.1658 186.829 65.5864 186.829 64.8525V64.2345C186.829 63.5393 187.41 62.9212 188.145 62.9212H233.111C233.807 62.9212 234.426 63.5006 234.426 64.2345V64.8525C234.388 65.5864 233.807 66.1658 233.111 66.1658Z" fill="#DAEBE8"/>
<path d="M286.087 66.1658H241.121C240.424 66.1658 239.805 65.5864 239.805 64.8525V64.2345C239.805 63.5393 240.386 62.9212 241.121 62.9212H286.087C286.783 62.9212 287.403 63.5006 287.403 64.2345V64.8525C287.364 65.5864 286.783 66.1658 286.087 66.1658Z" fill="#DAEBE8"/>
<path d="M10.7578 205.759H159.857C165.817 205.759 170.615 200.969 170.615 195.021V123.95C170.615 118.001 165.817 113.212 159.857 113.212H10.7578C4.79843 113.212 0 118.001 0 123.95V195.021C0 200.931 4.79843 205.759 10.7578 205.759Z" fill="#73B3CE"/>
<path d="M136.794 239.518L128.938 196.682L96.2393 198.691L136.794 239.518Z" fill="#73B3CE"/>
<path d="M97.8646 146.971H52.8987C52.2022 146.971 51.583 146.391 51.583 145.657V145.039C51.583 144.344 52.1635 143.726 52.8987 143.726H97.8646C98.5612 143.726 99.1803 144.306 99.1803 145.039V145.657C99.1803 146.391 98.5612 146.971 97.8646 146.971Z" fill="#DAEBE8"/>
<path d="M150.841 146.971H105.875C105.178 146.971 104.559 146.391 104.559 145.657V145.039C104.559 144.344 105.14 143.726 105.875 143.726H150.841C151.537 143.726 152.156 144.306 152.156 145.039V145.657C152.156 146.391 151.537 146.971 150.841 146.971Z" fill="#DAEBE8"/>
<path d="M150.531 163H53.5179C52.6278 163 51.8926 162.266 51.8926 161.378C51.8926 160.49 52.6278 159.756 53.5179 159.756H150.531C151.421 159.756 152.157 160.49 152.157 161.378C152.157 162.266 151.421 163 150.531 163Z" fill="#DAEBE8"/>
<path d="M97.7098 178.991H41.7926C40.98 178.991 40.3608 178.335 40.3608 177.562V177.215C40.3608 176.403 41.0187 175.785 41.7926 175.785H97.7485C98.5612 175.785 99.1803 176.442 99.1803 177.215V177.562C99.1803 178.373 98.5225 178.991 97.7098 178.991Z" fill="#DAEBE8"/>
<path d="M150.841 178.991H105.875C105.178 178.991 104.559 178.412 104.559 177.678V177.06C104.559 176.365 105.14 175.747 105.875 175.747H150.841C151.537 175.747 152.156 176.326 152.156 177.06V177.678C152.156 178.412 151.537 178.991 150.841 178.991Z" fill="#DAEBE8"/>
<path d="M215.078 236.814L163.805 242.878C161.135 243.187 158.658 241.256 158.348 238.591L156.839 225.883C156.53 223.218 158.464 220.746 161.135 220.437L212.408 214.373C215.078 214.064 217.555 215.995 217.864 218.66L219.374 231.368C219.683 234.033 217.748 236.505 215.078 236.814Z" fill="#23678D"/>
<path d="M164.888 279.573L113.614 285.637C110.944 285.946 108.468 284.015 108.158 281.35L106.649 268.642C106.339 265.976 108.274 263.504 110.944 263.195L162.218 257.131C164.888 256.822 167.364 258.753 167.674 261.419L169.183 274.126C169.493 276.792 167.558 279.264 164.888 279.573Z" fill="#73B3CE"/>
<path d="M93.9954 87.0237C95.8141 85.44 98.1746 85.0538 100.38 86.058C101.193 86.4443 101.928 85.2083 101.077 84.8606C98.2907 83.586 95.2724 84.0109 92.9892 86.058C92.3314 86.6374 93.3375 87.603 93.9954 87.0237Z" fill="#331832"/>
<path d="M91.0155 84.4744C93.4147 80.8436 99.5675 79.8779 103.282 82.0796C104.056 82.5431 104.753 81.3457 103.979 80.8822C99.5675 78.217 92.6407 79.4916 89.7772 83.7791C89.3128 84.513 90.5124 85.2469 91.0155 84.4744Z" fill="#331832"/>
<path d="M88.0746 81.5388C91.209 76.0154 98.5615 75.127 104.056 77.4445C104.908 77.7921 105.256 76.4402 104.443 76.0926C98.368 73.5433 90.319 74.7793 86.875 80.8436C86.4106 81.6161 87.6102 82.3113 88.0746 81.5388Z" fill="#331832"/>
<path d="M96.3555 88.7232C96.3555 87.9893 96.9359 87.4099 97.6712 87.4099C98.4064 87.4099 98.9869 87.9893 98.9869 88.7232C98.9869 89.4571 98.4064 90.0365 97.6712 90.0365C96.9359 90.0365 96.3555 89.4571 96.3555 88.7232Z" fill="#331832"/>
</g>
<g clip-path="url(#clip1_205_2873)">
<path d="M241.563 282.507C241.563 282.507 225.441 283.635 217.992 274.195C210.542 264.755 215.486 254.815 211.343 250.844C207.347 246.91 193.026 238.251 189.025 233.075C185.025 227.899 183.22 223.266 179.821 223.821C176.386 224.521 174.1 230.623 179.793 239.628C185.487 248.634 188.602 251.11 188.602 251.11C188.602 251.11 181.864 247.582 179.481 245.287C177.097 242.992 173.008 245.082 174.193 250.336C175.379 255.591 185.56 261.52 188.196 262.793C190.833 264.065 191.821 264.465 191.821 264.465C191.821 264.465 188.493 264.106 185.491 263.054C182.272 262.257 179.538 265.147 183.283 270.725C187.029 276.303 195.478 277.308 195.478 277.308C195.478 277.308 188.863 278.307 191.621 284.106C194.344 290.051 203.514 287.513 203.514 287.513C203.514 287.513 202.141 293.065 206.902 295.793C211.663 298.521 216.842 293.911 216.842 293.911C216.842 293.911 218.03 300.407 220.37 300.365C222.564 300.288 225.186 296.595 225.186 296.595C225.186 296.595 228.014 300.861 230.496 299.615C232.979 298.368 234.031 295.373 234.031 295.373C234.031 295.373 233.706 296.688 235.643 296.392C237.58 296.096 239.107 293.062 239.107 293.062C239.107 293.062 244.433 289.109 245.303 286.223C245.989 283.447 243.023 281.628 241.563 282.507Z" fill="#DD9B31"/>
<path d="M183.52 225.821C183.52 225.821 181.428 222.978 178.69 224.626C175.916 226.421 175.86 232.298 179.864 238.715C183.722 245.096 186.253 248.048 189.957 251.91C193.661 255.772 207.353 261.951 207.353 261.951C207.353 261.951 193.287 252.889 187.005 242.498C180.723 232.106 178.625 227.401 183.52 225.821Z" fill="#C67F17"/>
<path d="M179.811 245.834C179.811 245.834 178.344 244.231 176.335 244.819C174.326 245.407 172.914 250.485 177.388 255.002C181.862 259.52 189.405 263.557 193.102 264.937C196.799 266.316 206.383 267.757 206.383 267.757C206.383 267.757 192.589 264.5 184.708 257.433C176.862 250.221 176.449 246.243 179.811 245.834Z" fill="#C67F17"/>
<path d="M212.544 274.243C212.544 274.243 201.512 278.025 194.964 276.871C188.416 275.716 185.155 273.203 182.914 269.703C180.674 266.203 181.944 262.952 184.212 263.202C186.48 263.453 188.821 264.033 188.821 264.033C188.821 264.033 185.567 264.003 186.857 267.578C188.404 271.371 200.522 277.005 212.544 274.243Z" fill="#C67F17"/>
<path d="M216.801 279.637C216.801 279.637 208.373 286.079 203.258 287.295C198.143 288.51 194.193 288.153 192.099 284.689C190.005 281.225 191.79 279.031 193.214 278.298C194.638 277.565 196.063 277.452 196.063 277.452C196.063 277.452 194.251 282.896 201.457 283.903C208.663 284.911 216.801 279.637 216.801 279.637Z" fill="#EA9F1B"/>
<path d="M224.019 284.989C224.019 284.989 219.543 292.409 215.053 294.864C210.563 297.319 206.978 296.742 204.996 294.081C203.05 291.274 203.771 287.732 203.771 287.732C203.771 287.732 205.106 294.264 211.866 292.68C218.954 291.023 224.019 284.989 224.019 284.989Z" fill="#EA9F1B"/>
<path d="M228.515 284.395C228.515 284.395 227.844 292.757 224.893 296.523C221.942 300.289 219.933 300.877 218.941 299.237C217.803 297.56 217.098 294.129 217.098 294.129C217.098 294.129 218.829 298.434 222.589 296.418C226.093 294.184 228.515 284.395 228.515 284.395Z" fill="#EA9F1B"/>
<path d="M235.139 286.499C235.139 286.499 235.012 293.29 233.485 296.323C231.812 299.32 229.365 300.42 227.569 298.89C225.773 297.361 225.076 296.413 225.076 296.413L226.057 294.33C226.057 294.33 226.944 297.651 229.756 296.331C232.714 295.047 235.139 286.499 235.139 286.499Z" fill="#EA9F1B"/>
<path d="M243.044 289.075L238.85 292.844C238.85 292.844 237.65 295.183 236.373 295.952C235.095 296.721 234.143 296.176 234.105 295.701C234.031 295.373 233.993 294.898 233.993 294.898C233.993 294.898 234.947 296.064 236.622 293.688C238.261 291.458 238.982 287.915 238.982 287.915C238.982 287.915 239.029 291.493 240.234 291.016C241.439 290.539 243.044 289.075 243.044 289.075Z" fill="#EA9F1B"/>
<path d="M268.512 332.263C268.512 332.263 272.637 338.226 277.817 343.025C282.998 347.823 299.192 356.893 299.866 357.719C300.541 358.545 302.044 360.455 297.174 363.746C292.304 367.036 269.423 382.426 269.423 382.426C269.423 382.426 266.067 382.69 267.736 379.922C269.484 377.283 280.62 371.268 284.37 364.956C287.913 358.592 287.518 356.189 287.518 356.189C287.518 356.189 283.197 353.69 277.813 349.718C268.624 342.937 263.537 335.088 263.537 335.088C263.537 335.088 263.169 333.021 265.566 331.751C268.042 330.61 268.512 332.263 268.512 332.263Z" fill="#CE4205"/>
<path d="M271.647 177.854C271.647 177.854 251.318 165.228 233.205 173.15C215.092 181.073 212.925 203.018 210.482 205.359C208.039 207.7 191.489 212.443 191.723 230.331C191.958 248.219 206.029 259.142 229.716 269.498C247.8 277.383 268.974 278.435 289.948 248.275C308.3 221.806 296.33 191.713 271.647 177.854Z" fill="#FFD261"/>
<path opacity="0.23" d="M258.941 248.046C257.557 249.874 253.459 248.86 249.648 246.057C245.874 243.108 243.998 239.388 245.346 237.706C246.731 235.878 250.829 236.891 254.639 239.695C258.45 242.498 260.289 246.364 258.941 248.046Z" fill="#EA512D"/>
<path opacity="0.23" d="M223.717 217.781C222.626 219.681 218.347 219.398 214.281 216.997C210.216 214.596 207.793 211.206 208.885 209.305C209.976 207.404 214.255 207.688 218.32 210.089C222.422 212.344 224.809 215.88 223.717 217.781Z" fill="#EA512D"/>
<path d="M230.477 267.051C230.477 267.051 232.198 280.81 230.533 286.91C228.869 293.01 210.739 333.022 251.977 343.999C293.252 354.831 304.771 317.059 306.764 310.886C308.757 304.712 306.253 298.511 303.373 301.364C300.492 304.218 294.318 305.946 289.772 301.721C285.262 297.349 281.228 292.94 268.495 289.79C255.651 286.457 251.016 289.497 245.396 280.199C239.739 271.048 239.878 268.601 239.878 268.601L230.477 267.051Z" fill="#FFD261"/>
<path opacity="0.5" d="M227.418 296.992C227.418 296.992 222.9 315.255 228.965 326.523C235.066 337.645 245.465 342.698 259.072 344.825C272.68 346.951 283.05 342.074 288.56 338.011C294.105 333.801 298.659 327.951 302.259 320.934C305.858 313.918 306.178 310.741 306.178 310.741C306.178 310.741 299.011 335.945 272.319 335.853C245.7 335.47 223.638 317.918 227.418 296.992Z" fill="#F4B831"/>
<path opacity="0.5" d="M289.944 247.033C289.944 247.033 272.147 275.654 247.203 272.894C222.258 270.134 195.589 252.373 193.203 236.279C190.817 220.184 199.608 212.901 199.608 212.901C199.608 212.901 196.33 217.362 197.932 227.836C199.534 238.31 209.293 237.159 209.293 237.159L235.714 244.625C235.714 244.625 228.157 248.802 223.665 250.637C218.844 252.545 222.015 261.702 249.227 264.713C273.331 267.73 289.944 247.033 289.944 247.033Z" fill="#F4B831"/>
<path d="M212.812 227.331C212.812 227.331 210.273 234.455 206.95 235.959C203.627 237.462 196.249 240.288 196.07 241.639C195.891 242.991 198.162 244.483 199.479 244.809C200.65 245.098 202.551 244.948 202.551 244.948L218.057 233.125L212.812 227.331Z" fill="#960F0F"/>
<path d="M216.451 233.968C216.451 233.968 212.249 235.254 208.894 238.145C205.538 241.036 201.372 241.556 200.166 242.033C198.961 242.51 199.48 244.809 200.869 244.842C202.259 244.876 212.452 241.971 217.168 241.742C221.884 241.514 224.113 241.29 224.113 241.29L216.451 233.968Z" fill="#D62929"/>
<path d="M195.087 243.102C195.087 243.102 195.461 245.985 201.572 247.652C207.829 249.355 214.948 245.69 218.203 245.72C221.421 245.895 224.241 247.679 230.235 246.681C236.082 245.647 239.62 242.646 239.62 242.646C239.62 242.646 232.421 244.121 224.959 242.895C217.643 241.705 211.942 242.775 209.421 243.547C206.864 244.465 203.285 245.75 199.882 245.063C196.187 244.304 195.087 243.102 195.087 243.102Z" fill="#D85412"/>
<path d="M203.339 213.515C203.339 213.515 208.284 216.754 215.528 218.235C222.772 219.717 227.408 217.299 230.52 218.533C233.521 219.586 237.668 224.798 237.162 226.843C236.656 228.889 234.914 233.419 237.044 236.737C239.174 240.055 241.328 238.882 240.822 240.927C240.316 242.973 231.872 243.83 226.309 241.833C220.856 240.019 214.826 228.605 211.231 224.304C207.635 220.004 203.339 213.515 203.339 213.515Z" fill="#F46D22"/>
<path d="M239.797 240.674C239.797 240.674 233.777 244.921 226.526 240.957C219.275 236.992 211.956 222.003 207.847 217.265C203.738 212.528 200.482 211.878 200.16 214.434C199.839 216.99 201.524 218.337 205.445 221.323C209.366 224.308 216.377 233.64 218.397 236.775C220.417 239.91 224.343 244.758 231.325 244.159C238.417 243.743 239.985 242.426 240.713 241.366C241.295 240.269 239.797 240.674 239.797 240.674Z" fill="#FC9651"/>
<path d="M211.933 227.114C211.933 227.114 211.106 231.715 207.676 234.278C204.21 236.986 196.43 239.558 194.971 241.058C193.513 242.557 197.183 247.186 203.652 246.151C210.01 244.933 213.66 242.735 218.268 242.945C222.875 243.155 228.473 244.384 228.473 244.384L223.125 240.891C223.125 240.891 218.004 240.244 213.657 241.494C209.273 242.89 202.441 244.766 199.624 244.224C196.807 243.682 195.412 241.787 197.676 240.796C199.904 239.952 206.077 237.603 209.542 234.895C213.008 232.186 212.96 227.988 212.96 227.988L211.933 227.114Z" fill="#FC9651"/>
<path d="M211.716 227.991L212.781 229.339C212.781 229.339 212.529 230.982 211.765 232.189C211.001 233.395 210.345 234.163 210.345 234.163C210.345 234.163 209.832 233.726 209.393 233.617C208.771 233.619 208.113 233.766 208.113 233.766C208.113 233.766 209.79 232.01 210.48 230.476C211.281 229.123 211.716 227.991 211.716 227.991Z" fill="#ED7D32"/>
<path d="M221.625 240.675C221.625 240.675 222.872 241.913 224.41 242.604C225.801 243.258 227.96 243.947 227.96 243.947C227.96 243.947 223.058 243.045 222.144 242.973C221.083 242.866 219.254 242.724 219.254 242.724C219.254 242.724 219.583 242.65 219.91 241.956C220.237 241.262 218.846 240.607 218.846 240.607C218.846 240.607 220.565 240.567 221.625 240.675Z" fill="#ED7D32"/>
<path opacity="0.53" d="M213.898 223.569C213.898 223.569 217.827 229.657 219.186 231.699C220.581 233.594 221.607 234.469 221.9 234.541C222.193 234.613 223.248 232.859 226.314 231.137C229.527 229.451 236.683 225.64 236.683 225.64C236.683 225.64 235.394 222.685 234.516 222.468C233.638 222.251 229 224.049 222.014 223.406C214.993 222.909 212.906 221.928 213.898 223.569Z" fill="#FF8548"/>
<path d="M234.263 223.491C234.263 223.491 234.742 224.694 234.858 226.739C234.827 228.747 234.28 229.076 233.365 229.005C232.597 228.97 232.265 227.803 232.883 226.56C233.355 225.281 234.263 223.491 234.263 223.491Z" fill="#6D3B18"/>
<path opacity="0.25" d="M214.633 237.549C214.633 237.549 215.296 239.264 214.201 239.923C213.106 240.582 207.92 242.71 206.458 242.969C204.996 243.227 204.447 242.937 204.483 242.79C204.519 242.644 208.83 241.54 211.131 240.404C213.431 239.268 212.88 238.356 213.5 237.734C214.193 237.441 214.522 237.367 214.633 237.549Z" fill="#FDFDFD"/>
<path d="M235.49 230.461C235.49 230.461 234.805 233.857 235.871 235.827C236.937 237.796 237.632 238.123 237.414 238.379C237.195 238.635 236.097 238.053 235.249 235.828C234.512 233.785 235.342 229.804 235.49 230.461Z" fill="#FDFDFD"/>
<path d="M205.722 215.81C205.722 215.81 207.995 217.922 209.977 220.583C211.959 223.244 212.768 224.995 212.586 225.105C212.367 225.361 210.566 221.969 209.135 220.22C207.704 218.47 205.76 216.284 205.429 215.737C204.952 215.154 205.722 215.81 205.722 215.81Z" fill="#FDFDFD"/>
<path d="M212.953 225.506C212.953 225.506 214.017 226.854 214.091 227.183C214.311 227.547 213.726 227.402 213.285 226.673C212.844 225.944 212.624 225.579 212.514 225.397C212.514 225.397 212.843 225.323 212.953 225.506Z" fill="#FDFDFD"/>
<path d="M221.981 237.352C221.981 237.352 223.669 239.32 224.878 240.084C226.087 240.848 227.332 241.466 227.624 241.539C227.917 241.611 227.809 242.049 226.967 241.686C226.125 241.323 225.136 240.923 223.707 239.794C222.278 238.665 221.506 237.389 221.396 237.207C221.286 237.025 221.725 237.133 221.981 237.352Z" fill="#FDFDFD"/>
<path d="M220.514 235.748C220.514 235.748 221.248 236.55 221.212 236.696C221.175 236.842 221.139 236.988 220.772 236.588C220.406 236.187 220.149 235.968 220.185 235.822C220.221 235.676 220.258 235.53 220.514 235.748Z" fill="#FDFDFD"/>
<path d="M232.747 242.806C232.747 242.806 234.794 242.692 235.963 242.361C237.132 242.03 237.461 241.957 237.607 241.993C237.754 242.029 237.9 242.065 237.206 242.359C236.512 242.652 233.771 243.059 233.15 243.061C232.638 243.244 232.089 242.953 232.747 242.806Z" fill="#FDFDFD"/>
<path d="M238.119 241.809C238.119 241.809 238.812 241.516 239.177 241.296C239.542 241.076 239.579 240.93 239.725 240.966C239.871 241.002 240.018 241.039 239.616 241.405C239.215 241.77 238.521 242.064 238.193 242.138C237.936 241.919 237.936 241.919 238.119 241.809Z" fill="#FDFDFD"/>
<path d="M213.109 241.824C213.109 241.824 209.967 242.597 208.762 243.074C207.446 243.369 207.081 243.588 207.192 243.771C207.155 243.917 207.595 244.025 208.252 243.878C208.946 243.585 213.111 242.444 213.476 242.225C213.841 242.005 213.621 241.64 213.109 241.824Z" fill="#FDFDFD"/>
<path d="M206.095 243.809C206.095 243.809 204.815 243.958 204.633 244.068C204.304 244.142 204.414 244.324 205.036 244.323C205.657 244.321 206.498 244.064 206.68 243.954C206.752 243.662 206.424 243.736 206.095 243.809Z" fill="#FDFDFD"/>
<path opacity="0.5" d="M230.814 270.08C230.814 270.08 232.498 270.807 236.706 272.003C240.914 273.199 241.793 273.416 241.793 273.416L244.109 277.865C244.109 277.865 242.329 281.921 238.35 284.193C234.225 286.428 231.473 283.112 231.473 283.112L230.814 270.08Z" fill="#E2A01B"/>
<path d="M274.639 329.767C274.639 329.767 285.896 340.483 300.926 347.739C307.277 350.818 317.456 354.379 318.3 355.031C319.143 355.683 321.041 357.203 317.042 361.511C313.044 365.818 294.241 385.989 294.241 385.989C294.241 385.989 291.031 387.006 292.031 383.932C293.135 380.966 302.621 372.586 304.844 365.589C306.854 358.588 305.925 356.337 305.925 356.337C305.925 356.337 300.75 352.957 294.718 349.99C285.405 345.376 270.541 333.541 270.541 333.541C270.541 333.541 269.715 331.611 271.762 329.831C273.81 328.051 274.639 329.767 274.639 329.767Z" fill="#F46D22"/>
<path d="M250.704 231.744C250.704 231.744 258.614 223.003 264.771 228.247C270.929 233.492 263.052 240.846 263.052 240.846C263.052 240.846 263.202 242.123 264.63 242.631C266.093 242.993 266.457 242.153 266.457 242.153C266.457 242.153 266.426 244.161 263.974 243.399C261.522 242.638 259.54 239.977 259.54 239.977C259.54 239.977 266.981 233.755 263.094 230.003C259.062 226.215 251.657 232.29 251.218 232.181C250.778 232.073 250.704 231.744 250.704 231.744Z" fill="#212121"/>
<path d="M226.628 212.919C226.628 212.919 233.621 203.486 227.686 199.227C221.75 194.968 216.109 203.96 216.109 203.96C216.109 203.96 214.829 204.109 214.168 203.015C213.543 201.775 214.309 201.189 214.309 201.189C214.309 201.189 212.482 201.668 213.512 203.783C214.578 205.752 217.397 206.915 217.397 206.915C217.397 206.915 221.98 198.436 226.266 201.202C230.405 203.931 226.005 212.3 226.079 212.628C226.299 212.993 226.628 212.919 226.628 212.919Z" fill="#212121"/>
<path d="M264.288 174.328C264.288 174.328 264.094 170.714 268.183 168.625C272.273 166.536 275.933 168.062 275.933 168.062C275.933 168.062 273.559 168.87 272.648 170.04C271.555 171.32 271.011 172.891 271.011 172.891C271.011 172.891 277.469 168.132 289.183 172.89C300.897 177.649 304.435 187.206 304.435 187.206C304.435 187.206 299.3 181.594 293.996 181.058C288.693 180.521 283.182 183.964 283.182 183.964C283.182 183.964 287.894 182.494 292.182 185.88C296.47 189.267 297.367 196.311 297.367 196.311C297.367 196.311 295.53 193.065 291.833 191.686C288.136 190.306 285.034 192.174 285.034 192.174C285.034 192.174 271.421 188.186 264.288 174.328Z" fill="#FFD261"/>
<path d="M297.66 196.383C297.66 196.383 295.418 192.262 291.246 190.92C286.927 189.542 286.971 191.878 282.47 190.609C277.969 189.341 276.283 187.994 276.283 187.994C276.283 187.994 280.536 192.147 284.157 192.577C287.778 193.008 288.978 190.669 292.31 192.269C295.349 193.796 297.66 196.383 297.66 196.383Z" fill="#F4B831"/>
<path d="M304.581 187.242C304.581 187.242 300.281 179.512 292.018 179.638C283.755 179.764 279.859 185.467 279.859 185.467C279.859 185.467 292.24 180.623 296.743 182.512C301.209 184.548 304.581 187.242 304.581 187.242Z" fill="#F4B831"/>
<path d="M276.08 168.098C276.08 168.098 273.742 168.76 272.285 170.88C270.865 172.854 270.724 174.68 270.724 174.68C270.724 174.68 270.167 171.907 271.734 169.969C273.411 168.213 276.08 168.098 276.08 168.098Z" fill="#F4B831"/>
<path d="M268.841 168.478C268.841 168.478 265.081 170.493 265.532 174.946C265.984 179.399 271.007 184.208 271.007 184.208C271.007 184.208 266.065 182.21 264.84 175.86C263.616 169.511 267.672 168.809 268.841 168.478Z" fill="#F4B831"/>
<path d="M272.675 294.235C272.675 294.235 288.842 296.064 296.566 286.812C304.255 277.706 299.912 267.639 304.142 263.724C308.336 259.956 322.902 251.931 327.092 246.921C331.283 241.911 333.207 237.271 336.573 238.104C339.94 238.936 342.005 245.029 335.924 253.912C329.88 262.65 326.779 265.139 326.779 265.139C326.779 265.139 333.643 261.875 336.197 259.716C338.75 257.557 342.705 259.776 341.258 264.999C339.956 270.259 329.442 275.72 326.813 276.93C324.184 278.14 323.161 278.507 323.161 278.507C323.161 278.507 326.487 278.245 329.63 277.472C332.625 276.663 335.303 279.651 331.48 285.062C327.656 290.472 319.102 291.147 319.102 291.147C319.102 291.147 325.797 292.338 322.632 298.222C319.651 303.996 310.575 301.131 310.575 301.131C310.575 301.131 311.688 306.677 306.868 309.206C301.975 311.406 297.099 306.634 297.099 306.634C297.099 306.634 295.655 313.099 293.387 312.848C291.119 312.597 288.805 308.768 288.805 308.768C288.805 308.768 285.709 313.119 283.256 311.737C280.802 310.354 279.843 307.326 279.843 307.326C279.843 307.326 280.139 308.64 278.2 308.315C276.261 307.991 274.863 304.854 274.863 304.854C274.863 304.854 269.695 300.63 268.993 297.82C268.143 294.975 271.21 293.252 272.675 294.235Z" fill="#FFB92E"/>
<path d="M332.996 240.009C332.996 240.009 335.218 237.303 337.893 239.05C340.531 240.943 340.328 246.785 336.287 253.072C332.101 259.323 329.549 262.103 325.684 265.798C321.819 269.493 307.831 275.18 307.831 275.18C307.831 275.18 322.213 266.645 328.912 256.519C335.61 246.393 337.681 241.789 332.996 240.009Z" fill="#EA9F1B"/>
<path d="M335.942 260.118C335.942 260.118 337.4 258.619 339.413 259.272C341.426 259.925 342.647 265.033 338.016 269.314C333.348 273.741 325.644 277.261 321.882 278.656C318.156 279.905 308.433 280.91 308.433 280.91C308.433 280.91 322.283 278.29 330.49 271.483C338.697 264.676 339.198 260.769 335.942 260.118Z" fill="#EA9F1B"/>
<path d="M302.052 287.239C302.052 287.239 312.96 291.488 319.539 290.635C326.118 289.782 329.511 287.365 331.879 284.075C334.282 280.639 333.102 277.246 330.726 277.433C328.35 277.621 326.048 278.136 326.048 278.136C326.048 278.136 329.302 278.166 327.923 281.856C326.288 285.328 314.017 290.354 302.052 287.239Z" fill="#EA9F1B"/>
<path d="M297.497 292.469C297.497 292.469 305.779 299.169 310.683 300.692C315.623 302.069 319.718 301.842 321.938 298.515C324.159 295.189 322.544 292.929 321.042 292.092C319.687 291.292 318.188 291.076 318.188 291.076C318.188 291.076 319.776 296.585 312.611 297.293C305.3 297.965 297.497 292.469 297.497 292.469Z" fill="#EA9F1B"/>
<path d="M290.052 297.449C290.052 297.449 294.206 305.143 298.71 307.653C303.215 310.163 306.688 309.937 308.764 307.194C310.84 304.452 310.136 301.022 310.136 301.022C310.136 301.022 308.545 307.45 301.703 305.602C295.006 303.791 290.052 297.449 290.052 297.449Z" fill="#EA9F1B"/>
<path d="M285.735 296.691C285.735 296.691 286.125 305.16 288.915 308.951C291.705 312.742 293.535 313.505 294.737 311.786C295.902 310.214 296.77 306.708 296.77 306.708C296.77 306.708 294.807 310.873 291.291 308.763C287.665 306.471 285.735 296.691 285.735 296.691Z" fill="#EA9F1B"/>
<path d="M278.939 298.421C278.939 298.421 278.813 305.211 280.211 308.348C281.756 311.521 284.099 312.721 286.033 311.183C287.93 309.792 288.622 308.878 288.622 308.878L287.739 306.799C287.739 306.799 286.761 310.123 283.868 308.632C281.122 307.178 278.939 298.421 278.939 298.421Z" fill="#EA9F1B"/>
<path d="M270.902 300.773L274.899 304.708C274.899 304.708 276.003 307.152 277.212 307.916C278.567 308.716 279.479 308.167 279.552 307.875C279.66 307.436 279.586 307.108 279.586 307.108C279.586 307.108 278.529 308.242 276.95 305.836C275.371 303.429 274.849 299.889 274.849 299.889C274.849 299.889 274.603 303.394 273.504 302.813C272.405 302.231 270.902 300.773 270.902 300.773Z" fill="#EA9F1B"/>
<path d="M242.725 279.694C242.725 279.694 253.709 272.333 263.105 272.022C264.677 271.946 266.034 273.367 265.929 275.046L264.172 299.728C264.103 301.262 262.461 302.251 261.069 301.597C255.468 299.126 245.252 293.963 240.489 290.614L242.725 279.694Z" fill="#35ACE1"/>
<path d="M228.535 278.664C228.535 278.664 228.738 272.822 211.321 268.514C210.297 268.26 209.202 268.92 209.095 269.978L206.169 294.991C205.881 296.781 207.567 298.128 209.211 297.76C213.523 296.656 220.537 294.67 225.32 292.287C226.926 291.444 227.909 289.982 228.05 288.157L228.535 278.664Z" fill="#35ACE1"/>
<path d="M214.635 276.465C214.635 276.465 226.493 280.639 226.423 281.552C226.316 282.611 217.493 278.723 214.635 276.465Z" fill="#169DCE"/>
<path d="M226.103 284.729C226.103 284.729 218.861 283.868 213.538 289.062C208.214 294.257 214.015 289.645 214.999 288.804C215.984 287.962 218.976 285.912 222.084 285.905C225.192 285.899 228.739 286.001 226.103 284.729Z" fill="#169DCE"/>
<path d="M254.021 279.232C254.021 279.232 241.633 281.594 241.562 282.507C241.492 283.42 250.808 280.918 254.021 279.232Z" fill="#169DCE"/>
<path d="M241.425 285.574C241.425 285.574 248.665 285.815 253.143 291.574C257.62 297.332 252.559 292.049 251.715 291.065C250.871 290.081 248.232 287.568 245.05 287.246C241.868 286.924 238.722 286.456 241.425 285.574Z" fill="#169DCE"/>
<path d="M210.746 284.651C211.635 284.871 212.534 284.329 212.753 283.442C212.973 282.554 212.43 281.657 211.541 281.437C210.652 281.217 209.753 281.758 209.534 282.645C209.314 283.533 209.857 284.431 210.746 284.651Z" fill="#7ACFE8"/>
<path d="M260.813 288.82C261.702 289.04 262.601 288.499 262.821 287.611C263.04 286.723 262.498 285.826 261.608 285.606C260.719 285.386 259.821 285.927 259.601 286.814C259.381 287.702 259.924 288.6 260.813 288.82Z" fill="#7ACFE8"/>
<path d="M257 297.954C257.889 298.174 258.788 297.633 259.008 296.745C259.227 295.858 258.685 294.96 257.795 294.74C256.906 294.52 256.008 295.061 255.788 295.949C255.568 296.837 256.111 297.734 257 297.954Z" fill="#7ACFE8"/>
<path d="M214.209 293.88C215.098 294.1 215.997 293.559 216.217 292.671C216.436 291.783 215.894 290.886 215.004 290.666C214.115 290.446 213.217 290.987 212.997 291.874C212.777 292.762 213.32 293.66 214.209 293.88Z" fill="#7ACFE8"/>
<path d="M217.087 277.227C217.733 277.387 218.387 276.993 218.547 276.348C218.706 275.702 218.312 275.049 217.665 274.889C217.018 274.729 216.365 275.123 216.205 275.769C216.045 276.414 216.44 277.067 217.087 277.227Z" fill="#7ACFE8"/>
<path d="M253.839 279.342C254.486 279.502 255.139 279.109 255.299 278.463C255.459 277.818 255.064 277.165 254.417 277.005C253.771 276.845 253.117 277.238 252.957 277.884C252.798 278.529 253.192 279.182 253.839 279.342Z" fill="#7ACFE8"/>
<path d="M248.21 280.121C248.857 280.28 249.511 279.887 249.67 279.241C249.83 278.596 249.435 277.943 248.789 277.783C248.142 277.623 247.488 278.017 247.329 278.662C247.169 279.308 247.564 279.961 248.21 280.121Z" fill="#7ACFE8"/>
<path d="M247.511 291.11C248.157 291.27 248.811 290.877 248.971 290.231C249.13 289.586 248.735 288.933 248.089 288.773C247.442 288.613 246.789 289.006 246.629 289.652C246.469 290.297 246.864 290.95 247.511 291.11Z" fill="#7ACFE8"/>
<path d="M221.694 289.995C222.34 290.155 222.994 289.761 223.154 289.116C223.313 288.47 222.919 287.817 222.272 287.657C221.625 287.497 220.972 287.891 220.812 288.536C220.652 289.182 221.047 289.835 221.694 289.995Z" fill="#7ACFE8"/>
<path d="M228.383 276.766C228.383 276.766 226.631 277.573 226.316 282.611C226.001 287.65 226.739 289.693 228.092 289.872C229.445 290.052 238.041 291.093 241.842 290.793C241.842 290.793 242.548 281.665 242.761 279.548C242.974 277.43 241.988 277.651 241.548 277.542C240.927 277.543 229.954 276.069 228.383 276.766Z" fill="#7ACFE8"/>
</g>
<defs>
<clipPath id="clip0_205_2873">
<rect width="315.381" height="316.228" fill="white"/>
</clipPath>
<clipPath id="clip1_205_2873">
<rect width="172.951" height="210.254" fill="white" transform="translate(196.314 148.365) rotate(13.8956)"/>
</clipPath>
</defs>
</svg>
