<svg width="12" height="12" viewBox="0 0 12 12" fill="none" xmlns="http://www.w3.org/2000/svg">
<path d="M3 0C2.60218 0 2.22064 0.158035 1.93934 0.43934C1.65804 0.720644 1.5 1.10218 1.5 1.5V2.34975L0.79425 2.72625C0.554311 2.85419 0.353661 3.04494 0.213761 3.27811C0.0738605 3.51127 -2.7185e-05 3.77808 7.50292e-09 4.05V10.5C7.50292e-09 10.8978 0.158035 11.2794 0.43934 11.5607C0.720644 11.842 1.10218 12 1.5 12H10.5C10.8978 12 11.2794 11.842 11.5607 11.5607C11.842 11.2794 12 10.8978 12 10.5V4.05C12 3.77808 11.9261 3.51127 11.7862 3.27811C11.6463 3.04494 11.4457 2.85419 11.2057 2.72625L10.5 2.34975V1.5C10.5 1.10218 10.342 0.720644 10.0607 0.43934C9.77936 0.158035 9.39782 0 9 0L3 0ZM10.5 3.20025L10.8525 3.38775C10.9726 3.4517 11.073 3.54711 11.1431 3.66377C11.2131 3.78043 11.25 3.91394 11.25 4.05V4.66275L10.5 5.11275V3.20025ZM9.75 5.56275L6.9375 7.25025L6 6.68775L5.0625 7.25025L2.25 5.56275V1.5C2.25 1.30109 2.32902 1.11032 2.46967 0.96967C2.61032 0.829018 2.80109 0.75 3 0.75H9C9.19891 0.75 9.38968 0.829018 9.53033 0.96967C9.67098 1.11032 9.75 1.30109 9.75 1.5V5.56275ZM1.5 5.11275L0.75 4.66275V4.05C0.750091 3.91407 0.787123 3.78071 0.857138 3.6642C0.927152 3.54768 1.02752 3.45239 1.1475 3.3885L1.5 3.20025V5.11275ZM11.25 5.53725V9.83775L7.6665 7.6875L11.25 5.53725ZM11.2238 10.6972C11.1805 10.856 11.0862 10.9962 10.9554 11.096C10.8246 11.1959 10.6646 11.25 10.5 11.25H1.5C1.33533 11.25 1.17524 11.1958 1.04444 11.0958C0.913638 10.9957 0.819393 10.8554 0.77625 10.6965L6 7.56225L11.2238 10.6972ZM0.75 9.837V5.53725L4.3335 7.6875L0.75 9.83775V9.837Z" fill="#F8F8F8"/>
</svg>
