<svg width="120" height="48" viewBox="0 0 120 48" fill="none" xmlns="http://www.w3.org/2000/svg">
<path d="M119.84 38.75C119.625 48.4946 115.64 48.657 113.674 47.5202C112.601 47.1087 93.0301 48.4947 91.6896 47.5202C90.3491 46.5457 62.4669 47.5201 56.8368 47.5202L21.1798 47.5202L2.68098 47.5202C-1.6086 47.5202 0.536195 36.8011 0.536196 26.082C0.536196 18.7736 -4.26503e-06 9.51618 0.536198 5.1311C1.07239 0.746034 3.75338 0.746034 6.43436 0.746034C9.11535 0.746034 47.1853 3.18226 63.8074 0.746039C76.7702 -1.15385 104.558 1.23327 111.529 0.746043C118.499 0.258812 120.644 2.2078 119.84 9.51619C119.227 15.0879 120.108 26.5693 119.84 38.75Z" fill="#00A7E0"/>
</svg>
