<svg width="146" height="49" viewBox="0 0 146 49" fill="none" xmlns="http://www.w3.org/2000/svg">
<path d="M0 39.6292V5.54907H7.02173L21.5333 28.3215V5.54907H28.1909V39.6292H21.0132L6.65764 17.4326V39.6292H0Z" fill="white"/>
<path d="M33.5483 14.9721H40.362V39.6292H33.5483V14.9721ZM33.5483 5.54907H40.362V11.5694H33.5483V5.54907Z" fill="white"/>
<path d="M51.7008 26.8556C51.7008 29.6302 52.2729 31.6719 53.4172 32.9806C54.5615 34.2894 55.9658 34.97 57.6302 34.97C59.1906 34.97 60.5429 34.3418 61.5832 33.1377C62.6234 31.9336 63.1436 29.9443 63.1436 27.1697C63.1436 24.6046 62.6234 22.6676 61.5312 21.4112C60.4389 20.1548 59.0866 19.5266 57.5262 19.5266C55.8618 19.5266 54.4574 20.1548 53.3652 21.3589C52.2209 22.6153 51.7008 24.4475 51.7008 26.8556ZM44.9391 14.9721H51.2847V18.5843C52.1169 17.3279 53.2091 16.3332 54.6135 15.5479C56.0178 14.7627 57.5782 14.3962 59.2946 14.3962C62.2594 14.3962 64.808 15.4956 66.8885 17.7467C68.969 19.9977 70.0093 23.1388 70.0093 27.1174C70.0093 31.2531 68.969 34.4465 66.8365 36.7499C64.756 39.0533 62.2073 40.205 59.1906 40.205C57.7863 40.205 56.4859 39.9433 55.3416 39.3674C54.1974 38.8439 52.9491 37.9016 51.7008 36.5928V48.9999H44.8871V14.9721H44.9391Z" fill="white"/>
<path d="M88.5778 25.1806C88.5258 23.296 88.0057 21.8301 87.0695 20.8878C86.0812 19.8932 84.9369 19.422 83.5326 19.422C82.0242 19.422 80.8279 19.9455 79.8397 20.9925C78.8514 22.0395 78.3833 23.453 78.4353 25.2329H88.5778V25.1806ZM88.1617 31.7767L94.9234 32.8761C94.0392 35.2842 92.6869 37.0641 90.8144 38.3205C88.9419 39.5769 86.6014 40.2051 83.7406 40.2051C79.2675 40.2051 75.9387 38.7917 73.8062 36.0171C72.0898 33.766 71.2576 30.9391 71.2576 27.5363C71.2576 23.453 72.3498 20.2596 74.5864 17.9039C76.8229 15.6004 79.6316 14.4487 83.0645 14.4487C86.9134 14.4487 89.9302 15.6528 92.1147 18.0609C94.3513 20.469 95.3915 24.1859 95.2875 29.2115H78.2273C78.2793 31.1485 78.7994 32.6667 79.8917 33.7137C80.932 34.813 82.2323 35.3365 83.7927 35.3365C84.8329 35.3365 85.7691 35.0748 86.4973 34.4989C87.2775 33.9231 87.7976 33.0331 88.1617 31.7767Z" fill="white"/>
<path d="M100.593 7.48606H102.725C103.193 7.48606 103.506 7.43371 103.766 7.32901C104.026 7.22431 104.234 7.06726 104.338 6.85786C104.494 6.64846 104.546 6.43906 104.546 6.1773C104.546 5.81085 104.39 5.5491 104.182 5.3397C103.922 5.13029 103.506 4.97324 102.985 4.97324H100.645V7.48606H100.593ZM99.6046 11.6217V4.18799H102.881C103.558 4.18799 104.026 4.24034 104.39 4.39739C104.754 4.55444 105.014 4.76384 105.222 5.1303C105.43 5.4444 105.534 5.8632 105.534 6.22965C105.534 6.75315 105.378 7.22431 105.014 7.59076C104.65 7.95722 104.13 8.16662 103.453 8.27132C103.714 8.37602 103.922 8.53307 104.026 8.63777C104.286 8.89952 104.598 9.21362 104.858 9.63242L106.158 11.6741H104.91L103.922 10.1036C103.61 9.63243 103.401 9.31833 103.193 9.05658C102.985 8.79482 102.829 8.63777 102.673 8.58542C102.517 8.48072 102.361 8.42837 102.205 8.37602C102.101 8.37602 101.893 8.32367 101.633 8.32367H100.489V11.6217H99.6046Z" fill="white"/>
<path d="M102.569 16.0192C98.2002 16.0192 94.6113 12.4594 94.6113 8.00962C94.6113 3.55983 98.2002 0 102.569 0C106.938 0 110.527 3.61218 110.527 8.00962C110.527 12.4071 106.938 16.0192 102.569 16.0192ZM102.569 1.51816C98.9804 1.51816 96.0677 4.44979 96.0677 8.00962C96.0677 11.6218 98.9804 14.5011 102.569 14.5011C106.158 14.5011 109.071 11.5694 109.071 8.00962C109.071 4.44979 106.158 1.51816 102.569 1.51816Z" fill="white"/>
<path d="M103.505 28.3215H110.891V30.7296H106.21V33.6613H110.579V36.017H106.21V41.1997H103.505V28.3215Z" fill="white"/>
<path d="M114.532 37.4828C114.636 38.6868 115.728 39.2627 117.029 39.2627C117.965 39.2627 118.693 39.1056 119.473 38.8962L119.837 40.8856C118.953 41.252 117.861 41.4614 116.665 41.4614C113.7 41.4614 111.984 39.6292 111.984 36.6975C111.984 34.3418 113.388 31.6719 116.405 31.6719C119.265 31.6719 120.306 34.0276 120.306 36.3311C120.306 36.8546 120.254 37.2734 120.202 37.4828H114.532ZM117.757 35.4935C117.757 34.7606 117.445 33.6088 116.197 33.6088C115.052 33.6088 114.584 34.7082 114.532 35.4935H117.757Z" fill="white"/>
<path d="M123.842 31.8291L125.039 36.1742C125.247 36.9594 125.403 37.6923 125.559 38.4776H125.611C125.767 37.6923 125.923 37.0118 126.079 36.1742L127.223 31.8291H130.084L126.807 41.1998H124.051L120.826 31.8291H123.842Z" fill="white"/>
<path d="M133.205 37.4828C133.309 38.6868 134.401 39.2627 135.701 39.2627C136.638 39.2627 137.366 39.1056 138.146 38.8962L138.51 40.8856C137.626 41.252 136.534 41.4614 135.337 41.4614C132.373 41.4614 130.656 39.6292 130.656 36.6975C130.656 34.3418 132.061 31.6719 135.077 31.6719C137.938 31.6719 138.978 34.0276 138.978 36.3311C138.978 36.8546 138.926 37.2734 138.874 37.4828H133.205ZM136.43 35.4935C136.43 34.7606 136.118 33.6088 134.869 33.6088C133.725 33.6088 133.257 34.7082 133.205 35.4935H136.43Z" fill="white"/>
<path d="M140.591 34.9177C140.591 33.5566 140.539 32.6143 140.539 31.829H142.879L142.983 33.5566H143.035C143.503 32.1955 144.544 31.6196 145.428 31.6196C145.688 31.6196 145.792 31.6196 146 31.672V34.4466C145.792 34.3942 145.584 34.3419 145.272 34.3419C144.284 34.3419 143.607 34.9177 143.399 35.8077C143.347 36.0171 143.347 36.2265 143.347 36.4359V41.1998H140.591V34.9177Z" fill="white"/>
</svg>
