<svg width="64" height="64" viewBox="0 0 64 64" fill="none" xmlns="http://www.w3.org/2000/svg">
<path d="M64.0143 29.9212C64.2143 19.1863 59.0643 7.90552 48.6643 2.85648C40.6643 -1.05539 30.4643 -1.00991 22.4643 2.99294C14.1643 7.13224 9.16429 14.5466 4.06429 21.5061C1.66429 24.7811 0.364291 28.4201 0.114291 32.1955C-0.985712 46.4784 11.9643 61.9894 28.1643 63.8543C35.5143 64.6731 42.9143 62.0349 48.7143 57.8956C58.0143 51.209 63.8143 40.6561 64.0143 29.9212Z" fill="#00A7E0"/>
<g opacity="0.38">
<g opacity="0.48">
<g opacity="0.48">
<path opacity="0.48" d="M40.4143 10.8623C44.6643 15.6384 49.6643 21.5062 48.6143 28.1018C48.0643 31.5133 53.8143 32.9689 54.3643 29.5574C55.7643 20.6874 50.4643 13.637 44.6143 7.04136C42.2143 4.35764 38.0143 8.17854 40.4143 10.8623Z" fill="white"/>
</g>
</g>
<g opacity="0.48">
<g opacity="0.48">
<path opacity="0.48" d="M47.7143 33.7421C47.5643 34.0605 47.3643 34.3335 47.2143 34.6519C47.0143 34.9703 46.8643 35.2887 46.8643 35.6526C46.7643 36.0165 46.8143 36.3804 46.9143 36.7443C47.0143 37.1081 47.1643 37.3811 47.4643 37.654C47.6643 37.9269 47.9643 38.1998 48.3143 38.3363C49.0143 38.6547 49.8643 38.8366 50.6143 38.6092C51.3143 38.3818 52.0643 37.9724 52.4143 37.3811C52.5643 37.0627 52.7643 36.7897 52.9143 36.4713C53.1143 36.1529 53.2643 35.8345 53.2643 35.4706C53.3643 35.1067 53.3143 34.7428 53.2143 34.3789C53.1143 34.015 52.9643 33.7421 52.6643 33.4692C52.4643 33.1963 52.1643 32.9234 51.8143 32.7869C51.1143 32.4685 50.2643 32.2865 49.5143 32.514C48.7643 32.6959 48.0643 33.1053 47.7143 33.7421Z" fill="white"/>
</g>
</g>
</g>
</svg>
