<svg width="132" height="31" viewBox="0 0 132 31" fill="none" xmlns="http://www.w3.org/2000/svg">
<g clip-path="url(#clip0_20_685)">
<path d="M45.9564 18.6258C46.047 18.8825 46.1738 19.1208 46.3368 19.3408C46.4998 19.5608 46.681 19.7441 46.8983 19.8908C47.1157 20.0374 47.3512 20.1657 47.6048 20.2391C47.8584 20.3124 48.1301 20.3674 48.4199 20.3674C49.1264 20.3674 49.688 20.1841 50.1046 19.7991C50.2495 19.7074 50.3763 19.6341 50.5031 19.5791C50.6299 19.5424 50.7567 19.5058 50.8835 19.5058C51.0828 19.5058 51.2458 19.5608 51.4088 19.6524C51.5537 19.7624 51.6805 19.8908 51.7892 20.0557C51.8617 20.1657 51.916 20.2941 51.9342 20.4224C51.9704 20.5507 51.9704 20.679 51.9523 20.8074C51.9342 20.9357 51.8979 21.064 51.8255 21.1924C51.753 21.3207 51.6624 21.449 51.5356 21.5407C51.3907 21.6873 51.2096 21.8157 51.0103 21.944C50.8111 22.0723 50.5937 22.1823 50.3401 22.2923C50.0865 22.384 49.7966 22.4756 49.4887 22.5306C49.1808 22.5856 48.8185 22.6223 48.4199 22.6223C47.7316 22.6223 47.0976 22.4939 46.4817 22.2373C45.8839 21.9806 45.3586 21.614 44.9057 21.1557C44.4529 20.6974 44.0906 20.1657 43.837 19.5608C43.5653 18.9558 43.4385 18.2958 43.4385 17.6175C43.4385 16.9209 43.5653 16.2793 43.837 15.656C44.0906 15.051 44.4529 14.5194 44.9057 14.0611C45.3586 13.6028 45.8839 13.2544 46.4817 12.9795C47.0795 12.7228 47.7316 12.5945 48.4199 12.5945C49.0902 12.5945 49.7423 12.7228 50.3401 12.9795C50.9379 13.2361 51.4632 13.5844 51.916 14.0427C52.3689 14.4827 52.7312 15.0144 53.0029 15.6193C53.2746 16.2243 53.4014 16.8659 53.4195 17.5442C53.4195 17.8742 53.3109 18.1309 53.1116 18.3325C52.9123 18.5342 52.6406 18.6258 52.3146 18.6258H45.9564ZM51.1009 16.7376C51.0284 16.4443 50.9016 16.1876 50.7386 15.9676C50.5756 15.7293 50.3763 15.546 50.1589 15.381C49.9234 15.216 49.6698 15.106 49.3981 15.0144C49.1083 14.9227 48.8185 14.886 48.4924 14.886C48.1663 14.886 47.8765 14.9227 47.5867 15.0144C47.315 15.106 47.0614 15.2343 46.8259 15.3993C46.6085 15.5643 46.4092 15.766 46.2462 15.986C46.0832 16.206 45.9745 16.4626 45.8839 16.7559H51.1009V16.7376Z" fill="white"/>
<path d="M60.3574 20.2207C60.5204 20.2207 60.6653 20.2574 60.8102 20.3123C60.9551 20.3673 61.0638 20.459 61.1725 20.569C61.2631 20.679 61.3537 20.8073 61.408 20.9356C61.4623 21.0823 61.4986 21.229 61.4986 21.3756C61.4986 21.7056 61.3899 21.9623 61.1906 22.1822C60.9914 22.3839 60.7197 22.4939 60.3936 22.4939C59.9226 22.4939 59.4879 22.4206 59.0712 22.2556C58.6546 22.0906 58.2923 21.8706 57.9844 21.5773C57.6764 21.284 57.4228 20.9356 57.2417 20.5323C57.0605 20.129 56.97 19.6707 56.9518 19.1941V10.1012C56.9518 9.93624 56.9881 9.78958 57.0424 9.64292C57.0968 9.49626 57.1873 9.38627 57.2779 9.27627C57.3685 9.16628 57.4953 9.09295 57.6221 9.03795C57.7489 8.98295 57.8938 8.94629 58.0568 8.94629C58.2199 8.94629 58.3648 8.98295 58.5097 9.03795C58.6546 9.09295 58.7633 9.18461 58.872 9.27627C58.9807 9.38627 59.0712 9.49626 59.1256 9.64292C59.1799 9.78958 59.2162 9.93624 59.2162 10.1012V19.1391C59.2162 19.5057 59.3248 19.7807 59.5422 19.964C59.7234 20.129 59.9951 20.2207 60.3574 20.2207Z" fill="white"/>
<path d="M66.8061 18.6258C66.8967 18.8825 67.0235 19.1208 67.1865 19.3408C67.3495 19.5608 67.5307 19.7441 67.7481 19.8908C67.9654 20.0374 68.2009 20.1657 68.4545 20.2391C68.7081 20.3124 68.9798 20.3674 69.2697 20.3674C69.9761 20.3674 70.5377 20.1841 70.9543 19.7991C71.0992 19.7074 71.226 19.6341 71.3528 19.5791C71.4796 19.5424 71.6064 19.5058 71.7332 19.5058C71.9325 19.5058 72.0955 19.5608 72.2586 19.6524C72.4035 19.7624 72.5303 19.8908 72.639 20.0557C72.7114 20.1657 72.7658 20.2941 72.7839 20.4224C72.8201 20.5507 72.8201 20.679 72.802 20.8074C72.7839 20.9357 72.7477 21.064 72.6752 21.1924C72.6027 21.3207 72.5122 21.449 72.3854 21.5407C72.2404 21.6873 72.0593 21.8157 71.86 21.944C71.6608 22.0723 71.4434 22.1823 71.1898 22.2923C70.9362 22.384 70.6464 22.4756 70.3384 22.5306C70.0305 22.5856 69.6682 22.6223 69.2697 22.6223C68.5813 22.6223 67.9473 22.4939 67.3314 22.2373C66.7337 21.9806 66.2083 21.614 65.7555 21.1557C65.3026 20.6974 64.9403 20.1657 64.6867 19.5608C64.415 18.9558 64.2882 18.2958 64.2882 17.6175C64.2882 16.9209 64.415 16.2793 64.6867 15.656C64.9403 15.051 65.3026 14.5194 65.7555 14.0611C66.2083 13.6028 66.7337 13.2544 67.3314 12.9795C67.9292 12.7228 68.5813 12.5945 69.2697 12.5945C69.9399 12.5945 70.592 12.7228 71.1898 12.9795C71.7876 13.2361 72.3129 13.5844 72.7658 14.0427C73.2186 14.4827 73.5809 15.0144 73.8526 15.6193C74.1244 16.2243 74.2511 16.8659 74.2693 17.5442C74.2693 17.8742 74.1606 18.1309 73.9613 18.3325C73.7621 18.5342 73.4903 18.6258 73.1643 18.6258H66.8061ZM71.9325 16.7376C71.86 16.4443 71.7332 16.1876 71.5702 15.9676C71.4072 15.7293 71.2079 15.546 70.9905 15.381C70.7551 15.216 70.5015 15.106 70.2297 15.0144C69.9399 14.9227 69.6501 14.886 69.324 14.886C68.998 14.886 68.7081 14.9227 68.4183 15.0144C68.1466 15.106 67.893 15.2343 67.6575 15.3993C67.4401 15.5643 67.2409 15.766 67.0778 15.986C66.9148 16.206 66.8061 16.4626 66.7155 16.7559H71.9325V16.7376Z" fill="white"/>
<path d="M82.5294 17.1592L85.7176 20.6057C85.8263 20.7157 85.8987 20.8257 85.9531 20.9723C86.0074 21.119 86.0255 21.2473 86.0255 21.4123C86.0255 21.5589 86.0074 21.7056 85.9349 21.8523C85.8806 21.9989 85.79 22.1272 85.6813 22.2372C85.464 22.4389 85.1923 22.5489 84.9024 22.5489C84.7575 22.5489 84.6126 22.5122 84.4677 22.4572C84.3228 22.4022 84.2141 22.3106 84.1054 22.1822L80.9716 18.6624L80.0659 19.5424V21.3756C80.0659 21.5223 80.0297 21.6689 79.9753 21.8156C79.921 21.9439 79.8304 22.0723 79.7398 22.1639C79.6311 22.2556 79.5225 22.3472 79.3957 22.4022C79.2689 22.4572 79.1239 22.4939 78.9609 22.4939C78.7979 22.4939 78.6711 22.4572 78.5262 22.4022C78.3812 22.3472 78.2726 22.2556 78.1639 22.1639C78.0552 22.0723 77.9827 21.9439 77.9103 21.8156C77.8378 21.6873 77.8197 21.5406 77.8197 21.3756V10.0646C77.8197 9.9179 77.8559 9.77124 77.9103 9.62459C77.9646 9.49626 78.0552 9.36793 78.1639 9.27627C78.2726 9.18461 78.3812 9.09295 78.5262 9.03795C78.6711 8.98295 78.816 8.94629 78.9609 8.94629C79.1239 8.94629 79.2689 8.98295 79.3957 9.03795C79.5225 9.09295 79.6493 9.18461 79.7398 9.27627C79.8304 9.36793 79.921 9.49626 79.9753 9.62459C80.0297 9.75291 80.0659 9.89957 80.0659 10.0646V16.5542L83.6163 13.0344C83.725 12.9244 83.8337 12.8511 83.9605 12.7961C84.0873 12.7411 84.2141 12.7228 84.3409 12.7228C84.4858 12.7228 84.6126 12.7594 84.7575 12.8144C84.9024 12.8694 85.0292 12.9611 85.1379 13.0894C85.2466 13.1994 85.3191 13.3277 85.3734 13.456C85.4277 13.5844 85.464 13.731 85.4459 13.8777C85.4459 14.0243 85.4096 14.1527 85.3553 14.2993C85.3009 14.446 85.2104 14.556 85.1017 14.666L82.5294 17.1592Z" fill="white"/>
<path d="M92.0033 12.7228H95.6262C95.7893 12.7228 95.9342 12.7595 96.0791 12.8145C96.224 12.8695 96.3327 12.9611 96.4414 13.0528C96.5501 13.1628 96.6225 13.2728 96.695 13.4194C96.7493 13.5661 96.7855 13.7127 96.7855 13.8777C96.7855 14.0244 96.7493 14.171 96.695 14.3177C96.6406 14.446 96.5501 14.5744 96.4414 14.6844C96.3327 14.7943 96.224 14.8677 96.0791 14.9227C95.9342 14.9777 95.7893 15.0143 95.6262 15.0143H92.0033V17.6725C92.0033 18.0392 92.0758 18.3875 92.2207 18.7175C92.3656 19.0475 92.5468 19.3224 92.8004 19.5608C93.0359 19.7991 93.3257 20.0007 93.6517 20.1291C93.9778 20.2757 94.3401 20.3307 94.7024 20.3307C95.0284 20.3307 95.3364 20.2757 95.6262 20.1841C95.9161 20.0924 96.1697 19.9274 96.4233 19.7074C96.5501 19.5974 96.6769 19.5058 96.8218 19.4324C96.9667 19.3591 97.1297 19.3224 97.2746 19.3224C97.5282 19.3224 97.7637 19.4141 97.963 19.5974C98.0898 19.7074 98.1804 19.8357 98.2347 20.0007C98.289 20.1474 98.3072 20.3124 98.289 20.4774C98.2709 20.6424 98.2347 20.8074 98.1623 20.954C98.0898 21.1007 97.9992 21.2473 97.8724 21.3573C97.4558 21.7606 96.9848 22.0723 96.4414 22.2739C95.8979 22.4756 95.3183 22.5856 94.7024 22.5856C94.014 22.5856 93.38 22.4573 92.7823 22.2006C92.1845 21.944 91.6592 21.5773 91.2063 21.1373C90.7534 20.6974 90.4093 20.1657 90.1375 19.5608C89.8839 18.9558 89.7571 18.2958 89.7571 17.6175V10.8896C89.7571 10.7246 89.7934 10.5779 89.8477 10.4312C89.9021 10.2846 89.9926 10.1746 90.1013 10.0646C90.21 9.95461 90.3187 9.88128 90.4636 9.82628C90.6085 9.77128 90.7534 9.73462 90.8983 9.73462C91.0433 9.73462 91.1882 9.77128 91.3331 9.82628C91.4599 9.88128 91.5867 9.97294 91.6954 10.0646C91.8041 10.1746 91.8765 10.2846 91.9309 10.4312C91.9852 10.5779 92.0214 10.7246 92.0214 10.8896V12.7228H92.0033Z" fill="white"/>
<path d="M103.307 21.3755C103.307 21.5222 103.289 21.6688 103.216 21.8155C103.162 21.9622 103.089 22.0722 102.981 22.1822C102.872 22.2738 102.763 22.3655 102.636 22.4205C102.51 22.4755 102.365 22.5121 102.202 22.5121C102.039 22.5121 101.894 22.4755 101.749 22.4205C101.604 22.3655 101.477 22.2738 101.387 22.1822C101.278 22.0905 101.205 21.9622 101.133 21.8155C101.061 21.6688 101.042 21.5222 101.042 21.3755V17.984C101.042 17.2691 101.187 16.5908 101.459 15.9492C101.731 15.3075 102.111 14.7575 102.582 14.2809C103.053 13.8043 103.597 13.4376 104.231 13.1443C104.865 12.8693 105.535 12.7227 106.241 12.7227H106.259C106.64 12.7227 106.93 12.8326 107.129 13.0526C107.328 13.2726 107.437 13.5293 107.437 13.8593C107.437 14.0243 107.401 14.1709 107.346 14.3176C107.292 14.4642 107.201 14.5742 107.093 14.6842C106.984 14.7942 106.857 14.8675 106.712 14.9225C106.567 14.9775 106.422 15.0142 106.259 15.0142H106.241C105.843 15.0142 105.462 15.0875 105.118 15.2525C104.756 15.3992 104.448 15.6192 104.194 15.8758C103.923 16.1508 103.723 16.4625 103.56 16.8108C103.397 17.1774 103.325 17.5441 103.325 17.9657V21.3755H103.307Z" fill="white"/>
<path d="M109.411 17.6175C109.411 16.9209 109.538 16.2793 109.81 15.6743C110.081 15.0693 110.426 14.5377 110.879 14.0794C111.331 13.6211 111.857 13.2728 112.454 12.9978C113.052 12.7411 113.686 12.6128 114.375 12.6128C115.063 12.6128 115.697 12.7411 116.313 12.9978C116.911 13.2544 117.436 13.6211 117.889 14.0794C118.342 14.5377 118.686 15.0693 118.939 15.6743C119.193 16.2793 119.32 16.9392 119.32 17.6175C119.32 18.3142 119.193 18.9558 118.939 19.5608C118.686 20.1657 118.324 20.6974 117.889 21.1557C117.436 21.614 116.911 21.9623 116.313 22.2373C115.715 22.4939 115.063 22.6223 114.375 22.6223C113.704 22.6223 113.052 22.4939 112.454 22.2373C111.857 21.9806 111.331 21.614 110.879 21.1557C110.426 20.6974 110.063 20.1657 109.81 19.5608C109.538 18.9558 109.411 18.2958 109.411 17.6175ZM111.657 17.6175C111.657 17.9842 111.73 18.3325 111.875 18.6808C112.02 19.0108 112.201 19.3041 112.454 19.5608C112.708 19.8174 112.98 20.0007 113.306 20.1474C113.632 20.294 113.976 20.3674 114.356 20.3674C114.737 20.3674 115.081 20.294 115.407 20.1474C115.733 20.0007 116.023 19.7991 116.259 19.5608C116.494 19.3041 116.693 19.0291 116.838 18.6808C116.983 18.3508 117.037 18.0025 117.037 17.6175C117.037 17.2325 116.965 16.8842 116.838 16.5542C116.693 16.2243 116.512 15.9309 116.259 15.6926C116.023 15.4543 115.733 15.2527 115.407 15.106C115.081 14.9593 114.719 14.886 114.356 14.886C113.994 14.886 113.65 14.9593 113.306 15.106C112.98 15.2527 112.69 15.436 112.436 15.6926C112.183 15.9309 112.002 16.2243 111.857 16.5542C111.73 16.8842 111.657 17.2325 111.657 17.6175Z" fill="white"/>
<path d="M132 21.394C132 21.559 131.964 21.7057 131.909 21.834C131.855 21.9623 131.765 22.0906 131.674 22.2006C131.583 22.3106 131.457 22.384 131.33 22.439C131.203 22.4939 131.058 22.5306 130.895 22.5306C130.75 22.5306 130.587 22.4939 130.46 22.439C130.315 22.384 130.189 22.3106 130.098 22.2006C129.989 22.0906 129.917 21.9806 129.844 21.834C129.79 21.7057 129.754 21.5407 129.754 21.394V17.4892C129.754 17.4342 129.754 17.3976 129.772 17.3609C129.754 17.0126 129.681 16.7009 129.573 16.3893C129.446 16.096 129.283 15.821 129.065 15.601C128.848 15.381 128.594 15.1977 128.305 15.0693C128.015 14.941 127.707 14.8677 127.363 14.8677C127 14.8677 126.674 14.941 126.385 15.0693C126.095 15.1977 125.841 15.381 125.624 15.601C125.406 15.8393 125.243 16.096 125.117 16.4076C124.99 16.7193 124.935 17.0492 124.935 17.4159V21.3757C124.935 21.5407 124.917 21.6873 124.845 21.8157C124.772 21.944 124.718 22.0723 124.609 22.1823C124.501 22.2923 124.392 22.3656 124.265 22.4206C124.138 22.4756 123.993 22.5123 123.83 22.5123C123.685 22.5123 123.541 22.4756 123.396 22.4206C123.251 22.3656 123.142 22.2923 123.033 22.1823C122.925 22.0723 122.834 21.9623 122.78 21.8157C122.725 21.6873 122.689 21.5223 122.689 21.3757V17.4342C122.689 16.7559 122.816 16.1326 123.051 15.546C123.287 14.9594 123.613 14.4461 124.048 14.0061C124.464 13.5661 124.954 13.2178 125.533 12.9795C126.113 12.7228 126.729 12.5945 127.381 12.5945C128.051 12.5945 128.667 12.7228 129.228 12.9795C129.79 13.2361 130.297 13.5844 130.696 14.0061C131.112 14.4461 131.438 14.9594 131.674 15.546C131.909 16.1326 132.036 16.7559 132.036 17.4342V21.394H132Z" fill="white"/>
<path d="M16.9732 23.2637C16.4479 22.6954 15.5603 21.5038 15.0893 20.7889C14.6727 20.7522 14.256 20.7155 13.8756 20.6789C12.9337 20.5872 12.0098 20.4589 11.1041 20.3306C11.9012 22.0721 13.2416 24.107 14.5459 25.537C16.0856 27.2235 17.897 28.5435 19.9259 29.4784C21.9003 30.3767 24.0016 30.89 26.1753 30.9817C28.3491 31.0733 30.4866 30.7433 32.5154 29.9917C33.8921 29.4967 35.1963 28.8184 36.3738 27.9752C36.7542 27.7002 37.0078 27.2785 37.0621 26.7836C37.1165 26.3069 36.9534 25.8303 36.6274 25.4636C36.0658 24.8587 35.142 24.7487 34.4718 25.2253C29.0193 29.0751 21.4837 28.2318 16.9732 23.2637Z" fill="white"/>
<path d="M37.4244 21.834C39.1652 21.834 40.5763 20.4059 40.5763 18.6442C40.5763 16.8825 39.1652 15.4543 37.4244 15.4543C35.6837 15.4543 34.2725 16.8825 34.2725 18.6442C34.2725 20.4059 35.6837 21.834 37.4244 21.834Z" fill="white"/>
<path d="M37.4244 3.83151C36.3013 2.89656 35.0696 2.1266 33.7291 1.5033C31.7546 0.60502 29.6533 0.091714 27.4796 5.22677e-05C25.3059 -0.0916095 23.1684 0.238373 21.1395 0.989999C19.0202 1.75996 17.1181 2.93323 15.4516 4.49148C14.0025 5.84807 12.8069 7.44298 11.9012 9.20289L11.7925 9.44121L11.5389 9.45954C9.72744 9.6062 8.07903 9.82619 6.61176 10.1195C4.81843 10.4862 3.38738 10.9445 2.33675 11.4944C0.470957 12.466 0.0362107 13.676 -1.8198e-05 14.5193C-0.0362471 15.3626 0.307927 16.6092 2.08314 17.7458C3.07944 18.3874 4.47425 18.9557 6.23135 19.469C7.39068 19.799 8.69492 20.1106 10.0897 20.3673C11.5027 20.6239 13.0424 20.8439 14.6365 21.0089C16.0675 21.1556 17.5348 21.2656 19.0202 21.3206C23.8205 21.5222 32.3343 21.4122 35.8485 20.6973C35.9572 20.6789 36.0477 20.6606 36.1564 20.6423C36.8991 20.4773 37.4426 19.8356 37.4607 19.084C37.4788 18.5707 37.2614 18.0757 36.881 17.7458C36.4825 17.4158 35.9753 17.2875 35.4681 17.3791C35.0152 17.4708 34.5261 17.5624 34.037 17.6541C31.0844 18.1307 23.3857 18.1674 19.147 18.0024C17.2993 17.9291 15.4878 17.7824 13.7489 17.5624C12.2272 17.3791 10.7962 17.1408 9.49195 16.8658C9.07532 16.7741 8.65869 16.6825 8.26017 16.5908C6.08644 16.0592 4.83654 15.5092 4.16631 15.1426L3.33304 14.6843L4.20253 14.2993C4.89088 13.9876 6.19512 13.566 8.40509 13.1993C8.87606 13.126 9.36515 13.0527 9.87236 12.9977C11.1585 12.851 12.5533 12.741 14.0206 12.686C14.5097 11.1828 15.2523 9.78952 16.2305 8.54292C16.6653 7.99295 17.1544 7.46132 17.6616 6.98468C22.5525 2.41992 30.1424 2.1816 35.2869 6.45304C35.9209 6.98468 36.8448 6.94801 37.4607 6.39804C37.8048 6.06806 38.0041 5.60975 37.986 5.11478C38.0041 4.60147 37.7867 4.14316 37.4244 3.83151Z" fill="white"/>
</g>
<defs>
<clipPath id="clip0_20_685">
<rect width="132" height="31" fill="white"/>
</clipPath>
</defs>
</svg>
