<svg width="24" height="24" viewBox="0 0 24 24" fill="none" xmlns="http://www.w3.org/2000/svg">
<path d="M10.0236 5.33325H8.20544V7.15143H10.0236V5.33325Z" fill="white"/>
<path d="M13.0539 5.33325H11.2357V7.15143H13.0539V5.33325Z" fill="white"/>
<path d="M10.0236 8.36353H8.20544V10.1817H10.0236V8.36353Z" fill="white"/>
<path d="M13.0539 8.36353H11.2357V10.1817H13.0539V8.36353Z" fill="white"/>
<path d="M10.0236 11.394H8.20544V13.2122H10.0236V11.394Z" fill="white"/>
<path d="M15.4782 17.0065C15.7304 17.0065 15.9349 16.802 15.9349 16.5497C15.9349 16.2975 15.7304 16.093 15.4782 16.093C15.2259 16.093 15.0214 16.2975 15.0214 16.5497C15.0214 16.802 15.2259 17.0065 15.4782 17.0065Z" fill="white"/>
<path d="M16.3873 13.0238V2.91006C16.3873 2.408 15.9803 2.00103 15.4782 2.00097L5.78125 2H5.78119C5.5401 2 5.30889 2.09576 5.1384 2.26624C4.96786 2.43673 4.8721 2.66794 4.8721 2.90909V21.0909C4.8721 21.593 5.27913 22 5.78119 22H15.4176C15.4261 22 15.4342 21.999 15.4427 21.9987C15.4545 21.9992 15.4664 22 15.4782 22C15.6513 22 15.8245 21.9506 15.9756 21.8519C16.0181 21.8241 16.405 21.5673 16.8975 21.1084C17.915 20.1605 19.1279 18.6019 19.1279 16.5593C19.1279 14.8604 17.9613 13.4288 16.3873 13.0238ZM6.69029 3.81824L14.5691 3.81903V13.0237C12.995 13.4288 11.8284 14.8603 11.8284 16.5592C11.8284 18.049 12.4857 19.2816 13.2004 20.1818H6.69029V3.81824ZM15.658 19.7781C15.5958 19.836 15.5358 19.8898 15.479 19.9392C14.7941 19.3432 13.6466 18.1126 13.6466 16.5592C13.6466 15.5492 14.4681 14.7274 15.4778 14.7272C15.4779 14.7272 15.478 14.7272 15.4781 14.7272C15.4782 14.7272 15.4784 14.7272 15.4785 14.7272C16.4882 14.7274 17.3096 15.5492 17.3096 16.5592C17.3097 17.948 16.4116 19.0761 15.658 19.7781Z" fill="white"/>
</svg>
