<svg width="18" height="18" viewBox="0 0 18 18" fill="none" xmlns="http://www.w3.org/2000/svg">
<path d="M17.9988 10.614C17.9986 10.6063 17.9991 10.5987 17.9987 10.5909L17.4532 0.7728C17.4292 0.339218 17.0706 0 16.6364 0H11.1818C10.7476 0 10.389 0.339218 10.3649 0.7728L9.92853 8.62685L6.3354 4.63451C6.10876 4.38267 5.75024 4.29671 5.43415 4.41796C5.11784 4.53933 4.90909 4.84304 4.90909 5.18182V8.50424L1.42631 4.63445C1.19973 4.38262 0.8412 4.29665 0.525055 4.41791C0.208745 4.53933 0 4.84304 0 5.18182V17.1818C0 17.6337 0.366327 18 0.818182 18H17.1818C17.6337 18 18 17.6337 18 17.1818V10.637C18 10.6293 17.999 10.6217 17.9988 10.614ZM15.8624 1.63636L16.3169 9.81873L11.5012 9.81824L11.9558 1.63636H15.8624ZM16.3636 16.3636H1.63636V7.31395L5.11915 11.1837C5.34578 11.4355 5.70425 11.5215 6.0204 11.4002C6.33671 11.2789 6.54545 10.9751 6.54545 10.6364V7.31395L10.0282 11.1836C10.1834 11.356 10.4044 11.4544 10.6363 11.4544L16.3636 11.4551V16.3636Z" fill="white"/>
</svg>
