<svg width="64" height="64" viewBox="0 0 64 64" fill="none" xmlns="http://www.w3.org/2000/svg">
<path d="M29.9758 -7.10553e-06C19.2409 -0.200007 7.96021 4.94999 2.91117 15.35C-1.0007 23.35 -0.955217 33.55 3.04763 41.55C7.18693 49.85 14.6013 54.85 21.5608 59.95C24.8358 62.35 28.4748 63.65 32.2502 63.9C46.5331 65 62.0441 52.05 63.909 35.85C64.7278 28.5 62.0896 21.1 57.9503 15.3C51.2637 5.99999 40.7107 0.199993 29.9758 -7.10553e-06Z" fill="#00A7E0"/>
<g opacity="0.38">
<g opacity="0.48">
<g opacity="0.48">
<path opacity="0.48" d="M10.9168 23.6001C15.6929 19.3501 21.5608 14.3501 28.1563 15.4001C31.5679 15.9501 33.0234 10.2001 29.6119 9.65007C20.742 8.25007 13.6915 13.5501 7.09593 19.4001C4.41221 21.8001 8.2331 26.0001 10.9168 23.6001Z" fill="white"/>
</g>
</g>
<g opacity="0.48">
<g opacity="0.48">
<path opacity="0.48" d="M33.7967 16.3001C34.1151 16.4501 34.388 16.6501 34.7064 16.8001C35.0248 17.0001 35.3432 17.1501 35.7071 17.1501C36.071 17.2501 36.4349 17.2001 36.7988 17.1001C37.1627 17.0001 37.4356 16.8501 37.7086 16.5501C37.9815 16.3501 38.2544 16.0501 38.3909 15.7001C38.7093 15.0001 38.8912 14.1501 38.6638 13.4001C38.4363 12.7001 38.027 11.9501 37.4356 11.6001C37.1172 11.4501 36.8443 11.2501 36.5259 11.1001C36.2075 10.9001 35.8891 10.7501 35.5252 10.7501C35.1613 10.6501 34.7974 10.7001 34.4335 10.8001C34.0696 10.9001 33.7967 11.0501 33.5238 11.3501C33.2508 11.5501 32.9779 11.8501 32.8415 12.2001C32.5231 12.9001 32.3411 13.7501 32.5685 14.5001C32.7505 15.2501 33.1599 15.9501 33.7967 16.3001Z" fill="white"/>
</g>
</g>
</g>
</svg>
