<svg width="120" height="120" viewBox="0 0 120 120" fill="none" xmlns="http://www.w3.org/2000/svg">
<path d="M61.9613 78.8141H58.0388V120H61.9613V78.8141Z" fill="#0E5BA2"/>
<path d="M52.1554 78.8141H48.2328V110.194H52.1554V78.8141Z" fill="#0E5BA2"/>
<path d="M42.3491 96.4651H38.4266V100.388H42.3491V96.4651Z" fill="#0E5BA2"/>
<path d="M42.3491 78.8141H38.4266V92.5426H42.3491V78.8141Z" fill="#0E5BA2"/>
<path d="M71.7676 106.272H67.845V110.194H71.7676V106.272Z" fill="#0E5BA2"/>
<path d="M71.7676 78.8141H67.845V102.349H71.7676V78.8141Z" fill="#0E5BA2"/>
<path d="M81.5737 78.8141H77.6511V100.388H81.5737V78.8141Z" fill="#0E5BA2"/>
<path d="M59.9999 47.4342C67.5819 47.4342 73.7284 41.2877 73.7284 33.7057C73.7284 26.1237 67.5819 19.9772 59.9999 19.9772C52.4179 19.9772 46.2714 26.1237 46.2714 33.7057C46.2714 41.2877 52.4179 47.4342 59.9999 47.4342Z" fill="#0E5BA2"/>
<path d="M83.5348 47.7225V34.8511C83.5348 22.4072 77.2688 10.9909 66.7701 4.30887L60 0L53.2298 4.30681C42.7315 10.9909 36.4651 22.4072 36.4651 34.8511V47.7225C26.2901 49.6875 18.8141 58.5857 18.8141 69.1177V92.5426H22.7366C22.7366 86.0529 28.0142 80.7754 34.5038 80.7754H85.4957C91.9853 80.7754 97.2629 86.0529 97.2629 92.5426H101.185V69.1177C101.186 58.5861 93.7098 49.6879 83.5348 47.7225ZM55.3361 7.61733L60 4.65194L64.6638 7.61939C74.0229 13.5757 79.6123 23.7564 79.6123 34.8511V59.2018H40.3876V34.8511C40.3876 23.7564 45.977 13.5757 55.3361 7.61733ZM34.5038 76.8529C29.8222 76.8529 25.6135 78.9142 22.7366 82.1757V69.1177C22.7366 60.7413 28.5047 53.6318 36.4651 51.7414V76.8529H34.5038ZM40.3876 76.8529V63.1244H79.6123V76.8529H40.3876ZM97.2633 82.1757C94.386 78.9142 90.1773 76.8529 85.4961 76.8529H83.5348V51.7393C91.4956 53.6318 97.2633 60.7413 97.2633 69.1157V82.1757Z" fill="white"/>
<path d="M9.0078 16.0546H5.08567V19.9772H1.16312V23.8997H5.08567V27.8218H9.0078V23.8997H12.9303V19.9772H9.0078V16.0546Z" fill="white"/>
<path d="M18.8141 19.9773H22.7366V14.0935H28.6204V10.1709H22.7366V4.28751H18.8141V10.1709H12.9303V14.0935H18.8141V19.9773Z" fill="white"/>
<path d="M26.6592 37.6283V33.7057H30.5813V29.7832H26.6592V25.8607H22.7366V29.7832H18.8141V33.7057H22.7366V37.6283H26.6592Z" fill="white"/>
<path d="M95.3021 25.8606H99.2246V21.9385H103.147V18.016H99.2246V14.0934H95.3021V18.016H91.3795V21.9385H95.3021V25.8606Z" fill="white"/>
<path d="M118.837 31.7445H112.953V25.8607H109.031V31.7445H103.147V35.667H109.031V41.5508H112.953V35.667H118.837V31.7445Z" fill="white"/>
<path d="M91.3795 43.5121H95.302V39.5895H99.2246V35.667H95.302V31.7444H91.3795V35.667H87.4573V39.5895H91.3795V43.5121Z" fill="white"/>
</svg>
