<svg width="89" height="64" viewBox="0 0 89 64" fill="none" xmlns="http://www.w3.org/2000/svg">
<g clip-path="url(#clip0)">
<path d="M40.9115 37.3224C48.443 37.3224 54.5485 31.2169 54.5485 23.6854C54.5485 16.1539 48.443 10.0485 40.9115 10.0485C33.38 10.0485 27.2745 16.1539 27.2745 23.6854C27.2745 31.2169 33.38 37.3224 40.9115 37.3224Z" fill="#4DB3DF"/>
<path d="M84.6941 0H4.30726C1.93332 0 0.000976562 1.93204 0.000976562 4.30659V45.9353C0.000976562 48.3096 1.93302 50.2419 4.30726 50.2419H19.6754C19.4889 50.3914 19.292 50.5276 19.1199 50.6985C17.8983 51.9186 17.2264 53.5407 17.2264 55.2663C17.2264 56.992 17.8983 58.6138 19.1183 59.8341L34.4522 75.1664V89H37.3231V73.9773L21.1481 57.8038C20.4707 57.1249 20.0974 56.2248 20.0974 55.2657C20.0974 54.3066 20.4707 53.4069 21.1481 52.7276C22.5047 51.371 24.8661 51.371 26.2224 52.7276L37.3228 63.8268V25.1208C37.3228 23.1413 38.9321 21.532 40.9116 21.532C42.8911 21.532 44.5004 23.1413 44.5004 25.1208V42.3466V45.9353H47.3713V42.3466C47.3713 40.367 48.9806 38.7578 50.9601 38.7578C52.9396 38.7578 54.5489 40.367 54.5489 42.3466V43.7822V45.9353H57.4198V43.7822C57.4198 41.8027 59.0291 40.1934 61.0086 40.1934C62.9881 40.1934 64.5974 41.8027 64.5974 43.7822V46.6531V47.371H67.4683V46.6531C67.4683 44.6736 69.0776 43.0644 71.0571 43.0644C73.0366 43.0644 74.6459 44.6736 74.6459 46.6531V48.8063V77.5159C74.6459 79.8901 72.7138 81.8224 70.3396 81.8224H68.904V89H71.7749V84.5486C75.0464 83.881 77.5168 80.9827 77.5168 77.5162V50.2419H84.6941C87.0683 50.2419 89.0004 48.3099 89.0004 45.9353V4.30659C89.0007 1.93204 87.0683 0 84.6941 0ZM2.87193 45.9353V25.1208V4.30659C2.87193 3.51405 3.51503 2.87096 4.30726 2.87096H12.9201V25.1208V47.3706H4.30757C3.51503 47.371 2.87193 46.7276 2.87193 45.9353ZM28.254 50.6982C28.0815 50.5258 27.8849 50.391 27.6984 50.2416H34.4525V56.8964L28.254 50.6982ZM71.0571 40.1934C69.544 40.1934 68.169 40.7376 67.0666 41.6131C66.1708 39.1197 63.8067 37.3224 61.0089 37.3224C59.2704 37.3224 57.6973 38.0201 56.5345 39.1412C55.4177 37.2061 53.3506 35.8868 50.9604 35.8868C49.6326 35.8868 48.3997 36.2917 47.3716 36.9807V25.1208C47.3716 21.5593 44.4734 18.6611 40.9119 18.6611C37.3504 18.6611 34.4525 21.5596 34.4525 25.1208V47.3706H15.7914V2.87096H74.6459V41.2873C73.6181 40.5983 72.3849 40.1934 71.0571 40.1934ZM86.1297 45.9353C86.1297 46.7276 85.4866 47.371 84.6944 47.371H77.5171V46.6531V2.87096H84.6944C85.4866 2.87096 86.1297 3.51405 86.1297 4.30659V45.9353Z" fill="white"/>
<path d="M83.258 28.7096H80.3871V31.5806H83.258V28.7096Z" fill="white"/>
<path d="M83.258 18.6614H80.3871V27.2742H83.258V18.6614Z" fill="white"/>
<path d="M7.89538 30.1452C10.6659 30.1452 12.9195 27.8917 12.9195 25.1211C12.9195 22.3506 10.6659 20.097 7.89538 20.097C5.12486 20.097 2.87128 22.3503 2.87128 25.1208C2.87128 27.8914 5.12517 30.1452 7.89538 30.1452ZM7.89538 22.9677C9.08265 22.9677 10.0485 23.9339 10.0485 25.1208C10.0485 26.3078 9.08235 27.274 7.89538 27.274C6.70841 27.274 5.74223 26.3078 5.74223 25.1208C5.74223 23.9339 6.70841 22.9677 7.89538 22.9677Z" fill="white"/>
</g>
<defs>
<clipPath id="clip0">
<rect width="89" height="89" fill="white"/>
</clipPath>
</defs>
</svg>
