<svg width="120" height="120" viewBox="0 0 120 120" fill="none" xmlns="http://www.w3.org/2000/svg">
<path d="M22.6515 42.8786L24.1108 47.7406C26.7741 56.6186 33.8715 63.1509 42.6915 65.156C40.2257 67.9005 38.7121 71.5141 38.7121 75.4838V77.4192H69.6799V75.4838C69.6799 71.5141 68.1663 67.9005 65.7005 65.158C74.5186 63.1509 81.616 56.6206 84.2812 47.7425L85.7405 42.8786L83.4683 42.5961C73.2005 41.3148 62.9889 45.1722 56.1315 52.9219V44.5161H52.2605V52.9219C45.4031 45.1722 35.1934 41.309 24.9237 42.5961L22.6515 42.8786ZM42.7437 73.5483C43.6689 68.0631 48.4515 63.8709 54.196 63.8709C59.9405 63.8709 64.7231 68.0631 65.6483 73.5483H42.7437ZM58.9244 55.5986C64.425 49.3102 72.4128 45.9077 80.687 46.2464L80.5709 46.6296C78.0141 55.1515 70.636 61.1322 61.7773 61.8618L61.7889 62.0051C60.0779 61.0373 58.1657 60.3909 56.1296 60.1354V58.7922L58.9244 55.5986ZM49.4676 55.5986L52.2605 58.7922V60.1354C50.2263 60.3909 48.3141 61.0373 46.6012 62.0051L46.6128 61.8618C37.7521 61.1322 30.3741 55.1515 27.8192 46.6277L27.7031 46.2444C35.985 45.9193 43.965 49.3122 49.4676 55.5986Z" fill="white"/>
<path d="M54.196 46.4516C67.0232 46.4516 77.4218 36.0531 77.4218 23.2258C77.4218 10.3985 67.0232 0 54.196 0C41.3687 0 30.9702 10.3985 30.9702 23.2258C30.9702 36.0531 41.3687 46.4516 54.196 46.4516Z" fill="#0E5BA2"/>
<path d="M79.3573 92.9033V96.7743H77.0154C73.9206 96.7743 70.8877 95.7194 68.4722 93.8013L53.9076 82.2368C53.2477 81.7142 52.4986 81.3465 51.6799 81.1433L48.4883 80.3517C45.3741 79.5813 42.196 81.4723 41.416 84.5749L41.0773 85.9162C40.4773 88.2949 41.4548 90.8033 43.5064 92.162L48.347 95.3652C48.4631 95.4426 48.5618 95.5336 48.6702 95.6188L44.3173 96.6988C44.0425 96.7684 43.7638 96.8168 43.4812 96.8439L33.2948 97.8543L28.876 89.0865C28.4231 88.1846 27.736 87.4123 26.8922 86.853L26.507 86.5975C24.9238 85.5504 22.9264 85.3375 21.1573 86.0226C19.398 86.7059 18.0741 88.2001 17.6135 90.0213L17.5089 90.753L17.4877 90.7317C16.3864 89.6342 14.9231 89.0323 13.367 89.0323H11.9444C9.43023 89.0323 7.20636 90.6271 6.40894 92.9981L6.10895 93.8865C5.40249 95.9904 5.94443 98.2723 7.52185 99.8381L14.2631 106.529C16.6031 108.852 19.5025 110.628 22.6438 111.668L32.8264 115.036C35.0154 115.763 37.2954 116.129 39.6006 116.129H71.0909C72.8406 116.129 74.5902 115.916 76.2877 115.494L79.3573 114.734V120H114.196V92.9033H79.3573ZM21.3915 90.8807C21.5638 90.3039 21.9857 89.851 22.5567 89.6284C23.1702 89.3942 23.8302 89.4639 24.3722 89.822L24.7573 90.0775C25.0399 90.2652 25.2702 90.5226 25.4212 90.8246L29.1683 98.2626L28.2238 98.3555C26.4644 98.5317 24.736 97.9181 23.4857 96.6775L20.9367 94.1478L21.3915 90.8807ZM75.3548 111.737C73.9612 112.084 72.527 112.258 71.0909 112.258H39.6006C37.7077 112.258 35.838 111.956 34.0399 111.364L23.8573 107.996C21.2812 107.145 18.9064 105.687 16.9902 103.783L10.2489 97.0936C9.72443 96.573 9.54443 95.8162 9.77669 95.1213L10.0748 94.233C10.3457 93.4375 11.0948 92.9033 11.9444 92.9033H13.367C13.8877 92.9033 14.3967 93.1123 14.7625 93.4762L20.7586 99.4259C22.8296 101.481 25.698 102.494 28.6051 102.207L43.8625 100.692C44.3328 100.645 44.7993 100.564 45.2541 100.452L50.8322 99.0678C50.9967 99.8885 50.9928 100.75 50.7799 101.594L50.1625 104.044L53.9154 104.99L54.5328 102.54C55.5315 98.5781 53.9038 94.3955 50.4838 92.1349L45.6431 88.9317C44.958 88.4788 44.6328 87.6465 44.8322 86.8607L45.1709 85.5194C45.4322 84.4781 46.5025 83.8491 47.5573 84.1084L50.747 84.9001C51.0257 84.9697 51.2793 85.0936 51.5018 85.2697L66.0664 96.8342C69.1631 99.2923 73.0515 100.647 77.0154 100.647H79.3573V110.747L75.3548 111.737ZM110.325 116.129H83.2283V96.7743H110.325V116.129Z" fill="white"/>
<path d="M92.9057 0H89.0347V3.87097H92.9057V0Z" fill="white"/>
<path d="M92.9057 7.74194H89.0347V11.6129H92.9057V7.74194Z" fill="white"/>
<path d="M96.7767 3.871H92.9057V7.74197H96.7767V3.871Z" fill="white"/>
<path d="M89.0348 3.871H85.1638V7.74197H89.0348V3.871Z" fill="white"/>
<path d="M21.2928 21.2903H17.4218V25.1613H21.2928V21.2903Z" fill="white"/>
<path d="M21.2928 29.0323H17.4218V32.9033H21.2928V29.0323Z" fill="white"/>
<path d="M25.1637 25.1613H21.2927V29.0323H25.1637V25.1613Z" fill="white"/>
<path d="M17.4218 25.1613H13.5508V29.0323H17.4218V25.1613Z" fill="white"/>
<path d="M96.7767 23.2258H92.9057V27.0968H96.7767V23.2258Z" fill="white"/>
<path d="M96.7767 30.9677H92.9057V34.8387H96.7767V30.9677Z" fill="white"/>
<path d="M100.648 27.0968H96.7767V30.9677H100.648V27.0968Z" fill="white"/>
<path d="M92.9057 27.0968H89.0347V30.9677H92.9057V27.0968Z" fill="white"/>
</svg>
