<svg width="120" height="120" viewBox="0 0 120 120" fill="none" xmlns="http://www.w3.org/2000/svg">
<path d="M44.5136 69.6686C59.4793 69.6686 71.6114 57.5364 71.6114 42.5707C71.6114 27.605 59.4793 15.4729 44.5136 15.4729C29.5479 15.4729 17.4158 27.605 17.4158 42.5707C17.4158 57.5364 29.5479 69.6686 44.5136 69.6686Z" fill="#0E5BA2"/>
<path d="M102.58 25.1509H84.4111C76.7618 9.66658 60.9792 -0.177609 43.9174 0.0101778C19.7002 0.319905 0 20.2887 0 44.5121L0.0117875 51.5805C0 68.0196 7.73829 83.434 21.287 93.0209V119.993H67.7403V102.573H87.0958V78.1792L101.678 74.8328L93.3533 59.9911H102.58C112.186 59.9911 120 52.1772 120 42.5712C120 32.9652 112.187 25.1509 102.58 25.1509ZM95.769 72.2098L83.2246 75.0917V98.7016H63.8691V116.122H25.1582V90.9999L24.3026 90.4232C11.503 81.6086 3.86711 67.092 3.86711 51.5882V44.5234C3.86711 22.406 21.8561 4.16344 43.9658 3.88095C58.9684 3.67568 72.8073 11.6018 80.0753 25.1509H63.8691V30.9577H52.256V29.0221H40.6425V56.1199H52.2556V54.1843H63.8687V59.9911H88.9147L95.769 72.2098ZM63.8691 50.3131H52.256V34.8288H63.8691V50.3131ZM44.5137 52.2487V32.8932H48.3848V52.2487H44.5137ZM67.7403 56.1195V54.2209V30.9942V29.0221H91.6539C87.6978 32.8932 85.1602 37.101 85.1602 42.5708C85.1602 48.0406 87.6998 52.2487 91.6539 56.1195H67.7403ZM102.58 56.1565C95.1109 56.1565 89.0314 50.077 89.0314 42.6078C89.0314 35.1386 95.1109 29.0591 102.58 29.0591C110.049 29.0591 116.129 35.1386 116.129 42.6078C116.129 50.077 110.05 56.1565 102.58 56.1565Z" fill="white"/>
<path d="M100.884 50.6898H104.806V44.8059H110.69V40.8834H104.806V35H100.884V40.8834H95V44.8059H100.884V50.6898Z" fill="white"/>
</svg>
