<svg width="255" height="140" viewBox="0 0 255 140" fill="none" xmlns="http://www.w3.org/2000/svg">
<path fill-rule="evenodd" clip-rule="evenodd" d="M41.2093 -32.5646C60.2217 -32.3353 75.3208 -17.2854 88.0059 -1.29842C100.301 14.1971 111.447 32.4639 108.908 52.7559C106.345 73.2475 91.8802 88.4958 75.5593 98.186C59.7752 107.557 41.3655 110.107 24.483 102.881C7.18658 95.479 -6.01737 79.912 -12.4076 60.5381C-19.292 39.6661 -20.9249 16.0174 -10.2704 -2.48362C0.731786 -21.5883 20.6971 -32.8119 41.2093 -32.5646Z" fill="url(#paint0_linear_1855:1358)"/>
<path fill-rule="evenodd" clip-rule="evenodd" d="M63.8451 79.6114C65.367 60.6587 81.409 46.6181 98.2217 35.0497C114.518 23.837 133.5 13.9592 153.573 17.8723C173.842 21.8238 188.072 37.2918 196.629 54.234C204.905 70.619 206.197 89.1595 197.84 105.511C189.278 122.264 172.849 134.379 153.085 139.437C131.793 144.885 108.088 144.906 90.3549 133.018C72.0428 120.742 62.2031 100.059 63.8451 79.6114Z" fill="url(#paint1_linear_1855:1358)"/>
<path opacity="0.2" d="M196.344 -12.312C203 -12.312 208.344 -10.488 212.376 -6.84C216.472 -3.256 218.52 1.704 218.52 8.04C218.52 14.312 216.504 19.112 212.472 22.44C208.44 25.704 203.096 27.336 196.44 27.336L196.056 34.728H184.248L183.768 18.408H188.088C193.656 18.408 197.944 17.672 200.952 16.2C203.96 14.728 205.464 12.04 205.464 8.136C205.464 5.32 204.632 3.08 202.968 1.41599C201.368 -0.248003 199.16 -1.08 196.344 -1.08C193.4 -1.08 191.096 -0.280003 189.432 1.32C187.832 2.92 187.032 5.128 187.032 7.944H174.36C174.296 4.04 175.128 0.551998 176.856 -2.52C178.584 -5.592 181.112 -7.992 184.44 -9.72001C187.832 -11.448 191.8 -12.312 196.344 -12.312ZM190.104 57.672C187.672 57.672 185.656 56.936 184.056 55.464C182.52 53.928 181.752 52.04 181.752 49.8C181.752 47.56 182.52 45.704 184.056 44.232C185.656 42.696 187.672 41.928 190.104 41.928C192.472 41.928 194.424 42.696 195.96 44.232C197.496 45.704 198.264 47.56 198.264 49.8C198.264 52.04 197.496 53.928 195.96 55.464C194.424 56.936 192.472 57.672 190.104 57.672Z" fill="white"/>
<path opacity="0.2" d="M236.896 47.792C241.333 47.792 244.896 49.008 247.584 51.44C250.315 53.8293 251.68 57.136 251.68 61.36C251.68 65.5413 250.336 68.7413 247.648 70.96C244.96 73.136 241.397 74.224 236.96 74.224L236.704 79.152H228.832L228.512 68.272H231.392C235.104 68.272 237.963 67.7813 239.968 66.8C241.973 65.8187 242.976 64.0267 242.976 61.424C242.976 59.5467 242.421 58.0533 241.312 56.944C240.245 55.8347 238.773 55.28 236.896 55.28C234.933 55.28 233.397 55.8133 232.288 56.88C231.221 57.9467 230.688 59.4187 230.688 61.296H222.24C222.197 58.6933 222.752 56.368 223.904 54.32C225.056 52.272 226.741 50.672 228.96 49.52C231.221 48.368 233.867 47.792 236.896 47.792ZM232.736 94.448C231.115 94.448 229.771 93.9573 228.704 92.976C227.68 91.952 227.168 90.6933 227.168 89.2C227.168 87.7067 227.68 86.4693 228.704 85.488C229.771 84.464 231.115 83.952 232.736 83.952C234.315 83.952 235.616 84.464 236.64 85.488C237.664 86.4693 238.176 87.7067 238.176 89.2C238.176 90.6933 237.664 91.952 236.64 92.976C235.616 93.9573 234.315 94.448 232.736 94.448Z" fill="white"/>
<g clip-path="url(#clip0_1855:1358)">
<path d="M97.968 81.9353C106.43 81.9353 113.29 75.0752 113.29 66.6128C113.29 58.1505 106.43 51.2904 97.968 51.2904C89.5057 51.2904 82.6456 58.1505 82.6456 66.6128C82.6456 75.0752 89.5057 81.9353 97.968 81.9353Z" fill="#4DB3DF"/>
<path d="M147.162 40H56.8395C54.1722 40 52.001 42.1708 52.001 44.8389V91.6127C52.001 94.2804 54.1718 96.4516 56.8395 96.4516H74.1071C73.8975 96.6195 73.6763 96.7726 73.4829 96.9646C72.1103 98.3355 71.3554 100.158 71.3554 102.097C71.3554 104.036 72.1103 105.858 73.4812 107.229L90.7102 124.457V140H93.936V123.121L75.7618 104.948C75.0006 104.185 74.5812 103.174 74.5812 102.096C74.5812 101.019 75.0006 100.008 75.7618 99.2445C77.2861 97.7202 79.9393 97.7202 81.4632 99.2445L93.9356 111.716V68.2256C93.9356 66.0015 95.7438 64.1933 97.968 64.1933C100.192 64.1933 102 66.0015 102 68.2256V87.5804V91.6127H105.226V87.5804C105.226 85.3562 107.034 83.5481 109.258 83.5481C111.483 83.5481 113.291 85.3562 113.291 87.5804V89.1935V91.6127H116.517V89.1935C116.517 86.9693 118.325 85.1611 120.549 85.1611C122.773 85.1611 124.581 86.9693 124.581 89.1935V92.4193V93.2258H127.807V92.4193C127.807 90.1951 129.615 88.3869 131.839 88.3869C134.063 88.3869 135.872 90.1951 135.872 92.4193V94.8385V127.096C135.872 129.764 133.701 131.935 131.033 131.935H129.42V140H132.646V134.998C136.322 134.248 139.097 130.992 139.097 127.097V96.4516H147.162C149.829 96.4516 152 94.2808 152 91.6127V44.8389C152.001 42.1708 149.829 40 147.162 40ZM55.2268 91.6127V68.2256V44.8389C55.2268 43.9484 55.9493 43.2258 56.8395 43.2258H66.5169V68.2256V93.2254H56.8398C55.9493 93.2258 55.2268 92.5029 55.2268 91.6127ZM83.7459 96.9643C83.5522 96.7706 83.3313 96.6192 83.1217 96.4512H90.7105V103.929L83.7459 96.9643ZM131.839 85.1611C130.139 85.1611 128.594 85.7726 127.356 86.7563C126.349 83.9548 123.693 81.9353 120.549 81.9353C118.596 81.9353 116.828 82.7192 115.522 83.9789C114.267 81.8046 111.944 80.3223 109.259 80.3223C107.767 80.3223 106.382 80.7771 105.226 81.5513V68.2256C105.226 64.2239 101.97 60.9675 97.9683 60.9675C93.9666 60.9675 90.7105 64.2243 90.7105 68.2256V93.2254H69.743V43.2258H135.872V86.3902C134.717 85.616 133.331 85.1611 131.839 85.1611ZM148.775 91.6127C148.775 92.5029 148.052 93.2258 147.162 93.2258H139.098V92.4193V43.2258H147.162C148.052 43.2258 148.775 43.9484 148.775 44.8389V91.6127Z" fill="white"/>
<path d="M145.548 72.2579H142.323V75.4837H145.548V72.2579Z" fill="white"/>
<path d="M145.548 60.9679H142.323V70.6453H145.548V60.9679Z" fill="white"/>
<path d="M60.8712 73.871C63.9841 73.871 66.5162 71.3389 66.5162 68.226C66.5162 65.1131 63.9841 62.5809 60.8712 62.5809C57.7583 62.5809 55.2261 65.1127 55.2261 68.2256C55.2261 71.3386 57.7586 73.871 60.8712 73.871ZM60.8712 65.8064C62.2052 65.8064 63.2905 66.892 63.2905 68.2256C63.2905 69.5593 62.2049 70.6449 60.8712 70.6449C59.5375 70.6449 58.4519 69.5593 58.4519 68.2256C58.4519 66.892 59.5375 65.8064 60.8712 65.8064Z" fill="white"/>
</g>
<defs>
<linearGradient id="paint0_linear_1855:1358" x1="-0.00511952" y1="-5.46276" x2="108.123" y2="31.7989" gradientUnits="userSpaceOnUse">
<stop stop-color="#3B81B3"/>
<stop offset="1" stop-color="#4190C9" stop-opacity="0"/>
</linearGradient>
<linearGradient id="paint1_linear_1855:1358" x1="88.0809" y1="122.574" x2="132.611" y2="17.2304" gradientUnits="userSpaceOnUse">
<stop stop-color="#3B81B3"/>
<stop offset="1" stop-color="#4190C9" stop-opacity="0"/>
</linearGradient>
<clipPath id="clip0_1855:1358">
<rect width="100" height="100" fill="white" transform="translate(52 40)"/>
</clipPath>
</defs>
</svg>
