<svg width="22" height="20" viewBox="0 0 22 20" fill="none" xmlns="http://www.w3.org/2000/svg">
<path d="M1.88539 13.1513L2.61329 12.9705L1.88539 13.1513ZM1.88539 6.84875L1.1575 6.668H1.1575L1.88539 6.84875ZM20.1146 6.84876L20.8425 6.66801L20.1146 6.84876ZM20.1146 13.1512L20.8425 13.332V13.332L20.1146 13.1512ZM14.1156 18.659L13.9533 17.9267H13.9533L14.1156 18.659ZM7.88443 18.659L8.04668 17.9267L7.88443 18.659ZM7.88443 1.34105L7.72218 0.608809V0.608809L7.88443 1.34105ZM14.1156 1.34105L13.9533 2.07329L13.9533 2.07329L14.1156 1.34105ZM7.43055 18.5584L7.2683 19.2906L7.43055 18.5584ZM14.5694 18.5584L14.7317 19.2906H14.7317L14.5694 18.5584ZM14.5694 1.44162L14.7317 0.709379V0.709379L14.5694 1.44162ZM7.43056 1.44162L7.59281 2.17386H7.59281L7.43056 1.44162ZM3.73825 3.89015C3.40121 3.64936 2.93279 3.72738 2.692 4.06441C2.45121 4.40144 2.52923 4.86986 2.86626 5.11066L3.73825 3.89015ZM9.08247 8.63004L8.64648 9.24029H8.64648L9.08247 8.63004ZM12.9175 8.63004L13.3535 9.24029L12.9175 8.63004ZM19.1337 5.11066C19.4708 4.86986 19.5488 4.40144 19.308 4.06441C19.0672 3.72738 18.5988 3.64936 18.2618 3.89015L19.1337 5.11066ZM7.59281 2.17386L8.04668 2.07329L7.72218 0.608809L7.2683 0.70938L7.59281 2.17386ZM13.9533 2.07329L14.4072 2.17386L14.7317 0.709379L14.2778 0.60881L13.9533 2.07329ZM14.4072 17.8261L13.9533 17.9267L14.2778 19.3912L14.7317 19.2906L14.4072 17.8261ZM8.04668 17.9267L7.59281 17.8261L7.2683 19.2906L7.72218 19.3912L8.04668 17.9267ZM2.61329 12.9705C2.1289 11.0198 2.1289 8.9802 2.61329 7.02949L1.1575 6.668C0.614167 8.8561 0.614167 11.1439 1.1575 13.332L2.61329 12.9705ZM19.3867 7.0295C19.8711 8.9802 19.8711 11.0198 19.3867 12.9705L20.8425 13.332C21.3858 11.1439 21.3858 8.8561 20.8425 6.66801L19.3867 7.0295ZM13.9533 17.9267C12.008 18.3578 9.99198 18.3578 8.04668 17.9267L7.72218 19.3912C9.88122 19.8696 12.1188 19.8696 14.2778 19.3912L13.9533 17.9267ZM8.04668 2.07329C9.99198 1.64224 12.008 1.64224 13.9533 2.07329L14.2778 0.60881C12.1188 0.130397 9.88122 0.130397 7.72218 0.608809L8.04668 2.07329ZM7.59281 17.8261C5.14627 17.284 3.21736 15.4032 2.61329 12.9705L1.1575 13.332C1.89874 16.3171 4.26576 18.6253 7.2683 19.2906L7.59281 17.8261ZM14.7317 19.2906C17.7342 18.6253 20.1013 16.3171 20.8425 13.332L19.3867 12.9705C18.7826 15.4032 16.8537 17.284 14.4072 17.8261L14.7317 19.2906ZM14.4072 2.17386C16.8537 2.71598 18.7826 4.5968 19.3867 7.0295L20.8425 6.66801C20.1013 3.68288 17.7342 1.3747 14.7317 0.709379L14.4072 2.17386ZM7.2683 0.70938C4.26576 1.3747 1.89874 3.68288 1.1575 6.668L2.61329 7.02949C3.21736 4.59679 5.14627 2.71598 7.59281 2.17386L7.2683 0.70938ZM2.86626 5.11066L8.64648 9.24029L9.51847 8.01978L3.73825 3.89015L2.86626 5.11066ZM13.3535 9.24029L19.1337 5.11066L18.2618 3.89015L12.4815 8.01978L13.3535 9.24029ZM8.64648 9.24029C10.0543 10.2461 11.9456 10.2461 13.3535 9.24029L12.4815 8.01978C11.5953 8.65297 10.4047 8.65297 9.51847 8.01978L8.64648 9.24029Z" fill="#530809"/>
</svg>
