<svg width="320" height="132" viewBox="0 0 320 132" fill="none" xmlns="http://www.w3.org/2000/svg">
<g clip-path="url(#clip0_306_3554)">
<path d="M159.955 130C247.793 130 319 58.7932 319 -29.0449C319 -116.883 247.793 -188.09 159.955 -188.09C72.117 -188.09 0.910156 -116.883 0.910156 -29.0449C0.910156 58.7932 72.117 130 159.955 130Z" fill="url(#paint0_linear_306_3554)"/>
<path d="M160.027 117.51V116.788C161.471 116.788 162.915 116.788 164.359 116.716V117.438C162.915 117.51 161.471 117.51 160.027 117.51ZM155.696 117.51C154.252 117.438 152.808 117.438 151.364 117.294L151.436 116.572C152.88 116.644 154.324 116.716 155.768 116.788L155.696 117.51ZM168.691 117.294L168.618 116.572C170.062 116.5 171.506 116.355 172.95 116.283L173.022 117.005C171.651 117.077 170.135 117.221 168.691 117.294ZM147.032 117.005C145.588 116.861 144.144 116.716 142.701 116.572L142.773 115.85C144.217 115.994 145.661 116.139 147.104 116.283L147.032 117.005ZM177.354 116.5L177.282 115.778C178.726 115.633 180.17 115.417 181.541 115.2L181.613 115.922C180.242 116.139 178.798 116.355 177.354 116.5ZM138.369 115.994C136.925 115.778 135.481 115.561 134.109 115.272L134.254 114.55C135.698 114.767 137.069 115.056 138.513 115.272L138.369 115.994ZM185.945 115.272L185.801 114.55C187.245 114.262 188.616 114.045 190.06 113.756L190.205 114.478C188.833 114.695 187.389 114.983 185.945 115.272ZM129.85 114.478C128.406 114.189 127.034 113.828 125.59 113.54L125.735 112.818C127.106 113.179 128.55 113.467 129.922 113.756L129.85 114.478ZM194.464 113.467L194.32 112.745C195.691 112.384 197.135 112.023 198.507 111.663L198.724 112.384C197.28 112.745 195.836 113.106 194.464 113.467ZM121.403 112.384C120.031 112.023 118.588 111.59 117.216 111.157L117.432 110.435C118.804 110.868 120.176 111.229 121.62 111.663L121.403 112.384ZM202.839 111.157L202.622 110.435C203.994 110.002 205.366 109.569 206.737 109.136L206.954 109.785C205.582 110.291 204.21 110.724 202.839 111.157ZM113.101 109.858C111.729 109.424 110.357 108.919 108.986 108.414L109.202 107.764C110.574 108.269 111.946 108.775 113.317 109.208L113.101 109.858ZM211.069 108.414L210.852 107.764C212.224 107.259 213.524 106.753 214.895 106.176L215.184 106.825C213.74 107.331 212.441 107.908 211.069 108.414ZM104.943 106.825C103.571 106.248 102.271 105.743 100.9 105.093L101.189 104.443C102.488 105.021 103.86 105.598 105.159 106.104L104.943 106.825ZM219.083 105.165L218.794 104.515C220.093 103.938 221.393 103.36 222.692 102.71L222.981 103.36C221.754 103.938 220.382 104.515 219.083 105.165ZM96.9291 103.36C95.6296 102.71 94.3301 102.061 93.0306 101.411L93.3916 100.761C94.6911 101.411 95.9906 102.061 97.2901 102.71L96.9291 103.36ZM226.88 101.411L226.519 100.761C227.746 100.111 229.045 99.4616 230.345 98.7397L230.706 99.3894C229.479 100.039 228.179 100.761 226.88 101.411ZM89.2043 99.3894C87.977 98.6675 86.6775 97.9455 85.4501 97.2236L85.8111 96.5738C87.0384 97.2958 88.3379 98.0177 89.5652 98.7397L89.2043 99.3894ZM234.532 97.2236L234.171 96.5738C235.399 95.8519 236.626 95.0577 237.853 94.3358L238.214 94.9134C236.987 95.7075 235.759 96.5016 234.532 97.2236ZM81.696 94.9134C80.4687 94.1192 79.2414 93.3251 78.0863 92.5309L78.5194 91.9534C79.7468 92.7475 80.9019 93.5417 82.1292 94.3358L81.696 94.9134ZM241.824 92.6031L241.391 92.0256C242.546 91.2314 243.773 90.4373 244.928 89.571L245.361 90.1485C244.206 90.9426 242.979 91.809 241.824 92.6031ZM74.5487 90.0763C73.3936 89.21 72.2385 88.3437 71.0834 87.4773L71.5166 86.8997C72.6717 87.7661 73.8268 88.6324 74.9819 89.4987L74.5487 90.0763ZM248.899 87.5495L248.466 86.9719C249.621 86.1056 250.776 85.1671 251.859 84.3007L252.292 84.8783C251.137 85.7446 250.054 86.611 248.899 87.5495ZM67.6181 84.8061C66.5351 83.9398 65.38 83.0012 64.2971 81.9905L64.8025 81.4129C65.8854 82.3515 67.0405 83.29 68.1234 84.1563L67.6181 84.8061ZM255.613 82.0627L255.108 81.4851C256.191 80.5466 257.274 79.6081 258.356 78.5974L258.862 79.1027C257.779 80.1134 256.696 81.1242 255.613 82.0627ZM61.0483 79.1027C59.9654 78.1642 58.9547 77.1535 57.8718 76.1427L58.3771 75.6374C59.3879 76.6481 60.4708 77.6588 61.5537 78.5974L61.0483 79.1027ZM262.038 76.2149L261.533 75.7096C262.544 74.6988 263.554 73.6881 264.565 72.6774L265.071 73.1827C264.06 74.1935 263.049 75.2042 262.038 76.2149ZM54.8396 73.0384C53.8289 72.0276 52.8181 70.9447 51.8796 69.8618L52.385 69.3564C53.3235 70.4394 54.3342 71.4501 55.345 72.533L54.8396 73.0384ZM268.103 69.934L267.597 69.4286C268.536 68.3457 269.547 67.2628 270.485 66.1799L271.063 66.6852C269.98 67.8403 269.041 68.9233 268.103 69.934ZM48.9196 66.6852C47.9811 65.6023 47.0426 64.4472 46.104 63.3643L46.6816 62.9311C47.6201 64.014 48.4865 65.1691 49.425 66.252L48.9196 66.6852ZM273.734 63.3643L273.156 62.9311C274.095 61.8482 274.961 60.6931 275.828 59.5379L276.405 59.9711C275.539 61.1262 274.672 62.2813 273.734 63.3643ZM43.505 59.8989C42.6387 58.7438 41.7724 57.5887 40.906 56.4336L41.4836 56.0004C42.3499 57.1555 43.2162 58.3106 44.0826 59.4658L43.505 59.8989ZM279.004 56.5058L278.427 56.0726C279.293 54.9175 280.087 53.6902 280.881 52.5351L281.459 52.9682C280.737 54.1234 279.87 55.2785 279.004 56.5058ZM38.3792 52.896C37.5851 51.7409 36.7909 50.5136 35.9968 49.2863L36.5743 48.9253C37.3685 50.1526 38.1626 51.3799 38.9568 52.5351L38.3792 52.896ZM283.913 49.2863L283.336 48.9253C284.13 47.698 284.852 46.4707 285.574 45.2434L286.224 45.6044C285.429 46.8317 284.707 48.059 283.913 49.2863ZM33.7587 45.5322C33.0368 44.3049 32.3148 43.0054 31.5929 41.7781L32.2427 41.4171C32.9646 42.6444 33.6866 43.9439 34.4085 45.1712L33.7587 45.5322ZM288.317 41.7781L287.667 41.4171C288.389 40.1898 289.039 38.8903 289.689 37.5908L290.339 37.9518C289.689 39.2513 289.039 40.5508 288.317 41.7781ZM29.5715 37.9518C28.9217 36.6522 28.2719 35.3527 27.6222 34.0532L28.2719 33.7644C28.9217 35.0639 29.4993 36.3635 30.2212 37.5908L29.5715 37.9518ZM292.288 34.0532L291.638 33.7644C292.288 32.4649 292.866 31.1654 293.443 29.7937L294.093 30.0825C293.515 31.4542 292.938 32.7537 292.288 34.0532ZM25.8173 30.1547C25.2398 28.8552 24.6622 27.4835 24.1569 26.184L24.8066 25.8952C25.312 27.1947 25.8895 28.5664 26.4671 29.8659L25.8173 30.1547ZM295.825 26.1118L295.176 25.823C295.753 24.5235 296.259 23.1518 296.764 21.7801L297.414 21.9967C296.908 23.3684 296.403 24.7401 295.825 26.1118ZM22.5686 22.1411C22.0632 20.7694 21.5578 19.3977 21.1247 18.026L21.7744 17.8094C22.2076 19.1811 22.713 20.5528 23.2183 21.8523L22.5686 22.1411ZM298.858 17.9538L298.208 17.7372C298.641 16.3655 299.146 14.9938 299.507 13.6221L300.229 13.8387C299.796 15.1382 299.291 16.5821 298.858 17.9538ZM19.8252 13.9109C19.392 12.5392 19.031 11.0953 18.5979 9.72362L19.3198 9.50705C19.6808 10.8787 20.1139 12.3226 20.5471 13.6943L19.8252 13.9109ZM301.384 9.57922L300.663 9.36264C301.023 7.99095 301.384 6.54704 301.745 5.17535L302.467 5.31973C302.106 6.83582 301.745 8.20752 301.384 9.57922ZM17.5149 5.53633C17.154 4.16463 16.8652 2.72072 16.5764 1.27682L17.2984 1.13245C17.5871 2.50414 17.9481 3.94803 18.2369 5.31973L17.5149 5.53633ZM303.406 1.13245L302.684 0.988052C302.973 -0.383652 303.262 -1.82755 303.478 -3.27144L304.2 -3.12704C303.983 -1.68315 303.695 -0.239258 303.406 1.13245ZM15.7101 -2.98267C15.4213 -4.42656 15.2047 -5.87045 14.9881 -7.24214L15.7101 -7.31435C15.9267 -5.87045 16.1432 -4.42656 16.432 -3.05486L15.7101 -2.98267ZM304.922 -7.38654L304.2 -7.45872C304.417 -8.90262 304.633 -10.3465 304.778 -11.7182L305.5 -11.646C305.355 -10.2743 305.139 -8.83043 304.922 -7.38654ZM14.4106 -11.5738C14.2662 -13.0177 14.1218 -14.4616 13.9774 -15.9055L14.6993 -15.9777C14.8437 -14.5338 14.9881 -13.0899 15.1325 -11.646L14.4106 -11.5738ZM306.005 -15.9777L305.283 -16.0499C305.427 -17.4938 305.5 -18.9377 305.572 -20.3816L306.294 -20.3094C306.221 -18.9377 306.077 -17.4216 306.005 -15.9777ZM13.6886 -20.2372C13.6164 -21.6811 13.5442 -23.125 13.472 -24.5689H14.194C14.2662 -23.125 14.2662 -21.6811 14.4106 -20.2372H13.6886ZM306.51 -24.6411H305.788C305.861 -26.085 305.861 -27.5289 305.861 -28.9727V-29.1893H306.582V-28.9727C306.51 -27.6011 306.51 -26.085 306.51 -24.6411ZM14.1218 -28.9006H13.3998V-28.9727C13.3998 -30.3445 13.3998 -31.7883 13.472 -33.2322H14.194C14.1218 -31.8605 14.1218 -30.4166 14.1218 -29.0449V-28.9006ZM305.788 -33.521C305.716 -34.9649 305.644 -36.4088 305.572 -37.8527L306.294 -37.9249C306.366 -36.481 306.438 -35.0371 306.51 -33.5932L305.788 -33.521ZM14.4106 -37.5639L13.6886 -37.6361C13.7608 -39.08 13.9052 -40.5239 13.9774 -41.9678L14.6993 -41.8956C14.555 -40.4517 14.4828 -39.0078 14.4106 -37.5639ZM305.211 -42.1844C305.066 -43.6283 304.922 -45.0722 304.778 -46.5161L305.5 -46.5883C305.644 -45.1444 305.788 -43.7005 305.933 -42.2566L305.211 -42.1844ZM15.1325 -46.1551L14.4106 -46.2273C14.555 -47.6712 14.7715 -49.1151 14.9881 -50.559L15.7101 -50.4868C15.4935 -49.0429 15.2769 -47.599 15.1325 -46.1551ZM304.2 -50.7755C303.983 -52.2194 303.767 -53.6633 303.478 -55.035L304.2 -55.1794C304.489 -53.7355 304.705 -52.2916 304.922 -50.9199L304.2 -50.7755ZM16.432 -54.6741L15.7101 -54.8184C15.9267 -56.2623 16.2154 -57.7062 16.5042 -59.0779L17.2262 -58.9335C16.9374 -57.5619 16.6486 -56.118 16.432 -54.6741ZM302.684 -59.2945C302.395 -60.6662 302.034 -62.1101 301.745 -63.4818L302.467 -63.6262C302.828 -62.2545 303.117 -60.8106 303.406 -59.3667L302.684 -59.2945ZM18.1647 -63.193L17.4427 -63.3374C17.8037 -64.7091 18.1647 -66.153 18.5257 -67.5247L19.2476 -67.3081C18.8866 -66.0086 18.5257 -64.5647 18.1647 -63.193ZM300.663 -67.6691C300.302 -69.0408 299.868 -70.4847 299.435 -71.7842L300.157 -72.0008C300.59 -70.6291 300.951 -69.2574 301.384 -67.8135L300.663 -67.6691ZM20.4027 -71.4954L19.6808 -71.712C20.1139 -73.0837 20.5471 -74.5276 20.9803 -75.8271L21.63 -75.6105C21.2691 -74.311 20.8359 -72.8671 20.4027 -71.4954ZM298.136 -75.8993C297.703 -77.271 297.197 -78.6427 296.692 -79.9422L297.342 -80.1588C297.847 -78.7871 298.352 -77.4154 298.785 -76.0437L298.136 -75.8993ZM23.2183 -79.7256L22.5686 -79.9422C23.0739 -81.3139 23.5793 -82.6856 24.1569 -83.9851L24.8066 -83.6963C24.229 -82.469 23.7237 -81.0973 23.2183 -79.7256ZM295.104 -83.9851C294.598 -85.2846 294.021 -86.6563 293.443 -87.9558L294.093 -88.2446C294.67 -86.9451 295.248 -85.5734 295.753 -84.2739L295.104 -83.9851ZM26.4671 -87.7392L25.8173 -88.028C26.3949 -89.3275 27.0446 -90.6992 27.6222 -91.9987L28.2719 -91.7099C27.6222 -90.4104 27.0446 -89.0387 26.4671 -87.7392ZM291.638 -91.9265C290.988 -93.226 290.339 -94.5255 289.689 -95.7528L290.339 -96.1138C290.988 -94.8143 291.638 -93.5148 292.288 -92.2153L291.638 -91.9265ZM30.149 -95.6084L29.4993 -95.9694C30.149 -97.2689 30.871 -98.5684 31.5207 -99.7957L32.1705 -99.4348C31.5207 -98.1353 30.871 -96.8357 30.149 -95.6084ZM287.667 -99.5791C286.946 -100.806 286.224 -102.106 285.502 -103.333L286.151 -103.694C286.873 -102.467 287.595 -101.167 288.317 -99.9401L287.667 -99.5791ZM34.3363 -103.117L33.6866 -103.478C34.4085 -104.705 35.2026 -105.932 35.9246 -107.16L36.5021 -106.799C35.8524 -105.644 35.0582 -104.416 34.3363 -103.117ZM283.264 -107.015C282.469 -108.243 281.675 -109.47 280.881 -110.625L281.459 -111.058C282.253 -109.831 283.047 -108.676 283.841 -107.448L283.264 -107.015ZM38.9568 -110.481L38.3792 -110.914C39.1733 -112.141 40.0397 -113.296 40.8338 -114.451L41.4114 -114.018C40.6172 -112.863 39.8231 -111.636 38.9568 -110.481ZM278.427 -114.162C277.56 -115.318 276.694 -116.473 275.828 -117.628L276.405 -118.061C277.271 -116.906 278.138 -115.751 279.004 -114.596L278.427 -114.162ZM44.0104 -117.483L43.4328 -117.917C44.2992 -119.072 45.2377 -120.227 46.104 -121.31L46.6816 -120.877C45.8153 -119.794 44.8767 -118.639 44.0104 -117.483ZM273.156 -121.021C272.218 -122.104 271.351 -123.259 270.413 -124.342L270.991 -124.847C271.929 -123.764 272.868 -122.609 273.806 -121.526L273.156 -121.021ZM49.4972 -124.198L48.9196 -124.703C49.8582 -125.786 50.8689 -126.869 51.8074 -127.952L52.3128 -127.446C51.3742 -126.363 50.4357 -125.28 49.4972 -124.198ZM267.525 -127.518C266.587 -128.601 265.576 -129.612 264.565 -130.695L265.071 -131.2C266.081 -130.19 267.092 -129.107 268.031 -128.024L267.525 -127.518ZM55.345 -130.551L54.7674 -131.056C55.7781 -132.067 56.7889 -133.15 57.8718 -134.16L58.3771 -133.655C57.3664 -132.644 56.2835 -131.634 55.345 -130.551ZM261.533 -133.727C260.522 -134.738 259.439 -135.749 258.356 -136.687L258.862 -137.193C259.945 -136.254 260.955 -135.243 262.038 -134.233L261.533 -133.727ZM61.4815 -136.615L60.9761 -137.12C62.0591 -138.131 63.142 -139.07 64.2249 -140.008L64.7303 -139.431C63.6474 -138.564 62.5644 -137.554 61.4815 -136.615ZM255.108 -139.575C254.025 -140.514 252.942 -141.452 251.787 -142.318L252.22 -142.896C253.375 -141.957 254.458 -141.019 255.541 -140.08L255.108 -139.575ZM68.0512 -142.246L67.6181 -142.824C68.701 -143.762 69.8561 -144.629 71.0112 -145.495L71.4444 -144.917C70.2893 -144.051 69.1341 -143.113 68.0512 -142.246ZM248.394 -144.99C247.238 -145.856 246.083 -146.722 244.928 -147.589L245.361 -148.166C246.517 -147.3 247.744 -146.434 248.827 -145.567L248.394 -144.99ZM74.9097 -147.516L74.4766 -148.094C75.6317 -148.96 76.859 -149.754 78.0141 -150.549L78.4473 -149.971C77.2921 -149.177 76.0648 -148.311 74.9097 -147.516ZM241.391 -150.043C240.163 -150.837 239.008 -151.632 237.781 -152.426L238.142 -153.003C239.369 -152.209 240.597 -151.415 241.752 -150.621L241.391 -150.043ZM82.057 -152.353L81.696 -152.931C82.9233 -153.725 84.1506 -154.447 85.3779 -155.169L85.7389 -154.519C84.5116 -153.87 83.2843 -153.075 82.057 -152.353ZM234.099 -154.664C232.872 -155.386 231.572 -156.108 230.345 -156.83L230.706 -157.479C232.005 -156.757 233.233 -156.035 234.46 -155.313L234.099 -154.664ZM89.493 -156.685L89.1321 -157.335C90.3594 -158.057 91.6589 -158.707 92.9584 -159.356L93.3194 -158.707C92.0199 -158.129 90.7204 -157.407 89.493 -156.685ZM226.519 -158.851C225.219 -159.501 223.92 -160.15 222.62 -160.8L222.909 -161.45C224.208 -160.8 225.508 -160.15 226.807 -159.501L226.519 -158.851ZM97.1457 -160.656L96.8569 -161.306C98.1564 -161.955 99.4559 -162.533 100.755 -163.11L101.044 -162.461C99.7447 -161.883 98.4452 -161.306 97.1457 -160.656ZM218.649 -162.533C217.35 -163.11 215.978 -163.688 214.679 -164.193L214.967 -164.843C216.339 -164.266 217.639 -163.76 219.01 -163.183L218.649 -162.533ZM105.015 -164.121L104.726 -164.771C106.026 -165.349 107.397 -165.854 108.769 -166.359L108.986 -165.709C107.686 -165.204 106.387 -164.699 105.015 -164.121ZM210.636 -165.854C209.264 -166.359 207.892 -166.865 206.521 -167.298L206.737 -167.948C208.109 -167.514 209.481 -167.009 210.852 -166.504L210.636 -165.854ZM113.101 -167.153L112.884 -167.803C114.256 -168.236 115.628 -168.742 116.999 -169.103L117.216 -168.381C115.844 -168.092 114.472 -167.659 113.101 -167.153ZM202.406 -168.597C201.034 -169.03 199.662 -169.391 198.218 -169.825L198.435 -170.547C199.807 -170.186 201.25 -169.752 202.622 -169.319L202.406 -168.597ZM121.403 -169.68L121.187 -170.402C122.558 -170.763 124.002 -171.124 125.374 -171.485L125.518 -170.763C124.219 -170.474 122.775 -170.041 121.403 -169.68ZM194.103 -170.835C192.731 -171.196 191.288 -171.485 189.916 -171.774L190.06 -172.496C191.504 -172.207 192.876 -171.918 194.32 -171.557L194.103 -170.835ZM129.778 -171.702L129.633 -172.424C131.005 -172.712 132.449 -173.001 133.893 -173.29L134.037 -172.568C132.593 -172.279 131.222 -171.99 129.778 -171.702ZM185.656 -172.64C184.212 -172.857 182.841 -173.146 181.397 -173.362L181.469 -174.084C182.913 -173.867 184.357 -173.651 185.729 -173.362L185.656 -172.64ZM138.297 -173.29L138.224 -174.012C139.668 -174.228 141.112 -174.445 142.556 -174.589L142.628 -173.867C141.184 -173.651 139.741 -173.434 138.297 -173.29ZM177.065 -173.867C175.621 -174.012 174.177 -174.156 172.734 -174.301L172.806 -175.023C174.25 -174.878 175.694 -174.734 177.137 -174.589L177.065 -173.867ZM146.888 -174.301L146.816 -175.023C148.26 -175.167 149.703 -175.239 151.147 -175.311L151.219 -174.589C149.776 -174.517 148.332 -174.373 146.888 -174.301ZM168.474 -174.589C167.03 -174.662 165.586 -174.734 164.142 -174.806V-175.528C165.586 -175.456 167.03 -175.456 168.474 -175.311V-174.589ZM155.479 -174.806V-175.528C156.923 -175.6 158.367 -175.6 159.811 -175.6V-174.878C158.367 -174.878 156.923 -174.806 155.479 -174.806Z" fill="white"/>
<path d="M86.8782 67.6293V33.5492H93.8999L108.411 56.3216V33.5492H115.069V67.6293H107.891L93.5358 45.4327V67.6293H86.8782Z" fill="white"/>
<path d="M120.426 42.9722H127.24V67.6293H120.426V42.9722ZM120.426 33.5492H127.24V39.5695H120.426V33.5492Z" fill="white"/>
<path d="M138.579 54.8558C138.579 57.6303 139.151 59.672 140.295 60.9808C141.44 62.2895 142.844 62.9701 144.508 62.9701C146.069 62.9701 147.421 62.3419 148.461 61.1378C149.502 59.9338 150.022 57.9444 150.022 55.1699C150.022 52.6047 149.502 50.6677 148.409 49.4113C147.317 48.1549 145.965 47.5267 144.404 47.5267C142.74 47.5267 141.336 48.1549 140.243 49.359C139.099 50.6154 138.579 52.4476 138.579 54.8558ZM131.817 42.9722H138.163V46.5844C138.995 45.328 140.087 44.3333 141.492 43.5481C142.896 42.7628 144.456 42.3964 146.173 42.3964C149.137 42.3964 151.686 43.4957 153.767 45.7468C155.847 47.9979 156.887 51.1389 156.887 55.1175C156.887 59.2532 155.847 62.4466 153.715 64.75C151.634 67.0534 149.085 68.2051 146.069 68.2051C144.664 68.2051 143.364 67.9434 142.22 67.3675C141.076 66.844 139.827 65.9017 138.579 64.5929V77H131.765V42.9722H131.817Z" fill="white"/>
<path d="M175.456 53.1806C175.404 51.296 174.884 49.8301 173.948 48.8878C172.959 47.8932 171.815 47.422 170.411 47.422C168.902 47.422 167.706 47.9455 166.718 48.9925C165.73 50.0395 165.261 51.453 165.313 53.2329H175.456V53.1806ZM175.04 59.7767L181.802 60.8761C180.917 63.2842 179.565 65.0641 177.693 66.3205C175.82 67.5769 173.479 68.2051 170.619 68.2051C166.146 68.2051 162.817 66.7917 160.684 64.0171C158.968 61.766 158.136 58.9391 158.136 55.5363C158.136 51.453 159.228 48.2596 161.465 45.9039C163.701 43.6004 166.51 42.4487 169.943 42.4487C173.792 42.4487 176.808 43.6528 178.993 46.0609C181.229 48.469 182.27 52.1859 182.166 57.2115H165.105C165.157 59.1485 165.678 60.6667 166.77 61.7137C167.81 62.813 169.11 63.3365 170.671 63.3365C171.711 63.3365 172.647 63.0748 173.375 62.4989C174.156 61.9231 174.676 61.0331 175.04 59.7767Z" fill="white"/>
<path d="M187.471 35.4861H189.603C190.072 35.4861 190.384 35.4337 190.644 35.329C190.904 35.2243 191.112 35.0673 191.216 34.8579C191.372 34.6485 191.424 34.4391 191.424 34.1773C191.424 33.8109 191.268 33.5491 191.06 33.3397C190.8 33.1303 190.384 32.9733 189.864 32.9733H187.523V35.4861H187.471ZM186.483 39.6218V32.188H189.759C190.436 32.188 190.904 32.2404 191.268 32.3974C191.632 32.5545 191.892 32.7639 192.1 33.1303C192.308 33.4444 192.412 33.8632 192.412 34.2297C192.412 34.7532 192.256 35.2243 191.892 35.5908C191.528 35.9572 191.008 36.1666 190.332 36.2714C190.592 36.3761 190.8 36.5331 190.904 36.6378C191.164 36.8996 191.476 37.2137 191.736 37.6325L193.036 39.6741H191.788L190.8 38.1036C190.488 37.6325 190.28 37.3184 190.072 37.0566C189.864 36.7949 189.707 36.6378 189.551 36.5854C189.395 36.4807 189.239 36.4284 189.083 36.376C188.979 36.376 188.771 36.3237 188.511 36.3237H187.367V39.6218H186.483Z" fill="white"/>
<path d="M189.447 44.0192C185.078 44.0192 181.489 40.4594 181.489 36.0096C181.489 31.5598 185.078 28 189.447 28C193.817 28 197.405 31.6122 197.405 36.0096C197.405 40.4071 193.817 44.0192 189.447 44.0192ZM189.447 29.5182C185.859 29.5182 182.946 32.4498 182.946 36.0096C182.946 39.6218 185.859 42.5011 189.447 42.5011C193.036 42.5011 195.949 39.5694 195.949 36.0096C195.949 32.4498 193.036 29.5182 189.447 29.5182Z" fill="white"/>
<path d="M190.384 56.3216H197.769V58.7297H193.088V61.6613H197.457V64.0171H193.088V69.1998H190.384V56.3216Z" fill="white"/>
<path d="M201.41 65.4829C201.514 66.6869 202.607 67.2628 203.907 67.2628C204.843 67.2628 205.571 67.1057 206.352 66.8963L206.716 68.8857C205.831 69.2521 204.739 69.4615 203.543 69.4615C200.578 69.4615 198.862 67.6292 198.862 64.6976C198.862 62.3418 200.266 59.672 203.283 59.672C206.144 59.672 207.184 62.0277 207.184 64.3312C207.184 64.8547 207.132 65.2735 207.08 65.4829H201.41ZM204.635 63.4936C204.635 62.7606 204.323 61.6089 203.075 61.6089C201.93 61.6089 201.462 62.7083 201.41 63.4936H204.635Z" fill="white"/>
<path d="M210.721 59.829L211.917 64.1741C212.125 64.9594 212.281 65.6923 212.437 66.4775H212.489C212.645 65.6923 212.801 65.0117 212.957 64.1741L214.102 59.829H216.962L213.685 69.1998H210.929L207.704 59.829H210.721Z" fill="white"/>
<path d="M220.083 65.4829C220.187 66.6869 221.279 67.2628 222.58 67.2628C223.516 67.2628 224.244 67.1057 225.024 66.8963L225.388 68.8857C224.504 69.2521 223.412 69.4615 222.216 69.4615C219.251 69.4615 217.534 67.6292 217.534 64.6976C217.534 62.3418 218.939 59.672 221.955 59.672C224.816 59.672 225.856 62.0277 225.856 64.3312C225.856 64.8547 225.804 65.2735 225.752 65.4829H220.083ZM223.308 63.4936C223.308 62.7606 222.996 61.6089 221.747 61.6089C220.603 61.6089 220.135 62.7083 220.083 63.4936H223.308Z" fill="white"/>
<path d="M227.469 62.9177C227.469 61.5566 227.417 60.6143 227.417 59.8291H229.757L229.861 61.5566H229.913C230.382 60.1955 231.422 59.6197 232.306 59.6197C232.566 59.6197 232.67 59.6197 232.878 59.672V62.4466C232.67 62.3942 232.462 62.3419 232.15 62.3419C231.162 62.3419 230.486 62.9177 230.278 63.8077C230.226 64.0171 230.225 64.2265 230.225 64.4359V69.1998H227.469V62.9177Z" fill="white"/>
</g>
<defs>
<linearGradient id="paint0_linear_306_3554" x1="154.924" y1="188.482" x2="160.699" y2="-59.8679" gradientUnits="userSpaceOnUse">
<stop stop-color="#00A7E0"/>
<stop offset="1" stop-color="#2980C3"/>
</linearGradient>
<clipPath id="clip0_306_3554">
<rect width="320" height="132" fill="white"/>
</clipPath>
</defs>
</svg>
