<svg width="269" height="69" viewBox="0 0 269 69" fill="none" xmlns="http://www.w3.org/2000/svg">
<g clip-path="url(#clip0_20_256)">
<path d="M6.63806 34.7839C6.63806 29.786 6.63806 24.7882 6.63806 19.7335C6.69557 11.5552 10.8934 6.50058 19.1166 5.42149C24.4646 4.73997 29.985 4.73997 35.3905 5.47829C42.9236 6.61416 47.0064 11.2713 47.4665 18.768C47.4665 19.052 47.4665 19.336 47.524 19.6199C47.6965 25.0154 47.6965 25.0154 42.3485 25.0154C41.8885 25.0154 41.371 25.0154 40.9109 25.0154C35.908 25.0154 35.908 25.0154 35.563 20.0175C35.333 16.837 34.1829 15.5876 30.9626 15.3604C28.3749 15.2468 25.7872 15.2468 23.1994 15.3604C20.1517 15.5308 18.7716 16.8938 18.7716 19.8471C18.7141 29.786 18.7141 39.7249 18.7716 49.6071C18.7716 52.5603 20.1517 53.9234 23.1994 54.0938C25.8447 54.2642 28.5474 54.2074 31.2501 54.0938C33.9528 53.9802 35.448 52.5035 35.563 49.7774C35.563 49.3231 35.6205 48.812 35.6205 48.3576C35.7355 42.3943 35.7355 42.3375 29.6975 41.9967C27.7423 41.8831 26.9948 41.088 26.9948 39.157C27.1673 30.6947 25.9597 31.8874 34.1829 31.7738C37.6332 31.717 41.0834 31.7738 44.5337 31.7738C46.0864 31.7738 47.5815 32.001 47.524 33.9888C47.3515 40.5769 48.2715 47.2217 46.9489 53.8098C45.7413 59.8299 40.9109 63.9191 34.5854 64.1463C29.64 64.3167 24.6371 64.3167 19.6341 64.1463C12.331 63.9759 6.98309 58.4669 6.69557 51.2541C6.69557 51.0837 6.69557 50.8565 6.69557 50.6861C6.63806 45.3475 6.63806 40.0657 6.63806 34.7839Z" fill="#F5F4F4"/>
<path d="M240.625 64.2599C236.887 64.1464 232.287 64.8847 227.917 62.6129C222.971 60.0004 219.291 52.2197 220.843 47.0514C221.188 45.9723 221.879 45.518 222.971 45.518C225.444 45.518 227.974 45.518 230.447 45.518C231.999 45.518 232.517 46.4267 232.689 47.8465C233.322 53.5259 234.127 54.2074 239.82 54.2642C240.855 54.2642 241.948 54.2642 242.983 54.2642C248.963 54.2074 251.091 51.6517 250.113 45.802C249.653 43.1894 247.756 42.0536 245.398 41.4288C240.855 40.2362 236.14 40.1226 231.597 38.8163C224.984 36.8853 221.649 33.2505 220.843 26.4353C220.441 23.1412 220.498 19.8472 220.958 16.5532C221.764 11.1577 225.616 6.84141 231.022 5.81912C237.577 4.62645 244.19 4.56966 250.688 5.81912C257.877 7.18217 262.937 15.4741 261.154 22.4029C260.809 23.7092 259.947 23.9931 258.797 23.9931C256.496 23.9931 254.196 23.9363 251.896 23.9931C249.883 24.0499 249.251 23.0276 249.136 21.2102C248.848 16.4396 247.871 15.5877 243.04 15.3605C242.005 15.3037 240.913 15.3037 239.878 15.3037C233.84 15.4173 232.402 16.7803 232.402 22.6869C232.402 26.3217 233.897 27.9687 237.922 28.6502C242.638 29.4453 247.411 29.6725 252.011 31.2627C258.337 33.4777 262.017 38.1916 262.132 44.8365C262.189 48.1873 262.534 51.5949 261.269 54.9458C259.142 60.5683 254.599 64.0328 248.503 64.2031C246.261 64.3167 243.845 64.2599 240.625 64.2599Z" fill="#F5F4F4"/>
<path d="M124.12 64.2599C121.475 64.0328 117.91 64.7143 114.402 63.692C106.006 61.2499 103.936 54.0371 104.454 47.2218C104.511 46.0291 105.374 45.5748 106.409 45.518C108.997 45.4612 111.584 45.4612 114.172 45.518C115.897 45.5748 116.3 46.6539 116.415 48.1873C116.76 53.1284 117.852 54.1507 122.97 54.2642C124.58 54.321 126.248 54.321 127.858 54.2642C131.654 54.1507 133.264 52.8444 133.666 49.7207C134.299 44.9501 133.206 42.7919 129.526 41.5424C126.421 40.4633 123.085 40.5201 119.923 39.8954C107.559 37.5101 104.339 33.7049 104.339 21.267C104.339 10.4762 109.629 5.1376 120.498 5.1376C124.983 5.1376 129.468 4.74005 133.954 5.64875C141.372 7.18218 146.547 14.9629 144.822 22.2325C144.535 23.482 143.845 23.9363 142.579 23.9363C140.164 23.9363 137.807 23.8796 135.391 23.9363C133.666 23.9931 133.091 23.1412 132.919 21.551C132.344 16.1556 131.424 15.4173 125.903 15.3037C125.155 15.3037 124.35 15.3037 123.603 15.3037C117.45 15.3605 116.185 16.61 116.185 22.6301C116.185 26.4353 117.507 27.9687 121.533 28.6502C126.363 29.3886 131.193 29.7861 135.909 31.3195C141.889 33.3073 144.937 37.5101 145.512 43.4734C145.857 46.8242 145.972 50.2887 145.225 53.6395C143.787 59.8868 138.842 63.976 132.344 64.2032C129.928 64.3167 127.456 64.2599 124.12 64.2599Z" fill="#F5F4F4"/>
<path d="M201.464 39.6114C201.464 46.8242 201.407 53.9802 201.522 61.1931C201.579 63.4648 200.832 64.3735 198.417 64.3735C189.503 64.3735 189.503 64.4303 189.503 55.6273C189.503 43.3598 189.388 31.0356 189.561 18.7681C189.618 15.9284 188.698 15.1333 185.996 15.3605C183.638 15.5876 181.223 15.3605 178.807 15.4173C176.565 15.474 175.76 14.5086 175.76 12.3504C175.817 4.45605 175.012 5.19437 182.718 5.19437C192.379 5.19437 202.039 5.25116 211.758 5.13757C214.345 5.13757 215.38 5.98948 215.323 8.602C215.208 16.042 215.898 15.3605 208.537 15.3605C201.464 15.3605 201.464 15.3605 201.464 22.3461C201.464 28.0823 201.464 33.8184 201.464 39.6114Z" fill="#F5F4F4"/>
<path d="M75.9888 64.2599C70.6984 64.2599 65.4654 64.1463 60.175 64.3167C57.5298 64.3735 56.4372 63.2376 56.4372 60.8523C56.4372 51.7085 56.4372 42.5079 56.4372 33.3641C56.4372 30.8084 57.6448 29.6157 60.3475 29.6157C70.8709 29.6725 81.3943 29.6157 91.9177 29.6725C95.1954 29.6725 96.1155 30.5812 96.1155 33.932C96.1155 34.9543 96.173 36.0334 96.1155 37.0557C95.8855 39.3275 94.3329 39.9522 92.2627 39.9522C84.7871 39.9522 77.3114 40.0658 69.8358 39.8954C67.5356 39.8386 66.7881 40.4633 66.9031 42.7351C67.0756 45.7452 67.0181 48.812 66.9031 51.8221C66.8456 53.6963 67.4781 54.2642 69.3758 54.2074C76.7364 54.0938 84.097 54.2074 91.5151 54.1506C93.2978 54.1506 95.4255 54.1506 95.828 56.1384C96.288 58.5238 96.8631 61.1931 95.1954 63.5216C94.4479 64.5439 93.3553 64.3735 92.3202 64.3735C86.9147 64.2599 81.4518 64.2599 75.9888 64.2599Z" fill="#F5F4F4"/>
<path d="M155.46 34.7839C155.46 26.0944 155.575 17.405 155.403 8.71553C155.345 5.93263 156.323 5.08073 159.083 5.13752C168.629 5.36469 167.306 3.88806 167.364 13.2022C167.421 28.9909 167.364 44.7228 167.364 60.5115C167.364 64.3167 167.364 64.3167 163.626 64.3167C161.901 64.3167 160.176 64.2031 158.451 64.3735C156.151 64.6006 155.403 63.6351 155.46 61.477C155.46 52.5035 155.46 43.6437 155.46 34.7839Z" fill="#F5F4F4"/>
<path d="M76.4489 17.7458C71.216 17.7458 65.9255 17.8026 60.6926 17.7458C57.3573 17.7458 56.0347 16.3827 55.9772 13.0887C55.8047 4.9104 56.0347 4.68323 64.3154 4.68323C73.5737 4.68323 82.8319 4.68323 92.1477 4.68323C95.4255 4.68323 96.9781 6.21666 97.0931 9.5107C97.1506 10.817 97.1506 12.18 97.0931 13.4863C96.9206 16.2124 95.3105 17.7458 92.5502 17.7458C87.1448 17.8026 81.7968 17.7458 76.4489 17.7458Z" fill="#ED1B41"/>
</g>
<defs>
<clipPath id="clip0_20_256">
<rect width="255.724" height="59.6335" fill="white" transform="translate(6.63806 4.68323)"/>
</clipPath>
</defs>
</svg>
