<svg width="185" height="43" viewBox="0 0 185 43" fill="none" xmlns="http://www.w3.org/2000/svg">
<g clip-path="url(#clip0_7_132)">
<path d="M64.4085 25.8356C64.5355 26.1916 64.7132 26.5222 64.9417 26.8273C65.1702 27.1325 65.424 27.3868 65.7287 27.5902C66.0333 27.7936 66.3634 27.9716 66.7188 28.0733C67.0742 28.175 67.455 28.2513 67.8612 28.2513C68.8514 28.2513 69.6384 27.997 70.2223 27.463C70.4254 27.3359 70.6031 27.2342 70.7808 27.1579C70.9585 27.107 71.1363 27.0562 71.314 27.0562C71.5932 27.0562 71.8217 27.1325 72.0502 27.2596C72.2533 27.4122 72.431 27.5902 72.5834 27.819C72.6849 27.9716 72.7611 28.1496 72.7865 28.3276C72.8372 28.5056 72.8372 28.6836 72.8118 28.8616C72.7865 29.0396 72.7357 29.2176 72.6341 29.3956C72.5326 29.5736 72.4056 29.7516 72.2279 29.8788C72.0248 30.0822 71.771 30.2602 71.4917 30.4382C71.2124 30.6162 70.9078 30.7688 70.5523 30.9213C70.1969 31.0485 69.7907 31.1756 69.3591 31.2519C68.9275 31.3282 68.4198 31.3791 67.8612 31.3791C66.8965 31.3791 66.0079 31.2011 65.1448 30.8451C64.307 30.4891 63.5707 29.9805 62.936 29.3448C62.3013 28.709 61.7936 27.9716 61.4382 27.1325C61.0574 26.2933 60.8796 25.3779 60.8796 24.437C60.8796 23.4707 61.0574 22.5807 61.4382 21.7161C61.7936 20.877 62.3013 20.1396 62.936 19.5038C63.5707 18.8681 64.307 18.385 65.1448 18.0035C65.9826 17.6475 66.8965 17.4695 67.8612 17.4695C68.8006 17.4695 69.7145 17.6475 70.5523 18.0035C71.3901 18.3596 72.1264 18.8427 72.7611 19.4784C73.3958 20.0887 73.9035 20.8261 74.2843 21.6653C74.6651 22.5044 74.8429 23.3944 74.8682 24.3353C74.8682 24.793 74.7159 25.149 74.4367 25.4287C74.1574 25.7085 73.7766 25.8356 73.3196 25.8356H64.4085ZM71.6186 23.2164C71.5171 22.8096 71.3394 22.4536 71.1109 22.1484C70.8824 21.8179 70.6031 21.5636 70.2985 21.3347C69.9684 21.1059 69.613 20.9533 69.2322 20.8261C68.826 20.699 68.4198 20.6481 67.9628 20.6481C67.5058 20.6481 67.0996 20.699 66.6934 20.8261C66.3126 20.9533 65.9572 21.1313 65.6271 21.3601C65.3225 21.589 65.0432 21.8687 64.8147 22.1739C64.5862 22.479 64.4339 22.835 64.307 23.2419H71.6186V23.2164Z" fill="#1C75BC"/>
<path d="M84.5917 28.0479C84.8202 28.0479 85.0233 28.0987 85.2264 28.175C85.4295 28.2513 85.5819 28.3785 85.7342 28.531C85.8611 28.6836 85.9881 28.8616 86.0642 29.0396C86.1404 29.243 86.1912 29.4465 86.1912 29.6499C86.1912 30.1076 86.0388 30.4636 85.7596 30.7688C85.4803 31.0485 85.0995 31.201 84.6425 31.201C83.9824 31.201 83.3731 31.0993 82.7892 30.8705C82.2053 30.6416 81.6975 30.3365 81.2659 29.9296C80.8344 29.5228 80.4789 29.0396 80.2251 28.4802C79.9712 27.9207 79.8442 27.285 79.8188 26.6239V14.0112C79.8188 13.7824 79.8696 13.5789 79.9458 13.3755C80.0219 13.1721 80.1489 13.0195 80.2758 12.8669C80.4028 12.7144 80.5805 12.6126 80.7582 12.5364C80.9359 12.4601 81.139 12.4092 81.3675 12.4092C81.596 12.4092 81.7991 12.4601 82.0022 12.5364C82.2053 12.6126 82.3576 12.7398 82.5099 12.8669C82.6623 13.0195 82.7892 13.1721 82.8654 13.3755C82.9415 13.5789 82.9923 13.7824 82.9923 14.0112V26.5476C82.9923 27.0562 83.1446 27.4376 83.4493 27.6919C83.7032 27.9207 84.084 28.0479 84.5917 28.0479Z" fill="#1C75BC"/>
<path d="M93.6297 25.8356C93.7567 26.1916 93.9344 26.5222 94.1629 26.8273C94.3913 27.1325 94.6452 27.3868 94.9499 27.5902C95.2545 27.7936 95.5846 27.9716 95.94 28.0733C96.2954 28.175 96.6762 28.2513 97.0824 28.2513C98.0726 28.2513 98.8596 27.997 99.4435 27.463C99.6466 27.3359 99.8243 27.2342 100.002 27.1579C100.18 27.107 100.357 27.0562 100.535 27.0562C100.814 27.0562 101.043 27.1325 101.271 27.2596C101.475 27.4122 101.652 27.5902 101.805 27.819C101.906 27.9716 101.982 28.1496 102.008 28.3276C102.058 28.5056 102.058 28.6836 102.033 28.8616C102.008 29.0396 101.957 29.2176 101.855 29.3956C101.754 29.5736 101.627 29.7516 101.449 29.8788C101.246 30.0822 100.992 30.2602 100.713 30.4382C100.434 30.6162 100.129 30.7688 99.7735 30.9213C99.4181 31.0485 99.0119 31.1756 98.5803 31.2519C98.1487 31.3282 97.641 31.3791 97.0824 31.3791C96.1177 31.3791 95.2291 31.2011 94.366 30.8451C93.5282 30.4891 92.7919 29.9805 92.1572 29.3448C91.5225 28.709 91.0148 27.9716 90.6594 27.1325C90.2785 26.2933 90.1008 25.3779 90.1008 24.437C90.1008 23.4707 90.2785 22.5807 90.6594 21.7161C91.0148 20.877 91.5225 20.1396 92.1572 19.5038C92.7919 18.8681 93.5282 18.385 94.366 18.0035C95.2038 17.6475 96.1177 17.4695 97.0824 17.4695C98.0218 17.4695 98.9357 17.6475 99.7735 18.0035C100.611 18.3596 101.348 18.8427 101.982 19.4784C102.617 20.0887 103.125 20.8261 103.506 21.6653C103.886 22.5044 104.064 23.3944 104.089 24.3353C104.089 24.793 103.937 25.149 103.658 25.4287C103.379 25.7085 102.998 25.8356 102.541 25.8356H93.6297ZM100.814 23.2164C100.713 22.8096 100.535 22.4536 100.307 22.1484C100.078 21.8179 99.7989 21.5636 99.4943 21.3347C99.1642 21.1059 98.8088 20.9533 98.428 20.8261C98.0218 20.699 97.6156 20.6481 97.1586 20.6481C96.7016 20.6481 96.2954 20.699 95.8892 20.8261C95.5084 20.9533 95.153 21.1313 94.8229 21.3601C94.5183 21.589 94.239 21.8687 94.0105 22.1739C93.782 22.479 93.6297 22.835 93.5028 23.2419H100.814V23.2164Z" fill="#1C75BC"/>
<path d="M115.666 23.8013L120.134 28.5819C120.287 28.7345 120.388 28.887 120.465 29.0905C120.541 29.2939 120.566 29.4719 120.566 29.7008C120.566 29.9042 120.541 30.1076 120.439 30.311C120.363 30.5145 120.236 30.6925 120.084 30.845C119.779 31.1248 119.398 31.2773 118.992 31.2773C118.789 31.2773 118.586 31.2265 118.383 31.1502C118.18 31.0739 118.027 30.9468 117.875 30.7688L113.483 25.8864L112.214 27.107V29.6499C112.214 29.8533 112.163 30.0568 112.087 30.2602C112.01 30.4382 111.884 30.6162 111.757 30.7433C111.604 30.8705 111.452 30.9976 111.274 31.0739C111.096 31.1502 110.893 31.201 110.665 31.201C110.436 31.201 110.259 31.1502 110.056 31.0739C109.853 30.9976 109.7 30.8705 109.548 30.7433C109.396 30.6162 109.294 30.4382 109.192 30.2602C109.091 30.0822 109.065 29.8788 109.065 29.6499V13.9604C109.065 13.7569 109.116 13.5535 109.192 13.3501C109.269 13.1721 109.396 12.9941 109.548 12.8669C109.7 12.7398 109.853 12.6126 110.056 12.5364C110.259 12.4601 110.462 12.4092 110.665 12.4092C110.893 12.4092 111.096 12.4601 111.274 12.5364C111.452 12.6126 111.63 12.7398 111.757 12.8669C111.884 12.9941 112.01 13.1721 112.087 13.3501C112.163 13.5281 112.214 13.7315 112.214 13.9604V22.9621L117.19 18.0798C117.342 17.9272 117.494 17.8255 117.672 17.7492C117.85 17.673 118.027 17.6475 118.205 17.6475C118.408 17.6475 118.586 17.6984 118.789 17.7747C118.992 17.851 119.17 17.9781 119.322 18.1561C119.474 18.3087 119.576 18.4867 119.652 18.6647C119.728 18.8427 119.779 19.0461 119.754 19.2495C119.754 19.453 119.703 19.631 119.627 19.8344C119.551 20.0378 119.424 20.1904 119.271 20.343L115.666 23.8013Z" fill="#1C75BC"/>
<path d="M128.944 17.6475H134.022C134.25 17.6475 134.453 17.6984 134.656 17.7747C134.859 17.851 135.012 17.9781 135.164 18.1053C135.316 18.2578 135.418 18.4104 135.519 18.6138C135.596 18.8173 135.646 19.0207 135.646 19.2495C135.646 19.453 135.596 19.6564 135.519 19.8598C135.443 20.0378 135.316 20.2158 135.164 20.3684C135.012 20.521 134.859 20.6227 134.656 20.699C134.453 20.7753 134.25 20.8261 134.022 20.8261H128.944V24.5133C128.944 25.0219 129.046 25.505 129.249 25.9627C129.452 26.4205 129.706 26.8019 130.061 27.1325C130.391 27.463 130.797 27.7428 131.254 27.9208C131.711 28.1242 132.219 28.2005 132.727 28.2005C133.184 28.2005 133.615 28.1242 134.022 27.997C134.428 27.8699 134.783 27.641 135.139 27.3359C135.316 27.1833 135.494 27.0562 135.697 26.9545C135.9 26.8527 136.129 26.8019 136.332 26.8019C136.687 26.8019 137.017 26.929 137.297 27.1833C137.474 27.3359 137.601 27.5139 137.677 27.7427C137.753 27.9462 137.779 28.175 137.753 28.4039C137.728 28.6328 137.677 28.8616 137.576 29.065C137.474 29.2685 137.347 29.4719 137.17 29.6245C136.586 30.1839 135.926 30.6162 135.164 30.8959C134.402 31.1756 133.59 31.3282 132.727 31.3282C131.762 31.3282 130.873 31.1502 130.036 30.7942C129.198 30.4382 128.462 29.9296 127.827 29.3193C127.192 28.709 126.71 27.9716 126.329 27.1325C125.974 26.2933 125.796 25.3779 125.796 24.437V15.1047C125.796 14.8758 125.847 14.6724 125.923 14.4689C125.999 14.2655 126.126 14.1129 126.278 13.9604C126.431 13.8078 126.583 13.7061 126.786 13.6298C126.989 13.5535 127.192 13.5027 127.395 13.5027C127.598 13.5027 127.802 13.5535 128.005 13.6298C128.182 13.7061 128.36 13.8332 128.512 13.9604C128.665 14.1129 128.766 14.2655 128.842 14.4689C128.919 14.6724 128.969 14.8758 128.969 15.1047V17.6475H128.944Z" fill="#1C75BC"/>
<path d="M144.786 29.6499C144.786 29.8533 144.76 30.0568 144.659 30.2602C144.583 30.4636 144.481 30.6162 144.329 30.7688C144.177 30.8959 144.024 31.023 143.847 31.0993C143.669 31.1756 143.466 31.2265 143.237 31.2265C143.009 31.2265 142.806 31.1756 142.603 31.0993C142.399 31.023 142.222 30.8959 142.095 30.7688C141.942 30.6416 141.841 30.4636 141.739 30.2602C141.638 30.0568 141.612 29.8533 141.612 29.6499V24.9456C141.612 23.9539 141.816 23.013 142.196 22.123C142.577 21.233 143.11 20.4701 143.77 19.809C144.43 19.1478 145.192 18.6392 146.081 18.2324C146.969 17.851 147.909 17.6475 148.899 17.6475H148.924C149.457 17.6475 149.863 17.8001 150.143 18.1052C150.422 18.4104 150.574 18.7664 150.574 19.2241C150.574 19.453 150.523 19.6564 150.447 19.8598C150.371 20.0633 150.244 20.2158 150.092 20.3684C149.94 20.521 149.762 20.6227 149.559 20.699C149.356 20.7753 149.153 20.8261 148.924 20.8261H148.899C148.34 20.8261 147.807 20.9278 147.325 21.1567C146.817 21.3601 146.385 21.6653 146.03 22.0213C145.649 22.4027 145.37 22.835 145.141 23.3181C144.913 23.8267 144.811 24.3353 144.811 24.9201V29.6499H144.786Z" fill="#1C75BC"/>
<path d="M153.342 24.437C153.342 23.4707 153.519 22.5807 153.9 21.7416C154.281 20.9024 154.763 20.165 155.398 19.5293C156.033 18.8935 156.769 18.4104 157.607 18.029C158.444 17.673 159.333 17.495 160.298 17.495C161.263 17.495 162.151 17.673 163.014 18.029C163.852 18.385 164.588 18.8935 165.223 19.5293C165.858 20.165 166.34 20.9024 166.695 21.7416C167.051 22.5807 167.229 23.4961 167.229 24.437C167.229 25.4033 167.051 26.2933 166.695 27.1325C166.34 27.9716 165.832 28.709 165.223 29.3448C164.588 29.9805 163.852 30.4636 163.014 30.8451C162.176 31.2011 161.263 31.3791 160.298 31.3791C159.358 31.3791 158.444 31.2011 157.607 30.8451C156.769 30.489 156.033 29.9805 155.398 29.3448C154.763 28.709 154.256 27.9716 153.9 27.1325C153.519 26.2933 153.342 25.3779 153.342 24.437ZM156.49 24.437C156.49 24.9456 156.591 25.4287 156.794 25.9119C156.997 26.3696 157.251 26.7765 157.607 27.1325C157.962 27.4885 158.343 27.7427 158.8 27.9462C159.257 28.1496 159.739 28.2513 160.272 28.2513C160.806 28.2513 161.288 28.1496 161.745 27.9462C162.202 27.7427 162.608 27.463 162.938 27.1325C163.268 26.7765 163.547 26.395 163.75 25.9119C163.954 25.4542 164.03 24.971 164.03 24.437C164.03 23.903 163.928 23.4199 163.75 22.9621C163.547 22.5044 163.294 22.0976 162.938 21.767C162.608 21.4364 162.202 21.1567 161.745 20.9533C161.288 20.7498 160.78 20.6481 160.272 20.6481C159.765 20.6481 159.282 20.7498 158.8 20.9533C158.343 21.1567 157.937 21.411 157.581 21.767C157.226 22.0976 156.972 22.5044 156.769 22.9621C156.591 23.4199 156.49 23.903 156.49 24.437Z" fill="#1C75BC"/>
<path d="M185 29.6753C185 29.9042 184.949 30.1076 184.873 30.2856C184.797 30.4636 184.67 30.6416 184.543 30.7942C184.416 30.9468 184.238 31.0485 184.061 31.1248C183.883 31.2011 183.68 31.2519 183.451 31.2519C183.248 31.2519 183.02 31.2011 182.842 31.1248C182.639 31.0485 182.461 30.9468 182.334 30.7942C182.182 30.6416 182.08 30.4891 181.979 30.2856C181.903 30.1076 181.852 29.8788 181.852 29.6753V24.259C181.852 24.1827 181.852 24.1319 181.877 24.081C181.852 23.5979 181.75 23.1656 181.598 22.7333C181.42 22.3264 181.192 21.945 180.887 21.6399C180.583 21.3347 180.227 21.0804 179.821 20.9024C179.415 20.7244 178.983 20.6227 178.501 20.6227C177.993 20.6227 177.536 20.7244 177.13 20.9024C176.724 21.0804 176.368 21.3347 176.064 21.6399C175.759 21.9704 175.53 22.3264 175.353 22.7587C175.175 23.191 175.099 23.6487 175.099 24.1573V29.6499C175.099 29.8788 175.073 30.0822 174.972 30.2602C174.87 30.4382 174.794 30.6162 174.642 30.7688C174.49 30.9213 174.337 31.0231 174.159 31.0993C173.982 31.1756 173.779 31.2265 173.55 31.2265C173.347 31.2265 173.144 31.1756 172.941 31.0993C172.738 31.0231 172.585 30.9213 172.433 30.7688C172.281 30.6162 172.154 30.4636 172.078 30.2602C172.002 30.0822 171.951 29.8533 171.951 29.6499V24.1827C171.951 23.2419 172.128 22.3773 172.458 21.5636C172.789 20.7499 173.246 20.0378 173.855 19.4276C174.439 18.8173 175.124 18.3341 175.937 18.0035C176.749 17.6475 177.612 17.4695 178.526 17.4695C179.465 17.4695 180.329 17.6475 181.116 18.0035C181.903 18.3596 182.614 18.8427 183.172 19.4276C183.756 20.0378 184.213 20.7499 184.543 21.5636C184.873 22.3773 185.051 23.2419 185.051 24.1827V29.6753H185Z" fill="#1C75BC"/>
<path d="M23.7882 32.2691C23.052 31.4808 21.808 29.8279 21.1479 28.8362C20.564 28.7853 19.9801 28.7345 19.4469 28.6836C18.1268 28.5565 16.832 28.3785 15.5626 28.2005C16.6797 30.6162 18.5584 33.4388 20.3863 35.4222C22.5442 37.7617 25.083 39.5925 27.9264 40.8894C30.6937 42.1354 33.6386 42.8474 36.6852 42.9746C39.7317 43.1017 42.7274 42.644 45.5709 41.6014C47.5003 40.9148 49.3282 39.974 50.9784 38.8043C51.5116 38.4228 51.867 37.838 51.9432 37.1514C52.0193 36.4902 51.7908 35.8291 51.3339 35.3205C50.5468 34.4814 49.2521 34.3288 48.3127 34.9899C40.671 40.33 30.1098 39.1603 23.7882 32.2691Z" fill="url(#paint0_linear_7_132)"/>
<path d="M52.451 30.2856C54.8907 30.2856 56.8684 28.3046 56.8684 25.861C56.8684 23.4174 54.8907 21.4364 52.451 21.4364C50.0113 21.4364 48.0335 23.4174 48.0335 25.861C48.0335 28.3046 50.0113 30.2856 52.451 30.2856Z" fill="#1C75BC"/>
<path d="M52.4509 5.31458C50.8769 4.01772 49.1505 2.94971 47.2719 2.08513C44.5046 0.839126 41.5596 0.127122 38.5131 -2.20034e-05C35.4666 -0.127166 32.4708 0.330552 29.6274 1.37313C26.6571 2.44114 23.9914 4.06858 21.6557 6.23002C19.6247 8.11175 17.9491 10.324 16.6797 12.7652L16.5274 13.0958L16.172 13.1212C13.6332 13.3246 11.3229 13.6298 9.2665 14.0366C6.75312 14.5452 4.7475 15.1809 3.27501 15.9438C0.660082 17.2915 0.050778 18.9698 2.70037e-06 20.1395C-0.0507726 21.3093 0.431593 23.0384 2.91959 24.615C4.31591 25.505 6.27076 26.2933 8.73336 27.0053C10.3582 27.463 12.1861 27.8953 14.1409 28.2513C16.1212 28.6073 18.2791 28.9125 20.5132 29.1413C22.5189 29.3447 24.5753 29.4973 26.6571 29.5736C33.3848 29.8533 45.317 29.7007 50.2422 28.709C50.3945 28.6836 50.5215 28.6582 50.6738 28.6327C51.7147 28.4039 52.4763 27.5139 52.5017 26.4713C52.5271 25.7593 52.2225 25.0727 51.6893 24.615C51.1308 24.1573 50.4199 23.9793 49.7091 24.1064C49.0744 24.2336 48.3889 24.3607 47.7034 24.4879C43.5653 25.149 32.7755 25.1999 26.8348 24.971C24.2452 24.8693 21.7065 24.6659 19.2692 24.3607C17.1367 24.1064 15.1311 23.7758 13.3031 23.3944C12.7192 23.2673 12.1353 23.1401 11.5768 23.013C8.53026 22.2756 6.77851 21.5127 5.83917 21.0041L4.67133 20.3684L5.88994 19.8344C6.85467 19.4021 8.68259 18.8172 11.7799 18.3087C12.44 18.207 13.1254 18.1052 13.8363 18.029C15.6388 17.8255 17.5937 17.673 19.6501 17.5967C20.3355 15.5115 21.3764 13.5789 22.7474 11.8498C23.3567 11.0869 24.0421 10.3495 24.753 9.68833C31.6077 3.35657 42.2451 3.026 49.4552 8.95089C50.3438 9.68833 51.6385 9.63747 52.5017 8.87461C52.9841 8.41689 53.2633 7.78117 53.238 7.0946C53.2633 6.38259 52.9587 5.74687 52.4509 5.31458Z" fill="#1C75BC"/>
</g>
<defs>
<linearGradient id="paint0_linear_7_132" x1="62.48" y1="48.05" x2="1.37215" y2="21.2894" gradientUnits="userSpaceOnUse">
<stop offset="0.3663" stop-color="#F7BD16"/>
<stop offset="0.4485" stop-color="#E1AC1E"/>
<stop offset="0.6" stop-color="#B28926"/>
<stop offset="0.8022" stop-color="#725A24"/>
<stop offset="1" stop-color="#3D3217"/>
</linearGradient>
<clipPath id="clip0_7_132">
<rect width="185" height="43" fill="white"/>
</clipPath>
</defs>
</svg>
