<svg width="200" height="47" viewBox="0 0 200 47" fill="none" xmlns="http://www.w3.org/2000/svg">
<g clip-path="url(#clip0)">
<path d="M41.3553 16.7481C42.1408 16.7481 42.7775 16.115 42.7775 15.334C42.7775 14.5529 42.1408 13.9198 41.3553 13.9198C40.5698 13.9198 39.9331 14.5529 39.9331 15.334C39.9331 16.115 40.5698 16.7481 41.3553 16.7481Z" fill="white"/>
<path d="M34.0212 15.3617C35.1762 15.3617 36.1126 14.4306 36.1126 13.282C36.1126 12.1335 35.1762 11.2024 34.0212 11.2024C32.8661 11.2024 31.9297 12.1335 31.9297 13.282C31.9297 14.4306 32.8661 15.3617 34.0212 15.3617Z" fill="white"/>
<path d="M35.2484 8.92863C36.1724 8.92863 36.9215 8.18376 36.9215 7.26491C36.9215 6.34607 36.1724 5.6012 35.2484 5.6012C34.3243 5.6012 33.5752 6.34607 33.5752 7.26491C33.5752 8.18376 34.3243 8.92863 35.2484 8.92863Z" fill="white"/>
<path d="M31.3721 5.68439C32.2037 5.68439 32.8779 5.014 32.8779 4.18704C32.8779 3.36008 32.2037 2.6897 31.3721 2.6897C30.5404 2.6897 29.8662 3.36008 29.8662 4.18704C29.8662 5.014 30.5404 5.68439 31.3721 5.68439Z" fill="white"/>
<path d="M30.0893 9.37231C30.7669 9.37231 31.3163 8.82607 31.3163 8.15225C31.3163 7.47843 30.7669 6.93219 30.0893 6.93219C29.4116 6.93219 28.8623 7.47843 28.8623 8.15225C28.8623 8.82607 29.4116 9.37231 30.0893 9.37231Z" fill="white"/>
<path d="M27.8583 14.613C28.7978 14.613 29.5593 13.8557 29.5593 12.9215C29.5593 11.9874 28.7978 11.2301 27.8583 11.2301C26.9188 11.2301 26.1572 11.9874 26.1572 12.9215C26.1572 13.8557 26.9188 14.613 27.8583 14.613Z" fill="white"/>
<path d="M16.2853 14.3912C17.7176 14.3912 18.8787 13.2366 18.8787 11.8124C18.8787 10.3882 17.7176 9.23364 16.2853 9.23364C14.853 9.23364 13.6919 10.3882 13.6919 11.8124C13.6919 13.2366 14.853 14.3912 16.2853 14.3912Z" fill="white"/>
<path d="M12.8558 17.9959C13.6412 17.9959 14.278 17.3627 14.278 16.5817C14.278 15.8007 13.6412 15.1675 12.8558 15.1675C12.0703 15.1675 11.4336 15.8007 11.4336 16.5817C11.4336 17.3627 12.0703 17.9959 12.8558 17.9959Z" fill="white"/>
<path d="M11.5169 20.3251C12.0097 20.3251 12.4092 19.9278 12.4092 19.4378C12.4092 18.9477 12.0097 18.5505 11.5169 18.5505C11.024 18.5505 10.6245 18.9477 10.6245 19.4378C10.6245 19.9278 11.024 20.3251 11.5169 20.3251Z" fill="white"/>
<path d="M5.82823 17.3581C6.41347 17.3581 6.88791 16.8864 6.88791 16.3044C6.88791 15.7225 6.41347 15.2507 5.82823 15.2507C5.24299 15.2507 4.76855 15.7225 4.76855 16.3044C4.76855 16.8864 5.24299 17.3581 5.82823 17.3581Z" fill="white"/>
<path d="M0.836587 24.6785C1.29862 24.6785 1.67317 24.3061 1.67317 23.8466C1.67317 23.3872 1.29862 23.0148 0.836587 23.0148C0.374553 23.0148 0 23.3872 0 23.8466C0 24.3061 0.374553 24.6785 0.836587 24.6785Z" fill="white"/>
<path d="M5.13097 24.8172C5.71621 24.8172 6.19064 24.3454 6.19064 23.7635C6.19064 23.1815 5.71621 22.7098 5.13097 22.7098C4.54572 22.7098 4.07129 23.1815 4.07129 23.7635C4.07129 24.3454 4.54572 24.8172 5.13097 24.8172Z" fill="white"/>
<path d="M27.0494 42.9516C27.4961 42.9516 27.8581 42.5916 27.8581 42.1475C27.8581 41.7034 27.4961 41.3434 27.0494 41.3434C26.6028 41.3434 26.2407 41.7034 26.2407 42.1475C26.2407 42.5916 26.6028 42.9516 27.0494 42.9516Z" fill="white"/>
<path d="M11.4056 26.3977C12.1911 26.3977 12.8278 25.7645 12.8278 24.9835C12.8278 24.2025 12.1911 23.5693 11.4056 23.5693C10.6201 23.5693 9.9834 24.2025 9.9834 24.9835C9.9834 25.7645 10.6201 26.3977 11.4056 26.3977Z" fill="white"/>
<path d="M12.3813 33.8012C14.0292 33.8012 15.3651 32.4728 15.3651 30.8342C15.3651 29.1956 14.0292 27.8672 12.3813 27.8672C10.7334 27.8672 9.39746 29.1956 9.39746 30.8342C9.39746 32.4728 10.7334 33.8012 12.3813 33.8012Z" fill="white"/>
<path d="M17.5126 32.4702C17.9131 32.4702 18.2377 32.1474 18.2377 31.7493C18.2377 31.3511 17.9131 31.0283 17.5126 31.0283C17.1122 31.0283 16.7876 31.3511 16.7876 31.7493C16.7876 32.1474 17.1122 32.4702 17.5126 32.4702Z" fill="white"/>
<path d="M36.1684 31.6384C36.7074 31.6384 37.1444 31.2039 37.1444 30.6679C37.1444 30.1319 36.7074 29.6974 36.1684 29.6974C35.6294 29.6974 35.1924 30.1319 35.1924 30.6679C35.1924 31.2039 35.6294 31.6384 36.1684 31.6384Z" fill="white"/>
<path d="M21.5282 35.1599C22.4677 35.1599 23.2293 34.4026 23.2293 33.4685C23.2293 32.5343 22.4677 31.777 21.5282 31.777C20.5887 31.777 19.8271 32.5343 19.8271 33.4685C19.8271 34.4026 20.5887 35.1599 21.5282 35.1599Z" fill="white"/>
<path d="M27.1054 33.7735C27.9217 33.7735 28.5834 33.1155 28.5834 32.3039C28.5834 31.4922 27.9217 30.8342 27.1054 30.8342C26.2891 30.8342 25.6274 31.4922 25.6274 32.3039C25.6274 33.1155 26.2891 33.7735 27.1054 33.7735Z" fill="white"/>
<path d="M32.8498 30.3351C33.8817 30.3351 34.7182 29.5034 34.7182 28.4773C34.7182 27.4513 33.8817 26.6195 32.8498 26.6195C31.8179 26.6195 30.9814 27.4513 30.9814 28.4773C30.9814 29.5034 31.8179 30.3351 32.8498 30.3351Z" fill="white"/>
<path d="M39.3473 34.7162C40.3483 34.7162 41.1599 33.9093 41.1599 32.9139C41.1599 31.9185 40.3483 31.1115 39.3473 31.1115C38.3462 31.1115 37.5347 31.9185 37.5347 32.9139C37.5347 33.9093 38.3462 34.7162 39.3473 34.7162Z" fill="white"/>
<path d="M34.1607 39.7906C35.5622 39.7906 36.6983 38.6608 36.6983 37.2673C36.6983 35.8737 35.5622 34.744 34.1607 34.744C32.7592 34.744 31.623 35.8737 31.623 37.2673C31.623 38.6608 32.7592 39.7906 34.1607 39.7906Z" fill="white"/>
<path d="M22.7552 43.423C24.3723 43.423 25.6833 42.1195 25.6833 40.5115C25.6833 38.9035 24.3723 37.6 22.7552 37.6C21.1381 37.6 19.8271 38.9035 19.8271 40.5115C19.8271 42.1195 21.1381 43.423 22.7552 43.423Z" fill="white"/>
<path d="M28.3323 38.6537C29.1024 38.6537 29.7266 38.033 29.7266 37.2673C29.7266 36.5016 29.1024 35.8808 28.3323 35.8808C27.5622 35.8808 26.938 36.5016 26.938 37.2673C26.938 38.033 27.5622 38.6537 28.3323 38.6537Z" fill="white"/>
<path d="M25.2369 36.7404C25.8067 36.7404 26.2687 36.2811 26.2687 35.7145C26.2687 35.1478 25.8067 34.6885 25.2369 34.6885C24.667 34.6885 24.2051 35.1478 24.2051 35.7145C24.2051 36.2811 24.667 36.7404 25.2369 36.7404Z" fill="white"/>
<path d="M17.1779 37.5445C18.0712 37.5445 18.7954 36.8245 18.7954 35.9363C18.7954 35.0481 18.0712 34.328 17.1779 34.328C16.2847 34.328 15.5605 35.0481 15.5605 35.9363C15.5605 36.8245 16.2847 37.5445 17.1779 37.5445Z" fill="white"/>
<path d="M17.2613 43.1457C17.9852 43.1457 18.572 42.5623 18.572 41.8425C18.572 41.1227 17.9852 40.5392 17.2613 40.5392C16.5375 40.5392 15.9507 41.1227 15.9507 41.8425C15.9507 42.5623 16.5375 43.1457 17.2613 43.1457Z" fill="white"/>
<path d="M9.92773 39.8183C10.7594 39.8183 11.4336 39.1479 11.4336 38.321C11.4336 37.494 10.7594 36.8236 9.92773 36.8236C9.09607 36.8236 8.42188 37.494 8.42188 38.321C8.42188 39.1479 9.09607 39.8183 9.92773 39.8183Z" fill="white"/>
<path d="M6.24642 36.0195C7.17049 36.0195 7.91959 35.2746 7.91959 34.3558C7.91959 33.4369 7.17049 32.692 6.24642 32.692C5.32235 32.692 4.57324 33.4369 4.57324 34.3558C4.57324 35.2746 5.32235 36.0195 6.24642 36.0195Z" fill="white"/>
<path d="M2.73302 28.9209C3.45687 28.9209 4.04367 28.3374 4.04367 27.6177C4.04367 26.8979 3.45687 26.3145 2.73302 26.3145C2.00916 26.3145 1.42236 26.8979 1.42236 27.6177C1.42236 28.3374 2.00916 28.9209 2.73302 28.9209Z" fill="white"/>
<path d="M2.95572 22.4325C4.24942 22.4325 5.29817 21.3896 5.29817 20.1033C5.29817 18.8169 4.24942 17.774 2.95572 17.774C1.66203 17.774 0.613281 18.8169 0.613281 20.1033C0.613281 21.3896 1.66203 22.4325 2.95572 22.4325Z" fill="white"/>
<path d="M2.62115 15.944C3.05238 15.944 3.40196 15.5964 3.40196 15.1676C3.40196 14.7388 3.05238 14.3912 2.62115 14.3912C2.18991 14.3912 1.84033 14.7388 1.84033 15.1676C1.84033 15.5964 2.18991 15.944 2.62115 15.944Z" fill="white"/>
<path d="M5.01947 11.7569C5.55851 11.7569 5.99549 11.3224 5.99549 10.7864C5.99549 10.2504 5.55851 9.81592 5.01947 9.81592C4.48044 9.81592 4.04346 10.2504 4.04346 10.7864C4.04346 11.3224 4.48044 11.7569 5.01947 11.7569Z" fill="white"/>
<path d="M8.70063 10.2041C9.51689 10.2041 10.1786 9.54616 10.1786 8.73451C10.1786 7.92286 9.51689 7.26489 8.70063 7.26489C7.88437 7.26489 7.22266 7.92286 7.22266 8.73451C7.22266 9.54616 7.88437 10.2041 8.70063 10.2041Z" fill="white"/>
<path d="M15.672 6.48852C16.8271 6.48852 17.7635 5.55743 17.7635 4.40887C17.7635 3.26031 16.8271 2.32922 15.672 2.32922C14.5169 2.32922 13.5806 3.26031 13.5806 4.40887C13.5806 5.55743 14.5169 6.48852 15.672 6.48852Z" fill="white"/>
<path d="M24.0377 3.85429C24.7616 3.85429 25.3484 3.27081 25.3484 2.55105C25.3484 1.83129 24.7616 1.2478 24.0377 1.2478C23.3138 1.2478 22.7271 1.83129 22.7271 2.55105C22.7271 3.27081 23.3138 3.85429 24.0377 3.85429Z" fill="white"/>
<path d="M27.9419 3.49381C28.5118 3.49381 28.9737 3.03447 28.9737 2.46785C28.9737 1.90123 28.5118 1.44189 27.9419 1.44189C27.3721 1.44189 26.9102 1.90123 26.9102 2.46785C26.9102 3.03447 27.3721 3.49381 27.9419 3.49381Z" fill="white"/>
<path d="M27.1612 7.07081C27.5924 7.07081 27.942 6.7232 27.942 6.29441C27.942 5.86561 27.5924 5.51801 27.1612 5.51801C26.73 5.51801 26.3804 5.86561 26.3804 6.29441C26.3804 6.7232 26.73 7.07081 27.1612 7.07081Z" fill="white"/>
<path d="M22.1418 9.28911C22.7424 9.28911 23.2293 8.80495 23.2293 8.2077C23.2293 7.61045 22.7424 7.12628 22.1418 7.12628C21.5411 7.12628 21.0542 7.61045 21.0542 8.2077C21.0542 8.80495 21.5411 9.28911 22.1418 9.28911Z" fill="white"/>
<path d="M20.0504 3.54927C20.6356 3.54927 21.1101 3.07752 21.1101 2.49558C21.1101 1.91365 20.6356 1.44189 20.0504 1.44189C19.4652 1.44189 18.9907 1.91365 18.9907 2.49558C18.9907 3.07752 19.4652 3.54927 20.0504 3.54927Z" fill="white"/>
<path d="M22.114 13.3652C22.8686 13.3652 23.4804 12.7569 23.4804 12.0065C23.4804 11.2561 22.8686 10.6478 22.114 10.6478C21.3593 10.6478 20.7476 11.2561 20.7476 12.0065C20.7476 12.7569 21.3593 13.3652 22.114 13.3652Z" fill="white"/>
<path d="M8.6448 15.4726C9.13764 15.4726 9.53716 15.0753 9.53716 14.5853C9.53716 14.0952 9.13764 13.6979 8.6448 13.6979C8.15196 13.6979 7.75244 14.0952 7.75244 14.5853C7.75244 15.0753 8.15196 15.4726 8.6448 15.4726Z" fill="white"/>
<path d="M6.80425 26.7858C7.23548 26.7858 7.58507 26.4382 7.58507 26.0094C7.58507 25.5806 7.23548 25.233 6.80425 25.233C6.37302 25.233 6.02344 25.5806 6.02344 26.0094C6.02344 26.4382 6.37302 26.7858 6.80425 26.7858Z" fill="white"/>
<path d="M6.69292 30.9451C7.12415 30.9451 7.47374 30.5975 7.47374 30.1687C7.47374 29.7399 7.12415 29.3923 6.69292 29.3923C6.26169 29.3923 5.91211 29.7399 5.91211 30.1687C5.91211 30.5975 6.26169 30.9451 6.69292 30.9451Z" fill="white"/>
<path d="M3.70893 33.0803C4.10936 33.0803 4.43397 32.7575 4.43397 32.3593C4.43397 31.9611 4.10936 31.6384 3.70893 31.6384C3.3085 31.6384 2.98389 31.9611 2.98389 32.3593C2.98389 32.7575 3.3085 33.0803 3.70893 33.0803Z" fill="white"/>
<path d="M31.1491 41.9257C31.6111 41.9257 31.9857 41.5532 31.9857 41.0938C31.9857 40.6344 31.6111 40.262 31.1491 40.262C30.6871 40.262 30.3125 40.6344 30.3125 41.0938C30.3125 41.5532 30.6871 41.9257 31.1491 41.9257Z" fill="white"/>
<path d="M32.4317 34.6053C33.1402 34.6053 33.7145 34.0343 33.7145 33.3298C33.7145 32.6254 33.1402 32.0543 32.4317 32.0543C31.7232 32.0543 31.1489 32.6254 31.1489 33.3298C31.1489 34.0343 31.7232 34.6053 32.4317 34.6053Z" fill="white"/>
<path d="M36.0846 18.3286C36.5467 18.3286 36.9212 17.9562 36.9212 17.4968C36.9212 17.0374 36.5467 16.6649 36.0846 16.6649C35.6226 16.6649 35.248 17.0374 35.248 17.4968C35.248 17.9562 35.6226 18.3286 36.0846 18.3286Z" fill="white"/>
<path d="M31.9854 19.6318C32.6939 19.6318 33.2682 19.0608 33.2682 18.3563C33.2682 17.6519 32.6939 17.0808 31.9854 17.0808C31.277 17.0808 30.7026 17.6519 30.7026 18.3563C30.7026 19.0608 31.277 19.6318 31.9854 19.6318Z" fill="white"/>
<path d="M39.3475 12.0342C39.8712 12.0342 40.2957 11.6121 40.2957 11.0915C40.2957 10.5708 39.8712 10.1487 39.3475 10.1487C38.8239 10.1487 38.3994 10.5708 38.3994 11.0915C38.3994 11.6121 38.8239 12.0342 39.3475 12.0342Z" fill="white"/>
<path d="M11.573 6.0726C11.9118 6.0726 12.1865 5.79948 12.1865 5.46257C12.1865 5.12566 11.9118 4.85254 11.573 4.85254C11.2341 4.85254 10.9595 5.12566 10.9595 5.46257C10.9595 5.79948 11.2341 6.0726 11.573 6.0726Z" fill="white"/>
<path d="M11.489 11.7293C11.8433 11.7293 12.1304 11.4437 12.1304 11.0915C12.1304 10.7393 11.8433 10.4537 11.489 10.4537C11.1348 10.4537 10.8477 10.7393 10.8477 11.0915C10.8477 11.4437 11.1348 11.7293 11.489 11.7293Z" fill="white"/>
<path d="M9.06315 21.4619C9.52518 21.4619 9.89973 21.0895 9.89973 20.6301C9.89973 20.1707 9.52518 19.7982 9.06315 19.7982C8.60111 19.7982 8.22656 20.1707 8.22656 20.6301C8.22656 21.0895 8.60111 21.4619 9.06315 21.4619Z" fill="white"/>
<path d="M31.5674 19.1051L33.9656 12.6443L36.7263 17.5245L31.5674 19.1051ZM34.0493 13.8921L32.404 18.3287L35.9455 17.2472L34.0493 13.8921Z" fill="white"/>
<path d="M27.6629 13.5593L21.4722 7.95811L30.5073 7.90265L27.6629 13.5593ZM22.7828 8.45722L27.4956 12.7274L29.6707 8.40176L22.7828 8.45722Z" fill="white"/>
<path d="M33.8262 13.4207L34.8301 7.01538L39.8775 11.1747L33.8262 13.4207ZM35.1926 7.95815L34.4676 12.6166L38.8736 10.9806L35.1926 7.95815Z" fill="white"/>
<path d="M27.412 6.76582L23.9263 2.44015L28.1092 2.21832L32.0412 4.27024L27.412 6.76582ZM24.9302 2.88381L27.5515 6.10033L30.9536 4.27024L27.9977 2.71744L24.9302 2.88381Z" fill="white"/>
<path d="M15.9508 12.3947L15.8672 4.40887L22.7272 8.37407L15.9508 12.3947ZM16.397 5.29619L16.4528 11.5074L21.7233 8.37407L16.397 5.29619Z" fill="white"/>
<path d="M32.5151 33.5239L33.0171 28.3941L39.8492 32.5257L32.5151 33.5239ZM33.4354 29.2814L33.0729 32.9416L38.3434 32.2484L33.4354 29.2814Z" fill="white"/>
<path d="M32.3761 33.3853L26.269 32.1929L33.5752 28.0059L33.8262 28.4496L27.7191 31.9711L32.4877 32.8862L32.3761 33.3853Z" fill="white"/>
<path d="M31.3162 41.5652L27.6631 36.7959L34.9414 37.0732L31.3162 41.5652ZM28.7228 37.3505L31.3162 40.7334L33.8817 37.5446L28.7228 37.3505Z" fill="white"/>
<path d="M22.7773 40.2934L22.7432 40.7913L31.1454 41.3602L31.1795 40.8622L22.7773 40.2934Z" fill="white"/>
<path d="M23.1453 41.3711L16.4526 35.964L21.8068 33.3298L23.1453 41.3711ZM17.4008 36.0749L22.4482 40.1233L21.4164 34.1062L17.4008 36.0749Z" fill="white"/>
<path d="M27.0968 32.0531L21.2676 32.6133L21.3159 33.1101L27.145 32.5499L27.0968 32.0531Z" fill="white"/>
<path d="M10.0389 38.8478L5.85596 34.3003L12.465 30.1965L10.0389 38.8478ZM6.66466 34.3835L9.8158 37.8218L11.6284 31.3333L6.66466 34.3835Z" fill="white"/>
<path d="M17.4845 32.0266L12.1582 31.0561L11.1543 25.0667L11.0986 24.9835L11.1543 25.2331L6.35791 26.3977L9.0071 20.0756L11.6284 24.9281L12.5765 30.6402L17.5403 31.5275L17.4845 32.0266ZM9.09076 21.2402L7.25027 25.649L10.987 24.734L9.09076 21.2402Z" fill="white"/>
<path d="M17.2338 42.0921L9.2583 38.2932L17.0943 35.7145L17.2616 36.1859L10.6247 38.3764L17.3174 41.5652L22.56 41.0106L22.6158 41.5098L17.2338 42.0921Z" fill="white"/>
<path d="M8.89578 8.90089L8.50537 8.56815L11.4334 5.24071L15.8116 4.07611L15.951 4.57523L11.7123 5.7121L8.89578 8.90089Z" fill="white"/>
<path d="M12.9393 16.9144L8.25439 14.6684L11.3777 10.8141L16.7318 11.6183L12.9393 16.9144ZM9.06309 14.5021L12.772 16.2767L15.8394 12.0065L11.6007 11.3687L9.06309 14.5021Z" fill="white"/>
<path d="M9.31384 20.9074L3.01155 20.3805L2.34229 15.1121L4.9357 10.3428L8.86766 14.4743L9.31384 20.9074ZM3.48562 19.9091L8.784 20.3528L8.39359 14.6962L5.10302 11.2024L2.90001 15.1953L3.48562 19.9091Z" fill="white"/>
<path d="M8.58716 8.51663L4.91406 10.5637L5.15947 10.999L8.83256 8.952L8.58716 8.51663Z" fill="white"/>
<path d="M3.54134 32.7752L2.37012 27.0909L7.16655 30.141L3.54134 32.7752ZM3.09516 28.1723L3.87597 31.9157L6.2463 30.1688L3.09516 28.1723Z" fill="white"/>
<path d="M2.68804 20.1933L2.05176 27.2082L2.5517 27.253L3.18799 20.2381L2.68804 20.1933Z" fill="white"/>
<path d="M21.779 8.37404L19.4087 2.27374L24.0378 2.30147V2.80059H20.1616L22.2531 8.20767L21.779 8.37404Z" fill="white"/>
<path d="M27.7652 12.9813L27.3813 13.3029L31.7833 18.4979L32.1671 18.1763L27.7652 12.9813Z" fill="white"/>
<path d="M34.9676 7.23896L30.5771 7.85443L30.6472 8.34865L35.0377 7.73318L34.9676 7.23896Z" fill="white"/>
<path d="M36.1406 17.8018L35.9454 17.3304L40.714 15.5558L34.6348 14.003L34.7742 13.5038L42.5545 15.5003L40.9649 15.9994L36.1406 17.8018Z" fill="white"/>
<path d="M39.17 33.133L34.0708 37.5282L34.3996 37.9054L39.4987 33.5101L39.17 33.133Z" fill="white"/>
<path d="M11.7714 5.32936L11.3647 5.62189L16.2189 12.2942L16.6256 12.0017L11.7714 5.32936Z" fill="white"/>
<path d="M39.5653 10.9752L39.1343 11.231L41.6063 15.3507L42.0373 15.0949L39.5653 10.9752Z" fill="white"/>
<path d="M52.5375 0H51.3384V47H52.5375V0Z" fill="white"/>
<path d="M87.1722 24.2348C87.228 24.2071 87.3117 24.1794 87.3674 24.1516C88.5387 23.6248 91.2994 23.0702 91.1879 21.4065C91.1042 20.0755 89.4868 18.9664 88.5108 18.2454C87.1444 17.2195 85.6385 16.3322 83.9653 15.8608C77.2169 14.0307 69.576 17.3859 66.7874 23.708C66.2576 24.928 65.895 26.2313 65.8114 27.5623C65.3373 33.5516 69.6597 40.0124 75.8783 41.0661C78.4717 41.5098 81.2046 41.6484 83.8259 41.0938C86.4193 40.5392 89.1243 38.931 90.7417 36.8236C91.3552 36.0195 91.2994 35.2985 90.6023 34.5776C89.682 33.6625 86.7261 31.1947 85.4154 32.4425C84.6904 33.108 84.1326 34.023 83.3239 34.6331C82.3479 35.3817 81.0094 35.5204 79.8103 35.4926C77.6352 35.4372 75.3485 34.3835 73.982 32.5257C72.6156 30.6679 72.5877 27.3404 73.759 25.0667C75.7668 21.1847 81.846 20.2419 84.8019 23.5416C85.4154 24.2625 86.2241 24.5953 87.1722 24.2348Z" fill="white"/>
<path d="M95.3149 5.26843H103.792V33.2743C103.792 33.2743 104.015 34.9935 105.326 34.9935C106.637 34.9935 108.784 34.9935 108.784 34.9935V40.8997H102.063C102.063 40.8997 96.1236 39.541 95.9006 34.9935C95.6775 30.446 95.3149 5.26843 95.3149 5.26843Z" fill="white"/>
<path d="M138.706 22.9038C136.587 18.1623 131.567 15.223 125.6 15.223C123.397 15.223 121.166 15.6667 119.13 16.4708C115.198 18.0513 112.326 21.1847 111.266 25.0667C110.123 29.1982 111.21 33.6071 114.111 36.8236C116.676 39.6519 120.803 41.3434 125.126 41.3434C125.795 41.3434 126.464 41.3156 127.133 41.2325C131.567 40.7056 135.388 38.4596 137.646 35.049C140.073 31.4165 140.463 26.869 138.706 22.9038ZM126.269 35.4372C123.982 35.7422 121.612 34.9381 120.162 33.1634C117.345 29.6696 118.349 24.013 122.476 22.1829C126.046 20.5746 130.312 21.8502 131.79 25.5103C133.491 29.7528 131.065 34.7994 126.269 35.4372Z" fill="white"/>
<path d="M141.271 15.9717H149.442L156.191 32.7752L163.497 15.9717H171.11L160.178 40.9274H152.091L141.271 15.9717Z" fill="white"/>
<path d="M199.191 25.0389C198.383 22.5156 197.239 19.9646 195.064 18.2177C193.084 16.6372 190.602 15.6667 188.093 15.4171C184.021 15.0566 179.336 15.7498 176.325 18.7168C173.675 21.3233 171.361 26.2313 172.727 31.5274C173.536 34.6885 175.321 37.6 178.082 39.4578C182.264 42.2307 187.842 41.8979 192.499 40.5392C193.865 40.151 195.092 39.4301 196.235 38.5982C196.403 38.4873 197.964 37.2672 198.02 37.295C198.02 37.295 193.921 33.108 193.893 33.108C193.112 33.8566 191.216 34.6885 190.742 34.8549C188.873 35.5481 186.475 35.4926 184.579 34.7439C182.794 34.023 181.261 33.1357 180.48 31.3888L200 28.2832C200.223 28.2277 199.247 25.2885 199.191 25.0389ZM190.602 25.9817C190.184 26.0649 189.794 26.1203 189.375 26.1758C188.176 26.3699 186.977 26.4808 185.778 26.6195C183.91 26.869 181.93 26.9799 180.117 27.5622C180.006 27.59 180.229 26.0649 180.257 25.954C180.396 25.3994 180.591 24.8726 180.842 24.3734C181.344 23.3752 182.097 22.5156 183.101 21.9611C184.635 21.1569 186.531 21.046 188.176 21.6283C190.045 22.2661 191.049 23.9298 192.08 25.4549C192.303 25.8153 190.798 25.954 190.602 25.9817Z" fill="white"/>
</g>
<defs>
<clipPath id="clip0">
<rect width="200" height="47" fill="white"/>
</clipPath>
</defs>
</svg>
