<svg width="36" height="36" viewBox="0 0 36 36" fill="none" xmlns="http://www.w3.org/2000/svg">
<path d="M23.0801 21.0601H24.6801V24.8701H23.0801V21.0601ZM13.0801 11.0601H14.6801V14.8701H13.0801V11.0601ZM13.0801 17.1301H14.6801V20.8801H13.0801V17.1301Z" fill="#BCAFAA"/>
<path d="M23.0801 14.69H24.6801V18.5H23.0801V14.69Z" fill="#BCAFAA"/>
<path d="M33 13.2201V26.7501L24.68 29.3501V27.0601H23.08V29.0601L14.68 24.7501V23.0601H13.08V24.7801L5.00001 28.1101V9.79005L13.08 6.46005V8.81005H14.68V6.47005L23.08 10.7701V12.8701H24.68V11.0001V10.6319V9.92637C24.4349 9.56117 24.2996 9.40271 24.12 9.00005L14.46 4.11005C14.3284 4.04913 14.1851 4.01758 14.04 4.01758C13.895 4.01758 13.7516 4.04913 13.62 4.11005L3.62001 8.20005C3.43582 8.27572 3.27841 8.40466 3.16795 8.57035C3.05749 8.73603 2.99902 8.93093 3.00001 9.13005V29.6101C3.00083 29.7738 3.04186 29.9349 3.1195 30.0791C3.19715 30.2233 3.30902 30.3463 3.4453 30.4371C3.58158 30.528 3.73808 30.584 3.90107 30.6002C4.06405 30.6164 4.22851 30.5923 4.38001 30.5301L14 26.5301L23.59 31.4501C23.7323 31.523 23.8901 31.5607 24.05 31.5601C24.149 31.58 24.251 31.58 24.35 31.5601L34.35 28.4401C34.5607 28.374 34.7437 28.2401 34.8703 28.0592C34.9969 27.8784 35.0601 27.6606 35.05 27.4401V12.3101C34.4158 12.7138 33.7248 13.0205 33 13.2201Z" fill="#BCAFAA"/>
<path d="M30 11C32.7614 11 35 8.76142 35 6C35 3.23858 32.7614 1 30 1C27.2386 1 25 3.23858 25 6C25 8.76142 27.2386 11 30 11Z" fill="#B2886B"/>
</svg>
