<svg width="167" height="63" viewBox="0 0 167 63" fill="none" xmlns="http://www.w3.org/2000/svg">
<g clip-path="url(#clip0_94_10594)">
<path d="M166.468 59.7674C166.468 59.7674 169.584 49.8437 160.995 43.6039C153.926 38.4917 146.097 43.7542 143.36 47.8139C143.132 48.1898 142.524 47.9642 142.524 47.5884C142.828 38.4165 141.688 7.6683 113.791 0.902195C84.4502 -6.16463 79.4333 29.0191 78.9013 39.0179C78.9013 39.5442 78.1411 39.6946 77.9131 39.2435C76.0888 35.5597 71.604 28.5681 63.3947 28.117C52.2208 27.5156 46.5198 34.6576 44.7715 49.0919C44.7715 49.0919 43.3273 50.821 41.0469 47.1373C38.7665 43.4535 27.0606 35.7853 15.5827 38.6421C4.10472 41.4989 1.29225 45.4082 0.380096 49.9941C-0.532043 54.58 -3.34453 63.827 29.569 63.0001C62.5585 62.0979 165.86 63.4511 166.468 59.7674Z" fill="#F8FCFF"/>
<path d="M122.457 25.2602C122.305 22.4034 120.556 20.0729 118.352 18.3438C116.3 16.765 112.119 14.3593 109.458 14.5096C110.675 13.833 111.967 13.0812 113.183 12.4046C113.107 12.4798 113.031 12.6302 113.031 12.7053C110.371 17.5168 102.997 13.2316 105.582 8.42013C108.622 2.93207 118.58 8.19459 122.305 10.6755C127.397 14.0586 130.742 19.1707 131.122 25.2602C131.35 30.7483 122.761 30.6731 122.457 25.2602Z" fill="#EAF7FF"/>
<path d="M156.206 55.2566C156.434 56.7602 156.13 55.1815 156.13 55.1815C156.054 55.2566 156.586 55.9333 156.206 55.3318C156.054 55.1815 155.75 54.3545 156.206 55.2566C156.054 55.0311 155.826 54.8056 155.674 54.6552C155.598 54.58 155.522 54.5049 155.446 54.4297C155.218 54.2041 155.294 54.2793 155.674 54.6552C155.598 54.5049 155.142 54.3545 154.99 54.2793C154.61 54.0538 155.75 54.4297 154.99 54.2793C154.686 54.2041 153.774 54.129 154.914 54.2041C152.709 53.9786 150.505 52.3998 150.657 49.9941C150.733 47.8891 152.557 45.5586 154.914 45.7841C157.498 46.0096 159.779 46.9118 161.603 48.7161C163.503 50.5204 164.339 52.7757 164.719 55.3318C165.023 57.512 162.515 59.6922 160.463 59.5418C157.954 59.3915 156.51 57.6624 156.206 55.2566Z" fill="#EAF7FF"/>
<path d="M62.6345 39.0179C62.5585 38.9427 62.4825 38.8676 62.3305 38.7172C62.9386 39.0931 63.6227 39.469 64.2308 39.8449C64.6869 39.9953 65.599 39.5442 65.1429 39.9201C64.9149 40.1456 64.4588 40.2208 64.1548 40.3712C63.5467 40.6719 62.8626 41.0478 62.3305 41.4988C62.1784 41.6492 61.7984 42.0251 61.7984 42.0251C61.9504 41.7996 61.4183 42.7017 61.6463 42.3258C61.5703 42.401 61.4943 43.0776 61.5703 42.6265C61.4943 42.401 61.4943 42.401 61.5703 42.7017C61.6463 42.9272 61.7224 43.1528 61.7984 43.3783C62.6345 45.4833 60.8862 48.0394 58.8339 48.5657C56.4015 49.2423 54.4251 47.7387 53.589 45.6337C52.0687 41.8747 53.9691 37.4392 56.9336 34.9583C60.0501 32.4022 65.2189 29.6206 68.7155 33.0036C72.6682 36.8377 66.5872 42.8521 62.6345 39.0179Z" fill="#EAF7FF"/>
<path d="M17.1029 50.37C16.8748 50.4452 16.5708 50.4452 16.3428 50.5204C16.2667 50.5204 15.5826 50.7459 16.1147 50.5955C16.7228 50.37 15.9627 50.6707 15.8107 50.7459C15.7347 50.8211 14.9745 51.2721 15.5066 50.8963C15.9627 50.5955 15.4306 50.9714 15.3546 51.0466C15.2786 51.1218 14.8225 51.4225 14.8225 51.5729C14.8225 51.4225 15.2786 50.8963 14.9745 51.4225C14.8225 51.7232 14.6705 51.9488 14.5184 52.2495C13.5303 54.2041 10.4898 54.9559 8.66547 53.7531C6.61312 52.475 6.08104 50.0693 7.14521 47.9643C8.66547 45.0323 11.63 42.7769 14.8985 42.1003C17.1029 41.6492 19.6113 42.7017 20.1434 45.0323C20.5235 47.2125 19.4593 49.9189 17.1029 50.37Z" fill="#EAF7FF"/>
</g>
<defs>
<clipPath id="clip0_94_10594">
<rect width="167" height="63" fill="white" transform="matrix(-1 0 0 1 167 0)"/>
</clipPath>
</defs>
</svg>
