<svg width="167" height="63" viewBox="0 0 167 63" fill="none" xmlns="http://www.w3.org/2000/svg">
<g clip-path="url(#clip0_94_10582)">
<path d="M166.468 59.7673C166.468 59.7673 169.584 49.8437 160.995 43.6038C153.926 38.4916 146.097 43.7542 143.36 47.8138C143.132 48.1897 142.524 47.9642 142.524 47.5883C142.828 38.4165 141.688 7.66826 113.791 0.902149C84.4502 -6.16468 79.4333 29.0191 78.9013 39.0179C78.9013 39.5442 78.1411 39.6945 77.9131 39.2434C76.0888 35.5597 71.604 28.568 63.3947 28.1169C52.2208 27.5155 46.5198 34.6575 44.7715 49.0919C44.7715 49.0919 43.3273 50.821 41.0469 47.1372C38.7665 43.4535 27.0606 35.7852 15.5827 38.642C4.10472 41.4988 1.29225 45.4081 0.380096 49.994C-0.532043 54.58 -3.34453 63.827 29.569 63C62.5585 62.0979 165.86 63.4511 166.468 59.7673Z" fill="#F8FCFF"/>
<path d="M122.457 25.2601C122.305 22.4033 120.556 20.0728 118.352 18.3437C116.3 16.7649 112.119 14.3592 109.458 14.5095C110.675 13.8329 111.967 13.0811 113.183 12.4045C113.107 12.4797 113.031 12.6301 113.031 12.7052C110.371 17.5167 102.997 13.2315 105.582 8.42004C108.622 2.93197 118.58 8.1945 122.305 10.6754C127.397 14.0585 130.742 19.1706 131.122 25.2601C131.35 30.7482 122.761 30.673 122.457 25.2601Z" fill="#EAF7FF"/>
<path d="M156.206 55.2566C156.434 56.7601 156.13 55.1814 156.13 55.1814C156.054 55.2566 156.586 55.9332 156.206 55.3317C156.054 55.1814 155.75 54.3544 156.206 55.2566C156.054 55.031 155.826 54.8055 155.674 54.6551C155.598 54.5799 155.522 54.5048 155.446 54.4296C155.218 54.204 155.294 54.2792 155.674 54.6551C155.598 54.5048 155.142 54.3544 154.99 54.2792C154.61 54.0537 155.75 54.4296 154.99 54.2792C154.686 54.204 153.774 54.1289 154.914 54.204C152.709 53.9785 150.505 52.3998 150.657 49.994C150.733 47.889 152.557 45.5585 154.914 45.784C157.498 46.0095 159.779 46.9117 161.603 48.716C163.503 50.5203 164.339 52.7756 164.719 55.3317C165.023 57.5119 162.515 59.6921 160.463 59.5418C157.954 59.3914 156.51 57.6623 156.206 55.2566Z" fill="#EAF7FF"/>
<path d="M62.6345 39.0179C62.5585 38.9427 62.4825 38.8675 62.3305 38.7172C62.9386 39.0931 63.6227 39.469 64.2308 39.8449C64.6869 39.9952 65.599 39.5441 65.1429 39.92C64.9149 40.1456 64.4588 40.2208 64.1548 40.3711C63.5467 40.6718 62.8626 41.0477 62.3305 41.4988C62.1784 41.6492 61.7984 42.0251 61.7984 42.0251C61.9504 41.7995 61.4183 42.7017 61.6463 42.3258C61.5703 42.401 61.4943 43.0776 61.5703 42.6265C61.4943 42.401 61.4943 42.401 61.5703 42.7017C61.6463 42.9272 61.7224 43.1527 61.7984 43.3783C62.6345 45.4833 60.8862 48.0394 58.8339 48.5656C56.4015 49.2422 54.4251 47.7387 53.589 45.6336C52.0687 41.8747 53.9691 37.4391 56.9336 34.9582C60.0501 32.4021 65.2189 29.6205 68.7155 33.0036C72.6682 36.8377 66.5872 42.852 62.6345 39.0179Z" fill="#EAF7FF"/>
<path d="M17.1029 50.3699C16.8748 50.4451 16.5708 50.4451 16.3428 50.5203C16.2667 50.5203 15.5826 50.7458 16.1147 50.5955C16.7228 50.3699 15.9627 50.6706 15.8107 50.7458C15.7347 50.821 14.9745 51.2721 15.5066 50.8962C15.9627 50.5955 15.4306 50.9714 15.3546 51.0465C15.2786 51.1217 14.8225 51.4224 14.8225 51.5728C14.8225 51.4224 15.2786 50.8962 14.9745 51.4224C14.8225 51.7231 14.6705 51.9487 14.5184 52.2494C13.5303 54.2041 10.4898 54.9558 8.66547 53.753C6.61312 52.4749 6.08104 50.0692 7.14521 47.9642C8.66547 45.0322 11.63 42.7768 14.8985 42.1002C17.1029 41.6492 19.6113 42.7017 20.1434 45.0322C20.5235 47.2124 19.4593 49.9189 17.1029 50.3699Z" fill="#EAF7FF"/>
</g>
<defs>
<clipPath id="clip0_94_10582">
<rect width="167" height="63" fill="white" transform="matrix(-1 0 0 1 167 0)"/>
</clipPath>
</defs>
</svg>
