<svg width="163" height="91" viewBox="0 0 163 91" fill="none" xmlns="http://www.w3.org/2000/svg">
<g clip-path="url(#clip0_94_10570)">
<path d="M0.767953 86.3306C0.767953 86.3306 -3.72954 71.9964 8.666 62.9833C18.8676 55.5991 30.1662 63.2005 34.1152 69.0645C34.4443 69.6074 35.3219 69.2816 35.3219 68.7387C34.8831 55.4905 36.5285 11.0764 76.7866 1.30312C119.129 -8.90451 126.369 41.9165 127.137 56.3592C127.137 57.1194 128.234 57.3365 128.563 56.685C131.195 51.364 137.667 41.2649 149.514 40.6134C165.64 39.7447 173.867 50.0609 176.39 70.9105C176.39 70.9105 178.474 73.4081 181.765 68.0871C185.056 62.7661 201.949 51.6898 218.513 55.8162C235.077 59.9427 239.135 65.5895 240.452 72.2136C241.768 78.8377 245.827 92.1945 198.329 91C150.721 89.6969 1.64551 91.6516 0.767953 86.3306Z" fill="#F8FCFF"/>
<path d="M64.2812 36.4869C64.5006 32.3604 67.0236 28.994 70.2047 26.4964C73.1665 24.216 79.1997 20.7411 83.0391 20.9582C81.2839 19.9809 79.4191 18.895 77.664 17.9177C77.7737 18.0263 77.8834 18.2434 77.8834 18.352C81.7227 25.3019 92.3631 19.1122 88.6335 12.1623C84.2457 4.23509 69.8757 11.8365 64.5006 15.4201C57.151 20.3067 52.3244 27.6909 51.776 36.4869C51.4469 44.4141 63.8424 44.3055 64.2812 36.4869Z" fill="#EAF7FF"/>
<path d="M15.5766 79.815C15.2475 81.9869 15.6863 79.7064 15.6863 79.7064C15.796 79.815 15.0281 80.7923 15.5766 79.9236C15.796 79.7064 16.2348 78.5119 15.5766 79.815C15.796 79.4892 16.1251 79.1635 16.3445 78.9463C16.4542 78.8377 16.5639 78.7291 16.6735 78.6205C17.0026 78.2947 16.8929 78.4033 16.3445 78.9463C16.4542 78.7291 17.1123 78.5119 17.3317 78.4033C17.8802 78.0775 16.2348 78.6205 17.3317 78.4033C17.7705 78.2947 19.0868 78.1861 17.4414 78.2947C20.6226 77.969 23.8037 75.6885 23.5843 72.2136C23.4746 69.173 20.842 65.8067 17.4414 66.1325C13.7118 66.4582 10.4209 67.7613 7.78825 70.3675C5.04587 72.9737 3.83923 76.2315 3.29075 79.9236C2.85197 83.0728 6.47191 86.2219 9.43368 86.0048C13.0536 85.7876 15.1378 83.29 15.5766 79.815Z" fill="#EAF7FF"/>
<path d="M150.611 56.3592C150.721 56.2506 150.83 56.142 151.05 55.9248C150.172 56.4678 149.185 57.0107 148.307 57.5537C147.649 57.7709 146.333 57.1193 146.991 57.6623C147.32 57.9881 147.978 58.0967 148.417 58.3138C149.295 58.7482 150.282 59.2912 151.05 59.9427C151.269 60.1599 151.818 60.7029 151.818 60.7029C151.598 60.3771 152.366 61.6802 152.037 61.1372C152.147 61.2458 152.256 62.2231 152.147 61.5716C152.256 61.2458 152.256 61.2458 152.147 61.6802C152.037 62.006 151.927 62.3317 151.818 62.6575C150.611 65.6981 153.134 69.3902 156.096 70.1504C159.606 71.1277 162.458 68.9558 163.665 65.9153C165.859 60.4857 163.116 54.0788 158.838 50.4952C154.341 46.8031 146.881 42.7852 141.835 47.6718C136.131 53.21 144.907 61.8974 150.611 56.3592Z" fill="#EAF7FF"/>
</g>
<defs>
<clipPath id="clip0_94_10570">
<rect width="241" height="91" fill="white"/>
</clipPath>
</defs>
</svg>
