<svg width="173" height="79" viewBox="0 0 173 79" fill="none" xmlns="http://www.w3.org/2000/svg">
<g clip-path="url(#clip0_51_7557)">
<path d="M0.662716 74.9463C0.662716 74.9463 -3.21894 62.5024 7.47928 54.6778C16.284 48.2673 26.0355 54.8663 29.4438 59.957C29.7278 60.4284 30.4852 60.1456 30.4852 59.6742C30.1065 48.173 31.5266 9.61575 66.2722 1.13127C102.817 -7.73031 109.065 36.389 109.728 48.9272C109.728 49.5871 110.675 49.7757 110.959 49.21C113.231 44.5907 118.817 35.8234 129.041 35.2578C142.959 34.5036 150.059 43.4594 152.237 61.5597C152.237 61.5597 154.035 63.7279 156.876 59.1086C159.716 54.4893 174.296 44.8735 188.592 48.4558C202.888 52.0382 206.391 56.9403 207.527 62.6909C208.663 68.4415 212.166 80.037 171.172 79C130.083 77.8687 1.42011 79.5656 0.662716 74.9463Z" fill="#BCDEF1"/>
<path d="M55.4794 31.6754C55.6687 28.0931 57.8462 25.1706 60.5918 23.0024C63.148 21.0227 68.3551 18.006 71.6687 18.1945C70.1539 17.3461 68.5445 16.4033 67.0297 15.5549C67.1243 15.6492 67.219 15.8377 67.219 15.932C70.5326 21.9654 79.7161 16.5919 76.4971 10.5585C72.7101 3.67661 60.3078 10.2757 55.6687 13.3866C49.3255 17.6289 45.1598 24.0394 44.6865 31.6754C44.4024 38.5573 55.1007 38.463 55.4794 31.6754Z" fill="#EAF7FF"/>
<path d="M13.4438 69.29C13.1597 71.1754 13.5384 69.1957 13.5384 69.1957C13.6331 69.29 12.9704 70.1384 13.4438 69.3842C13.6331 69.1957 14.0118 68.1587 13.4438 69.29C13.6331 69.0072 13.9171 68.7243 14.1065 68.5358C14.2012 68.4415 14.2958 68.3473 14.3905 68.253C14.6745 67.9702 14.5799 68.0644 14.1065 68.5358C14.2012 68.3472 14.7692 68.1587 14.9586 68.0644C15.4319 67.7816 14.0118 68.253 14.9586 68.0644C15.3373 67.9702 16.4734 67.8759 15.0532 67.9702C17.7988 67.6873 20.5444 65.7076 20.355 62.6909C20.2603 60.0513 17.9881 57.1289 15.0532 57.4117C11.8343 57.6945 8.99406 58.8258 6.72187 61.0883C4.35501 63.3508 3.31359 66.179 2.84022 69.3842C2.46152 72.1181 5.58578 74.852 8.14199 74.6635C11.2663 74.4749 13.0651 72.3067 13.4438 69.29Z" fill="#EAF7FF"/>
<path d="M129.988 48.9272C130.083 48.8329 130.177 48.7387 130.367 48.5501C129.609 49.0215 128.757 49.4928 128 49.9642C127.432 50.1527 126.296 49.5871 126.864 50.0585C127.148 50.3413 127.716 50.4356 128.095 50.6241C128.852 51.0012 129.704 51.4725 130.367 52.0382C130.556 52.2267 131.03 52.6981 131.03 52.6981C130.84 52.4153 131.503 53.5465 131.219 53.0752C131.314 53.1694 131.408 54.0179 131.314 53.4523C131.408 53.1694 131.408 53.1694 131.314 53.5465C131.219 53.8293 131.124 54.1122 131.03 54.395C129.988 57.0346 132.166 60.2398 134.722 60.8997C137.751 61.7482 140.213 59.8628 141.254 57.2231C143.148 52.5095 140.781 46.9475 137.089 43.8365C133.207 40.6313 126.769 37.1432 122.414 41.3854C117.491 46.1933 125.065 53.7351 129.988 48.9272Z" fill="#EAF7FF"/>
</g>
<defs>
<clipPath id="clip0_51_7557">
<rect width="208" height="79" fill="white"/>
</clipPath>
</defs>
</svg>
