<svg width="144" height="54" viewBox="0 0 144 54" fill="none" xmlns="http://www.w3.org/2000/svg">
<path d="M143.541 51.2291C143.541 51.2291 146.228 42.7231 138.822 37.3747C132.726 32.9928 125.975 37.5036 123.616 40.9833C123.419 41.3055 122.895 41.1122 122.895 40.79C123.157 32.9284 122.174 6.57279 98.1192 0.773262C72.8193 -5.28402 68.4934 24.8735 68.0346 33.4439C68.0346 33.895 67.3791 34.0239 67.1825 33.6372C65.6094 30.4797 61.7424 24.4869 54.6636 24.1002C45.0287 23.5847 40.1129 29.7064 38.6053 42.0788C38.6053 42.0788 37.36 43.5609 35.3937 40.4033C33.4274 37.2458 23.3336 30.673 13.4365 33.1217C3.53935 35.5704 1.11424 38.9212 0.327713 42.852C-0.458817 46.7828 -2.88394 54.7088 25.4966 54C53.9426 53.2267 143.017 54.3866 143.541 51.2291Z" fill="#BCDEF1"/>
<path d="M105.591 21.6515C105.46 19.2028 103.953 17.2052 102.052 15.7231C100.282 14.3699 96.6773 12.3079 94.3833 12.4367C95.432 11.8568 96.5462 11.2124 97.5949 10.6324C97.5294 10.6969 97.4638 10.8258 97.4638 10.8902C95.1698 15.0143 88.812 11.3413 91.0405 7.21717C93.6623 2.51311 102.249 7.02385 105.46 9.15034C109.852 12.0501 112.736 16.432 113.063 21.6515C113.26 26.3556 105.853 26.2911 105.591 21.6515Z" fill="#EAF7FF"/>
<path d="M134.693 47.3627C134.889 48.6515 134.627 47.2983 134.627 47.2983C134.562 47.3627 135.02 47.9427 134.693 47.4272C134.562 47.2983 134.3 46.5895 134.693 47.3627C134.562 47.1694 134.365 46.9761 134.234 46.8472C134.168 46.7828 134.103 46.7184 134.037 46.6539C133.841 46.4606 133.906 46.525 134.234 46.8472C134.168 46.7183 133.775 46.5895 133.644 46.525C133.316 46.3317 134.3 46.6539 133.644 46.525C133.382 46.4606 132.595 46.3962 133.579 46.4606C131.678 46.2673 129.777 44.9141 129.908 42.852C129.974 41.0477 131.547 39.0501 133.579 39.2434C135.807 39.4367 137.773 40.21 139.346 41.7565C140.985 43.3031 141.706 45.2362 142.034 47.4272C142.296 49.2959 140.133 51.1646 138.363 51.0358C136.2 50.9069 134.955 49.4248 134.693 47.3627Z" fill="#EAF7FF"/>
<path d="M54.0082 33.4439C53.9427 33.3795 53.8771 33.315 53.746 33.1862C54.2704 33.5084 54.8603 33.8305 55.3846 34.1527C55.7779 34.2816 56.5644 33.895 56.1712 34.2172C55.9745 34.4105 55.5813 34.4749 55.3191 34.6038C54.7947 34.8616 54.2049 35.1838 53.746 35.5704C53.615 35.6993 53.2872 36.0215 53.2872 36.0215C53.4183 35.8282 52.9595 36.6014 53.1561 36.2792C53.0906 36.3437 53.0251 36.9236 53.0906 36.537C53.0251 36.3437 53.0251 36.3437 53.0906 36.6014C53.1561 36.7947 53.2217 36.9881 53.2872 37.1814C54.0082 38.9857 52.5007 41.1766 50.731 41.6277C48.6336 42.2076 46.9295 40.9189 46.2085 39.1146C44.8976 35.8926 46.5362 32.0907 49.0924 29.9642C51.7797 27.7733 56.2367 25.389 59.2517 28.2888C62.66 31.5752 57.4165 36.7303 54.0082 33.4439Z" fill="#EAF7FF"/>
<path d="M14.7475 43.1742C14.5508 43.2387 14.2887 43.2387 14.092 43.3031C14.0265 43.3031 13.4366 43.4964 13.8954 43.3675C14.4197 43.1742 13.7643 43.432 13.6332 43.4964C13.5677 43.5609 12.9122 43.9475 13.371 43.6253C13.7643 43.3675 13.3055 43.6897 13.24 43.7542C13.1744 43.8186 12.7811 44.0764 12.7811 44.2052C12.7811 44.0764 13.1744 43.6253 12.9122 44.0764C12.7811 44.3341 12.6501 44.5274 12.519 44.7852C11.6669 46.4606 9.04515 47.105 7.47209 46.074C5.70241 44.9785 5.2436 42.9165 6.16121 41.1122C7.47209 38.599 10.0283 36.6659 12.8467 36.0859C14.7475 35.6993 16.9104 36.6014 17.3692 38.599C17.6969 40.4678 16.7793 42.7876 14.7475 43.1742Z" fill="#EAF7FF"/>
</svg>
