<svg width="64" height="64" viewBox="0 0 64 64" fill="none" xmlns="http://www.w3.org/2000/svg">
<g clip-path="url(#clip0_167_7705)">
<path d="M34.093 63.9596C44.8279 64.1596 56.1087 59.0096 61.1577 48.6096C65.0696 40.6096 65.0241 30.4096 61.0213 22.4096C56.882 14.1096 49.4676 9.10963 42.5081 4.00963C39.2331 1.60963 35.5941 0.309633 31.8187 0.0596323C17.5358 -1.04037 2.02481 11.9096 0.159847 28.1096C-0.658918 35.4596 1.97932 42.8596 6.11862 48.6596C12.8052 57.9596 23.3581 63.7596 34.093 63.9596Z" fill="#00A7E0"/>
<g opacity="0.38">
<g opacity="0.48">
<g opacity="0.48">
<path opacity="0.48" d="M53.152 40.3596C48.3759 44.6096 42.5081 49.6096 35.9125 48.5596C32.501 48.0096 31.0454 53.7596 34.4569 54.3096C43.3269 55.7096 50.3773 50.4096 56.9729 44.5596C59.6566 42.1596 55.8357 37.9596 53.152 40.3596Z" fill="white"/>
</g>
</g>
<g opacity="0.48">
<g opacity="0.48">
<path opacity="0.48" d="M30.2721 47.6596C29.9537 47.5096 29.6808 47.3096 29.3624 47.1596C29.044 46.9596 28.7256 46.8096 28.3617 46.8096C27.9978 46.7096 27.6339 46.7596 27.27 46.8596C26.9061 46.9596 26.6332 47.1096 26.3603 47.4096C26.0873 47.6096 25.8144 47.9096 25.678 48.2596C25.3595 48.9596 25.1776 49.8096 25.405 50.5596C25.6325 51.2596 26.0419 52.0096 26.6332 52.3596C26.9516 52.5096 27.2245 52.7096 27.5429 52.8596C27.8613 53.0596 28.1797 53.2096 28.5436 53.2096C28.9075 53.3096 29.2714 53.2596 29.6353 53.1596C29.9992 53.0596 30.2721 52.9096 30.5451 52.6096C30.818 52.4096 31.0909 52.1096 31.2274 51.7596C31.5458 51.0596 31.7277 50.2096 31.5003 49.4596C31.3183 48.7096 30.9089 48.0096 30.2721 47.6596Z" fill="white"/>
</g>
</g>
</g>
<g clip-path="url(#clip1_167_7705)">
<path d="M26.4377 44.1875C37.7557 44.1875 43.9479 34.8084 43.9479 26.6774C43.9479 26.4137 43.942 26.1442 43.9303 25.8805C45.1348 25.0094 46.1744 23.9304 47 22.6942C45.8782 23.1933 44.6871 23.5193 43.4674 23.661C44.7516 22.8912 45.7132 21.6819 46.1738 20.2573C44.9657 20.9733 43.6445 21.4783 42.2668 21.7508C41.3385 20.7645 40.1112 20.1114 38.7746 19.8926C37.438 19.6738 36.0665 19.9014 34.8722 20.5402C33.6779 21.179 32.7273 22.1934 32.1673 23.4267C31.6074 24.66 31.4693 26.0433 31.7744 27.3629C29.3281 27.2402 26.9349 26.6047 24.75 25.4977C22.565 24.3907 20.6371 22.8368 19.0912 20.9369C18.3055 22.2916 18.0651 23.8946 18.4188 25.4202C18.7725 26.9457 19.6938 28.2794 20.9955 29.15C20.0183 29.119 19.0625 28.8559 18.207 28.3825V28.4586C18.2062 29.8802 18.6976 31.2583 19.5979 32.3585C20.4982 33.4587 21.7517 34.2133 23.1453 34.4938C22.2401 34.7415 21.29 34.7776 20.3686 34.5993C20.7618 35.8218 21.527 36.8912 22.5572 37.658C23.5875 38.4248 24.8314 38.8508 26.1154 38.8766C23.9355 40.5889 21.2427 41.5177 18.4707 41.5133C17.9791 41.5126 17.488 41.4824 17 41.4231C19.8161 43.2297 23.0919 44.1893 26.4377 44.1875Z" fill="white"/>
</g>
</g>
<defs>
<clipPath id="clip0_167_7705">
<rect width="64" height="64" fill="white"/>
</clipPath>
<clipPath id="clip1_167_7705">
<rect width="30" height="30" fill="white" transform="translate(17 17)"/>
</clipPath>
</defs>
</svg>
