<svg width="199" height="222" viewBox="0 0 199 222" fill="none" xmlns="http://www.w3.org/2000/svg">
<g clip-path="url(#clip0_174_3864)">
<path d="M89.8083 140.777C89.8083 140.777 71.6689 146.635 60.4652 137.936C49.2614 129.238 52.1068 116.456 46.2382 113.083C40.5474 109.71 21.6966 103.852 15.6502 99.0585C9.6037 94.2654 6.22479 89.4722 2.4902 91.0699C-1.24438 92.8452 -2.13357 100.479 6.93614 109.177C16.0058 117.876 20.2739 119.829 20.2739 119.829C20.2739 119.829 11.5599 117.699 8.181 115.746C4.80209 113.793 0.71183 117.344 3.55723 123.024C6.40263 128.705 19.7404 132.611 23.1193 133.321C26.4982 134.031 27.7431 134.208 27.7431 134.208C27.7431 134.208 23.8307 134.741 20.0961 134.386C16.1837 134.386 13.8718 138.469 19.7404 143.795C25.6091 149.12 35.568 147.878 35.568 147.878C35.568 147.878 28.2766 150.896 33.0782 156.754C37.8798 162.79 47.6609 157.286 47.6609 157.286C47.6609 157.286 47.6609 164.032 53.8852 165.808C60.1095 167.583 64.7333 160.837 64.7333 160.837C64.7333 160.837 67.9344 167.938 70.6019 167.228C73.0916 166.518 75.0479 161.547 75.0479 161.547C75.0479 161.547 79.4938 165.63 81.9835 163.5C84.4732 161.37 84.8289 157.642 84.8289 157.642C84.8289 157.642 84.8289 159.239 86.963 158.352C89.097 157.464 89.9862 153.558 89.9862 153.558C89.9862 153.558 94.9656 147.523 95.1435 143.972C95.1435 140.599 91.231 139.357 89.8083 140.777Z" fill="#DD9B31"/>
<path d="M7.29171 92.3126C7.29171 92.3126 4.09063 89.6497 1.42307 92.3126C-1.24449 95.153 0.356049 101.899 6.75819 108.112C12.9825 114.326 16.7171 116.988 22.0522 120.361C27.3873 123.734 44.8154 126.93 44.8154 126.93C44.8154 126.93 26.1425 120.539 16.0057 110.42C5.86901 100.301 2.13442 95.508 7.29171 92.3126Z" fill="#C67F17"/>
<path d="M8.71411 116.278C8.71411 116.278 6.58006 114.858 4.44601 116.101C2.31196 117.343 2.13413 123.557 8.53627 127.462C14.9384 131.368 24.7195 133.853 29.3432 134.386C33.967 134.918 45.3486 133.853 45.3486 133.853C45.3486 133.853 28.6319 134.031 17.606 128.172C6.58006 122.137 4.97952 117.699 8.71411 116.278Z" fill="#C67F17"/>
<path d="M54.2408 139.534C54.2408 139.534 42.6814 146.99 34.8566 147.523C27.0317 148.055 22.5858 146.102 19.029 142.729C15.4723 139.357 16.0058 135.273 18.6734 134.918C21.3409 134.563 24.1863 134.563 24.1863 134.563C24.1863 134.563 20.4517 135.451 22.9415 139.179C25.7868 143.085 41.2587 146.102 54.2408 139.534Z" fill="#C67F17"/>
<path d="M60.6428 144.505C60.6428 144.505 52.818 154.269 47.305 157.109C41.7921 159.949 37.1683 160.659 33.7894 157.287C30.4105 153.914 31.8332 150.896 33.2559 149.653C34.6786 148.41 36.2791 147.878 36.2791 147.878C36.2791 147.878 35.7456 154.624 44.2818 153.736C52.818 152.848 60.6428 144.505 60.6428 144.505Z" fill="#EA9F1B"/>
<path d="M70.4241 148.588C70.4241 148.588 67.4009 158.352 62.9549 162.435C58.509 166.518 54.2409 166.873 51.2177 164.387C48.1944 161.725 48.0166 157.464 48.0166 157.464C48.0166 157.464 51.3955 164.565 58.6868 160.837C66.3339 156.931 70.4241 148.588 70.4241 148.588Z" fill="#EA9F1B"/>
<path d="M75.4034 146.635C75.4034 146.635 77.004 156.399 74.6921 161.547C72.3802 166.695 70.2461 167.938 68.6456 166.34C66.8672 164.742 65.0889 161.014 65.0889 161.014C65.0889 161.014 68.2899 165.453 72.0245 162.08C75.4034 158.529 75.4034 146.635 75.4034 146.635Z" fill="#EA9F1B"/>
<path d="M83.5841 147.168C83.5841 147.168 85.3625 154.979 84.4733 158.884C83.4063 162.79 80.9166 164.743 78.4269 163.5C75.9371 162.257 74.8701 161.37 74.8701 161.37L75.4036 158.707C75.4036 158.707 77.3598 162.257 80.2052 159.949C83.2285 157.642 83.5841 147.168 83.5841 147.168Z" fill="#EA9F1B"/>
<path d="M93.3654 147.878L89.6308 153.381C89.6308 153.381 88.9195 156.399 87.6746 157.642C86.4297 158.884 85.1849 158.529 85.007 157.997C84.8292 157.642 84.6514 157.109 84.6514 157.109C84.6514 157.109 86.0741 158.174 87.3189 154.979C88.5638 151.961 88.386 147.7 88.386 147.7C88.386 147.7 89.453 151.783 90.6978 150.896C91.9427 150.008 93.3654 147.878 93.3654 147.878Z" fill="#EA9F1B"/>
<path d="M91.4086 194.922C91.4086 194.922 82.8724 195.454 74.8697 197.762C66.867 200.07 47.8384 210.899 46.5936 211.076C45.3487 211.254 42.5033 211.609 42.1476 204.686C41.7919 197.762 40.1914 165.275 40.1914 165.275C40.1914 165.275 41.9698 161.725 43.7482 165.098C45.3487 168.471 44.6373 183.383 48.7276 191.016C52.9957 198.472 55.6633 199.537 55.6633 199.537C55.6633 199.537 60.8205 196.697 68.1119 193.679C80.5605 188.531 91.5864 188.176 91.5864 188.176C91.5864 188.176 93.8983 189.063 93.7204 192.259C93.3648 195.454 91.4086 194.922 91.4086 194.922Z" fill="#CE4205"/>
<path d="M94.6099 12.4267C94.6099 12.4267 67.7564 3.72802 49.2613 17.93C30.7662 32.1319 34.5008 57.8729 32.3668 61.2459C30.2327 64.6188 12.6268 74.7377 17.962 95.153C23.2971 115.568 42.5035 124.089 72.558 129.238C95.499 133.143 120.041 128.35 135.512 87.8745C149.028 52.3697 126.798 21.3029 94.6099 12.4267Z" fill="#FFD261"/>
<path opacity="0.23" d="M99.945 96.3957C98.878 98.881 93.8986 98.881 88.7413 96.7508C83.584 94.4429 80.3829 90.7149 81.4499 88.4071C82.517 85.9218 87.4964 85.9218 92.6537 88.0521C97.811 90.1823 101.012 94.0879 99.945 96.3957Z" fill="#EA512D"/>
<path opacity="0.23" d="M51.0395 71.7198C50.3282 74.2051 45.3487 75.0928 40.0136 73.495C34.6785 71.8973 30.9439 68.7019 31.6552 66.2165C32.3666 63.7312 37.346 62.8436 42.6812 64.4413C48.0163 65.8615 51.7509 69.2345 51.0395 71.7198Z" fill="#EA512D"/>
<path d="M72.7363 126.22C72.7363 126.22 78.605 141.487 78.4271 148.943C78.2493 156.399 68.8239 207.348 119.152 208.236C169.48 208.946 171.97 162.435 172.503 154.801C173.037 147.168 168.413 140.777 165.923 144.86C163.433 148.943 156.853 152.671 150.451 149.12C144.049 145.392 138.18 141.487 122.709 141.487C107.059 141.309 102.613 146.102 93.5433 137.049C84.4736 128.173 83.9401 125.332 83.9401 125.332L72.7363 126.22Z" fill="#FFD261"/>
<path opacity="0.5" d="M77.7158 161.37C77.7158 161.37 77.7158 183.56 87.8525 194.744C97.9893 205.751 111.327 208.591 127.51 207.171C143.693 205.751 154.186 197.229 159.343 191.016C164.5 184.625 168.057 176.637 170.191 167.583C172.325 158.529 171.792 154.801 171.792 154.801C171.792 154.801 170.725 185.69 140.137 193.146C109.549 200.247 79.3164 186.4 77.7158 161.37Z" fill="#F4B831"/>
<path opacity="0.5" d="M135.157 86.4543C135.157 86.4543 122.886 124.267 93.5433 128.173C64.2001 132.078 28.6326 119.296 21.3413 101.544C14.05 83.7915 22.0527 72.9625 22.0527 72.9625C22.0527 72.9625 19.5629 78.9983 24.3645 90.5374C29.1662 102.076 40.0142 97.9934 40.0142 97.9934L72.3806 99.0585C72.3806 99.0585 64.9115 105.982 60.2877 109.355C55.3082 112.905 61.5326 122.492 93.5433 118.231C121.997 114.858 135.157 86.4543 135.157 86.4543Z" fill="#F4B831"/>
<path d="M41.2589 85.7442C41.2589 85.7442 40.3697 94.6204 36.9908 97.2833C33.6119 99.9461 25.9649 105.272 26.1427 106.87C26.3205 108.467 29.3438 109.532 30.9443 109.532C32.367 109.532 34.5011 108.822 34.5011 108.822L48.9059 90.8924L41.2589 85.7442Z" fill="#960F0F"/>
<path d="M47.3046 92.3126C47.3046 92.3126 42.8587 94.9755 39.8355 99.2361C36.8122 103.497 32.1885 105.272 30.9436 106.16C29.6987 107.047 30.9436 109.532 32.5441 109.177C34.1447 108.822 44.9927 102.609 50.3279 101.011C55.663 99.4136 58.1527 98.526 58.1527 98.526L47.3046 92.3126Z" fill="#D62929"/>
<path d="M25.4307 108.822C25.4307 108.822 26.6755 112.018 34.1447 112.195C41.7917 112.373 48.9052 106.159 52.6398 105.272C56.3744 104.562 60.109 105.804 66.6889 102.964C73.0911 100.124 76.2922 95.6855 76.2922 95.6855C76.2922 95.6855 68.4673 99.4136 59.5754 100.124C50.8614 100.834 44.6371 103.674 41.9695 105.272C39.302 107.047 35.5674 109.532 31.4771 109.71C27.0312 109.887 25.4307 108.822 25.4307 108.822Z" fill="#D85412"/>
<path d="M26.498 72.6074C26.498 72.6074 33.078 74.9152 41.7921 74.5602C50.5061 74.2051 55.1299 70.1221 59.0423 70.6546C62.7769 71.0097 69.0012 75.8028 69.0012 78.2882C69.0012 80.7735 68.2898 86.4543 71.6687 89.6497C75.0476 92.8452 77.1817 90.8924 77.1817 93.3777C77.1817 95.8631 67.7563 99.236 60.8207 98.526C54.0628 97.9934 43.9261 86.6318 38.591 82.7263C33.2559 78.8208 26.498 72.6074 26.498 72.6074Z" fill="#F46D22"/>
<path d="M75.9368 93.3778C75.9368 93.3778 70.246 99.9462 60.8206 97.4608C51.3952 94.9755 38.7688 79.8859 32.7223 75.6254C26.6758 71.3648 22.7634 71.5423 23.1191 74.5602C23.4747 77.5781 25.7866 78.6433 31.1217 80.9511C36.4569 83.2589 47.1271 91.9576 50.3282 94.9755C53.5293 97.9934 59.3979 102.432 67.2227 99.7687C75.2254 97.2833 76.6481 95.3306 77.1816 93.9104C77.5373 92.4902 75.9368 93.3778 75.9368 93.3778Z" fill="#FC9651"/>
<path d="M40.1911 85.7442C40.1911 85.7442 40.5467 91.2475 37.3457 95.153C34.1446 99.236 25.9641 104.384 24.7192 106.515C23.4744 108.645 28.9873 112.905 36.1008 109.888C43.0365 106.692 46.5932 103.142 51.9283 102.076C57.2635 101.011 64.0213 100.834 64.0213 100.834L56.9078 98.3484C56.9078 98.3484 50.8613 99.0585 46.2375 101.721C41.6138 104.562 34.3224 108.645 30.9435 108.822C27.5646 109 25.4306 107.225 27.7425 105.449C30.0543 103.852 36.4565 99.4136 39.6575 95.3305C42.8586 91.2475 41.6138 86.4543 41.6138 86.4543L40.1911 85.7442Z" fill="#FC9651"/>
<path d="M40.1919 86.8094L41.7924 88.0521C41.7924 88.0521 41.9702 90.0048 41.4367 91.6025C40.9032 93.2003 40.3697 94.2654 40.3697 94.2654C40.3697 94.2654 39.6584 93.9104 39.1248 93.9104C38.4135 94.0879 37.7021 94.4429 37.7021 94.4429C37.7021 94.4429 39.1248 91.9576 39.4805 90.0048C40.014 88.2296 40.1919 86.8094 40.1919 86.8094Z" fill="#ED7D32"/>
<path d="M55.1298 98.526C55.1298 98.526 56.9082 99.5911 58.8644 99.9462C60.6427 100.301 63.3103 100.479 63.3103 100.479C63.3103 100.479 57.4417 100.834 56.3746 101.011C55.1298 101.189 52.9957 101.544 52.9957 101.544C52.9957 101.544 53.3514 101.366 53.5292 100.479C53.7071 99.5911 51.9287 99.2361 51.9287 99.2361C51.9287 99.2361 53.8849 98.7035 55.1298 98.526Z" fill="#ED7D32"/>
<path opacity="0.53" d="M41.4364 81.1286C41.4364 81.1286 47.6607 86.9868 49.7948 88.9396C51.9288 90.7149 53.3515 91.425 53.7072 91.425C54.0629 91.425 54.7742 89.1171 57.7974 86.2768C60.9985 83.4364 68.112 77.0455 68.112 77.0455C68.112 77.0455 65.8001 74.0276 64.7331 74.0276C63.6661 74.0276 58.8645 77.4005 50.6839 78.6432C42.5034 80.0634 39.8359 79.5308 41.4364 81.1286Z" fill="#FF8548"/>
<path d="M64.7326 75.2703C64.7326 75.2703 65.6218 76.5129 66.3331 78.8208C66.8667 81.1286 66.3331 81.6611 65.2661 81.8387C64.3769 82.0162 63.6656 80.7735 64.0213 79.1758C64.1991 77.5781 64.7326 75.2703 64.7326 75.2703Z" fill="#6D3B18"/>
<path opacity="0.25" d="M46.2383 96.9282C46.2383 96.9282 47.4831 98.7035 46.4161 99.7686C45.3491 100.834 40.014 104.739 38.4134 105.449C36.8129 106.159 36.1016 105.982 36.1016 105.804C36.1016 105.627 40.7253 103.142 43.0372 101.189C45.3491 99.236 44.4599 98.3484 44.9934 97.4608C45.7048 96.9282 46.0605 96.7507 46.2383 96.9282Z" fill="#FDFDFD"/>
<path d="M68.1118 82.9039C68.1118 82.9039 68.2896 86.9869 70.068 88.9397C71.8464 90.8925 72.7355 91.07 72.5577 91.425C72.3799 91.7801 70.9572 91.425 69.3566 89.1172C67.9339 86.9869 67.7561 82.1938 68.1118 82.9039Z" fill="#FDFDFD"/>
<path d="M29.8766 74.5602C29.8766 74.5602 33.0776 76.3354 36.1009 78.8208C39.1241 81.3061 40.5468 83.0814 40.369 83.2589C40.1911 83.6139 37.1679 80.241 35.0339 78.6432C32.8998 77.0455 30.0544 75.0928 29.5209 74.5602C28.8095 74.0276 29.8766 74.5602 29.8766 74.5602Z" fill="#FDFDFD"/>
<path d="M40.9026 83.6139C40.9026 83.6139 42.5032 84.8566 42.681 85.2117C43.0367 85.5667 42.3253 85.5667 41.614 84.8566C40.9026 84.1465 40.547 83.7915 40.3691 83.6139C40.3691 83.6139 40.7248 83.4364 40.9026 83.6139Z" fill="#FDFDFD"/>
<path d="M54.5963 94.6204C54.5963 94.6204 57.086 96.3957 58.6865 96.9283C60.2871 97.4608 61.8876 97.8159 62.2433 97.8159C62.599 97.8159 62.599 98.3484 61.5319 98.1709C60.4649 97.9934 59.2201 97.8159 57.2638 96.9283C55.3076 96.0406 54.0628 94.798 53.8849 94.6204C53.7071 94.4429 54.2406 94.4429 54.5963 94.6204Z" fill="#FDFDFD"/>
<path d="M52.4621 93.2002C52.4621 93.2002 53.5291 93.9103 53.5291 94.0879C53.5291 94.2654 53.5291 94.4429 52.9956 94.0879C52.4621 93.7328 52.1064 93.5553 52.1064 93.3778C52.1064 93.2002 52.1064 93.0227 52.4621 93.2002Z" fill="#FDFDFD"/>
<path d="M68.4673 97.8159C68.4673 97.8159 70.7792 97.1058 72.024 96.3957C73.2689 95.6856 73.6245 95.5081 73.8024 95.5081C73.9802 95.5081 74.1581 95.5081 73.4467 96.0406C72.7354 96.5732 69.7121 97.8159 69.0008 97.9934C68.4673 98.3484 67.7559 98.1709 68.4673 97.8159Z" fill="#FDFDFD"/>
<path d="M74.3365 95.153C74.3365 95.153 75.0479 94.6204 75.4036 94.2654C75.7592 93.9103 75.7592 93.7328 75.9371 93.7328C76.1149 93.7328 76.2927 93.7328 75.9371 94.2654C75.5814 94.7979 74.8701 95.3305 74.5144 95.508C74.1587 95.3305 74.1587 95.3305 74.3365 95.153Z" fill="#FDFDFD"/>
<path d="M45.7041 102.254C45.7041 102.254 42.3251 104.029 41.0803 104.917C39.6576 105.627 39.3019 105.982 39.4798 106.16C39.4798 106.337 40.0133 106.337 40.7246 105.982C41.436 105.449 45.8819 102.964 46.2376 102.609C46.5932 102.254 46.2376 101.899 45.7041 102.254Z" fill="#FDFDFD"/>
<path d="M38.2354 106.515C38.2354 106.515 36.8127 107.047 36.6349 107.225C36.2792 107.402 36.457 107.58 37.1684 107.402C37.8797 107.225 38.7689 106.692 38.9468 106.515C38.9468 106.16 38.5911 106.337 38.2354 106.515Z" fill="#FDFDFD"/>
<path opacity="0.5" d="M73.9805 129.593C73.9805 129.593 76.1145 129.948 81.2718 130.125C86.4291 130.303 87.4961 130.303 87.4961 130.303L91.4085 134.741C91.4085 134.741 90.5193 139.889 86.6069 143.617C82.5167 147.345 78.4264 144.327 78.4264 144.327L73.9805 129.593Z" fill="#E2A01B"/>
<path d="M113.283 205.218C113.283 205.218 94.9657 205.928 76.4706 212.674C68.6458 215.514 57.2642 221.195 56.0193 221.373C54.7745 221.55 51.9291 221.905 51.5734 214.982C51.2177 208.058 49.6172 175.572 49.6172 175.572C49.6172 175.572 51.3956 172.021 53.1739 175.394C54.7745 178.767 54.0631 193.679 58.1534 201.313C62.4215 208.769 65.089 209.834 65.089 209.834C65.089 209.834 72.2025 208.236 79.6717 205.573C91.2311 201.49 113.461 198.65 113.461 198.65C113.461 198.65 115.773 199.537 115.595 202.733C115.417 205.928 113.283 205.218 113.283 205.218Z" fill="#F46D22"/>
<path d="M85.8955 80.0634C85.8955 80.0634 92.4755 67.8143 101.012 72.0748C109.548 76.3354 102.612 86.9869 102.612 86.9869C102.612 86.9869 103.146 88.4071 104.924 88.5846C106.702 88.5846 106.88 87.5195 106.88 87.5195C106.88 87.5195 107.414 89.8273 104.391 89.6498C101.367 89.4722 98.3441 86.9869 98.3441 86.9869C98.3441 86.9869 105.102 77.7556 99.589 74.5602C93.8982 71.3648 87.1404 80.4185 86.6069 80.4185C86.0733 80.4185 85.8955 80.0634 85.8955 80.0634Z" fill="#212121"/>
<path d="M52.9962 65.3289C52.9962 65.3289 58.3314 52.5472 50.3287 49.3517C42.326 46.1563 38.4136 58.0504 38.4136 58.0504C38.4136 58.0504 36.9909 58.583 35.9238 57.5178C34.8568 56.2752 35.5682 55.3876 35.5682 55.3876C35.5682 55.3876 33.612 56.4527 35.3903 58.583C37.1687 60.5358 40.7255 61.0683 40.7255 61.0683C40.7255 61.0683 43.5709 50.0618 49.2617 52.0146C54.7746 53.9674 52.107 64.7963 52.2849 65.1514C52.6406 65.5064 52.9962 65.3289 52.9962 65.3289Z" fill="#212121"/>
<path d="M85.1841 10.4739C85.1841 10.4739 83.9392 6.39086 88.0295 2.84037C92.1197 -0.710113 96.7435 -1.62944e-05 96.7435 -1.62944e-05C96.7435 -1.62944e-05 94.2538 1.5977 93.5424 3.19542C92.6533 4.97066 92.4754 6.92343 92.4754 6.92343C92.4754 6.92343 98.5219 -0.355065 113.282 1.77523C128.043 3.90552 134.801 13.8469 134.801 13.8469C134.801 13.8469 127.332 8.8762 121.107 9.76382C114.883 10.6514 109.548 16.1547 109.548 16.1547C109.548 16.1547 114.527 13.1368 120.396 15.7996C126.265 18.4625 129.288 26.2736 129.288 26.2736C129.288 26.2736 126.265 23.0781 121.641 22.5456C117.017 22.013 113.994 25.0309 113.994 25.0309C113.994 25.0309 97.277 24.3208 85.1841 10.4739Z" fill="#FFD261"/>
<path d="M129.643 26.2736C129.643 26.2736 125.909 22.1905 120.752 21.8355C115.416 21.4804 116.128 24.1433 110.615 23.9658C105.102 23.7883 102.79 22.7231 102.79 22.7231C102.79 22.7231 108.837 26.2736 113.105 25.741C117.373 25.2085 118.084 22.1905 122.352 23.0782C126.265 23.9658 129.643 26.2736 129.643 26.2736Z" fill="#F4B831"/>
<path d="M134.979 13.8469C134.979 13.8469 127.865 6.21334 118.44 8.69868C109.014 11.184 106.169 18.8176 106.169 18.8176C106.169 18.8176 118.973 9.76382 124.664 10.6514C130.355 11.7166 134.979 13.8469 134.979 13.8469Z" fill="#F4B831"/>
<path d="M96.9214 0C96.9214 0 94.4317 1.42019 93.3647 4.26058C92.2977 6.92345 92.6533 9.05374 92.6533 9.05374C92.6533 9.05374 91.2306 6.03583 92.4755 3.37296C93.8982 0.887622 96.9214 0 96.9214 0Z" fill="#F4B831"/>
<path d="M88.741 2.48535C88.741 2.48535 85.0064 5.85831 86.7847 10.829C88.5631 15.7997 95.6766 19.8827 95.6766 19.8827C95.6766 19.8827 89.4523 18.9951 86.2512 12.0717C83.0501 5.14822 87.4961 3.19545 88.741 2.48535Z" fill="#F4B831"/>
<path d="M128.754 145.392C128.754 145.392 147.783 142.907 154.007 130.125C160.232 117.521 152.407 107.225 156.141 101.544C159.876 96.0406 174.281 82.7263 177.66 75.8029C181.038 68.8794 181.928 63.0211 186.018 63.0211C190.108 63.0211 194.198 69.412 189.753 81.3061C185.307 93.0227 182.461 96.7507 182.461 96.7507C182.461 96.7507 189.397 91.07 191.709 87.8745C194.021 84.6791 199.178 86.0993 199 92.4902C199 98.881 188.508 108.112 185.84 110.243C183.173 112.373 182.106 113.083 182.106 113.083C182.106 113.083 185.84 111.84 189.219 110.065C192.42 108.29 196.333 110.953 193.487 118.231C190.642 125.51 181.038 128.705 181.038 128.705C181.038 128.705 189.041 128.173 187.085 135.806C185.307 143.262 174.103 142.552 174.103 142.552C174.103 142.552 176.948 148.588 172.147 152.848C167.167 156.754 160.232 152.671 160.232 152.671C160.232 152.671 160.409 160.482 157.742 160.837C155.074 161.192 151.34 157.464 151.34 157.464C151.34 157.464 149.028 163.322 145.827 162.435C142.626 161.547 140.669 158.352 140.669 158.352C140.669 158.352 141.381 159.772 139.069 159.949C136.757 160.127 134.267 156.931 134.267 156.931C134.267 156.931 127.154 153.559 125.553 150.541C123.775 147.523 126.798 144.682 128.754 145.392Z" fill="#FFB92E"/>
<path d="M182.461 66.2165C182.461 66.2165 184.239 62.4885 187.796 63.7312C191.353 65.1514 192.776 71.8973 189.93 80.241C186.907 88.5846 184.773 92.4901 181.394 97.8159C178.015 103.142 163.61 113.616 163.61 113.616C163.61 113.616 177.66 99.7686 182.461 86.2768C187.263 72.7849 188.33 66.9266 182.461 66.2165Z" fill="#EA9F1B"/>
<path d="M191.53 88.4071C191.53 88.4071 192.775 86.2768 195.265 86.4544C197.755 86.6319 200.6 92.1351 196.51 98.3485C192.42 104.739 184.595 110.953 180.682 113.616C176.77 116.101 165.922 120.006 165.922 120.006C165.922 120.006 181.038 113.083 188.507 102.964C195.976 92.8452 195.443 88.2296 191.53 88.4071Z" fill="#EA9F1B"/>
<path d="M160.409 129.06C160.409 129.06 174.103 130.835 181.394 127.995C188.685 125.155 191.886 121.427 193.665 116.989C195.443 112.373 193.131 108.822 190.464 109.71C187.796 110.598 185.306 111.84 185.306 111.84C185.306 111.84 189.041 110.953 188.507 115.568C187.618 120.006 174.992 129.238 160.409 129.06Z" fill="#EA9F1B"/>
<path d="M156.675 136.339C156.675 136.339 168.056 141.664 174.103 142.019C180.149 142.197 184.773 140.777 186.374 136.339C187.974 131.901 185.484 129.77 183.528 129.238C181.75 128.705 179.971 128.883 179.971 128.883C179.971 128.883 183.35 134.741 175.348 137.581C167.167 140.422 156.675 136.339 156.675 136.339Z" fill="#EA9F1B"/>
<path d="M149.562 144.15C149.562 144.15 156.497 151.783 162.366 153.381C168.234 154.979 172.147 153.736 173.747 150.008C175.348 146.28 173.57 142.552 173.57 142.552C173.57 142.552 173.57 150.363 165.211 150.186C157.031 150.008 149.562 144.15 149.562 144.15Z" fill="#EA9F1B"/>
<path d="M144.404 144.505C144.404 144.505 147.25 154.091 151.518 157.642C155.786 161.192 158.098 161.547 158.987 159.239C159.876 157.109 159.876 152.848 159.876 152.848C159.876 152.848 158.809 158.174 154.185 156.754C149.384 155.156 144.404 144.505 144.404 144.505Z" fill="#EA9F1B"/>
<path d="M137.112 148.41C137.112 148.41 138.891 156.221 141.38 159.417C144.048 162.612 147.071 163.322 148.85 161.015C150.628 158.884 151.161 157.642 151.161 157.642L149.561 155.511C149.561 155.511 149.383 159.594 145.648 158.707C142.092 157.819 137.112 148.41 137.112 148.41Z" fill="#EA9F1B"/>
<path d="M128.576 153.381L134.267 156.754C134.267 156.754 136.223 159.239 137.824 159.772C139.602 160.304 140.491 159.417 140.491 159.062C140.491 158.529 140.313 158.174 140.313 158.174C140.313 158.174 139.424 159.772 136.935 157.464C134.445 155.156 132.844 151.251 132.844 151.251C132.844 151.251 133.556 155.334 132.133 154.979C130.71 154.624 128.576 153.381 128.576 153.381Z" fill="#EA9F1B"/>
<path d="M90.3418 137.226C90.3418 137.226 100.834 125.687 111.504 122.669C113.283 122.137 115.239 123.379 115.595 125.332L120.574 154.091C120.93 155.866 119.329 157.464 117.551 157.109C110.437 155.866 97.2775 152.848 90.8753 150.363L90.3418 137.226Z" fill="#35ACE1"/>
<path d="M73.8033 140.067C73.8033 140.067 72.3806 133.321 51.218 133.321C49.9731 133.321 48.9061 134.386 49.0839 135.629L52.8185 165.098C52.9963 167.228 55.3082 168.293 57.0866 167.405C61.7104 164.92 69.1795 160.659 73.9811 156.576C75.5817 155.156 76.293 153.203 75.9374 151.073L73.8033 140.067Z" fill="#35ACE1"/>
<path d="M57.2646 141.487C57.2646 141.487 72.0252 142.907 72.203 143.972C72.3808 145.215 61.1771 143.262 57.2646 141.487Z" fill="#169DCE"/>
<path d="M72.7366 147.7C72.7366 147.7 64.2004 148.765 59.5767 156.221C54.9529 163.677 60.288 156.754 61.1772 155.511C62.0664 154.269 64.9118 151.073 68.4685 150.186C72.0253 149.298 76.1156 148.41 72.7366 147.7Z" fill="#169DCE"/>
<path d="M103.146 133.498C103.146 133.498 89.6305 139.712 89.8084 140.777C89.9862 141.842 99.9451 136.339 103.146 133.498Z" fill="#169DCE"/>
<path d="M90.5199 144.327C90.5199 144.327 98.8782 142.552 105.636 147.878C112.394 153.203 105.103 148.588 103.858 147.7C102.613 146.813 98.8782 144.682 95.1437 145.215C91.4091 145.747 87.6745 146.102 90.5199 144.327Z" fill="#169DCE"/>
<path d="M55.13 151.961C56.2104 151.961 57.0862 151.086 57.0862 150.008C57.0862 148.93 56.2104 148.055 55.13 148.055C54.0497 148.055 53.1738 148.93 53.1738 150.008C53.1738 151.086 54.0497 151.961 55.13 151.961Z" fill="#7ACFE8"/>
<path d="M113.639 142.552C114.719 142.552 115.595 141.678 115.595 140.599C115.595 139.521 114.719 138.646 113.639 138.646C112.558 138.646 111.683 139.521 111.683 140.599C111.683 141.678 112.558 142.552 113.639 142.552Z" fill="#7ACFE8"/>
<path d="M111.861 154.091C112.941 154.091 113.817 153.217 113.817 152.138C113.817 151.06 112.941 150.186 111.861 150.186C110.78 150.186 109.904 151.06 109.904 152.138C109.904 153.217 110.78 154.091 111.861 154.091Z" fill="#7ACFE8"/>
<path d="M61.7101 161.547C62.7905 161.547 63.6663 160.673 63.6663 159.594C63.6663 158.516 62.7905 157.642 61.7101 157.642C60.6297 157.642 59.7539 158.516 59.7539 159.594C59.7539 160.673 60.6297 161.547 61.7101 161.547Z" fill="#7ACFE8"/>
<path d="M60.2879 141.664C61.0737 141.664 61.7106 141.029 61.7106 140.244C61.7106 139.46 61.0737 138.824 60.2879 138.824C59.5022 138.824 58.8652 139.46 58.8652 140.244C58.8652 141.029 59.5022 141.664 60.2879 141.664Z" fill="#7ACFE8"/>
<path d="M102.969 133.676C103.754 133.676 104.391 133.04 104.391 132.256C104.391 131.471 103.754 130.835 102.969 130.835C102.183 130.835 101.546 131.471 101.546 132.256C101.546 133.04 102.183 133.676 102.969 133.676Z" fill="#7ACFE8"/>
<path d="M96.744 136.161C97.5297 136.161 98.1667 135.525 98.1667 134.741C98.1667 133.957 97.5297 133.321 96.744 133.321C95.9583 133.321 95.3213 133.957 95.3213 134.741C95.3213 135.525 95.9583 136.161 96.744 136.161Z" fill="#7ACFE8"/>
<path d="M99.0565 148.943C99.8422 148.943 100.479 148.307 100.479 147.523C100.479 146.738 99.8422 146.102 99.0565 146.102C98.2708 146.102 97.6338 146.738 97.6338 147.523C97.6338 148.307 98.2708 148.943 99.0565 148.943Z" fill="#7ACFE8"/>
<path d="M69.1795 154.979C69.9653 154.979 70.6022 154.343 70.6022 153.559C70.6022 152.774 69.9653 152.138 69.1795 152.138C68.3938 152.138 67.7568 152.774 67.7568 153.559C67.7568 154.343 68.3938 154.979 69.1795 154.979Z" fill="#7ACFE8"/>
<path d="M73.0923 137.936C73.0923 137.936 71.314 139.357 72.381 145.215C73.448 151.073 74.8707 153.203 76.4712 153.026C78.0718 152.848 88.2085 151.606 92.4766 150.186C92.4766 150.186 90.6982 139.534 90.3426 137.049C89.9869 134.563 88.9199 135.096 88.3863 135.096C87.675 135.273 74.6929 136.694 73.0923 137.936Z" fill="#7ACFE8"/>
</g>
<defs>
<clipPath id="clip0_174_3864">
<rect width="199" height="221.373" fill="white"/>
</clipPath>
</defs>
</svg>
