<svg width="18" height="18" viewBox="0 0 18 18" fill="none" xmlns="http://www.w3.org/2000/svg">
<path d="M7.70297 15.5757L6.80855 15.1285L7.70297 15.5757ZM6.31532 15.4609L7.2711 15.1668L6.31532 15.4609ZM10.551 10.2151L10.1038 9.32071L10.551 10.2151ZM10.2156 10.5505L11.11 10.9978L10.2156 10.5505ZM15.4613 6.31489L15.1672 7.27067L15.4613 6.31489ZM15.5761 7.70255L16.0234 8.59697H16.0234L15.5761 7.70255ZM3.60446 2.66664L3.31038 3.62241L3.60446 2.66664ZM2.66706 3.60403L3.62284 3.30995L2.66706 3.60403ZM3.31038 3.62241L15.1672 7.27067L15.7554 5.35911L3.89855 1.71086L3.31038 3.62241ZM15.1289 6.80812L10.1038 9.32071L10.9982 11.1096L16.0234 8.59697L15.1289 6.80812ZM9.32113 10.1033L6.80855 15.1285L8.5974 16.0229L11.11 10.9978L9.32113 10.1033ZM7.2711 15.1668L3.62284 3.30995L1.71128 3.89812L5.35954 15.755L7.2711 15.1668ZM6.80855 15.1285C6.90941 14.9268 7.20477 14.9512 7.2711 15.1668L5.35954 15.755C5.82384 17.2639 7.89135 17.435 8.5974 16.0229L6.80855 15.1285ZM10.1038 9.32071C9.76508 9.49004 9.49047 9.76466 9.32113 10.1033L11.11 10.9978C11.0858 11.0461 11.0466 11.0854 10.9982 11.1096L10.1038 9.32071ZM15.1672 7.27067C14.9516 7.20434 14.9272 6.90898 15.1289 6.80812L16.0234 8.59697C17.4355 7.89092 17.2644 5.82341 15.7554 5.35911L15.1672 7.27067ZM3.89855 1.71086C2.55582 1.29771 1.29813 2.55538 1.71128 3.89812L3.62284 3.30995C3.68186 3.50177 3.50219 3.68143 3.31038 3.62241L3.89855 1.71086Z" fill="white"/>
</svg>
