<svg width="15" height="15" viewBox="0 0 15 15" fill="none" xmlns="http://www.w3.org/2000/svg">
<path d="M12.6562 3.63281H10.6641L10.1895 2.30273C10.1567 2.21172 10.0966 2.13305 10.0174 2.07747C9.93822 2.02188 9.84381 1.9921 9.74707 1.99219H5.25293C5.05518 1.99219 4.87793 2.1167 4.81201 2.30273L4.33594 3.63281H2.34375C1.69629 3.63281 1.17188 4.15723 1.17188 4.80469V11.4844C1.17188 12.1318 1.69629 12.6562 2.34375 12.6562H12.6562C13.3037 12.6562 13.8281 12.1318 13.8281 11.4844V4.80469C13.8281 4.15723 13.3037 3.63281 12.6562 3.63281ZM12.7734 11.4844C12.7734 11.5488 12.7207 11.6016 12.6562 11.6016H2.34375C2.2793 11.6016 2.22656 11.5488 2.22656 11.4844V4.80469C2.22656 4.74023 2.2793 4.6875 2.34375 4.6875H5.07861L5.3291 3.98731L5.66455 3.04688H9.33398L9.66943 3.98731L9.91992 4.6875H12.6562C12.7207 4.6875 12.7734 4.74023 12.7734 4.80469V11.4844ZM7.5 5.625C6.20508 5.625 5.15625 6.67383 5.15625 7.96875C5.15625 9.26367 6.20508 10.3125 7.5 10.3125C8.79492 10.3125 9.84375 9.26367 9.84375 7.96875C9.84375 6.67383 8.79492 5.625 7.5 5.625ZM7.5 9.375C6.72363 9.375 6.09375 8.74512 6.09375 7.96875C6.09375 7.19238 6.72363 6.5625 7.5 6.5625C8.27637 6.5625 8.90625 7.19238 8.90625 7.96875C8.90625 8.74512 8.27637 9.375 7.5 9.375Z" fill="#F8F8F8"/>
</svg>
