<svg width="13" height="13" viewBox="0 0 13 13" fill="none" xmlns="http://www.w3.org/2000/svg">
<path d="M7.85119 6.50001L11.972 2.38876C12.1525 2.20831 12.2539 1.96355 12.2539 1.70835C12.2539 1.45314 12.1525 1.20839 11.972 1.02793C11.7916 0.847474 11.5468 0.746094 11.2916 0.746094C11.0364 0.746094 10.7916 0.847474 10.6112 1.02793L6.49994 5.14877L2.38869 1.02793C2.20823 0.847474 1.96348 0.746094 1.70827 0.746094C1.45307 0.746094 1.20832 0.847474 1.02786 1.02793C0.8474 1.20839 0.74602 1.45314 0.74602 1.70835C0.74602 1.96355 0.8474 2.20831 1.02786 2.38876L5.14869 6.50001L1.02786 10.6113C0.938035 10.7004 0.866741 10.8063 0.818087 10.9231C0.769434 11.0399 0.744385 11.1652 0.744385 11.2917C0.744385 11.4182 0.769434 11.5435 0.818087 11.6602C0.866741 11.777 0.938035 11.883 1.02786 11.9721C1.11695 12.0619 1.22294 12.1332 1.33972 12.1819C1.4565 12.2305 1.58176 12.2556 1.70827 12.2556C1.83479 12.2556 1.96005 12.2305 2.07683 12.1819C2.19361 12.1332 2.2996 12.0619 2.38869 11.9721L6.49994 7.85126L10.6112 11.9721C10.7003 12.0619 10.8063 12.1332 10.9231 12.1819C11.0398 12.2305 11.1651 12.2556 11.2916 12.2556C11.4181 12.2556 11.5434 12.2305 11.6602 12.1819C11.7769 12.1332 11.8829 12.0619 11.972 11.9721C12.0618 11.883 12.1331 11.777 12.1818 11.6602C12.2304 11.5435 12.2555 11.4182 12.2555 11.2917C12.2555 11.1652 12.2304 11.0399 12.1818 10.9231C12.1331 10.8063 12.0618 10.7004 11.972 10.6113L7.85119 6.50001Z" fill="white"/>
</svg>
