<svg width="45" height="44" viewBox="0 0 45 44" fill="none" xmlns="http://www.w3.org/2000/svg">
<g clip-path="url(#clip0_234_43)">
<path d="M44.0488 1.02441C43.8293 1.09758 43.9024 1.3171 43.9756 1.39027C43.9756 1.46344 43.9756 1.46344 44.0488 1.60978V1.68295C44.0488 1.75612 44.1219 1.82929 44.1219 1.90246C44.1219 2.0488 44.1219 2.12198 44.1951 2.34149C44.1951 2.63417 44.1951 3.07319 44.1219 3.51222C44.1219 3.58539 44.1219 3.65856 44.1219 3.65856C44.0488 3.87807 44.0488 4.02441 43.9756 4.24393L43.8293 4.68295C43.7561 4.82929 43.7561 4.97563 43.6829 5.0488C43.6829 5.12197 43.6098 5.19515 43.6098 5.26832C43.5366 5.48783 43.4634 5.63417 43.3171 5.85368L43.2439 6.00002C43.1707 6.21954 43.0244 6.43905 42.9512 6.58539C42.7317 6.95124 42.5854 7.17076 42.3659 7.46344C42.2927 7.46344 42.2927 7.46344 42.2195 7.46344C42.6585 6.58539 43.0244 5.63417 43.2439 4.82929C43.3171 4.68295 43.3171 4.53661 43.3902 4.39027C43.4634 4.09758 43.5366 3.87807 43.5366 3.73173C43.5366 3.58539 43.6098 3.43905 43.6098 3.36588L43.6829 3.07319C43.7561 2.85368 43.7561 2.63417 43.6098 2.561C43.4634 2.48783 43.3171 2.63417 43.2439 2.78051C43.1707 2.85368 43.0976 3.00002 43.0244 3.14637C42.9512 3.29271 42.8049 3.51222 42.6585 3.73173C42.3659 4.24393 42 4.90246 41.6341 5.63417C41.1951 6.58539 40.9756 7.46344 40.9024 8.0488C40.8293 8.34149 40.8293 8.561 40.7561 8.78051C40.7561 8.85368 40.7561 8.92685 40.7561 8.92685C40.7561 9.14637 40.6829 9.29271 40.6829 9.29271V9.43905C40.1707 10.0244 39.5854 10.6098 39 11.122C38.0488 12 36.9512 12.7317 35.8537 13.4634C35.7073 13.5366 35.561 13.683 35.3415 13.7561L35.4146 13.683C35.6341 13.5366 35.7805 13.3171 36 13.0976C36.7317 12.3659 37.3171 11.7073 37.6829 11.0488C37.9756 10.6098 38.1219 10.2439 38.2683 9.95124C38.3415 9.8049 38.4146 9.65856 38.4146 9.51222C38.4878 9.36588 38.4878 9.29271 38.4878 9.14637C38.561 8.92685 38.4878 8.70734 38.4146 8.561C38.3415 8.41466 38.1951 8.41466 38.0488 8.34149C37.9024 8.34149 37.6829 8.34149 37.5366 8.41466C37.3171 8.48783 37.1707 8.63417 36.9512 8.78051L36.878 8.85368C36.8049 8.92685 36.7317 9.00002 36.6585 9.00002C36.5854 9.0732 36.439 9.21954 36.3659 9.29271V9.36588C36.2195 9.51222 36.1463 9.65856 36 9.8049V9.87807C35.8537 10.0244 35.7805 10.1708 35.6341 10.3903C35.1219 11.0488 34.6829 11.9269 34.2439 13.0244C34.0976 13.4634 33.9512 13.8293 33.878 14.122C33.6585 14.561 33.6585 14.7073 33.6585 14.7073C32.0488 15.5122 30.439 16.3171 28.8293 17.0488C28.3171 17.2683 27.8049 17.561 27.2195 17.7805C27.2927 17.7073 27.3659 17.6342 27.439 17.561C27.9512 17.122 28.5366 16.6098 29.1219 16.0244C29.4878 15.6586 29.7805 15.3659 30.0732 15C30.8049 14.122 31.1707 13.3903 31.3171 12.9512C31.5366 12.2195 31.2439 11.9269 31.0244 11.8537C30.6585 11.7073 30.2195 11.7805 29.7073 12.0732C29.4146 12.2195 29.1951 12.439 28.8293 12.7317C28.4634 13.0244 28.1707 13.3903 27.8049 13.8293C26.9268 14.8537 26.3415 16.2439 26.122 16.9025C25.7561 17.7805 25.6098 18.439 25.6098 18.5854C24.2927 19.2439 22.9756 19.9756 21.7317 20.7073C20.9268 21.2195 20.122 21.6586 19.3171 22.1708C19.3902 22.0976 19.4634 22.0244 19.5366 21.9512C19.6829 21.8049 19.8293 21.6586 19.9756 21.439L20.122 21.2927C20.3415 21.0732 20.561 20.7805 20.7073 20.561C20.9268 20.3415 21.1463 20.0488 21.2927 19.7561C21.5122 19.4634 21.6585 19.1708 21.8049 18.9512C22.0976 18.5122 22.3171 18.0732 22.5366 17.561C22.7561 17.1951 22.8293 16.8293 22.9024 16.5366C23.0488 15.7317 22.7561 15.439 22.5366 15.3659C22.2439 15.2195 21.8049 15.2195 21.1463 15.7317C20.8537 15.9512 20.561 16.2439 20.2683 16.6098C19.9024 17.0488 19.6098 17.4878 19.3171 18C19.0244 18.5122 18.7317 19.0976 18.5122 19.7561C18.2927 20.2683 18.1463 20.8537 18 21.439C17.9268 21.6586 17.9268 21.8781 17.8537 22.1708C17.7805 22.3903 17.7805 22.6098 17.7805 22.7561C17.7073 23.0488 17.7073 23.1951 17.7073 23.2683C16.7561 23.9269 15.8049 24.5854 14.9268 25.2439C13.9024 25.9756 12.9512 26.7805 12 27.5854C12.0732 27.5122 12.0732 27.439 12.1463 27.3659C12.7317 26.561 13.6098 25.3903 14.122 24.2195C14.2683 24 14.3415 23.7073 14.4878 23.4147C14.561 23.1951 14.7073 22.9756 14.7073 22.7561C14.8537 22.3171 14.9268 22.0244 14.9268 21.6586C15 20.7805 14.6341 20.561 14.4146 20.561C14.122 20.4878 13.6829 20.561 13.0976 21.2195C12.878 21.439 12.6585 21.7317 12.3659 22.2439C12.0732 22.7561 11.8537 23.1951 11.6341 23.7073C11.4146 24.2927 11.1951 24.8781 11.0488 25.4634C10.9024 26.0488 10.8293 26.561 10.6829 27.1464C10.6098 27.5854 10.5366 27.9512 10.5366 28.3171C10.5366 28.6098 10.5366 28.7561 10.5366 28.7561C9.95122 29.2683 9.36585 29.7805 8.78049 30.3659C7.68293 31.3903 6.65854 32.4147 5.63415 33.5122C5.92683 33.0732 6.21951 32.561 6.51219 32.0488C6.87805 31.4634 7.09756 30.8781 7.31707 30.3659C7.7561 29.3415 7.97561 28.5366 7.97561 27.9512C7.97561 27.0732 7.53659 27 7.39024 27C6.5122 27 5.63415 28.8293 5.12195 30.439C4.90244 31.0244 4.7561 31.6098 4.60976 32.122C4.46341 32.6342 4.39024 33.1464 4.31707 33.5854C4.31707 34.5366 4.2439 35.122 4.2439 35.122V35.2683C3.95122 35.561 3.65854 35.9269 3.36585 36.2195C2.92683 36.7317 2.4878 37.2439 2.04878 37.7561C1.60976 38.2683 1.2439 38.8537 1.02439 39.5122V39.5854C1.02439 39.5122 1.02439 39.439 1.09756 39.3659C1.2439 38.8537 1.39024 38.4147 1.60976 37.9025L1.68293 37.6098C1.90244 37.0244 2.04878 36.6586 2.12195 36.2927C2.19512 35.9269 2.26829 35.6342 2.34146 35.4147C2.34146 35.0488 2.34146 34.8293 2.19512 34.7561C2.12195 34.6829 1.97561 34.6829 1.82927 34.7561C1.53659 34.9025 1.31707 35.2683 1.02439 35.8537C0.878049 36.2195 0.731707 36.5854 0.585366 37.0244C0.365854 37.6098 0.292683 38.122 0.146341 38.7073C0.0731707 39.0732 0 39.3659 0 39.6586C0 39.9512 0 40.1708 0 40.5366C0.0731707 40.9756 0.146341 41.4147 0.292683 41.8537C0.439024 42.2195 0.585366 42.5122 0.658537 42.6586V42.7317C0.658537 42.8049 0.731707 42.8781 0.731707 42.8781L0.804878 42.9512L1.17073 42.7317L1.09756 42.6586V42.5854C1.09756 42.5122 1.02439 42.439 0.951219 42.2927C0.878049 42.1464 0.804878 41.8537 0.804878 41.4147H0.951219V41.3415C0.951219 41.3415 0.951219 41.2683 1.02439 41.122C1.09756 40.9025 1.2439 40.6829 1.39024 40.4634C1.60976 40.1708 1.90244 39.9512 2.19512 39.6586C2.56098 39.3659 3 39.1464 3.36585 38.9269C3.65854 38.7805 3.87805 38.7073 4.09756 38.561C4.2439 38.4878 4.46341 38.4147 4.60976 38.3415C4.97561 38.122 5.34146 37.9756 5.56098 37.8293C5.85366 37.6829 6.07317 37.4634 6.21951 37.3171C6.36585 37.1708 6.43902 37.0244 6.51219 36.8781C6.58537 36.8049 6.58537 36.6586 6.51219 36.5854C6.36585 36.439 6.14634 36.3659 5.85366 36.439C5.4878 36.5122 4.82927 36.6586 3.73171 37.2439C3.21951 37.5366 2.70732 37.9025 2.34146 38.2683C2.19512 38.4147 2.04878 38.561 1.90244 38.7073C2.04878 38.4878 2.26829 38.1951 2.41463 37.9756C2.85366 37.4634 3.29268 36.9512 3.73171 36.5122C4.39024 35.7805 5.04878 35.122 5.70732 34.3903H5.78049C5.78049 34.3903 6.36585 34.3171 7.2439 34.1708C7.46341 34.1708 7.68293 34.0976 7.90244 34.0976C8.63415 33.9512 9.51219 33.8781 10.3171 33.6586C11.4146 33.439 12.2195 33.1464 12.7317 32.8537C13.0244 32.7073 13.2439 32.561 13.3902 32.4147C13.5366 32.2683 13.6829 32.0488 13.6829 31.8293C13.6829 31.6098 13.6098 31.1708 12.878 31.0976C12.2927 31.0244 11.4146 31.0976 10.4634 31.3171C9.87805 31.4634 9.29268 31.683 8.78049 31.9756C8.26829 32.1951 7.7561 32.4878 7.31707 32.8537C7.97561 32.1951 8.70732 31.5366 9.43902 30.8781C10.3902 30 11.4146 29.122 12.439 28.3171C12.439 28.3171 12.5854 28.3171 12.878 28.3903C12.9512 28.3903 13.0244 28.3903 13.1707 28.3903C13.3902 28.3903 13.7561 28.4634 14.0488 28.4634C14.6341 28.5366 15.1463 28.5366 15.6585 28.6098C16.3171 28.6098 16.9024 28.6098 17.4146 28.6098C18.5854 28.5366 19.3902 28.3903 19.9024 28.1708C20.1951 28.0244 20.4146 27.8781 20.561 27.8049C20.7805 27.5854 20.8537 27.3659 20.8537 27.2195C20.8537 27 20.7805 26.561 20.0488 26.2683C19.4634 26.0488 18.5854 25.9756 17.561 26.122C16.9756 26.1951 16.3902 26.2683 15.7317 26.4878C15.1463 26.7073 14.561 26.9269 14.0488 27.0732C13.9756 27.0732 13.9024 27.1464 13.8293 27.1464C14.4146 26.7073 15 26.2683 15.5854 25.8293C16.9024 24.8781 18.2927 23.9269 19.6829 22.9756C19.7561 22.9756 19.9024 23.0488 20.122 23.122C20.4146 23.1951 20.8537 23.3415 21.2927 23.4878C22.5366 23.8537 23.6341 24 24.5854 24.0732C25.6829 24.0732 26.4878 24 27.0732 23.7805C27.3659 23.6342 27.5854 23.561 27.8049 23.3415C27.9512 23.1951 28.0244 23.0488 28.0976 22.8293C28.1707 22.5366 28.0976 22.0976 27.439 21.8049C26.9268 21.5854 26.122 21.439 25.0244 21.3659C24.5122 21.3659 24 21.3659 23.1951 21.5122C22.5366 21.5854 21.878 21.8049 21.5122 21.9512C21.439 21.9512 21.2927 22.0244 21.2195 22.0244C21.5854 21.8049 21.878 21.5854 22.2439 21.3659C23.9268 20.3415 25.6829 19.3903 27.439 18.5122C27.5122 18.5854 28.0976 18.8781 28.9756 19.1708C30.2195 19.6098 31.3171 19.8293 32.1951 19.8293C33.5122 19.8293 34.3171 19.5366 34.8293 19.3171C35.1219 19.1708 35.3415 19.0244 35.561 18.8781C35.7073 18.7317 35.8537 18.5122 35.9268 18.3659C36 18.1464 36 17.6342 35.2683 17.4878C35.0488 17.4147 34.6829 17.3415 34.3171 17.3415C33.878 17.3415 33.3659 17.3415 32.8537 17.3415C31.5366 17.3415 30.0732 17.6342 29.3415 17.7805C29.2683 17.7805 29.1951 17.8537 29.1219 17.8537C29.1951 17.8537 29.1951 17.7805 29.2683 17.7805C30.439 17.1951 31.6829 16.6098 32.8537 16.0244C33.439 15.7317 34.0244 15.3659 34.6098 15.0732C34.9024 14.9269 35.1951 14.7073 35.4878 14.561C35.4878 14.561 35.6341 14.6342 35.9268 14.6342C36.2195 14.7073 36.6585 14.7805 37.0244 14.7805C37.6829 14.7805 39 14.7805 40.2439 14.122C40.5366 13.9756 40.7561 13.8293 41.0488 13.683C41.2683 13.5366 41.4878 13.3903 41.7073 13.2439C41.8537 13.0976 42.0732 12.9512 42.1463 12.8049L42.2195 12.7317C42.3659 12.5854 42.5122 12.439 42.5854 12.2927C42.8049 12 42.9512 11.7805 43.0976 11.4878C43.1707 11.2683 43.2439 11.0488 43.2439 10.9025C43.2439 10.683 43.1707 10.5366 43.0976 10.4634C42.878 10.3171 42.6585 10.4634 42.439 10.5366C42.2195 10.6098 42 10.7561 41.6341 10.9756C41.3415 11.122 40.9756 11.3415 40.5366 11.6342L40.2439 11.7805C40.0976 11.8537 39.9512 11.9269 39.7317 12.0732C39.6585 12.1464 39.5122 12.1464 39.439 12.2195C39.2927 12.2927 39.2195 12.3659 39.0732 12.439C38.9268 12.5122 38.7805 12.5854 38.6341 12.6586C38.0488 12.9512 37.5366 13.2439 37.0244 13.3903C37.8293 12.8049 38.6341 12.2195 39.3659 11.561C40.3171 10.683 41.1951 9.65856 42 8.561L42.1463 8.48783C42.1463 8.48783 42.2927 8.41466 42.5122 8.34149C42.7317 8.19515 42.9512 8.04881 43.3171 7.75612C43.3902 7.68295 43.4634 7.68295 43.4634 7.60978C43.5366 7.53661 43.6829 7.39027 43.7561 7.3171C43.9024 7.17076 44.0488 6.95124 44.1951 6.73173C44.2683 6.65856 44.3415 6.51222 44.4146 6.36588C44.4878 6.21954 44.561 6.07319 44.6341 6.00002C44.7073 5.78051 44.8537 5.48783 44.9268 5.19515C45.2195 4.02441 45.0732 3.14637 44.9268 2.561C44.8537 2.26832 44.7805 2.0488 44.7073 1.82929C44.6341 1.60978 44.561 1.46344 44.4878 1.39027V1.3171C44.2683 1.02441 44.1951 1.02441 44.0488 1.02441ZM34.5366 13.3171C34.9756 12.2195 35.4146 11.4147 35.8537 10.7561C36 10.6098 36.0732 10.4634 36.2195 10.3171L36.2927 10.2439C36.439 10.0976 36.5122 9.95124 36.6585 9.8049L36.7317 9.73173C36.8049 9.65856 36.878 9.51222 37.0244 9.43905C37.0976 9.36588 37.1707 9.29271 37.2439 9.29271L37.3171 9.21954C37.4634 9.0732 37.6098 9.00002 37.7561 8.92685C37.9024 8.85368 37.9756 8.85368 38.0488 8.85368C38.1219 8.85368 38.1219 8.85368 38.1951 8.92685C38.1951 9.00002 38.2683 9.0732 38.1951 9.14637C38.1951 9.21954 38.1951 9.29271 38.1219 9.43905C38.0488 9.58539 38.0488 9.65856 37.9756 9.8049C37.8293 10.0976 37.6829 10.3903 37.3902 10.8293C36.9512 11.561 36.1463 12.5122 35.1951 13.3171L35.1219 13.3903C34.9756 13.5366 34.8293 13.683 34.6829 13.7561L34.3171 14.0488C34.3171 13.9756 34.3902 13.683 34.5366 13.3171ZM26.561 17.122C26.8537 16.4634 27.3659 15.1464 28.1707 14.1951C28.4634 13.7561 28.8293 13.4634 29.1219 13.1708C29.4146 12.8781 29.6341 12.7317 29.9268 12.5854C30.2195 12.439 30.5854 12.2927 30.8049 12.439C30.878 12.5122 31.0976 12.5854 30.9512 13.0976C30.8049 13.5366 30.439 14.1951 29.7805 15C29.0488 15.9512 27.9512 16.8293 27.2195 17.4878C26.9268 17.7805 26.561 18 26.1951 18.2927C26.2683 17.9269 26.3415 17.561 26.561 17.122ZM18.439 22.3171C18.5122 22.0976 18.5122 21.8781 18.5854 21.6586C18.7317 21.0732 18.878 20.561 19.0244 20.0488C19.2439 19.4634 19.4634 18.8781 19.8293 18.3659C20.122 17.9269 20.4146 17.4878 20.7073 17.0488C20.8537 16.9025 21 16.683 21.1463 16.5366C21.2927 16.3903 21.3659 16.3171 21.5122 16.2439C21.878 15.9512 22.2439 15.8049 22.4634 15.9512C22.6829 16.0244 22.7561 16.3171 22.6098 16.683C22.5366 16.9756 22.4634 17.2683 22.2439 17.6342C22.0244 18.0732 21.8049 18.5122 21.5122 18.9512C21.3659 19.1708 21.2195 19.3903 21 19.683C20.8537 19.9025 20.6341 20.1951 20.4146 20.4147C20.1951 20.6342 20.0488 20.8537 19.8293 21.1464L19.6829 21.2927C19.5366 21.439 19.3902 21.6586 19.2439 21.8049C18.9512 22.0976 18.6585 22.3903 18.439 22.6098L18.2927 22.7561C18.3659 22.6098 18.439 22.4634 18.439 22.3171ZM11.3415 27.2195C11.4146 26.7073 11.4878 26.1951 11.6341 25.6098C11.7805 25.0244 12 24.439 12.2195 23.8537C12.439 23.3415 12.6585 22.9025 12.9512 22.4634C13.1707 22.0244 13.3902 21.7317 13.6098 21.5854L13.6829 21.5122C13.9756 21.2195 14.2683 21.0732 14.4878 21.0732C14.7073 21.1464 14.7805 21.5122 14.7073 21.8049C14.7073 22.0976 14.6341 22.3903 14.4878 22.7561C14.4146 22.9756 14.3415 23.1951 14.2683 23.4147C14.122 23.7073 14.0488 23.9269 13.9756 24.1464C13.4634 25.2439 12.6585 26.4147 12 27.2195C11.7805 27.5854 11.4878 27.8781 11.1951 28.1708C11.1951 27.8781 11.2683 27.5122 11.3415 27.2195ZM4.90244 33.7317C4.97561 33.2927 5.04878 32.7805 5.19512 32.2683C5.34146 31.7561 5.4878 31.1708 5.63415 30.5854C6.21951 28.9025 6.73171 28.0976 7.09756 27.7317C7.2439 27.5854 7.39024 27.5122 7.46341 27.5122C7.68293 27.5122 7.68293 27.8049 7.68293 28.0244C7.68293 28.3903 7.53658 29.0488 7.09756 30.2927C6.87805 30.8049 6.65854 31.3171 6.29268 31.9025C6 32.4147 5.70732 32.9269 5.34146 33.3659C5.12195 33.7317 4.90244 33.9512 4.7561 34.2439C4.82927 34.1708 4.82927 33.9512 4.90244 33.7317ZM0.439024 39.6586C0.439024 39.3659 0.512195 39.0732 0.512195 38.7805C0.585366 38.2683 0.731707 37.7561 0.951219 37.1708C1.09756 36.7317 1.2439 36.3659 1.39024 36.0732C1.60976 35.6342 1.7561 35.4147 1.90244 35.2683L1.97561 35.1951C1.97561 35.2683 1.97561 35.3415 1.97561 35.4878C1.97561 35.7073 1.90244 35.9269 1.82927 36.2927C1.7561 36.6586 1.60976 37.0244 1.39024 37.6098L1.31707 37.9025C1.17073 38.3415 0.951219 38.8537 0.804878 39.3659C0.731707 39.6586 0.658537 40.0244 0.585366 40.3171C0.585366 40.3903 0.585366 40.4634 0.585366 40.4634C0.439024 40.0976 0.439024 39.8781 0.439024 39.6586ZM2.4878 38.561C2.85366 38.1951 3.36585 37.9025 3.80488 37.6098C4.90244 37.0244 5.4878 36.8781 5.78049 36.8781C6 36.8781 6.07317 36.8781 6.14634 36.8781C6.14634 36.9512 6.07317 37.0976 5.41463 37.4634C5.19512 37.6098 4.82927 37.7561 4.46341 37.9756C4.31707 38.0488 4.17073 38.122 3.95122 38.1951C3.73171 38.3415 3.43902 38.4147 3.21951 38.561C2.78049 38.7805 2.34146 39 1.97561 39.2927C1.82927 39.439 1.60976 39.5854 1.46341 39.7317C1.7561 39.2927 2.12195 38.9269 2.4878 38.561ZM10.4634 31.7561C11.7073 31.4634 12.439 31.4634 12.7317 31.5366C12.9512 31.5366 13.2439 31.6829 13.2439 31.9025C13.2439 32.122 13.0244 32.2683 12.5854 32.4878C12.0732 32.7073 11.2683 33 10.2439 33.2195C9.43902 33.439 8.56098 33.5854 7.82927 33.6586C7.60976 33.7317 7.39024 33.7317 7.17073 33.7317C6.95122 33.8049 6.73171 33.8049 6.51219 33.8049C6.73171 33.6586 7.02439 33.439 7.39024 33.2195C7.90244 32.9269 8.41463 32.6342 8.85366 32.3415C9.36585 32.122 9.95122 31.9025 10.4634 31.7561ZM15.7317 26.8537C16.3171 26.7073 16.9024 26.561 17.4146 26.4878C18.6585 26.3415 19.3171 26.4878 19.7561 26.6342C19.9756 26.7073 20.3415 26.9269 20.2683 27.1464C20.2683 27.439 19.9024 27.5854 19.6098 27.7317C19.0976 27.9512 18.3659 28.0976 17.2683 28.1708C16.7561 28.2439 16.1707 28.2439 15.5854 28.1708C15.0732 28.1708 14.561 28.0976 14.0488 28.0244C13.6829 28.0244 13.3902 27.9512 13.1707 27.9512C13.0976 27.9512 13.0976 27.9512 13.0244 27.9512C13.3902 27.7317 13.7561 27.5854 14.122 27.439C14.6341 27.2195 15.1463 27.0732 15.7317 26.8537ZM23.122 22.0244C23.8537 21.8781 24.3659 21.8781 24.8049 21.8781C25.8293 21.8781 26.561 22.0244 27 22.2439C27.3659 22.3903 27.5122 22.6098 27.439 22.8293C27.3659 23.0488 27.1463 23.2683 26.7805 23.4147C26.2683 23.561 25.5366 23.7073 24.5122 23.6342C23.6341 23.6342 22.5366 23.4147 21.2927 23.122C20.8537 22.9756 20.4878 22.9025 20.1951 22.8293C20.4878 22.683 20.9268 22.5366 21.3659 22.4634C21.878 22.3171 22.4634 22.0976 23.122 22.0244ZM32.7073 17.7073C33.2195 17.7073 33.6585 17.7073 34.0976 17.7073C34.4634 17.7073 34.7561 17.7805 34.9756 17.8537C35.4146 18 35.4146 18.1464 35.3415 18.2927C35.3415 18.439 35.1951 18.5122 35.1219 18.6586C34.9756 18.8049 34.7561 18.9512 34.5366 19.0244C34.0976 19.2439 33.2927 19.4634 32.122 19.4634C31.2439 19.4634 30.2195 19.2439 29.0488 18.8781C28.6829 18.7317 28.3171 18.5854 28.0976 18.5122C28.4634 18.439 28.9024 18.2927 29.3415 18.2195C30 18 31.3902 17.7805 32.7073 17.7073ZM38.7805 12.9512C38.9268 12.8781 39.0732 12.8049 39.2195 12.7317C39.3658 12.6586 39.439 12.5854 39.5854 12.5122C39.6585 12.439 39.8049 12.439 39.878 12.3659C40.0244 12.2927 40.2439 12.2195 40.3902 12.0732L40.5366 12C40.9756 11.7805 41.3415 11.561 41.6341 11.3415C41.9268 11.122 42.2195 11.0488 42.3659 10.9025C42.5122 10.8293 42.5854 10.8293 42.5854 10.8293C42.5854 10.8293 42.5854 10.8293 42.5854 10.9025C42.5854 10.9756 42.5854 11.122 42.439 11.3415C42.2927 11.561 42.1463 11.7805 42 12C41.9268 12.1464 41.7805 12.2195 41.6341 12.3659L41.7073 12.5122C41.561 12.6586 41.4146 12.8049 41.2683 12.8781C41.0488 13.0244 40.9024 13.1708 40.6829 13.3171C40.4634 13.4634 40.2439 13.6098 39.9512 13.7561C38.7805 14.3415 37.5366 14.3415 36.9512 14.3415C36.6585 14.3415 36.3659 14.2683 36.0732 14.2683L36.1463 14.1951C36.439 14.0488 36.8049 13.9025 37.1707 13.7561C37.6829 13.5366 38.1951 13.2439 38.7805 12.9512ZM41.2683 8.12198C41.3415 7.53661 41.561 6.65856 42 5.78051C42.3659 5.0488 42.6585 4.39027 42.9512 3.87807C43.0244 3.8049 43.0244 3.73173 43.0976 3.65856C43.0244 3.8049 43.0244 4.02441 42.9512 4.3171C42.878 4.46344 42.878 4.60978 42.8049 4.75612C42.5854 5.63417 42.0732 6.8049 41.6341 7.68295C41.561 7.75612 41.561 7.82929 41.4878 7.90246C41.4146 8.0488 41.3415 8.19515 41.2683 8.26832L41.1951 8.41466C41.1951 8.41466 41.2683 8.26832 41.2683 8.12198ZM44.4146 4.97563C44.3415 5.19515 44.2683 5.48783 44.1951 5.70734C44.1219 5.78051 44.1219 5.92685 44.0488 6.00002C43.9024 6.14637 43.9024 6.29271 43.8293 6.36588C43.6829 6.58539 43.5366 6.73173 43.4634 6.87807C43.3171 7.02441 43.1707 7.17076 43.0244 7.3171C42.9512 7.3171 42.9512 7.39027 42.878 7.39027C43.0244 7.17076 43.1707 6.95124 43.3171 6.73173C43.4634 6.51222 43.5366 6.36588 43.6829 6.14637L43.7561 6.00002C43.8293 5.85368 43.9024 5.63417 43.9756 5.41466C43.9756 5.34149 44.0488 5.26832 44.0488 5.19515C44.1219 5.0488 44.1951 4.90246 44.1951 4.75612L44.3415 4.3171C44.4146 4.09758 44.4146 3.87807 44.4878 3.65856C44.4878 3.58539 44.4878 3.51222 44.4878 3.43905C44.4878 3.36588 44.4878 3.29271 44.4878 3.21954C44.561 3.73173 44.561 4.3171 44.4146 4.97563Z" fill="#B2886B"/>
<path d="M44.4147 27.7317L44.561 31.5366H44.122C44.0488 30.878 43.9025 30.3658 43.7561 30.0732C43.5366 29.6341 43.1708 29.2683 42.8049 29.0488C42.3659 28.8292 41.8537 28.7561 41.1951 28.7561H38.9269V41.1219C38.9269 42.1463 39 42.7317 39.2195 42.9512C39.5122 43.3171 40.0244 43.4634 40.6098 43.4634H41.1951V43.9024H34.3171V43.4634H34.9025C35.561 43.4634 36.0732 43.2439 36.3659 42.878C36.5122 42.6585 36.6586 42.0732 36.6586 41.1219V28.7561H34.683C33.9512 28.7561 33.3659 28.8292 33.0732 28.9024C32.6342 29.0488 32.2683 29.3414 31.9756 29.7805C31.683 30.2195 31.5366 30.8049 31.4634 31.5366H31.0244L31.2439 27.7317H44.4147Z" fill="#BCAFAA"/>
<path d="M4.97572 0.878049V7.2439H7.90255C8.56109 7.2439 9.07328 7.09756 9.36597 6.80488C9.65865 6.51219 9.87816 5.92683 10.0245 5.04878H10.4635V10.5366H10.0245C10.0245 9.87805 9.95133 9.43902 9.80499 9.14634C9.65865 8.85366 9.43914 8.63415 9.14645 8.4878C8.85377 8.34146 8.48792 8.26829 7.90255 8.26829H4.97572V13.3902C4.97572 14.1951 5.04889 14.7805 5.12206 15C5.19524 15.2195 5.34158 15.3659 5.63426 15.5122C6.00011 15.7317 6.36597 15.8049 6.73182 15.8049H7.31719V16.2439H0.365967V15.8049H0.951333C1.60987 15.8049 2.12206 15.5854 2.41475 15.2195C2.63426 15 2.70743 14.3415 2.70743 13.3902V2.85366C2.70743 2.04878 2.63426 1.46341 2.56109 1.2439C2.48792 1.02439 2.34158 0.878049 2.04889 0.731707C1.68304 0.512195 1.31719 0.439024 0.951333 0.439024H0.365967V0H12.4391L12.5855 3.58537H12.1465C11.9269 2.85366 11.7074 2.26829 11.4147 1.90244C11.1221 1.53659 10.8294 1.31707 10.3904 1.09756C10.0245 0.951219 9.36597 0.878049 8.48792 0.878049H4.97572V0.878049Z" fill="#BCAFAA"/>
</g>
<defs>
<clipPath id="clip0_234_43">
<rect width="45" height="43.9756" fill="white"/>
</clipPath>
</defs>
</svg>
