<svg width="17" height="18" viewBox="0 0 17 18" fill="none" xmlns="http://www.w3.org/2000/svg">
<path d="M15.9034 0.963064C15.8161 0.870648 15.7057 0.806662 15.5853 0.77863C15.4649 0.750598 15.3395 0.759686 15.2237 0.804825L0.982928 6.30882C0.860113 6.35833 0.754376 6.44638 0.679762 6.56128C0.605147 6.67618 0.565186 6.81248 0.565186 6.95209C0.565186 7.0917 0.605147 7.22801 0.679762 7.34291C0.754376 7.45781 0.860113 7.54586 0.982928 7.59537L7.1971 10.2373L9.68277 16.8421C9.72947 16.9669 9.80952 17.0744 9.91304 17.1514C10.0166 17.2285 10.139 17.2716 10.2654 17.2755C10.3962 17.2727 10.5231 17.2277 10.6294 17.1467C10.7357 17.0656 10.8164 16.9522 10.8609 16.8214L16.0394 1.68546C16.0835 1.56374 16.0941 1.4312 16.07 1.3033C16.046 1.17539 15.9882 1.0574 15.9034 0.963064ZM10.2654 14.6611L8.45936 9.84513L11.3021 6.82371C11.447 6.6697 11.447 6.42952 11.3021 6.27552L10.9386 5.88918C10.7806 5.7213 10.5139 5.7213 10.3559 5.88917L7.52076 8.90257L3.01548 6.95553L14.3628 2.6005L10.2654 14.6611Z" fill="white"/>
</svg>
