<svg width="220" height="67" viewBox="0 0 220 67" fill="none" xmlns="http://www.w3.org/2000/svg">
<g clip-path="url(#clip0_481_6355)">
<path d="M0.701095 63.5621C0.701095 63.5621 -3.4045 53.0084 7.91093 46.3723C17.2236 40.9356 27.5377 46.5322 31.1426 50.8497C31.443 51.2494 32.2441 51.0096 32.2441 50.6098C31.8436 40.8556 33.3456 8.15515 70.0957 0.959444C108.748 -6.55607 115.357 30.8616 116.058 41.4952C116.058 42.0549 117.06 42.2148 117.36 41.7351C119.763 37.8174 125.672 30.3819 136.486 29.9022C151.206 29.2625 158.717 36.858 161.02 52.2088C161.02 52.2088 162.922 54.0477 165.926 50.1301C168.93 46.2124 184.352 38.0573 199.472 41.0955C214.593 44.1337 218.298 48.2912 219.499 53.1683C220.701 58.0454 224.406 67.8795 181.047 67C137.588 66.0406 1.50219 67.4797 0.701095 63.5621Z" fill="white"/>
<path d="M58.6802 26.864C58.8805 23.8258 61.1836 21.3473 64.0876 19.5084C66.7913 17.8294 72.2988 15.2709 75.8036 15.4308C74.2014 14.7113 72.4991 13.9117 70.8969 13.1922C70.997 13.2721 71.0972 13.432 71.0972 13.512C74.6019 18.6289 84.3152 14.0716 80.9106 8.9547C76.9051 3.11819 63.7872 8.71484 58.8805 11.3533C52.1714 14.9511 47.7653 20.3879 47.2647 26.864C46.9643 32.7005 58.2797 32.6206 58.6802 26.864Z" fill="#EAF7FF"/>
<path d="M14.2197 58.7649C13.9193 60.364 14.3198 58.685 14.3198 58.685C14.4199 58.7649 13.719 59.4845 14.2197 58.8449C14.4199 58.685 14.8205 57.8055 14.2197 58.7649C14.4199 58.5251 14.7204 58.2852 14.9206 58.1253C15.0208 58.0454 15.1209 57.9654 15.221 57.8854C15.5215 57.6456 15.4213 57.7255 14.9206 58.1253C15.0208 57.9654 15.6216 57.8055 15.8219 57.7255C16.3225 57.4857 14.8205 57.8854 15.8219 57.7255C16.2224 57.6456 17.424 57.5656 15.922 57.6456C18.826 57.4057 21.7299 55.7267 21.5296 53.1683C21.4295 50.9296 19.0262 48.4511 15.922 48.6909C12.5174 48.9308 9.51326 49.8902 7.10998 51.8091C4.60657 53.7279 3.50507 56.1265 3.00438 58.8449C2.60384 61.1635 5.90834 63.4821 8.61203 63.3222C11.9165 63.1623 13.8191 61.3234 14.2197 58.7649Z" fill="#EAF7FF"/>
<path d="M137.488 41.4952C137.588 41.4153 137.688 41.3353 137.888 41.1754C137.087 41.5752 136.186 41.975 135.385 42.3747C134.784 42.5346 133.582 42.0549 134.183 42.4547C134.484 42.6945 135.084 42.7745 135.485 42.9344C136.286 43.2542 137.187 43.654 137.888 44.1337C138.089 44.2936 138.589 44.6933 138.589 44.6933C138.389 44.4535 139.09 45.4129 138.79 45.0131C138.89 45.0931 138.99 45.8127 138.89 45.333C138.99 45.0931 138.99 45.0931 138.89 45.4129C138.79 45.6528 138.689 45.8926 138.589 46.1325C137.488 48.3711 139.791 51.0895 142.495 51.6492C145.699 52.3687 148.302 50.7697 149.404 48.531C151.407 44.5334 148.903 39.8162 144.998 37.1778C140.892 34.4594 134.083 31.5012 129.477 35.0991C124.27 39.1766 132.281 45.5728 137.488 41.4952Z" fill="#EAF7FF"/>
<path d="M197.469 53.5681C197.77 53.648 198.17 53.648 198.471 53.728C198.571 53.728 199.472 53.9678 198.771 53.8079C197.97 53.5681 198.972 53.8879 199.172 53.9678C199.272 54.0478 200.273 54.5275 199.572 54.1277C198.972 53.8079 199.672 54.2077 199.773 54.2876C199.873 54.3676 200.474 54.6874 200.474 54.8473C200.474 54.6874 199.873 54.1277 200.273 54.6874C200.474 55.0072 200.674 55.2471 200.874 55.5669C202.176 57.6456 206.181 58.4451 208.585 57.1659C211.288 55.8067 211.989 53.2482 210.587 51.0096C208.585 47.8914 204.679 45.4929 200.373 44.7733C197.469 44.2936 194.165 45.4129 193.464 47.8914C192.963 50.2101 194.365 53.0883 197.469 53.5681Z" fill="#EAF7FF"/>
</g>
<defs>
<clipPath id="clip0_481_6355">
<rect width="220" height="67" fill="white"/>
</clipPath>
</defs>
</svg>
